<svg width="14" height="16" fill="none" xmlns="http://www.w3.org/2000/svg"><path d="M7 8.48a3.854 3.854 0 0 1-3.854-3.854C3.146 2.52 4.849.727 7 .727a3.854 3.854 0 0 1 3.854 3.854C10.854 6.687 9.151 8.48 7 8.48Zm0-6.991a3.146 3.146 0 0 0-3.137 3.137A3.118 3.118 0 0 0 7 7.763a3.118 3.118 0 0 0 3.137-3.137A3.146 3.146 0 0 0 7 1.489Z" fill="#175CFF"/><path d="M13.364 15.068h-.762v-.986A5.604 5.604 0 0 0 7 8.48a5.604 5.604 0 0 0-5.602 5.602v.986H.636v-.986c0-3.496 2.868-6.364 6.364-6.364 3.495 0 6.364 2.868 6.364 6.364v.986Z" fill="#175CFF"/><path d="M13.364 15.068v.5a.5.5 0 0 0 .5-.5h-.5Zm-.762 0h-.5a.5.5 0 0 0 .5.5v-.5Zm-11.204 0v.5a.5.5 0 0 0 .5-.5h-.5Zm-.762 0h-.5a.5.5 0 0 0 .5.5v-.5ZM7 7.98a3.354 3.354 0 0 1-3.354-3.354h-1A4.354 4.354 0 0 0 7 8.98v-1ZM3.646 4.626c0-1.842 1.49-3.399 3.354-3.399v-1c-2.438 0-4.354 2.028-4.354 4.399h1ZM7 1.227a3.354 3.354 0 0 1 3.354 3.354h1A4.354 4.354 0 0 0 7 .227v1Zm3.354 3.354c0 1.842-1.49 3.399-3.354 3.399v1c2.438 0 4.354-2.028 4.354-4.399h-1ZM7 .99c-1.974 0-3.637 1.608-3.637 3.637h1A2.646 2.646 0 0 1 7 1.989v-1ZM3.363 4.626A3.618 3.618 0 0 0 7 8.263v-1a2.618 2.618 0 0 1-2.637-2.637h-1ZM7 8.263a3.618 3.618 0 0 0 3.637-3.637h-1A2.618 2.618 0 0 1 7 7.263v1Zm3.637-3.637C10.637 2.597 8.974.989 7 .989v1a2.646 2.646 0 0 1 2.637 2.637h1Zm2.727 9.942h-.762v1h.762v-1Zm-.262.5v-.986h-1v.986h1Zm0-.986A6.104 6.104 0 0 0 7 7.98v1a5.104 5.104 0 0 1 5.102 5.102h1ZM7 7.98a6.104 6.104 0 0 0-6.102 6.102h1A5.104 5.104 0 0 1 7 8.98v-1ZM.898 14.082v.986h1v-.986h-1Zm.5.486H.636v1h.762v-1Zm-.262.5v-.986h-1v.986h1Zm0-.986c0-3.22 2.645-5.864 5.864-5.864v-1c-3.772 0-6.864 3.092-6.864 6.864h1ZM7 8.218c3.22 0 5.864 2.644 5.864 5.864h1c0-3.772-3.092-6.864-6.864-6.864v1Zm5.864 5.864v.986h1v-.986h-1Z" fill="#175CFF"/></svg>