<svg width="78" height="20" fill="none" xmlns="http://www.w3.org/2000/svg"><path d="M3.545 4a4 4 0 0 1 4-4H74a4 4 0 0 1 4 4v12a4 4 0 0 1-4 4H7.545a4 4 0 0 1-4-4v-3L.902 10.763a1 1 0 0 1 0-1.526L3.545 7V4Z" fill="#DCE7FF"/><path d="m18.73 7-1.28 5.44-1.39-4.7h-1l-1.39 4.7L12.39 7h-1.16l1.85 7h1.12l1.36-4.44L16.92 14h1.12l1.85-7h-1.16Zm3.713 2.8c.75 0 1.13.54 1.22 1.1h-2.45c.11-.63.54-1.1 1.23-1.1Zm2.32 1.52c0-1.13-.71-2.44-2.32-2.44-1.66 0-2.35 1.4-2.35 2.6 0 1.2.69 2.6 2.35 2.6 1.15 0 1.72-.47 2.21-1.42l-.89-.35c-.26.55-.78.85-1.32.85-.82 0-1.25-.65-1.25-1.39h3.57v-.45Zm.896-2.18h.78l1.39-2.22H26.4l-.74 2.22ZM30.274 14v-1.87c0-1.59.69-2.33 1.36-2.33.21 0 .43.05.59.15l.18-.95c-.15-.06-.37-.12-.64-.12-.54 0-1.14.32-1.49.92v-.84h-1.04V14h1.04Zm5.003-4.2c.75 0 1.13.54 1.22 1.1h-2.45c.11-.63.54-1.1 1.23-1.1Zm2.32 1.52c0-1.13-.71-2.44-2.32-2.44-1.66 0-2.35 1.4-2.35 2.6 0 1.2.69 2.6 2.35 2.6 1.15 0 1.72-.47 2.21-1.42l-.89-.35c-.26.55-.78.85-1.32.85-.82 0-1.25-.65-1.25-1.39h3.57v-.45Zm3.864-4.4V14h1.04v-2.13c0-1.34.79-2.07 1.36-2.07.47 0 .79.15.79.92V14h1.04v-3.55c0-1.07-.56-1.57-1.49-1.57-.76 0-1.34.42-1.7.94v-2.9h-1.04Zm5.365.62c0 .4.31.71.72.71s.72-.31.72-.71a.72.72 0 1 0-1.44 0Zm.2 1.42V14h1.04V8.96h-1.04ZM50.449 14v-1.87c0-1.59.69-2.33 1.36-2.33.21 0 .43.05.59.15l.18-.95c-.15-.06-.37-.12-.64-.12-.54 0-1.14.32-1.49.92v-.84h-1.04V14h1.04Zm2.84-6.46c0 .4.31.71.72.71s.72-.31.72-.71a.72.72 0 1 0-1.44 0Zm.2 1.42V14h1.04V8.96h-1.04Zm2.385 0V14h1.04v-2.04c0-1.39.64-2.16 1.29-2.16.47 0 .78.24.78.92V14h1.04v-3.61c0-.98-.6-1.51-1.48-1.51-.67 0-1.27.34-1.63.94v-.86h-1.04Zm5.586 1.61c0 .43.12.79.34 1.06-.37.21-.61.57-.61 1.02 0 .35.11.61.29.79-.26.24-.43.59-.43 1.02 0 1.1.95 1.66 2.22 1.66 1.13 0 2.21-.49 2.21-1.74 0-.95-.68-1.44-1.67-1.44H62.7c-.35 0-.52-.12-.52-.39 0-.19.09-.34.27-.44.23.09.51.15.81.15 1.02 0 1.81-.63 1.81-1.69 0-.32-.08-.6-.22-.84l.68-.38-.42-.75-.93.5c-.27-.14-.58-.22-.92-.22-1.02 0-1.8.64-1.8 1.69Zm2.13 3.25c.49 0 .83.16.83.64 0 .49-.43.76-1.15.76-.77 0-1.22-.32-1.22-.82 0-.26.07-.45.22-.61.16.02.33.03.51.03h.81Zm-1.12-3.25c0-.5.33-.82.79-.82.47 0 .8.32.8.82 0 .5-.33.82-.8.82-.46 0-.79-.32-.79-.82ZM66.767 7l.27 4.79h.88l.27-4.79h-1.42Zm-.05 6.29c0 .43.32.75.76.75s.76-.32.76-.75-.32-.75-.76-.75-.76.32-.76.75Z" fill="#175CFF"/></svg>