<svg width="18" height="18" viewBox="0 0 18 18" fill="none" xmlns="http://www.w3.org/2000/svg">
<g clip-path="url(#clip0_4944_32109)">
<path fill-rule="evenodd" clip-rule="evenodd" d="M9 1.28571C4.73952 1.28571 1.28571 4.73952 1.28571 9C1.28571 13.2605 4.73952 16.7143 9 16.7143C13.2605 16.7143 16.7143 13.2605 16.7143 9C16.7143 4.73952 13.2605 1.28571 9 1.28571ZM0 9C0 4.02944 4.02944 0 9 0C13.9706 0 18 4.02944 18 9C18 13.9706 13.9706 18 9 18C4.02944 18 0 13.9706 0 9Z" fill="white"/>
<path fill-rule="evenodd" clip-rule="evenodd" d="M10.2854 0.0900879C10.6405 0.0900879 10.9283 0.377905 10.9283 0.732945V3.5358C10.9283 4.30304 10.6235 5.03885 10.081 5.58136C9.53848 6.12388 8.80267 6.42866 8.03543 6.42866C7.60919 6.42866 7.20041 6.59798 6.89901 6.89938C6.59762 7.20078 6.42829 7.60956 6.42829 8.0358V9.96437C6.42829 10.7316 6.12351 11.4674 5.58099 12.0099C5.03848 12.5524 4.30267 12.8572 3.53543 12.8572H1.28544C0.930395 12.8572 0.642578 12.5694 0.642578 12.2144C0.642578 11.8593 0.930395 11.5715 1.28544 11.5715H3.53543C3.96168 11.5715 4.37046 11.4022 4.67186 11.1008C4.97325 10.7994 5.14258 10.3906 5.14258 9.96437V8.0358C5.14258 7.26857 5.44736 6.53276 5.98988 5.99024C6.53239 5.44773 7.2682 5.14294 8.03543 5.14294C8.46168 5.14294 8.87046 4.97362 9.17185 4.67222C9.47325 4.37083 9.64258 3.96204 9.64258 3.5358V0.732945C9.64258 0.377905 9.93039 0.0900879 10.2854 0.0900879Z" fill="white"/>
<path fill-rule="evenodd" clip-rule="evenodd" d="M10.4899 8.56165C11.0324 8.01914 11.7682 7.71436 12.5354 7.71436H15.2775C16.1046 7.71891 16.9188 7.91995 17.6529 8.30088C17.9681 8.4644 18.091 8.85243 17.9275 9.16758C17.764 9.48272 17.3759 9.60563 17.0608 9.44211C16.508 9.15527 15.895 9.00377 15.2722 9.00007H12.5354C12.1092 9.00007 11.7004 9.16939 11.399 9.47079C11.0976 9.77219 10.9283 10.181 10.9283 10.6072C10.9283 11.0335 11.0976 11.4422 11.399 11.7436C11.7004 12.045 12.1092 12.2144 12.5354 12.2144C13.1322 12.2144 13.7045 12.4514 14.1264 12.8734C14.5484 13.2953 14.7854 13.8676 14.7854 14.4644V15.5829C14.7854 15.938 14.4976 16.2258 14.1426 16.2258C13.7875 16.2258 13.4997 15.938 13.4997 15.5829V14.4644C13.4997 14.2086 13.3981 13.9633 13.2173 13.7825C13.0365 13.6017 12.7912 13.5001 12.5354 13.5001C11.7682 13.5001 11.0324 13.1953 10.4899 12.6528C9.94736 12.1103 9.64258 11.3744 9.64258 10.6072C9.64258 9.83998 9.94736 9.10417 10.4899 8.56165Z" fill="white"/>
</g>
<defs>
<clipPath id="clip0_4944_32109">
<rect width="18" height="18" fill="white"/>
</clipPath>
</defs>
</svg>
