<svg width="18" height="18" viewBox="0 0 18 18" fill="none" xmlns="http://www.w3.org/2000/svg">
<path fill-rule="evenodd" clip-rule="evenodd" d="M0 3.21418C0 2.5041 0.575634 1.92847 1.28571 1.92847C1.99579 1.92847 2.57143 2.5041 2.57143 3.21418C2.57143 3.92426 1.99579 4.4999 1.28571 4.4999C0.575634 4.4999 0 3.92426 0 3.21418Z" fill="white"/>
<path fill-rule="evenodd" clip-rule="evenodd" d="M5.14258 3.21415C5.14258 2.85911 5.4304 2.57129 5.78544 2.57129H17.3569C17.7119 2.57129 17.9997 2.85911 17.9997 3.21415C17.9997 3.56919 17.7119 3.857 17.3569 3.857H5.78544C5.4304 3.857 5.14258 3.56919 5.14258 3.21415Z" fill="white"/>
<path fill-rule="evenodd" clip-rule="evenodd" d="M0 8.99983C0 8.28975 0.575634 7.71411 1.28571 7.71411C1.99579 7.71411 2.57143 8.28975 2.57143 8.99983C2.57143 9.70991 1.99579 10.2855 1.28571 10.2855C0.575634 10.2855 0 9.70991 0 8.99983Z" fill="white"/>
<path fill-rule="evenodd" clip-rule="evenodd" d="M5.14258 8.99979C5.14258 8.64475 5.4304 8.35693 5.78544 8.35693H17.3569C17.7119 8.35693 17.9997 8.64475 17.9997 8.99979C17.9997 9.35483 17.7119 9.64265 17.3569 9.64265H5.78544C5.4304 9.64265 5.14258 9.35483 5.14258 8.99979Z" fill="white"/>
<path fill-rule="evenodd" clip-rule="evenodd" d="M0 14.7857C0 14.0756 0.575634 13.5 1.28571 13.5C1.99579 13.5 2.57143 14.0756 2.57143 14.7857C2.57143 15.4958 1.99579 16.0714 1.28571 16.0714C0.575634 16.0714 0 15.4958 0 14.7857Z" fill="white"/>
<path fill-rule="evenodd" clip-rule="evenodd" d="M5.14258 14.7857C5.14258 14.4306 5.4304 14.1428 5.78544 14.1428H17.3569C17.7119 14.1428 17.9997 14.4306 17.9997 14.7857C17.9997 15.1407 17.7119 15.4285 17.3569 15.4285H5.78544C5.4304 15.4285 5.14258 15.1407 5.14258 14.7857Z" fill="white"/>
</svg>
