<svg width="10" height="14" viewBox="0 0 10 14" fill="none" xmlns="http://www.w3.org/2000/svg">
    <path fill-rule="evenodd" clip-rule="evenodd" d="M5 1C3.93913 1 2.92172 1.42143 2.17157 2.17157C1.42143 2.92172 1 3.93913 1 5C1 5.50538 1.23839 6.26231 1.65706 7.16898C2.0669 8.0565 2.61769 9.02184 3.1749 9.9202C3.73106 10.8169 4.28804 11.6379 4.70642 12.2352C4.81442 12.3894 4.91309 12.5286 5 12.6501C5.08691 12.5286 5.18558 12.3894 5.29358 12.2352C5.71196 11.6379 6.26894 10.8169 6.8251 9.9202C7.38231 9.02184 7.9331 8.0565 8.34294 7.16898C8.76161 6.26231 9 5.50538 9 5C9 3.93913 8.57857 2.92172 7.82843 2.17157C7.07828 1.42143 6.06087 1 5 1ZM5 13.5C4.59976 13.7997 4.59971 13.7996 4.59965 13.7995L4.59603 13.7947L4.5859 13.7811L4.54726 13.7289C4.51362 13.6834 4.46455 13.6166 4.40226 13.531C4.27771 13.3597 4.10018 13.1128 3.88733 12.8089C3.46196 12.2015 2.89394 11.3644 2.3251 10.4473C1.75731 9.53191 1.1831 8.52788 0.749186 7.58821C0.324111 6.66769 0 5.73962 0 5C3.79302e-08 3.67392 0.526784 2.40215 1.46447 1.46447C2.40215 0.526784 3.67392 0 5 0C6.32608 0 7.59785 0.526784 8.53553 1.46447C9.47322 2.40215 10 3.67392 10 5C10 5.73962 9.67589 6.66769 9.25081 7.58821C8.8169 8.52788 8.24269 9.53191 7.6749 10.4473C7.10606 11.3644 6.53804 12.2015 6.11267 12.8089C5.89982 13.1128 5.72229 13.3597 5.59774 13.531C5.53545 13.6166 5.48638 13.6834 5.45274 13.7289L5.4141 13.7811L5.40397 13.7947L5.40056 13.7992C5.4005 13.7993 5.40024 13.7997 5 13.5ZM5 13.5L5.40056 13.7992C5.30615 13.9253 5.15752 14 5 14C4.84248 14 4.69406 13.9256 4.59965 13.7995L5 13.5Z" fill="currentColor" />
    <path fill-rule="evenodd" clip-rule="evenodd" d="M5 4C4.44772 4 4 4.44772 4 5C4 5.55228 4.44772 6 5 6C5.55228 6 6 5.55228 6 5C6 4.44772 5.55228 4 5 4ZM3 5C3 3.89543 3.89543 3 5 3C6.10457 3 7 3.89543 7 5C7 6.10457 6.10457 7 5 7C3.89543 7 3 6.10457 3 5Z" fill="currentColor" />
</svg>