<svg fill="currentColor" xmlns="http://www.w3.org/2000/svg" viewBox="0 0 161 27" preserveAspectRatio="xMinYMin slice"><path d="M13.423 14.996 18.24 3.36c4.521 0 7.587 4.81 5.806 9.072L19.212 24c-4.522 0-7.57-4.741-5.79-9.004ZM30.691 14.996l1.54-3.686c1.13-2.701 3.72-4.453 6.587-4.453h3.743c.515 0 .86.54.658 1.024L36.48 24c-4.52 0-7.569-4.742-5.788-9.004Z" fill="#175CFF" fill-opacity=".65"/><path d="M19.212 24 11.043 4.453C9.914 1.75 7.324 0 4.46 0H.717C.203 0-.143.54.06 1.024l7.74 18.523C8.93 22.248 11.52 24 14.384 24h4.828ZM36.48 24 29.746 7.882c-1.13-2.702-3.72-4.522-6.586-4.522h-4.92l6.736 16.187C26.105 22.248 28.695 24 31.56 24h4.92Z" fill="#175CFF"/></svg>