<svg width="16" height="16" viewBox="0 0 16 16" fill="none" xmlns="http://www.w3.org/2000/svg">
<path d="M6.5455 0.727295C8.08858 0.727295 9.56846 1.34028 10.6596 2.4314C11.7507 3.52252 12.3637 5.0024 12.3637 6.54548C12.3653 7.83759 11.9324 9.09272 11.1346 10.1091L15.0619 14.0291C15.13 14.0967 15.1841 14.1772 15.2211 14.2658C15.258 14.3544 15.277 14.4495 15.277 14.5455C15.277 14.6415 15.258 14.7365 15.2211 14.8252C15.1841 14.9138 15.13 14.9942 15.0619 15.0618C14.9943 15.13 14.9138 15.1841 14.8252 15.221C14.7366 15.258 14.6415 15.277 14.5455 15.277C14.4495 15.277 14.3544 15.258 14.2658 15.221C14.1772 15.1841 14.0967 15.13 14.0291 15.0618L10.1091 11.1346C9.09274 11.9324 7.83762 12.3653 6.5455 12.3637C5.00243 12.3637 3.52255 11.7507 2.43143 10.6596C1.34031 9.56843 0.727321 8.08855 0.727321 6.54548C0.727321 5.0024 1.34031 3.52252 2.43143 2.4314C3.52255 1.34028 5.00243 0.727295 6.5455 0.727295ZM6.5455 10.9091C7.40855 10.9091 8.25221 10.6532 8.96981 10.1737C9.68741 9.69423 10.2467 9.01272 10.577 8.21537C10.9073 7.41802 10.9937 6.54064 10.8253 5.69417C10.6569 4.84771 10.2413 4.07019 9.63106 3.45992C9.02079 2.84965 8.24327 2.43406 7.39681 2.26569C6.55034 2.09731 5.67296 2.18373 4.87561 2.514C4.07826 2.84428 3.39675 3.40357 2.91727 4.12117C2.43779 4.83877 2.18187 5.68243 2.18187 6.54548C2.18187 7.70279 2.6416 8.81269 3.45995 9.63103C4.27829 10.4494 5.38819 10.9091 6.5455 10.9091Z" fill="#175CFF"/>
<path d="M9.45461 6.54556H8.00006C8.00006 6.1598 7.84681 5.78983 7.57403 5.51705C7.30125 5.24427 6.93128 5.09102 6.54551 5.09102V3.63647C7.31705 3.63647 8.05699 3.94297 8.60255 4.48853C9.14811 5.03409 9.45461 5.77403 9.45461 6.54556Z" fill="#175CFF"/>
</svg>
