<svg width="44" height="44" viewBox="0 0 44 44" fill="none" xmlns="http://www.w3.org/2000/svg">
<path fill-rule="evenodd" clip-rule="evenodd" d="M20.7417 43.37C20.7417 43.37 20.742 43.3704 21.9999 42.4286C23.2578 43.3704 23.2588 43.3691 23.2588 43.3691C22.9621 43.7654 22.495 44 21.9999 44C21.5049 44 21.0384 43.7662 20.7417 43.37ZM20.7417 43.37L21.9999 42.4286L23.2588 43.3691L23.2696 43.3547L23.3014 43.312L23.4228 43.1481C23.5286 43.0049 23.6828 42.7951 23.8785 42.5259C24.27 41.9876 24.8279 41.2116 25.4969 40.2564C26.8338 38.3476 28.619 35.7167 30.4068 32.8344C32.1912 29.9574 33.9959 26.8019 35.3596 23.8487C36.6956 20.9556 37.7142 18.0388 37.7142 15.7143C37.7142 11.5466 36.0586 7.54961 33.1116 4.60261C30.1646 1.65561 26.1676 0 21.9999 0C17.8322 0 13.8353 1.65561 10.8883 4.60261C7.94125 7.54961 6.28564 11.5466 6.28564 15.7143C6.28564 18.0388 7.30428 20.9556 8.64023 23.8487C10.004 26.8019 11.8086 29.9574 13.5931 32.8344C15.3809 35.7167 17.1661 38.3476 18.503 40.2564C19.1719 41.2116 19.7299 41.9876 20.1213 42.5259C20.3171 42.7951 20.4713 43.0049 20.577 43.1481L20.6985 43.312L20.7303 43.3547L20.7417 43.37ZM18.8574 15.7141C18.8574 13.9784 20.2645 12.5713 22.0003 12.5713C23.736 12.5713 25.1431 13.9784 25.1431 15.7141C25.1431 17.4499 23.736 18.857 22.0003 18.857C20.2645 18.857 18.8574 17.4499 18.8574 15.7141Z" fill="#FFCCAC"/>
<g clip-path="url(#clip0_2735_13198)">
<path fill-rule="evenodd" clip-rule="evenodd" d="M21.9999 3.14286C18.6658 3.14286 15.4682 4.46734 13.1106 6.82494C10.753 9.18254 9.4285 12.3801 9.4285 15.7143C9.4285 17.3026 10.1777 19.6816 11.4936 22.5311C12.7816 25.3204 14.5127 28.3544 16.2639 31.1778C18.0118 33.9958 19.7624 36.5761 21.0772 38.4535C21.4167 38.9381 21.7268 39.3755 21.9999 39.7575C22.2731 39.3755 22.5832 38.9381 22.9226 38.4535C24.2375 36.5761 25.988 33.9958 27.736 31.1778C29.4872 28.3544 31.2183 25.3204 32.5063 22.5311C33.8221 19.6816 34.5714 17.3026 34.5714 15.7143C34.5714 12.3801 33.2469 9.18254 30.8893 6.82494C28.5317 4.46734 25.3341 3.14286 21.9999 3.14286ZM21.9999 42.4286C20.742 43.3704 20.7419 43.3702 20.7417 43.37L20.7303 43.3547L20.6985 43.312L20.577 43.1481C20.4713 43.0049 20.3171 42.7951 20.1213 42.5259C19.7299 41.9876 19.1719 41.2116 18.503 40.2564C17.1661 38.3476 15.3809 35.7167 13.5931 32.8344C11.8086 29.9574 10.004 26.8019 8.64023 23.8487C7.30428 20.9556 6.28564 18.0388 6.28564 15.7143C6.28564 11.5466 7.94125 7.54961 10.8883 4.60261C13.8353 1.65561 17.8322 0 21.9999 0C26.1676 0 30.1646 1.65561 33.1116 4.60261C36.0586 7.54961 37.7142 11.5466 37.7142 15.7143C37.7142 18.0388 36.6956 20.9556 35.3596 23.8487C33.9959 26.8019 32.1912 29.9574 30.4068 32.8344C28.619 35.7167 26.8338 38.3476 25.4969 40.2564C24.8279 41.2116 24.27 41.9876 23.8785 42.5259C23.6828 42.7951 23.5286 43.0049 23.4228 43.1481L23.3014 43.312L23.2696 43.3547L23.2588 43.3691C23.2586 43.3693 23.2578 43.3704 21.9999 42.4286ZM21.9999 42.4286L23.2588 43.3691C22.9621 43.7654 22.495 44 21.9999 44C21.5049 44 21.0384 43.7662 20.7417 43.37L21.9999 42.4286Z" fill="#FF8030"/>
<path fill-rule="evenodd" clip-rule="evenodd" d="M22.0001 12.5716C20.2643 12.5716 18.8572 13.9787 18.8572 15.7144C18.8572 17.4502 20.2643 18.8573 22.0001 18.8573C23.7358 18.8573 25.1429 17.4502 25.1429 15.7144C25.1429 13.9787 23.7358 12.5716 22.0001 12.5716ZM15.7144 15.7144C15.7144 12.2429 18.5286 9.42871 22.0001 9.42871C25.4716 9.42871 28.2858 12.2429 28.2858 15.7144C28.2858 19.1859 25.4716 22.0001 22.0001 22.0001C18.5286 22.0001 15.7144 19.1859 15.7144 15.7144Z" fill="#FF8030"/>
</g>
<defs>
<clipPath id="clip0_2735_13198">
<rect width="44" height="44" fill="white"/>
</clipPath>
</defs>
</svg>
