<?xml version="1.0" standalone="no"?>
<!DOCTYPE svg PUBLIC "-//W3C//DTD SVG 20010904//EN"
 "http://www.w3.org/TR/2001/REC-SVG-20010904/DTD/svg10.dtd">
<svg version="1.0" xmlns="http://www.w3.org/2000/svg"
 width="256.000000pt" height="256.000000pt" viewBox="0 0 256.000000 256.000000"
 preserveAspectRatio="xMidYMid meet">
<metadata>
Created by potrace 1.14, written by Peter Selinger 2001-2017
</metadata>
<g transform="translate(0.000000,256.000000) scale(0.100000,-0.100000)"
fill="#000000" stroke="none">
<path d="M10 1985 c-7 -8 -10 -25 -7 -37 12 -57 472 -1138 503 -1185 44 -65
106 -116 181 -150 55 -25 68 -27 253 -31 l195 -4 15 38 c8 22 15 44 15 49 0 6
6 16 13 23 7 8 10 18 7 23 -4 5 -2 9 3 9 9 0 39 79 34 93 -1 4 3 7 9 7 5 0 8
4 5 9 -4 5 -1 11 4 13 6 2 12 13 13 26 0 12 5 22 10 22 4 0 5 4 2 10 -3 5 -1
10 5 10 7 0 10 6 7 14 -3 8 -3 16 1 18 12 5 72 150 66 159 -3 5 1 9 8 9 9 0
36 -54 68 -132 29 -73 68 -158 86 -189 39 -65 104 -128 162 -158 87 -44 118
-49 307 -51 l182 -1 20 53 c15 37 18 57 10 66 -7 9 -6 11 5 7 9 -4 18 1 21 9
6 15 -4 21 -26 17 -5 -1 0 9 10 23 10 13 20 22 22 20 2 -2 -2 -10 -9 -19 -10
-12 -10 -15 4 -15 15 0 20 13 19 47 -1 7 3 10 8 7 5 -3 9 4 9 15 0 11 5 23 10
26 16 10 1 25 -18 19 -14 -5 -14 -4 -3 4 8 6 20 8 28 5 8 -3 13 -2 12 3 -2 8
8 35 46 119 18 41 29 78 27 88 -1 4 3 7 9 7 5 0 7 5 4 10 -3 6 -2 10 2 10 11
0 34 60 27 71 -3 5 -1 9 4 9 5 0 14 11 20 25 7 15 8 25 2 25 -6 0 -1 9 10 20
19 19 25 38 21 69 -2 7 2 10 8 7 5 -4 12 2 15 11 8 24 3 39 -9 35 -5 -2 -6 0
-2 5 5 4 13 8 18 8 5 0 8 3 7 6 -2 4 5 16 16 28 10 11 16 27 13 35 -3 8 1 17
9 20 20 8 17 26 -3 20 -14 -4 -13 -2 2 7 28 17 27 16 30 43 2 14 -2 30 -9 35
-16 14 -96 20 -96 9 0 -5 -5 -6 -11 -2 -9 5 -145 9 -159 4 -5 -2 -51 -7 -89
-9 -15 -1 -21 -6 -18 -15 4 -10 -2 -12 -23 -10 -16 2 -32 -1 -35 -6 -4 -6 -11
-8 -16 -5 -13 8 -11 -9 2 -22 8 -8 8 -13 0 -18 -6 -3 -10 -1 -9 6 2 6 -3 14
-9 16 -7 3 -13 0 -13 -7 0 -6 -5 -8 -12 -4 -7 5 -9 2 -5 -9 4 -11 2 -14 -8
-11 -8 3 -20 -4 -27 -15 -7 -12 -17 -21 -21 -21 -12 0 -46 -42 -47 -57 0 -7
-4 -13 -9 -13 -9 0 -27 -40 -22 -49 2 -2 -3 -7 -9 -11 -7 -4 -9 -13 -6 -19 4
-6 11 -9 16 -6 4 3 5 -5 2 -17 -5 -19 -7 -20 -10 -5 -2 9 -7 17 -12 17 -14 0
-19 -27 -7 -39 9 -9 8 -11 -5 -6 -9 4 -21 19 -26 33 -5 15 -37 93 -71 173 -54
128 -68 153 -120 207 -33 33 -78 70 -102 82 -93 48 -134 53 -414 51 l-80 -1
-11 -35 c-6 -19 -8 -32 -5 -30 4 2 7 -5 7 -15 0 -15 -3 -17 -15 -7 -12 10 -14
8 -9 -11 4 -12 3 -20 -2 -17 -4 3 -11 -5 -15 -18 -10 -30 -12 -36 -15 -42 -1
-3 -3 -8 -4 -12 -1 -5 -7 -18 -14 -29 -6 -12 -8 -24 -5 -28 3 -3 2 -6 -4 -6
-15 0 -23 -38 -9 -44 6 -2 4 -5 -5 -5 -16 -1 -84 -160 -82 -193 0 -10 -4 -15
-8 -12 -5 3 -13 -4 -17 -16 -6 -17 -26 22 -96 192 -130 313 -150 350 -216 411
-103 96 -170 116 -381 117 -118 0 -149 -3 -159 -15z m1081 -268 c-10 -9 -11
-8 -5 6 3 10 9 15 12 12 3 -3 0 -11 -7 -18z m-3 -64 c-12 -15 -22 -18 -14 -4
4 5 0 11 -6 14 -7 3 -3 4 9 4 17 -1 19 -4 11 -14z m-34 -11 c3 -5 -1 -9 -9 -9
-8 0 -15 4 -15 9 0 4 4 8 9 8 6 0 12 -4 15 -8z m36 -21 c0 -5 -8 -15 -17 -22
-16 -12 -17 -12 -6 2 7 9 10 19 6 22 -3 4 -1 7 5 7 7 0 12 -4 12 -9z m47 -33
c-3 -8 -6 -5 -6 6 -1 11 2 17 5 13 3 -3 4 -12 1 -19z m-86 -5 c13 -16 12 -17
-3 -5 -9 8 -23 10 -29 6 -8 -4 -9 -3 -5 4 10 17 21 15 37 -5z m1371 -15 c-13
-13 -64 -20 -56 -7 2 4 13 6 24 4 11 -2 22 0 25 6 4 5 9 9 13 9 3 0 1 -5 -6
-12z m-1398 -14 c3 -8 2 -12 -4 -9 -6 3 -10 10 -10 16 0 14 7 11 14 -7z m101
-14 c2 -12 1 -20 -2 -16 -4 4 -8 16 -10 28 -4 28 6 18 12 -12z m41 18 c3 -4
-1 -5 -10 -4 -8 1 -18 5 -22 8 -3 4 1 5 10 4 8 -1 18 -5 22 -8z m1083 9 c-2
-1 -13 -9 -24 -17 -19 -14 -19 -14 -6 3 7 9 18 17 24 17 6 0 8 -1 6 -3z m75
-20 c1 -8 8 -23 16 -33 14 -17 13 -18 -1 -7 -9 7 -18 11 -20 9 -2 -3 -5 9 -5
25 -2 30 6 34 10 6z m122 8 c-1 -8 -5 -17 -8 -21 -5 -4 -4 16 1 34 3 9 9 -1 7
-13z m-191 -15 c-4 -6 -1 -19 6 -28 10 -13 8 -12 -9 2 -17 15 -19 22 -10 28
17 10 20 10 13 -2z m40 0 c3 -6 -1 -7 -9 -4 -18 7 -21 14 -7 14 6 0 13 -4 16
-10z m199 -5 c-4 -8 -9 -15 -13 -16 -3 0 -17 -2 -31 -5 -18 -3 -21 -2 -10 5 8
5 17 8 21 5 4 -2 12 3 19 11 16 19 21 19 14 0z m46 5 c8 -5 11 -10 5 -10 -5 0
-17 5 -25 10 -8 5 -10 10 -5 10 6 0 17 -5 25 -10z m-123 -6 c-3 -3 -12 -4 -19
-1 -8 3 -5 6 6 6 11 1 17 -2 13 -5z m-1373 -13 c-2 -2 2 -11 9 -20 11 -14 10
-15 -7 -1 -10 8 -25 15 -33 16 -28 4 -24 12 6 10 16 0 28 -3 25 -5z m127 -18
c13 -16 12 -17 -3 -5 -9 8 -23 10 -29 6 -8 -4 -9 -3 -5 4 10 17 21 15 37 -5z
m1020 -20 c8 -9 9 -14 2 -10 -6 4 -13 1 -16 -5 -3 -7 -4 -3 -4 10 1 26 1 26
18 5z m186 -5 c-3 -8 -6 -5 -6 6 -1 11 2 17 5 13 3 -3 4 -12 1 -19z m29 7 c-1
-8 -8 -21 -16 -28 -10 -10 -11 -9 -4 3 5 8 9 18 10 23 3 14 4 17 8 17 2 0 3
-7 2 -15z m-1419 -12 c0 -9 -4 -10 -14 -2 -7 6 -13 12 -13 14 0 1 6 2 13 2 8
0 14 -6 14 -14z m1247 9 c3 -5 -1 -9 -9 -9 -8 0 -15 4 -15 9 0 4 4 8 9 8 6 0
12 -4 15 -8z m-1147 -18 c-3 -3 -12 -4 -19 -1 -8 3 -5 6 6 6 11 1 17 -2 13 -5z
m1052 -10 c11 7 8 -20 -4 -31 -4 -5 -5 -2 0 6 6 11 4 13 -11 7 -10 -4 -15 -4
-11 0 4 4 1 14 -6 23 -10 14 -10 14 5 3 9 -8 21 -11 27 -8z m351 -4 c-5 -10
-6 -21 -2 -26 4 -5 0 -3 -9 4 -9 6 -18 10 -21 7 -2 -3 -5 2 -5 10 0 12 3 12
16 2 12 -10 14 -9 9 4 -4 9 -1 16 7 16 10 0 11 -5 5 -17z m-1303 -5 c0 -8 -3
-13 -5 -10 -3 3 -12 -1 -21 -7 -10 -8 -9 -4 3 10 23 26 23 26 23 7z m1020 0
c0 -8 -4 -15 -9 -15 -10 0 -11 14 -1 23 9 10 10 9 10 -8z m220 -4 c-1 -15 -4
-17 -14 -9 -15 12 -17 22 -3 13 6 -3 10 -1 10 4 0 6 2 11 4 11 3 0 4 -9 3 -19z
m-1371 -3 c3 -4 -1 -5 -10 -4 -8 1 -18 5 -22 8 -3 4 1 5 10 4 8 -1 18 -5 22
-8z m954 2 c0 -5 -2 -10 -4 -10 -3 0 -8 5 -11 10 -3 6 -1 10 4 10 6 0 11 -4
11 -10z m306 -3 c4 -3 -4 -4 -16 -2 -30 6 -40 16 -12 12 12 -2 24 -6 28 -10z
m73 -2 c3 -3 -7 -4 -23 -1 -16 3 -31 8 -35 11 -3 3 7 4 23 1 16 -3 31 -8 35
-11z m-346 -8 c3 -8 -1 -14 -8 -14 -7 0 -11 6 -8 14 3 7 6 13 8 13 2 0 5 -6 8
-13z m-1016 -29 c0 -13 -1 -17 -4 -10 -3 6 -10 9 -16 5 -7 -4 -6 1 2 10 17 21
17 21 18 -5z m42 8 c9 -10 8 -15 -2 -19 -8 -3 -13 3 -13 14 0 23 0 23 15 5z
m118 -5 c-1 -15 -4 -17 -14 -9 -15 12 -17 22 -3 13 6 -3 10 -1 10 4 0 6 2 11
4 11 3 0 4 -9 3 -19z m933 4 c0 -1 -6 -7 -13 -13 -10 -8 -13 -6 -13 7 0 11 6
17 13 14 7 -3 13 -6 13 -8z m337 -7 c-3 -8 -6 -5 -6 6 -1 11 2 17 5 13 3 -3 4
-12 1 -19z m-1477 2 c-8 -5 -19 -10 -25 -10 -5 0 -3 5 5 10 8 5 20 10 25 10 6
0 3 -5 -5 -10z m170 -2 c0 -3 -9 -6 -20 -5 -11 1 -20 5 -20 9 0 3 9 6 20 5 11
-1 20 -5 20 -9z m1015 2 c3 -5 1 -10 -4 -10 -6 0 -11 5 -11 10 0 6 2 10 4 10
3 0 8 -4 11 -10z m102 -4 c0 -8 -6 -12 -15 -9 -11 5 -11 7 0 14 7 5 13 9 14 9
0 0 1 -6 1 -14z m80 -8 c-3 -8 -6 -5 -6 6 -1 11 2 17 5 13 3 -3 4 -12 1 -19z
m-139 -1 c8 -10 6 -13 -7 -13 -11 0 -17 6 -14 13 3 7 6 13 8 13 1 0 7 -6 13
-13z m-1268 -1 c0 -2 -8 -10 -17 -17 -16 -13 -17 -12 -4 4 13 16 21 21 21 13z
m67 -37 c-1 -10 -5 -19 -10 -19 -5 0 -6 7 -3 16 4 9 1 24 -6 33 -11 14 -11 14
4 3 9 -7 16 -22 15 -33z m194 18 c-10 -9 -11 -8 -5 6 3 10 9 15 12 12 3 -3 0
-11 -7 -18z m1044 4 c3 -5 2 -12 -3 -15 -5 -3 -9 1 -9 9 0 17 3 19 12 6z m146
-8 c13 -16 12 -17 -3 -4 -10 7 -18 15 -18 17 0 8 8 3 21 -13z m-1306 -3 c3 -5
1 -10 -4 -10 -6 0 -11 5 -11 10 0 6 2 10 4 10 3 0 8 -4 11 -10z m885 0 c0 -5
-4 -10 -10 -10 -5 0 -10 5 -10 10 0 6 5 10 10 10 6 0 10 -4 10 -10z m291 -13
c-10 -9 -11 -8 -5 6 3 10 9 15 12 12 3 -3 0 -11 -7 -18z m66 -9 c1 -28 -7 -33
-11 -6 -1 7 -5 18 -8 24 -4 6 -2 11 5 11 7 0 13 -13 14 -29z m123 20 c0 -3 -9
-6 -20 -5 -11 1 -20 5 -20 9 0 3 9 6 20 5 11 -1 20 -5 20 -9z m-1320 -12 c0
-2 -7 -7 -16 -10 -8 -3 -12 -2 -9 4 6 10 25 14 25 6z m1076 -22 c1 -9 0 -13
-4 -10 -3 4 -7 14 -8 22 -1 9 0 13 4 10 3 -4 7 -14 8 -22z m-1066 1 c-7 -8
-17 -15 -23 -15 -6 0 -2 7 9 15 25 19 30 19 14 0z m80 0 c-6 -8 -8 -20 -4 -27
5 -10 4 -10 -6 -1 -11 10 -11 15 0 28 7 8 15 15 17 15 3 0 0 -7 -7 -15z m44
-15 c-6 -6 -10 -3 -10 10 0 13 4 16 10 10 7 -7 7 -13 0 -20z m783 24 c-3 -3
-12 -4 -19 -1 -8 3 -5 6 6 6 11 1 17 -2 13 -5z m64 -8 c14 8 11 -2 -4 -14 -10
-8 -13 -6 -14 11 0 12 1 16 4 9 3 -6 9 -10 14 -6z m317 -11 c-3 -3 -9 2 -12
12 -6 14 -5 15 5 6 7 -7 10 -15 7 -18z m-1505 -3 c15 -17 15 -18 -6 -19 -12 0
-16 1 -9 4 10 4 10 8 1 19 -17 20 -5 17 14 -4z m243 3 c-1 -8 -5 -17 -8 -21
-5 -4 -4 16 1 34 3 9 9 -1 7 -13z m1016 -3 c11 -15 11 -15 -3 -4 -9 7 -24 10
-33 6 -9 -3 -16 -2 -16 3 0 16 38 12 52 -5z m-1176 -1 c-4 -5 0 -11 6 -14 7
-3 3 -4 -9 -4 -17 1 -19 4 -11 14 12 15 22 18 14 4z m87 -4 c3 -7 -3 -13 -14
-13 -13 0 -15 3 -7 13 6 7 12 13 13 13 2 0 5 -6 8 -13z m927 -1 c0 -2 -8 -10
-17 -17 -16 -13 -17 -12 -4 4 13 16 21 21 21 13z m63 -11 c4 -8 3 -16 -1 -19
-4 -3 -9 4 -9 15 -2 23 3 25 10 4z m219 1 c10 6 11 4 0 -7 -10 -11 -15 -10
-30 6 -15 17 -15 18 0 6 9 -7 23 -9 30 -5z m116 -2 c10 6 9 -30 -2 -41 -4 -5
-7 -3 -6 2 5 24 -1 27 -16 9 -15 -18 -15 -18 -5 2 7 15 7 25 -2 34 -10 12 -9
12 5 1 9 -7 21 -10 26 -7z m-1281 0 c-3 -3 -12 -4 -19 -1 -8 3 -5 6 6 6 11 1
17 -2 13 -5z m840 -16 c-3 -8 -6 -5 -6 6 -1 11 2 17 5 13 3 -3 4 -12 1 -19z
m229 7 c-1 -8 -5 -17 -8 -21 -5 -4 -4 16 1 34 3 9 9 -1 7 -13z m-1236 -5 c0
-5 -2 -10 -4 -10 -3 0 -8 5 -11 10 -3 6 -1 10 4 10 6 0 11 -4 11 -10z m1161
-17 c13 -16 12 -17 -3 -5 -9 8 -23 10 -29 6 -8 -4 -9 -3 -5 4 10 17 21 15 37
-5z m-1186 -31 c-17 -15 -18 -15 -6 0 7 9 9 23 5 30 -6 10 -4 11 7 0 11 -10
10 -15 -6 -30z m174 17 c-5 -10 -15 -21 -22 -25 -8 -6 -8 -3 1 9 8 9 11 20 8
25 -3 5 1 9 9 9 10 0 11 -5 4 -18z m54 4 c-4 -10 -9 -11 -19 -2 -18 15 -18 15
5 15 11 0 17 -5 14 -13z m80 0 c-4 -10 -9 -11 -19 -2 -18 15 -18 15 5 15 11 0
17 -5 14 -13z m682 7 c-3 -5 -12 -10 -18 -10 -7 0 -6 4 3 10 19 12 23 12 15 0z
m430 -8 c-3 -3 -11 0 -18 7 -9 10 -8 11 6 5 10 -3 15 -9 12 -12z m-355 -7 c17
11 11 -1 -12 -21 -12 -10 -18 -13 -14 -6 4 7 2 21 -6 30 -12 15 -11 16 4 4 9
-8 22 -11 28 -7z m244 1 c9 3 16 2 16 -3 0 -16 -38 -12 -52 5 -11 15 -11 15 3
4 9 -7 24 -10 33 -6z m53 -8 c0 -13 -1 -17 -4 -10 -3 6 -10 9 -16 5 -7 -4 -6
1 2 10 17 21 17 21 18 -5z m-1251 -21 c6 -8 3 -8 -9 1 -9 8 -20 11 -25 8 -5
-3 -9 1 -9 9 0 16 31 4 43 -18z m1010 21 c3 -4 -1 -5 -10 -4 -8 1 -18 5 -22 8
-3 4 1 5 10 4 8 -1 18 -5 22 -8z m140 -14 c1 -9 0 -13 -4 -10 -3 4 -7 14 -8
22 -1 9 0 13 4 10 3 -4 7 -14 8 -22z m-1312 -2 c3 -5 -1 -9 -9 -9 -8 0 -12 4
-9 9 3 4 7 8 9 8 2 0 6 -4 9 -8z m393 -9 c0 -9 -4 -10 -14 -2 -7 6 -13 12 -13
14 0 1 6 2 13 2 8 0 14 -6 14 -14z m754 0 c13 -16 12 -17 -3 -4 -17 13 -22 21
-14 21 2 0 10 -8 17 -17z m329 13 c0 -2 -7 -7 -16 -10 -8 -3 -12 -2 -9 4 6 10
25 14 25 6z m38 -20 c-2 -1 -12 -8 -23 -16 -18 -14 -19 -14 -7 2 8 10 10 23 6
30 -6 9 -3 9 9 -1 10 -8 16 -14 15 -15z m-326 0 c7 4 8 2 4 -5 -9 -13 -26 -5
-25 12 0 9 2 8 6 -1 2 -6 10 -9 15 -6z m58 -1 c-6 -8 -9 -18 -6 -23 3 -5 -1
-9 -9 -9 -8 0 -11 5 -8 11 10 19 25 36 30 36 3 0 0 -7 -7 -15z m150 -6 c0 -5
-4 -9 -8 -9 -5 0 -9 7 -9 15 0 8 4 12 9 9 4 -3 8 -9 8 -15z m-1266 -5 c3 -8 2
-12 -4 -9 -6 3 -10 10 -10 16 0 14 7 11 14 -7z m146 7 c0 -6 -4 -12 -8 -15 -5
-3 -9 1 -9 9 0 8 4 15 9 15 4 0 8 -4 8 -9z m80 5 c0 -3 -4 -8 -10 -11 -5 -3
-10 -1 -10 4 0 6 5 11 10 11 6 0 10 -2 10 -4z m38 -36 c-7 -10 -14 -17 -17
-15 -4 4 18 35 25 35 2 0 -1 -9 -8 -20z m680 3 c-6 -7 -12 -13 -13 -13 -2 0
-5 6 -8 13 -3 7 3 13 14 13 13 0 15 -3 7 -13z m207 7 c-3 -5 -12 -10 -18 -10
-7 0 -6 4 3 10 19 12 23 12 15 0z m159 2 c2 -4 -4 -8 -14 -8 -10 0 -16 4 -14
8 3 4 9 8 14 8 5 0 11 -4 14 -8z m-1327 -8 c-3 -3 -12 -4 -19 -1 -8 3 -5 6 6
6 11 1 17 -2 13 -5z m180 -13 c-1 -15 -4 -17 -14 -9 -15 12 -17 22 -3 13 6 -3
10 -1 10 4 0 6 2 11 4 11 3 0 4 -9 3 -19z m53 4 c0 -1 -6 -7 -13 -13 -10 -8
-13 -6 -13 7 0 11 6 17 13 14 7 -3 13 -6 13 -8z m827 -7 c0 -13 -1 -17 -4 -10
-3 6 -10 9 -16 5 -7 -4 -6 1 2 10 17 21 17 21 18 -5z m-1137 0 c0 -4 -4 -8 -9
-8 -6 0 -12 4 -15 8 -3 5 1 9 9 9 8 0 15 -4 15 -9z m155 3 c-9 -8 -36 -10 -30
-2 2 4 11 8 20 8 8 0 13 -3 10 -6z m65 -3 c0 -4 -9 -7 -20 -5 -29 5 -33 13 -5
13 14 0 25 -4 25 -8z m791 -5 c13 -16 12 -17 -3 -4 -17 13 -22 21 -14 21 2 0
10 -8 17 -17z m89 9 c0 -5 -7 -9 -15 -9 -8 0 -12 4 -9 9 3 4 9 8 15 8 5 0 9
-4 9 -8z m157 -14 c-3 -8 -6 -5 -6 6 -1 11 2 17 5 13 3 -3 4 -12 1 -19z m106
-1 c3 -7 -3 -13 -14 -13 -13 0 -15 3 -7 13 6 7 12 13 13 13 2 0 5 -6 8 -13z
m75 0 c8 -10 6 -13 -7 -13 -11 0 -17 6 -14 13 3 7 6 13 8 13 1 0 7 -6 13 -13z
m-1398 -11 c-7 -7 -13 -7 -20 0 -6 6 -3 10 10 10 13 0 16 -4 10 -10z m118 -6
c-7 -10 -14 -17 -17 -15 -4 4 18 35 25 35 2 0 -1 -9 -8 -20z m-32 -13 c0 -13
-6 -24 -13 -24 -8 0 -8 7 0 24 13 29 15 29 13 0z m1009 11 c5 4 5 1 1 -6 -6
-10 -11 -10 -22 -1 -8 6 -14 14 -14 16 0 3 6 0 13 -6 8 -6 18 -7 22 -3z m179
-17 c-2 -3 -12 3 -22 13 -16 17 -16 18 5 5 12 -7 20 -15 17 -18z m-1307 -3
c-3 -8 -6 -5 -6 6 -1 11 2 17 5 13 3 -3 4 -12 1 -19z m50 0 c-3 -8 -6 -5 -6 6
-1 11 2 17 5 13 3 -3 4 -12 1 -19z m294 -1 c-10 -9 -11 -8 -5 6 3 10 9 15 12
12 3 -3 0 -11 -7 -18z m689 14 c0 -6 -4 -12 -8 -15 -5 -3 -9 1 -9 9 0 8 4 15
9 15 4 0 8 -4 8 -9z m117 -5 c-3 -8 -1 -17 6 -19 7 -3 2 -5 -9 -4 -18 1 -20 4
-10 19 13 22 20 24 13 4z m-916 -13 c13 -16 12 -17 -3 -4 -10 7 -18 15 -18 17
0 8 8 3 21 -13z m76 2 c0 -8 -4 -15 -9 -15 -10 0 -11 14 -1 23 9 10 10 9 10
-8z m-152 -5 c-3 -5 -12 -10 -18 -10 -7 0 -6 4 3 10 19 12 23 12 15 0z m231
-15 c-1 -13 -4 -27 -7 -30 -5 -4 -4 41 0 53 4 10 8 -2 7 -23z m966 18 c-6 -3
-9 -10 -5 -16 4 -7 -1 -6 -10 2 -21 17 -21 17 6 18 12 0 16 -1 9 -4z m-305
-22 c-1 -15 -4 -17 -14 -9 -15 12 -17 22 -3 13 6 -3 10 -1 10 4 0 6 2 11 4 11
3 0 4 -9 3 -19z m-1021 -7 c-1 -8 -6 -17 -12 -21 -5 -4 -6 -4 -2 1 4 5 3 14
-2 21 -7 8 -5 12 4 12 8 0 13 -6 12 -13z m159 -14 c2 -12 1 -20 -2 -16 -4 4
-8 16 -10 28 -4 28 6 18 12 -12z m41 18 c3 -4 -1 -5 -10 -4 -8 1 -18 5 -22 8
-3 4 1 5 10 4 8 -1 18 -5 22 -8z m1004 2 c0 -5 -4 -10 -10 -10 -5 0 -10 5 -10
10 0 6 5 10 10 10 6 0 10 -4 10 -10z m-924 -9 c-4 -5 0 -11 6 -14 7 -3 3 -4
-9 -4 -17 1 -19 4 -11 14 12 15 22 18 14 4z m-193 -16 c-3 -9 -8 -14 -10 -11
-3 3 -2 9 2 15 9 16 15 13 8 -4z m42 5 c3 -6 -1 -7 -9 -4 -18 7 -21 14 -7 14
6 0 13 -4 16 -10z m962 4 c-3 -3 -12 -4 -19 -1 -8 3 -5 6 6 6 11 1 17 -2 13
-5z m30 -13 c-10 -12 -9 -14 4 -9 9 4 16 1 16 -7 0 -10 -5 -11 -17 -5 -10 5
-21 6 -26 2 -5 -4 -3 0 4 9 6 9 10 18 7 21 -3 2 2 5 10 5 12 0 12 -3 2 -16z
m200 0 c1 -11 -6 -26 -15 -33 -15 -11 -15 -11 -4 3 7 9 10 24 6 33 -3 9 -2 16
3 16 5 0 9 -9 10 -19z m47 11 c3 -5 -1 -9 -9 -9 -8 0 -12 4 -9 9 3 4 7 8 9 8
2 0 6 -4 9 -8z m-306 -27 c-3 -3 -9 2 -12 12 -6 14 -5 15 5 6 7 -7 10 -15 7
-18z m-998 3 c0 -3 -9 -6 -20 -5 -11 1 -20 5 -20 9 0 3 9 6 20 5 11 -1 20 -5
20 -9z m1210 -3 c0 -2 -6 -5 -13 -8 -8 -3 -14 1 -14 8 0 7 6 11 14 8 7 -3 13
-6 13 -8z m-1069 -12 c13 -16 12 -17 -3 -5 -9 8 -23 10 -29 6 -8 -4 -9 -3 -5
4 10 17 21 15 37 -5z m137 -8 c-3 -3 -9 2 -12 12 -6 14 -5 15 5 6 7 -7 10 -15
7 -18z m852 21 c0 -2 -7 -7 -16 -10 -8 -3 -12 -2 -9 4 6 10 25 14 25 6z m-945
-16 c-3 -5 -12 -10 -18 -10 -7 0 -6 4 3 10 19 12 23 12 15 0z m803 -6 c5 3 9
-1 9 -9 0 -16 -31 -4 -43 18 -6 8 -3 8 9 -1 9 -8 20 -11 25 -8z m-1013 -22
c-3 -3 -11 0 -18 7 -9 10 -8 11 6 5 10 -3 15 -9 12 -12z m120 -10 c2 -12 1
-24 -3 -26 -4 -2 -8 9 -8 25 -2 33 4 33 11 1z m102 14 c0 -8 -6 -12 -15 -9
-11 5 -11 7 0 14 7 5 13 9 14 9 0 0 1 -6 1 -14z m874 -9 c-10 -9 -11 -8 -5 6
3 10 9 15 12 12 3 -3 0 -11 -7 -18z m43 7 c3 -8 2 -12 -4 -9 -6 3 -10 10 -10
16 0 14 7 11 14 -7z m37 -7 c-10 -9 -11 -8 -5 6 3 10 9 15 12 12 3 -3 0 -11
-7 -18z m43 7 c3 -8 2 -12 -4 -9 -6 3 -10 10 -10 16 0 14 7 11 14 -7z m31 6
c3 -6 -1 -7 -9 -4 -18 7 -21 14 -7 14 6 0 13 -4 16 -10z m50 1 c-9 -8 -36 -10
-30 -2 2 4 11 8 20 8 8 0 13 -3 10 -6z m-1248 -17 c-3 -3 -12 -4 -19 -1 -8 3
-5 6 6 6 11 1 17 -2 13 -5z m-15 -19 c3 0 9 -3 13 -7 4 -3 0 -5 -9 -4 -9 1
-22 8 -29 16 -10 10 -9 11 3 4 8 -5 18 -9 22 -9z m1229 -27 c-11 -11 -13 -10
-7 0 4 7 2 21 -5 30 -12 15 -11 15 6 0 16 -15 17 -20 6 -30z m-1050 9 c-10 -9
-11 -8 -5 6 3 10 9 15 12 12 3 -3 0 -11 -7 -18z m854 14 c-3 -2 -16 -6 -28 -8
-15 -2 -18 0 -9 5 14 9 45 12 37 3z m81 -4 c4 -3 -4 -4 -16 -2 -30 6 -40 16
-12 12 12 -2 24 -6 28 -10z m93 -2 c3 -3 -7 -4 -23 -1 -16 3 -31 8 -35 11 -3
3 7 4 23 1 16 -3 31 -8 35 -11z m-123 -31 c1 -9 0 -13 -4 -10 -3 4 -7 14 -8
22 -1 9 0 13 4 10 3 -4 7 -14 8 -22z m49 16 c-4 -6 -1 -19 6 -28 12 -16 12
-16 -5 0 -16 14 -15 38 0 38 3 0 2 -5 -1 -10z m-1055 -15 c0 -2 -6 -5 -13 -8
-8 -3 -14 1 -14 8 0 7 6 11 14 8 7 -3 13 -6 13 -8z m137 9 c-3 -3 -12 -4 -19
-1 -8 3 -5 6 6 6 11 1 17 -2 13 -5z m806 -9 c-3 -9 -8 -14 -10 -11 -3 3 -2 9
2 15 9 16 15 13 8 -4z m38 -12 c12 -16 12 -17 -2 -6 -9 7 -20 9 -24 5 -5 -4
-5 -1 -1 6 9 16 11 15 27 -5z m149 3 c0 -2 -8 -10 -17 -17 -16 -13 -17 -12 -4
4 13 16 21 21 21 13z m-1120 -10 c0 -2 -7 -7 -16 -10 -8 -3 -12 -2 -9 4 6 10
25 14 25 6z m50 -11 c17 11 11 -1 -12 -21 -12 -10 -18 -13 -14 -6 4 7 2 21 -6
30 -12 15 -11 16 4 4 9 -8 22 -11 28 -7z m900 -9 c-7 -7 -13 -7 -20 0 -6 6 -3
10 10 10 13 0 16 -4 10 -10z m101 -19 c-10 -9 -11 -8 -5 6 3 10 9 15 12 12 3
-3 0 -11 -7 -18z m32 0 c3 -8 -1 -14 -8 -14 -7 0 -11 6 -8 14 3 7 6 13 8 13 2
0 5 -6 8 -13z m-1125 -14 c-6 -7 -12 -13 -13 -13 -2 0 -5 6 -8 13 -3 7 3 13
14 13 13 0 15 -3 7 -13z m103 -10 c13 -16 12 -17 -3 -4 -10 7 -18 15 -18 17 0
8 8 3 21 -13z m956 -5 c0 -13 -1 -17 -4 -10 -3 6 -10 9 -16 5 -7 -4 -6 1 2 10
17 21 17 21 18 -5z m-981 -14 c1 -9 0 -13 -4 -10 -3 4 -7 14 -8 22 -1 9 0 13
4 10 3 -4 7 -14 8 -22z m944 18 c0 -5 -7 -9 -15 -9 -8 0 -12 4 -9 9 3 4 9 8
15 8 5 0 9 -4 9 -8z m-905 -32 c3 -6 -1 -7 -9 -4 -18 7 -21 14 -7 14 6 0 13
-4 16 -10z m921 -8 c-3 -3 0 -12 6 -21 10 -13 10 -14 -2 -4 -16 15 -23 46 -8
37 5 -3 7 -9 4 -12z m-1036 -2 c0 -5 -4 -10 -10 -10 -5 0 -10 5 -10 10 0 6 5
10 10 10 6 0 10 -4 10 -10z m1007 -12 c-3 -8 -6 -5 -6 6 -1 11 2 17 5 13 3 -3
4 -12 1 -19z m-929 -15 c-6 -7 -12 -13 -13 -13 -2 0 -5 6 -8 13 -3 7 3 13 14
13 13 0 15 -3 7 -13z m-38 -9 c0 -8 -19 -13 -24 -6 -3 5 1 9 9 9 8 0 15 -2 15
-3z m990 0 c0 -8 -19 -13 -24 -6 -3 5 1 9 9 9 8 0 15 -2 15 -3z m-985 -24 c-3
-5 -12 -10 -18 -10 -7 0 -6 4 3 10 19 12 23 12 15 0z m1031 -24 c1 -8 -4 -17
-12 -20 -11 -4 -12 -1 -5 13 7 11 7 22 1 29 -7 9 -7 9 2 2 6 -5 13 -16 14 -24z
m-996 4 c0 -5 -2 -10 -4 -10 -3 0 -8 5 -11 10 -3 6 -1 10 4 10 6 0 11 -4 11
-10z m-40 -41 c0 -5 -4 -9 -10 -9 -5 0 -9 6 -7 13 1 6 -4 11 -11 9 -8 -1 -11
2 -7 8 7 12 35 -5 35 -21z m1039 -43 c-3 -3 -11 5 -18 17 -13 21 -12 21 5 5
10 -10 16 -20 13 -22z m-1024 5 c3 -5 2 -12 -3 -15 -5 -3 -9 1 -9 9 0 17 3 19
12 6z"/>
</g>
</svg>
