<svg width="16" height="16" viewBox="0 0 16 16" fill="none" xmlns="http://www.w3.org/2000/svg">
<path fill-rule="evenodd" clip-rule="evenodd" d="M7.59566 0.167368C7.81882 -0.0557892 8.18063 -0.0557892 8.40378 0.167368L10.6895 2.45308C10.9127 2.67624 10.9127 3.03805 10.6895 3.2612C10.4663 3.48436 10.1045 3.48436 9.88137 3.2612L7.99972 1.37955L6.11807 3.2612C5.89491 3.48436 5.5331 3.48436 5.30995 3.2612C5.08679 3.03805 5.08679 2.67624 5.30995 2.45308L7.59566 0.167368Z" fill="currentColor"/>
<path fill-rule="evenodd" clip-rule="evenodd" d="M5.30995 12.7388C5.5331 12.5156 5.89491 12.5156 6.11807 12.7388L7.99972 14.6204L9.88137 12.7388C10.1045 12.5156 10.4663 12.5156 10.6895 12.7388C10.9127 12.962 10.9127 13.3238 10.6895 13.5469L8.40378 15.8326C8.18063 16.0558 7.81882 16.0558 7.59566 15.8326L5.30995 13.5469C5.08679 13.3238 5.08679 12.962 5.30995 12.7388Z" fill="currentColor"/>
<path fill-rule="evenodd" clip-rule="evenodd" d="M8.00014 0C8.31573 0 8.57157 0.255837 8.57157 0.571429V15.4286C8.57157 15.7442 8.31573 16 8.00014 16C7.68455 16 7.42871 15.7442 7.42871 15.4286V0.571429C7.42871 0.255837 7.68455 0 8.00014 0Z" fill="currentColor"/>
<path fill-rule="evenodd" clip-rule="evenodd" d="M12.7387 5.31022C12.9618 5.08706 13.3236 5.08706 13.5468 5.31022L15.8325 7.59593C16.0557 7.81909 16.0557 8.1809 15.8325 8.40406L13.5468 10.6898C13.3236 10.9129 12.9618 10.9129 12.7387 10.6898C12.5155 10.4666 12.5155 10.1048 12.7387 9.88165L14.6203 8L12.7387 6.11834C12.5155 5.89519 12.5155 5.53338 12.7387 5.31022Z" fill="currentColor"/>
<path fill-rule="evenodd" clip-rule="evenodd" d="M3.2612 5.31022C3.48436 5.53338 3.48436 5.89519 3.2612 6.11834L1.37955 8L3.2612 9.88165C3.48436 10.1048 3.48436 10.4666 3.2612 10.6898C3.03805 10.9129 2.67624 10.9129 2.45308 10.6898L0.167368 8.40406C-0.0557892 8.1809 -0.0557892 7.81909 0.167368 7.59593L2.45308 5.31022C2.67624 5.08706 3.03805 5.08706 3.2612 5.31022Z" fill="currentColor"/>
<path fill-rule="evenodd" clip-rule="evenodd" d="M0 8C0 7.68441 0.255837 7.42857 0.571429 7.42857H15.4286C15.7442 7.42857 16 7.68441 16 8C16 8.31559 15.7442 8.57143 15.4286 8.57143H0.571429C0.255837 8.57143 0 8.31559 0 8Z" fill="currentColor"/>
</svg>
