<svg width="18" height="18" viewBox="0 0 18 18" fill="none" xmlns="http://www.w3.org/2000/svg">
<path fill-rule="evenodd" clip-rule="evenodd" d="M6.43025 2.57087C5.18761 2.57087 4.18025 3.57823 4.18025 4.82087C4.18025 6.06351 5.18761 7.07087 6.43025 7.07087C7.67289 7.07087 8.68025 6.06351 8.68025 4.82087C8.68025 3.57823 7.67289 2.57087 6.43025 2.57087ZM2.89453 4.82087C2.89453 2.86815 4.47752 1.28516 6.43025 1.28516C8.38297 1.28516 9.96596 2.86815 9.96596 4.82087C9.96596 6.77359 8.38297 8.35659 6.43025 8.35659C4.47752 8.35659 2.89453 6.77359 2.89453 4.82087Z" fill="white"/>
<path fill-rule="evenodd" clip-rule="evenodd" d="M6.42857 10.9263C5.0646 10.9263 3.7565 11.4682 2.79202 12.4326C1.82755 13.3971 1.28571 14.7052 1.28571 16.0692V16.7121H11.5714V16.0692C11.5714 14.7052 11.0296 13.3971 10.0651 12.4326C9.10065 11.4682 7.79254 10.9263 6.42857 10.9263ZM1.88289 11.5235C3.08848 10.3179 4.72361 9.64062 6.42857 9.64062C8.13354 9.64062 9.76867 10.3179 10.9743 11.5235C12.1798 12.7291 12.8571 14.3642 12.8571 16.0692V17.3549C12.8571 17.71 12.5693 17.9978 12.2143 17.9978H0.642857C0.287817 17.9978 0 17.71 0 17.3549V16.0692C0 14.3642 0.677294 12.7291 1.88289 11.5235Z" fill="white"/>
<path fill-rule="evenodd" clip-rule="evenodd" d="M10.9297 1.92801C10.9297 1.57297 11.2175 1.28516 11.5725 1.28516C12.5103 1.28516 13.4096 1.65767 14.0727 2.32074C14.7357 2.98382 15.1083 3.88314 15.1083 4.82087C15.1083 5.7586 14.7357 6.65792 14.0727 7.321C13.4096 7.98407 12.5103 8.35659 11.5725 8.35659C11.2175 8.35659 10.9297 8.06877 10.9297 7.71373C10.9297 7.35869 11.2175 7.07087 11.5725 7.07087C12.1693 7.07087 12.7416 6.83382 13.1635 6.41186C13.5855 5.9899 13.8225 5.41761 13.8225 4.82087C13.8225 4.22413 13.5855 3.65184 13.1635 3.22988C12.7416 2.80792 12.1693 2.57087 11.5725 2.57087C11.2175 2.57087 10.9297 2.28305 10.9297 1.92801Z" fill="white"/>
<path fill-rule="evenodd" clip-rule="evenodd" d="M13.0266 10.3012C13.1528 9.96934 13.5241 9.80266 13.856 9.9289C15.0729 10.3918 16.1205 11.2133 16.8603 12.2847C17.6001 13.3561 17.9971 14.6269 17.9988 15.9289L17.9988 17.3569C17.9988 17.7119 17.711 17.9997 17.356 17.9997H15.4274C15.0724 17.9997 14.7845 17.7119 14.7845 17.3569C14.7845 17.0019 15.0724 16.714 15.4274 16.714H16.7131V15.9302C16.7117 14.8887 16.394 13.8723 15.8023 13.0153C15.2105 12.1582 14.3724 11.5009 13.3988 11.1306C13.067 11.0044 12.9003 10.633 13.0266 10.3012Z" fill="white"/>
</svg>
