<svg width="14" height="14" viewBox="0 0 14 14" fill="none" xmlns="http://www.w3.org/2000/svg">
<g clip-path="url(#clip0_3230_10764)">
<path fill-rule="evenodd" clip-rule="evenodd" d="M5 1C4.86739 1 4.74022 1.05268 4.64645 1.14645C4.55268 1.24021 4.5 1.36739 4.5 1.5V10C4.5 10.1326 4.55268 10.2598 4.64645 10.3536C4.74022 10.4473 4.86739 10.5 5 10.5H11.5C11.6326 10.5 11.7598 10.4473 11.8536 10.3536C11.9473 10.2598 12 10.1326 12 10V3.70711L9.29289 1H5ZM3.93934 0.43934C4.22064 0.158035 4.60218 0 5 0H9.5C9.63261 0 9.75979 0.0526784 9.85355 0.146447L12.8536 3.14645C12.9473 3.24021 13 3.36739 13 3.5V10C13 10.3978 12.842 10.7794 12.5607 11.0607C12.2794 11.342 11.8978 11.5 11.5 11.5H5C4.60217 11.5 4.22064 11.342 3.93934 11.0607C3.65804 10.7794 3.5 10.3978 3.5 10V1.5C3.5 1.10217 3.65804 0.720644 3.93934 0.43934Z" fill="currentColor"/>
<path fill-rule="evenodd" clip-rule="evenodd" d="M1.5 3C1.77614 3 2 3.22386 2 3.5V12.5C2 12.6326 2.05268 12.7598 2.14645 12.8536C2.24021 12.9473 2.36739 13 2.5 13H9.5C9.77614 13 10 13.2239 10 13.5C10 13.7761 9.77614 14 9.5 14H2.5C2.10217 14 1.72064 13.842 1.43934 13.5607C1.15804 13.2794 1 12.8978 1 12.5V3.5C1 3.22386 1.22386 3 1.5 3Z" fill="currentColor"/>
</g>
<defs>
<clipPath id="clip0_3230_10764">
<rect width="14" height="14" fill="currentColor"/>
</clipPath>
</defs>
</svg>
