<svg width="16" height="16" viewBox="0 0 16 16" fill="none" xmlns="http://www.w3.org/2000/svg">
<path fill-rule="evenodd" clip-rule="evenodd" d="M1.30143 7.62001C1.20813 7.72466 1.15653 7.86 1.15653 8.00028C1.15653 8.14056 1.20813 8.2759 1.30143 8.38055C1.88338 9.00644 2.82812 9.91884 4.00238 10.6722C5.18183 11.4288 6.55412 12.0003 7.99955 12.0003C9.44497 12.0003 10.8173 11.4288 11.9967 10.6722C13.171 9.91885 14.1157 9.00646 14.6976 8.38057C14.791 8.27592 14.8426 8.14057 14.8426 8.00028C14.8426 7.85999 14.791 7.72464 14.6976 7.61999C14.1157 6.99409 13.171 6.0817 11.9967 5.32838C10.8173 4.57173 9.44497 4.00028 7.99955 4.00028C6.55412 4.00028 5.18183 4.57173 4.00238 5.32838C2.82812 6.08171 1.88338 6.99411 1.30143 7.62001ZM3.38528 4.36646C4.66869 3.54311 6.25639 2.85742 7.99955 2.85742C9.7427 2.85742 11.3304 3.54311 12.6138 4.36646C13.9002 5.19171 14.9198 6.18016 15.5382 6.84559L15.5438 6.85167L15.5438 6.85171C15.828 7.16671 15.9854 7.57595 15.9854 8.00028C15.9854 8.4246 15.828 8.83385 15.5438 9.14885L15.5382 9.15501L15.5382 9.15496C14.9198 9.8204 13.9002 10.8088 12.6138 11.6341C11.3304 12.4574 9.7427 13.1431 7.99955 13.1431C6.25639 13.1431 4.66869 12.4574 3.38528 11.6341C2.09889 10.8088 1.07926 9.8204 0.460938 9.15496L0.455294 9.14889L0.455339 9.14885C0.171041 8.83385 0.0136719 8.4246 0.0136719 8.00028C0.0136719 7.57595 0.171041 7.16671 0.455339 6.85171L0.460894 6.84555L0.460938 6.84559C1.07926 6.18016 2.09889 5.19171 3.38528 4.36646Z" fill="currentColor"/>
<path fill-rule="evenodd" clip-rule="evenodd" d="M7.99972 6.28641C7.05295 6.28641 6.28544 7.05392 6.28544 8.0007C6.28544 8.94747 7.05295 9.71498 7.99972 9.71498C8.94649 9.71498 9.71401 8.94747 9.71401 8.0007C9.71401 7.05392 8.94649 6.28641 7.99972 6.28641ZM5.14258 8.0007C5.14258 6.42274 6.42176 5.14355 7.99972 5.14355C9.57768 5.14355 10.8569 6.42274 10.8569 8.0007C10.8569 9.57865 9.57768 10.8578 7.99972 10.8578C6.42176 10.8578 5.14258 9.57865 5.14258 8.0007Z" fill="currentColor"/>
</svg>
