<svg width="24" height="24" viewBox="0 0 24 24" fill="none" xmlns="http://www.w3.org/2000/svg">
<path fill-rule="evenodd" clip-rule="evenodd" d="M12.0599 2.70033C10.4803 2.70033 8.96546 3.32781 7.84855 4.44472C6.73164 5.56164 6.10416 7.0765 6.10416 8.65605C6.10416 12.4814 5.41046 14.878 4.54112 16.3475C4.43553 16.526 4.32723 16.691 4.21715 16.8432H19.9054C19.7967 16.693 19.6897 16.5304 19.5852 16.3546C18.7134 14.8868 18.0156 12.4897 18.0156 8.65605C18.0156 7.0765 17.3881 5.56164 16.2712 4.44472C15.1543 3.32781 13.6394 2.70033 12.0599 2.70033ZM12.0599 1.12891C10.0636 1.12891 8.14899 1.92194 6.73738 3.33356C5.32577 4.74517 4.53273 6.65973 4.53273 8.65605C4.53273 12.3107 3.86715 14.4005 3.18864 15.5474C2.85042 16.1191 2.51142 16.4532 2.25091 16.6386C2.02199 16.8015 1.87706 16.8348 1.84787 16.8415C1.84153 16.843 1.84066 16.8432 1.84559 16.8432C1.41165 16.8432 1.05988 17.195 1.05988 17.6289C1.05988 18.0628 1.41165 18.4146 1.84559 18.4146H22.2742C22.7081 18.4146 23.0599 18.0628 23.0599 17.6289C23.0599 17.195 22.7081 16.8432 22.2742 16.8432C22.2804 16.8432 22.2796 16.843 22.2722 16.8412C22.2418 16.8339 22.0992 16.7996 21.8746 16.6402C21.6146 16.4557 21.2752 16.1227 20.9363 15.5521C20.2564 14.4074 19.587 12.3181 19.587 8.65605C19.587 6.65973 18.794 4.74517 17.3824 3.33356C15.9708 1.92194 14.0562 1.12891 12.0599 1.12891Z" fill="currentColor"/>
<path fill-rule="evenodd" clip-rule="evenodd" d="M9.50476 19.7443C9.9247 19.635 10.3538 19.8868 10.4631 20.3067C10.5551 20.6601 10.7618 20.9731 11.0508 21.1964C11.3397 21.4198 11.6946 21.541 12.0599 21.541C12.4251 21.541 12.78 21.4198 13.069 21.1964C13.3579 20.9731 13.5646 20.6601 13.6566 20.3067C13.766 19.8868 14.195 19.635 14.615 19.7443C15.0349 19.8536 15.2867 20.2827 15.1774 20.7026C14.9977 21.3927 14.5942 22.0036 14.03 22.4397C13.4658 22.8758 12.7729 23.1124 12.0599 23.1124C11.3468 23.1124 10.6539 22.8758 10.0897 22.4397C9.52553 22.0036 9.122 21.3927 8.94235 20.7026C8.83302 20.2827 9.08482 19.8536 9.50476 19.7443Z" fill="currentColor"/>
</svg>
