<svg width="20" height="20" viewBox="0 0 20 20" fill="none" xmlns="http://www.w3.org/2000/svg">
<path d="M10.6513 9.8599C10.4459 9.94909 10.2244 9.99512 10.0005 9.99512C9.77663 9.99512 9.55512 9.94909 9.34976 9.8599L1.45745 6.20384C1.32929 6.13919 1.22159 6.04023 1.14634 5.91797C1.07109 5.79572 1.03125 5.65497 1.03125 5.51141C1.03125 5.36784 1.07109 5.2271 1.14634 5.10484C1.22159 4.98259 1.32929 4.88362 1.45745 4.81897L9.34976 1.13522C9.55512 1.04603 9.77663 1 10.0005 1C10.2244 1 10.4459 1.04603 10.6513 1.13522L18.5436 4.79127C18.6718 4.85593 18.7795 4.95489 18.8547 5.07715C18.93 5.1994 18.9698 5.34015 18.9698 5.48371C18.9698 5.62727 18.93 5.76802 18.8547 5.89027C18.7795 6.01253 18.6718 6.11149 18.5436 6.17614L10.6513 9.8599Z" stroke="white" stroke-width="1.28571" stroke-linecap="round" stroke-linejoin="round"/>
<path d="M19 10.4844L10.5538 14.3759C10.3735 14.4582 10.1775 14.5007 9.97923 14.5007C9.78096 14.5007 9.58501 14.4582 9.40462 14.3759L1 10.4844" stroke="white" stroke-width="1.28571" stroke-linecap="round" stroke-linejoin="round"/>
<path d="M19 14.9844L10.5538 18.8759C10.3735 18.9582 10.1775 19.0007 9.97923 19.0007C9.78096 19.0007 9.58501 18.9582 9.40462 18.8759L1 14.9844" stroke="white" stroke-width="1.28571" stroke-linecap="round" stroke-linejoin="round"/>
</svg>
