<svg width="14" height="14" viewBox="0 0 14 14" fill="none" xmlns="http://www.w3.org/2000/svg">
<path fill-rule="evenodd" clip-rule="evenodd" d="M7 1C3.68629 1 1 3.68629 1 7C1 10.3137 3.68629 13 7 13C10.3137 13 13 10.3137 13 7C13 3.68629 10.3137 1 7 1ZM0 7C0 3.13401 3.13401 0 7 0C10.866 0 14 3.13401 14 7C14 10.866 10.866 14 7 14C3.13401 14 0 10.866 0 7Z" fill="currentColor"/>
<path fill-rule="evenodd" clip-rule="evenodd" d="M7.19509 4.51922C7.00111 4.48063 6.80004 4.50043 6.61732 4.57612C6.43459 4.65181 6.27841 4.77998 6.16853 4.94443C6.05865 5.10888 6 5.30222 6 5.5C6 5.77614 5.77614 6 5.5 6C5.22386 6 5 5.77614 5 5.5C5 5.10444 5.1173 4.71776 5.33706 4.38886C5.55682 4.05996 5.86918 3.80362 6.23463 3.65224C6.60009 3.50087 7.00222 3.46126 7.39018 3.53843C7.77814 3.6156 8.13451 3.80608 8.41421 4.08579C8.69392 4.36549 8.8844 4.72186 8.96157 5.10982C9.03874 5.49778 8.99914 5.89992 8.84776 6.26537C8.69638 6.63082 8.44004 6.94318 8.11114 7.16294C7.92325 7.28849 7.71649 7.38059 7.5 7.43649V8C7.5 8.27614 7.27614 8.5 7 8.5C6.72386 8.5 6.5 8.27614 6.5 8V7C6.5 6.72386 6.72386 6.5 7 6.5C7.19778 6.5 7.39112 6.44135 7.55557 6.33147C7.72002 6.22159 7.84819 6.06541 7.92388 5.88268C7.99957 5.69996 8.01937 5.49889 7.98079 5.30491C7.9422 5.11093 7.84696 4.93275 7.70711 4.79289C7.56726 4.65304 7.38907 4.5578 7.19509 4.51922Z" fill="currentColor"/>
<path d="M7 9.5C6.85166 9.5 6.70666 9.54399 6.58332 9.6264C6.45999 9.70881 6.36386 9.82594 6.30709 9.96299C6.25032 10.1 6.23547 10.2508 6.26441 10.3963C6.29335 10.5418 6.36478 10.6754 6.46967 10.7803C6.57456 10.8852 6.7082 10.9567 6.85368 10.9856C6.99917 11.0145 7.14997 10.9997 7.28701 10.9429C7.42406 10.8861 7.54119 10.79 7.6236 10.6667C7.70601 10.5433 7.75 10.3983 7.75 10.25C7.74741 10.0519 7.66756 9.86263 7.52747 9.72253C7.38737 9.58244 7.19811 9.50259 7 9.5Z" fill="currentColor"/>
</svg>
