<svg width="18" height="18" viewBox="0 0 18 18" fill="none" xmlns="http://www.w3.org/2000/svg">
<g clip-path="url(#clip0_8382_21924)">
<path fill-rule="evenodd" clip-rule="evenodd" d="M0.564866 0.564866C0.926543 0.203188 1.41708 0 1.92857 0H10.9286C11.0991 0 11.2626 0.0677294 11.3831 0.188288L17.8117 6.61686C17.9323 6.73742 18 6.90093 18 7.07143V16.0714C18 16.5829 17.7968 17.0735 17.4351 17.4351C17.0735 17.7968 16.5829 18 16.0714 18H1.92857C1.41708 18 0.926543 17.7968 0.564866 17.4351C0.203188 17.0735 0 16.5829 0 16.0714V1.92857C0 1.41708 0.203188 0.926543 0.564866 0.564866ZM1.92857 1.28571C1.75808 1.28571 1.59456 1.35344 1.474 1.474C1.35344 1.59456 1.28571 1.75808 1.28571 1.92857V16.0714C1.28571 16.2419 1.35344 16.4054 1.474 16.526C1.59456 16.6466 1.75808 16.7143 1.92857 16.7143H16.0714C16.2419 16.7143 16.4054 16.6466 16.526 16.526C16.6466 16.4054 16.7143 16.2419 16.7143 16.0714V7.33771L10.6623 1.28571H1.92857Z" fill="currentColor"/>
<path fill-rule="evenodd" clip-rule="evenodd" d="M10.6826 0.0489534C10.9228 -0.0505487 11.1993 0.00445147 11.3832 0.188307L17.8118 6.61688C17.9956 6.80073 18.0506 7.07724 17.9511 7.31746C17.8516 7.55768 17.6172 7.7143 17.3572 7.7143H11.5715C11.2305 7.7143 10.9035 7.57885 10.6623 7.33773C10.4212 7.09661 10.2858 6.76958 10.2858 6.42859V0.642876C10.2858 0.382864 10.4424 0.148455 10.6826 0.0489534ZM11.5715 2.19487V6.42859H15.8052L11.5715 2.19487Z" fill="currentColor"/>
<path fill-rule="evenodd" clip-rule="evenodd" d="M5.78568 3.21484C6.14072 3.21484 6.42854 3.50266 6.42854 3.8577V5.78627C6.42854 6.14131 6.14072 6.42913 5.78568 6.42913C5.43064 6.42913 5.14282 6.14131 5.14282 5.78627V3.8577C5.14282 3.50266 5.43064 3.21484 5.78568 3.21484Z" fill="currentColor"/>
<path fill-rule="evenodd" clip-rule="evenodd" d="M4.57428 6.63477C4.54339 6.69209 4.49995 6.81823 4.49995 7.0731C4.49995 7.30124 4.59956 7.49787 4.87132 7.72434C5.16424 7.96844 5.5728 8.17651 6.07316 8.42669C6.08474 8.43248 6.09638 8.4383 6.10808 8.44414C6.56476 8.67239 7.10356 8.94168 7.5231 9.2913C7.97456 9.66752 8.35709 10.1941 8.35709 10.9302C8.35709 11.3182 8.29285 11.6742 8.12888 11.9785C7.95798 12.2956 7.70528 12.5073 7.41918 12.6391C7.14804 12.764 6.85632 12.8134 6.59294 12.8363C6.33408 12.8588 6.05653 12.8588 5.80083 12.8588H5.78566C5.20734 12.8588 4.59222 12.7751 4.10032 12.4918C3.55872 12.1798 3.21423 11.6495 3.21423 10.9302C3.21423 10.5752 3.50205 10.2874 3.85709 10.2874C4.21213 10.2874 4.49995 10.5752 4.49995 10.9302C4.49995 11.1752 4.58618 11.2879 4.74208 11.3777C4.94768 11.4961 5.29684 11.5731 5.78566 11.5731C6.05936 11.5731 6.2838 11.5726 6.48146 11.5554C6.67974 11.5382 6.80347 11.5072 6.88107 11.4714C6.94373 11.4425 6.97308 11.4131 6.99705 11.3686C7.02794 11.3113 7.07138 11.1851 7.07138 10.9302C7.07138 10.7021 6.97176 10.5055 6.70001 10.279C6.40708 10.0349 5.99852 9.82684 5.49817 9.57666C5.48658 9.57087 5.47494 9.56505 5.46325 9.55921C5.00656 9.33096 4.46777 9.06167 4.04822 8.71205C3.59676 8.33583 3.21423 7.80925 3.21423 7.0731C3.21423 6.68512 3.27847 6.32912 3.44245 6.02483C3.61335 5.7077 3.86605 5.4961 4.15214 5.36426C4.42329 5.23931 4.715 5.18996 4.97838 5.16704C5.23724 5.14451 5.51479 5.14452 5.7705 5.14453L5.78566 5.14453C6.40733 5.14453 7.01781 5.28533 7.4951 5.58886C7.98564 5.90082 8.35709 6.40742 8.35709 7.0731C8.35709 7.42814 8.06927 7.71596 7.71423 7.71596C7.35919 7.71596 7.07138 7.42814 7.07138 7.0731C7.07138 6.94164 7.01211 6.80539 6.80515 6.67377C6.58494 6.53373 6.23114 6.43025 5.78566 6.43025C5.51196 6.43025 5.28753 6.43071 5.08986 6.44791C4.89159 6.46517 4.76786 6.49619 4.69025 6.53195C4.6276 6.56082 4.59825 6.59029 4.57428 6.63477Z" fill="currentColor"/>
<path fill-rule="evenodd" clip-rule="evenodd" d="M5.78568 11.5703C6.14072 11.5703 6.42854 11.8581 6.42854 12.2132V14.1417C6.42854 14.4968 6.14072 14.7846 5.78568 14.7846C5.43064 14.7846 5.14282 14.4968 5.14282 14.1417V12.2132C5.14282 11.8581 5.43064 11.5703 5.78568 11.5703Z" fill="currentColor"/>
<path fill-rule="evenodd" clip-rule="evenodd" d="M10.2858 12.2132C10.2858 11.8581 10.5736 11.5703 10.9286 11.5703H14.7858C15.1408 11.5703 15.4286 11.8581 15.4286 12.2132C15.4286 12.5682 15.1408 12.856 14.7858 12.856H10.9286C10.5736 12.856 10.2858 12.5682 10.2858 12.2132Z" fill="currentColor"/>
</g>
<defs>
<clipPath id="clip0_8382_21924">
<rect width="18" height="18" fill="currentColor"/>
</clipPath>
</defs>
</svg>
