<svg width="18" height="18" viewBox="0 0 18 18" fill="none" xmlns="http://www.w3.org/2000/svg">
<path fill-rule="evenodd" clip-rule="evenodd" d="M1.92857 1.28572C1.57353 1.28572 1.28572 1.57353 1.28572 1.92857V5.78572C1.28572 6.14076 1.57353 6.42858 1.92857 6.42858H5.78572C6.14076 6.42858 6.42858 6.14076 6.42858 5.78572V1.92857C6.42858 1.57353 6.14076 1.28572 5.78572 1.28572H1.92857ZM0 1.92857C0 0.863452 0.863452 0 1.92857 0H5.78572C6.85084 0 7.71429 0.863452 7.71429 1.92857V5.78572C7.71429 6.85084 6.85084 7.71429 5.78572 7.71429H1.92857C0.863452 7.71429 0 6.85084 0 5.78572V1.92857Z" fill="currentColor"/>
<path fill-rule="evenodd" clip-rule="evenodd" d="M12.2147 1.28572C11.8597 1.28572 11.5718 1.57353 11.5718 1.92857V5.78572C11.5718 6.14076 11.8597 6.42858 12.2147 6.42858H16.0719C16.4269 6.42858 16.7147 6.14076 16.7147 5.78572V1.92857C16.7147 1.57353 16.4269 1.28572 16.0719 1.28572H12.2147ZM10.2861 1.92857C10.2861 0.863452 11.1496 0 12.2147 0H16.0719C17.137 0 18.0004 0.863452 18.0004 1.92857V5.78572C18.0004 6.85084 17.137 7.71429 16.0719 7.71429H12.2147C11.1496 7.71429 10.2861 6.85084 10.2861 5.78572V1.92857Z" fill="currentColor"/>
<path fill-rule="evenodd" clip-rule="evenodd" d="M1.92857 11.5718C1.57353 11.5718 1.28572 11.8597 1.28572 12.2147V16.0719C1.28572 16.4269 1.57353 16.7147 1.92857 16.7147H5.78572C6.14076 16.7147 6.42858 16.4269 6.42858 16.0719V12.2147C6.42858 11.8597 6.14076 11.5718 5.78572 11.5718H1.92857ZM0 12.2147C0 11.1496 0.863452 10.2861 1.92857 10.2861H5.78572C6.85084 10.2861 7.71429 11.1496 7.71429 12.2147V16.0719C7.71429 17.137 6.85084 18.0004 5.78572 18.0004H1.92857C0.863452 18.0004 0 17.137 0 16.0719V12.2147Z" fill="currentColor"/>
<path fill-rule="evenodd" clip-rule="evenodd" d="M12.2147 11.5718C11.8597 11.5718 11.5718 11.8597 11.5718 12.2147V16.0719C11.5718 16.4269 11.8597 16.7147 12.2147 16.7147H16.0719C16.4269 16.7147 16.7147 16.4269 16.7147 16.0719V12.2147C16.7147 11.8597 16.4269 11.5718 16.0719 11.5718H12.2147ZM10.2861 12.2147C10.2861 11.1496 11.1496 10.2861 12.2147 10.2861H16.0719C17.137 10.2861 18.0004 11.1496 18.0004 12.2147V16.0719C18.0004 17.137 17.137 18.0004 16.0719 18.0004H12.2147C11.1496 18.0004 10.2861 17.137 10.2861 16.0719V12.2147Z" fill="currentColor"/>
</svg>
