<svg width="24" height="24" viewBox="0 0 24 24" fill="none" xmlns="http://www.w3.org/2000/svg">
    <path fill-rule="evenodd" clip-rule="evenodd" d="M0.753154 7.61033C1.23539 7.1281 1.88944 6.85718 2.57143 6.85718H21.4286C22.1106 6.85718 22.7646 7.1281 23.2468 7.61033C23.7291 8.09257 24 8.74662 24 9.42861V17.1429C24 17.8249 23.7291 18.4789 23.2468 18.9612C22.7646 19.4434 22.1106 19.7143 21.4286 19.7143H18C17.5266 19.7143 17.1429 19.3306 17.1429 18.8572C17.1429 18.3838 17.5266 18 18 18H21.4286C21.6559 18 21.8739 17.9097 22.0347 17.749C22.1954 17.5882 22.2857 17.3702 22.2857 17.1429V9.42861C22.2857 9.20128 22.1954 8.98326 22.0347 8.82252C21.8739 8.66177 21.6559 8.57146 21.4286 8.57146H2.57143C2.3441 8.57146 2.12608 8.66177 1.96534 8.82252C1.80459 8.98326 1.71429 9.20128 1.71429 9.42861V17.1429C1.71429 17.3702 1.80459 17.5882 1.96534 17.749C2.12608 17.9097 2.3441 18 2.57143 18H6C6.47339 18 6.85714 18.3838 6.85714 18.8572C6.85714 19.3306 6.47339 19.7143 6 19.7143H2.57143C1.88944 19.7143 1.23539 19.4434 0.753154 18.9612C0.270918 18.4789 0 17.8249 0 17.1429V9.42861C0 8.74662 0.270918 8.09257 0.753154 7.61033Z" fill="currentColor" />
    <path fill-rule="evenodd" clip-rule="evenodd" d="M5.14258 16.2856C5.14258 15.8122 5.52633 15.4285 5.99972 15.4285H17.9997C18.4731 15.4285 18.8569 15.8122 18.8569 16.2856V22.2856C18.8569 22.7403 18.6763 23.1763 18.3548 23.4978C18.0333 23.8193 17.5972 23.9999 17.1426 23.9999H6.85686C6.40221 23.9999 5.96617 23.8193 5.64468 23.4978C5.32319 23.1763 5.14258 22.7403 5.14258 22.2856V16.2856ZM6.85686 17.1428V22.2856H17.1426V17.1428H6.85686Z" fill="currentColor" />
    <path fill-rule="evenodd" clip-rule="evenodd" d="M5.64468 0.502103C5.96617 0.180612 6.40221 0 6.85686 0H17.1426C17.5972 0 18.0333 0.180611 18.3548 0.502103C18.6763 0.823595 18.8569 1.25963 18.8569 1.71429V7.71429C18.8569 8.18767 18.4731 8.57143 17.9997 8.57143C17.5263 8.57143 17.1426 8.18767 17.1426 7.71429V1.71429H6.85686L6.85686 7.71429C6.85686 8.18767 6.47311 8.57143 5.99972 8.57143C5.52633 8.57143 5.14258 8.18767 5.14258 7.71429V1.71429C5.14258 1.25963 5.32319 0.823593 5.64468 0.502103Z" fill="currentColor" />
    <path fill-rule="evenodd" clip-rule="evenodd" d="M16.2861 12C16.2861 11.5266 16.6699 11.1428 17.1433 11.1428H18.8576C19.3309 11.1428 19.7147 11.5266 19.7147 12C19.7147 12.4734 19.3309 12.8571 18.8576 12.8571H17.1433C16.6699 12.8571 16.2861 12.4734 16.2861 12Z" fill="currentColor" />
</svg>