<?xml version="1.0" encoding="UTF-8"?>
<svg xmlns="http://www.w3.org/2000/svg" xmlns:xlink="http://www.w3.org/1999/xlink" width="12px" height="12px" viewBox="0 0 12 12" version="1.1">
<g id="surface1">
<path style=" stroke:none;fill-rule:evenodd;fill:rgb(0%,0%,0%);fill-opacity:1;" d="M 0 10.894531 C 0 10.671875 0.179688 10.492188 0.402344 10.492188 L 9.277344 10.492188 C 9.5 10.492188 9.679688 10.671875 9.679688 10.894531 C 9.679688 11.117188 9.5 11.296875 9.277344 11.296875 L 0.402344 11.296875 C 0.179688 11.296875 0 11.117188 0 10.894531 Z M 0 10.894531 "/>
<path style=" stroke:none;fill-rule:evenodd;fill:rgb(0%,0%,0%);fill-opacity:1;" d="M 9.230469 0.808594 C 9.175781 0.808594 9.121094 0.816406 9.074219 0.835938 C 9.023438 0.859375 8.980469 0.886719 8.941406 0.925781 L 3.605469 6.25 L 3.3125 8.007812 L 5.046875 7.699219 L 10.371094 2.359375 L 10.371094 2.355469 C 10.410156 2.320312 10.441406 2.273438 10.460938 2.226562 C 10.480469 2.175781 10.492188 2.125 10.492188 2.070312 C 10.492188 2.015625 10.480469 1.964844 10.460938 1.914062 C 10.441406 1.867188 10.410156 1.820312 10.371094 1.785156 L 10.371094 1.78125 L 9.515625 0.925781 C 9.476562 0.886719 9.433594 0.859375 9.382812 0.835938 C 9.335938 0.816406 9.28125 0.808594 9.230469 0.808594 Z M 8.761719 0.09375 C 8.910156 0.03125 9.070312 0 9.230469 0 C 9.390625 0 9.546875 0.03125 9.695312 0.09375 C 9.839844 0.15625 9.976562 0.246094 10.085938 0.355469 C 10.085938 0.359375 10.089844 0.359375 10.089844 0.359375 L 10.941406 1.210938 C 11.054688 1.324219 11.144531 1.457031 11.207031 1.605469 C 11.265625 1.753906 11.300781 1.910156 11.300781 2.070312 C 11.300781 2.230469 11.265625 2.386719 11.207031 2.535156 C 11.144531 2.683594 11.054688 2.816406 10.941406 2.929688 L 5.53125 8.355469 C 5.472656 8.414062 5.394531 8.453125 5.316406 8.46875 L 2.894531 8.90625 C 2.765625 8.925781 2.632812 8.886719 2.539062 8.792969 C 2.445312 8.703125 2.40625 8.570312 2.425781 8.441406 L 2.828125 5.988281 C 2.84375 5.90625 2.882812 5.828125 2.941406 5.769531 L 8.371094 0.359375 C 8.371094 0.359375 8.371094 0.355469 8.371094 0.355469 C 8.484375 0.242188 8.617188 0.15625 8.761719 0.09375 Z M 8.761719 0.09375 "/>
</g>
</svg>
