<svg width="22" height="22" viewBox="0 0 22 22" fill="none" xmlns="http://www.w3.org/2000/svg">
<path fill-rule="evenodd" clip-rule="evenodd" d="M11 1.57143C5.79274 1.57143 1.57143 5.79274 1.57143 11C1.57143 16.2073 5.79274 20.4286 11 20.4286C16.2073 20.4286 20.4286 16.2073 20.4286 11C20.4286 5.79274 16.2073 1.57143 11 1.57143ZM0 11C0 4.92487 4.92487 0 11 0C17.0751 0 22 4.92487 22 11C22 17.0751 17.0751 22 11 22C4.92487 22 0 17.0751 0 11Z" fill="#FF8030"/>
<path fill-rule="evenodd" clip-rule="evenodd" d="M11.3066 7.10162C11.0018 7.04099 10.6858 7.07211 10.3987 7.19105C10.1115 7.30999 9.86611 7.5114 9.69344 7.76982C9.52077 8.02824 9.42861 8.33206 9.42861 8.64286C9.42861 9.0768 9.07683 9.42857 8.64289 9.42857C8.20895 9.42857 7.85718 9.0768 7.85718 8.64286C7.85718 8.02126 8.0415 7.41362 8.38684 6.89678C8.73219 6.37994 9.22303 5.97711 9.79732 5.73924C10.3716 5.50136 11.0035 5.43912 11.6132 5.56039C12.2228 5.68166 12.7828 5.98099 13.2224 6.42052C13.6619 6.86006 13.9612 7.42006 14.0825 8.02972C14.2038 8.63937 14.1415 9.2713 13.9037 9.84558C13.6658 10.4199 13.263 10.9107 12.7461 11.256C12.4508 11.4533 12.126 11.5981 11.7857 11.6859V12.5714C11.7857 13.0054 11.434 13.3571 11 13.3571C10.5661 13.3571 10.2143 13.0054 10.2143 12.5714V11C10.2143 10.5661 10.5661 10.2143 11 10.2143C11.3108 10.2143 11.6147 10.1221 11.8731 9.94945C12.1315 9.77678 12.3329 9.53136 12.4518 9.24422C12.5708 8.95708 12.6019 8.64112 12.5413 8.33629C12.4806 8.03146 12.331 7.75146 12.1112 7.53169C11.8914 7.31192 11.6114 7.16226 11.3066 7.10162Z" fill="#FF8030"/>
<path d="M11 14.9297C10.7669 14.9297 10.539 14.9988 10.3452 15.1283C10.1514 15.2578 10.0003 15.4419 9.91113 15.6572C9.82192 15.8726 9.79858 16.1096 9.84406 16.3382C9.88953 16.5668 10.0018 16.7768 10.1666 16.9416C10.3314 17.1065 10.5414 17.2187 10.7701 17.2642C10.9987 17.3097 11.2356 17.2863 11.451 17.1971C11.6664 17.1079 11.8504 16.9569 11.9799 16.763C12.1094 16.5692 12.1786 16.3414 12.1786 16.1083C12.1745 15.7969 12.049 15.4995 11.8289 15.2794C11.6087 15.0592 11.3113 14.9338 11 14.9297Z" fill="#FF8030"/>
</svg>
