<svg xmlns="http://www.w3.org/2000/svg" width="16" height="16" viewBox="0 0 16 16" fill="none">
<path fill-rule="evenodd" clip-rule="evenodd" d="M4.00042 1.14286C3.68483 1.14286 3.42899 1.39869 3.42899 1.71429V14.2857C3.42899 14.6013 3.68483 14.8571 4.00042 14.8571H12.0004C12.316 14.8571 12.5718 14.6013 12.5718 14.2857V1.71429C12.5718 1.39869 12.316 1.14286 12.0004 1.14286H4.00042ZM2.28613 1.71429C2.28613 0.767512 3.05364 0 4.00042 0H12.0004C12.9472 0 13.7147 0.767512 13.7147 1.71429V14.2857C13.7147 15.2325 12.9472 16 12.0004 16H4.00042C3.05364 16 2.28613 15.2325 2.28613 14.2857V1.71429Z" fill="currentColor"/>
<path fill-rule="evenodd" clip-rule="evenodd" d="M8.57227 8.57143C8.57227 8.25584 8.8281 8 9.14369 8H10.2866C10.6021 8 10.858 8.25584 10.858 8.57143C10.858 8.88702 10.6021 9.14286 10.2866 9.14286H9.14369C8.8281 9.14286 8.57227 8.88702 8.57227 8.57143Z" fill="currentColor"/>
</svg>