<svg viewBox="0 0 20 20" fill="currentColor" xmlns="http://www.w3.org/2000/svg" preserveAspectRatio="xMinYMin slice">
<path d="M10.0004 10.4804C7.84929 10.4804 6.14634 8.73266 6.14634 6.62639C6.14634 4.52011 7.84929 2.72754 10.0004 2.72754C12.1515 2.72754 13.8544 4.4753 13.8544 6.58157C13.8544 8.68785 12.1515 10.4804 10.0004 10.4804ZM10.0004 3.48938C8.29743 3.48938 6.86337 4.87863 6.86337 6.62639C6.86337 8.37414 8.25262 9.76339 10.0004 9.76339C11.7481 9.76339 13.1374 8.37414 13.1374 6.62639C13.1374 4.87863 11.7033 3.48938 10.0004 3.48938Z" fill="#999999"/>
<path d="M16.364 17.0681H15.6021V16.0822C15.6021 12.99 13.0926 10.4804 10.0004 10.4804C6.90819 10.4804 4.39856 12.99 4.39856 16.0822V17.0681H3.63672V16.0822C3.63672 12.5867 6.50484 9.71855 10.0004 9.71855C13.4959 9.71855 16.364 12.5867 16.364 16.0822V17.0681Z" fill="#999999"/>
<path d="M16.364 17.0681V17.5681C16.6401 17.5681 16.864 17.3442 16.864 17.0681H16.364ZM15.6021 17.0681H15.1021C15.1021 17.3442 15.326 17.5681 15.6021 17.5681V17.0681ZM4.39856 17.0681V17.5681C4.6747 17.5681 4.89856 17.3442 4.89856 17.0681H4.39856ZM3.63672 17.0681H3.13672C3.13672 17.3442 3.36058 17.5681 3.63672 17.5681V17.0681ZM10.0004 9.98042C8.12921 9.98042 6.64634 8.46031 6.64634 6.62639H5.64634C5.64634 9.00501 7.56937 10.9804 10.0004 10.9804V9.98042ZM6.64634 6.62639C6.64634 4.78492 8.13663 3.22754 10.0004 3.22754V2.22754C7.56194 2.22754 5.64634 4.25531 5.64634 6.62639H6.64634ZM10.0004 3.22754C11.8715 3.22754 13.3544 4.74765 13.3544 6.58157H14.3544C14.3544 4.20295 12.4314 2.22754 10.0004 2.22754V3.22754ZM13.3544 6.58157C13.3544 8.42304 11.8641 9.98042 10.0004 9.98042V10.9804C12.4388 10.9804 14.3544 8.95265 14.3544 6.58157H13.3544ZM10.0004 2.98938C8.02594 2.98938 6.36337 4.59785 6.36337 6.62639H7.36337C7.36337 5.1594 8.56892 3.98938 10.0004 3.98938V2.98938ZM6.36337 6.62639C6.36337 8.65029 7.97647 10.2634 10.0004 10.2634V9.26339C8.52876 9.26339 7.36337 8.098 7.36337 6.62639H6.36337ZM10.0004 10.2634C12.0243 10.2634 13.6374 8.65029 13.6374 6.62639H12.6374C12.6374 8.098 11.472 9.26339 10.0004 9.26339V10.2634ZM13.6374 6.62639C13.6374 4.59785 11.9748 2.98938 10.0004 2.98938V3.98938C11.4318 3.98938 12.6374 5.1594 12.6374 6.62639H13.6374ZM16.364 16.5681H15.6021V17.5681H16.364V16.5681ZM16.1021 17.0681V16.0822H15.1021V17.0681H16.1021ZM16.1021 16.0822C16.1021 12.7139 13.3687 9.98042 10.0004 9.98042V10.9804C12.8164 10.9804 15.1021 13.2661 15.1021 16.0822H16.1021ZM10.0004 9.98042C6.63205 9.98042 3.89856 12.7139 3.89856 16.0822H4.89856C4.89856 13.2661 7.18432 10.9804 10.0004 10.9804V9.98042ZM3.89856 16.0822V17.0681H4.89856V16.0822H3.89856ZM4.39856 16.5681H3.63672V17.5681H4.39856V16.5681ZM4.13672 17.0681V16.0822H3.13672V17.0681H4.13672ZM4.13672 16.0822C4.13672 12.8628 6.78098 10.2186 10.0004 10.2186V9.21855C6.22869 9.21855 3.13672 12.3105 3.13672 16.0822H4.13672ZM10.0004 10.2186C13.2197 10.2186 15.864 12.8628 15.864 16.0822H16.864C16.864 12.3105 13.772 9.21855 10.0004 9.21855V10.2186ZM15.864 16.0822V17.0681H16.864V16.0822H15.864Z" fill="#999999"/>
</svg>
