<svg width="18" height="18" viewBox="0 0 18 18" fill="none" xmlns="http://www.w3.org/2000/svg">
<g clip-path="url(#clip0_3588_1638)">
<path fill-rule="evenodd" clip-rule="evenodd" d="M8.99981 1.46438e-06C10.3542 -0.000771109 11.6914 0.30416 12.9115 0.892067C14.1318 1.48 15.2035 2.33577 16.047 3.39558C16.8904 4.4554 17.4838 5.69192 17.7829 7.01298C18.0819 8.33404 18.0789 9.70555 17.7741 11.0253C17.4693 12.345 16.8706 13.579 16.0225 14.6351C15.1744 15.6912 14.0989 16.5423 12.8761 17.1249C11.6533 17.7075 10.3148 18.0066 8.96037 17.9999C7.67735 17.9935 6.41136 17.7129 5.24701 17.1779L0.757254 17.9897C0.529573 18.0309 0.297332 17.9466 0.14915 17.7689C0.000967985 17.5912 -0.0402932 17.3475 0.0411109 17.131L1.3294 13.7034C0.538697 12.4134 0.0849892 10.9432 0.0128093 9.42834C-0.0646712 7.80221 0.300371 6.18551 1.06906 4.75044C1.83774 3.31537 2.98128 2.11568 4.37788 1.27913C5.77443 0.442609 7.37172 0.000540686 8.99963 1.51315e-06M9.00039 1.28572L9.00001 0.642859L9.00021 1.28572C7.6048 1.28615 6.23564 1.66507 5.03856 2.38211C3.84147 3.09915 2.8613 4.12746 2.20242 5.35752C1.54355 6.58758 1.23065 7.97332 1.29707 9.36715C1.36348 10.761 1.80671 12.1107 2.57955 13.2725C2.69403 13.4446 2.71877 13.6613 2.64605 13.8548L1.64316 16.523L5.22134 15.876C5.35603 15.8516 5.49499 15.8709 5.61797 15.931C6.66107 16.4407 7.80577 16.7084 8.96674 16.7142C10.1277 16.7199 11.275 16.4636 12.3231 15.9642C13.3712 15.4648 14.2931 14.7353 15.02 13.8301C15.7469 12.9248 16.2601 11.8672 16.5214 10.736C16.7826 9.60476 16.7852 8.42917 16.5289 7.29684C16.2725 6.1645 15.7639 5.10463 15.041 4.19621C14.318 3.2878 13.3994 2.55429 12.3534 2.05034C11.3075 1.5464 10.1614 1.28503 9.00039 1.28572Z" fill="currentColor"/>
</g>
<defs>
<clipPath id="clip0_3588_1638">
<rect width="18" height="18" fill="currentColor"/>
</clipPath>
</defs>
</svg>
