<svg width="22" height="22" viewBox="0 0 22 22" fill="none" xmlns="http://www.w3.org/2000/svg">
<path fill-rule="evenodd" clip-rule="evenodd" d="M9.30286 1.57143C5.03291 1.57143 1.57143 5.03291 1.57143 9.30286C1.57143 13.5728 5.03291 17.0343 9.30286 17.0343C13.5728 17.0343 17.0343 13.5728 17.0343 9.30286C17.0343 5.03291 13.5728 1.57143 9.30286 1.57143ZM0 9.30286C0 4.16503 4.16503 0 9.30286 0C14.4407 0 18.6057 4.16503 18.6057 9.30286C18.6057 14.4407 14.4407 18.6057 9.30286 18.6057C4.16503 18.6057 0 14.4407 0 9.30286Z" fill="currentColor"/>
<path fill-rule="evenodd" clip-rule="evenodd" d="M14.7663 14.7658C15.0731 14.4589 15.5706 14.4589 15.8774 14.7658L21.7703 20.6586C22.0771 20.9655 22.0771 21.463 21.7703 21.7698C21.4634 22.0766 20.966 22.0766 20.6591 21.7698L14.7663 15.8769C14.4594 15.5701 14.4594 15.0726 14.7663 14.7658Z" fill="currentColor"/>
</svg>
