<svg width="22" height="22" viewBox="0 0 22 22" fill="none" xmlns="http://www.w3.org/2000/svg">
<path fill-rule="evenodd" clip-rule="evenodd" d="M18.7275 7.96201C19.0169 7.63862 19.5136 7.61102 19.837 7.90037C20.4583 8.45632 20.9794 8.99393 21.3676 9.41441L21.3735 9.42088L21.3735 9.42092C21.7644 9.85404 21.9808 10.4168 21.9808 11.0002C21.9808 11.5836 21.7644 12.1464 21.3735 12.5795L21.3659 12.588L21.3658 12.5879C20.5156 13.5029 19.1136 14.862 17.3448 15.9967C15.5801 17.1288 13.3971 18.0716 11.0002 18.0716H10.3717C9.93771 18.0716 9.58594 17.7199 9.58594 17.2859C9.58594 16.852 9.93771 16.5002 10.3717 16.5002H11.0002C12.9877 16.5002 14.8746 15.7145 16.4963 14.6741C18.1109 13.6382 19.4099 12.3837 20.2101 11.5231C20.3384 11.3792 20.4094 11.1931 20.4094 11.0002C20.4094 10.807 20.3382 10.6205 20.2094 10.4765C19.8437 10.0805 19.3603 9.58247 18.7892 9.07146C18.4658 8.78212 18.4382 8.2854 18.7275 7.96201Z" fill="currentColor"/>
<path fill-rule="evenodd" clip-rule="evenodd" d="M1.7902 10.4773C1.66191 10.6212 1.59096 10.8073 1.59096 11.0001C1.59096 11.194 1.66264 11.381 1.79218 11.5252C3.14148 13.0033 4.71932 14.2552 6.46547 15.2332C6.84407 15.4452 6.9791 15.924 6.76706 16.3026C6.55502 16.6812 6.0762 16.8163 5.6976 16.6042C3.80391 15.5437 2.09284 14.1858 0.629744 12.5826L0.626814 12.5794L0.626823 12.5794C0.235914 12.1463 0.0195312 11.5836 0.0195312 11.0001C0.0195312 10.4167 0.235914 9.85398 0.626823 9.42085L0.634461 9.41239L0.634522 9.41245C1.48472 8.49747 2.88671 7.13836 4.65549 6.00364C6.42018 4.87153 8.60327 3.92871 11.0001 3.92871L11.0165 3.92888C12.8765 3.96776 14.6968 4.47372 16.31 5.40023C16.6863 5.61634 16.8161 6.09658 16.6 6.47288C16.3839 6.84917 15.9037 6.97902 15.5274 6.76291C14.145 5.969 12.5856 5.53483 10.9919 5.50014C9.00748 5.50229 7.12353 6.28732 5.50401 7.32629C3.88939 8.36211 2.59037 9.61666 1.7902 10.4773Z" fill="currentColor"/>
<path fill-rule="evenodd" clip-rule="evenodd" d="M20.1985 1.80142C20.5054 2.10826 20.5054 2.60575 20.1985 2.91259L2.91283 20.1983C2.60599 20.5051 2.1085 20.5051 1.80166 20.1983C1.49482 19.8915 1.49482 19.394 1.80166 19.0871L19.0874 1.80142C19.3942 1.49458 19.8917 1.49458 20.1985 1.80142Z" fill="currentColor"/>
<path fill-rule="evenodd" clip-rule="evenodd" d="M10.9984 8.64272C10.3739 8.64316 9.77501 8.89145 9.33335 9.33311C8.89169 9.77477 8.6434 10.3736 8.64296 10.9982C8.64603 11.6217 8.89605 12.2187 9.33831 12.6583C9.64607 12.9643 9.64755 13.4617 9.34163 13.7695C9.03571 14.0773 8.53822 14.0787 8.23047 13.7728C7.49271 13.0394 7.07593 12.0434 7.07154 11.0032L7.07153 10.9999C7.07153 9.95794 7.48543 8.95869 8.22218 8.22194C8.95894 7.48519 9.95818 7.07129 11.0001 7.07129H11.0034L11.0034 7.0713C12.0437 7.07568 13.0397 7.49246 13.7731 8.23022C14.079 8.53798 14.0775 9.03547 13.7697 9.34139C13.462 9.64731 12.9645 9.64582 12.6586 9.33807C12.2189 8.8958 11.622 8.64578 10.9984 8.64272Z" fill="currentColor"/>
<path fill-rule="evenodd" clip-rule="evenodd" d="M14.1311 11.8928C14.5056 12.1119 14.6317 12.5932 14.4125 12.9677C14.0629 13.5655 13.5614 14.0602 12.959 14.4017C12.5815 14.6157 12.102 14.4831 11.888 14.1056C11.674 13.7281 11.8065 13.2486 12.184 13.0346C12.5455 12.8297 12.8464 12.5329 13.0562 12.1743C13.2753 11.7997 13.7565 11.6737 14.1311 11.8928Z" fill="currentColor"/>
</svg>
