<svg width="24" height="24" fill="none" xmlns="http://www.w3.org/2000/svg"><path fill-rule="evenodd" clip-rule="evenodd" d="M2.571 7.948a.857.857 0 0 0-.857.857v12c0 .473.384.857.857.857h18.857a.857.857 0 0 0 .858-.857v-12a.857.857 0 0 0-.858-.857H2.572ZM0 8.805A2.571 2.571 0 0 1 2.57 6.233h18.857A2.571 2.571 0 0 1 24 8.805v12a2.571 2.571 0 0 1-2.572 2.571H2.572A2.571 2.571 0 0 1 0 20.805v-12Z" fill="#175CFF"/><path fill-rule="evenodd" clip-rule="evenodd" d="M0 13.948c0-.473.384-.857.857-.857h22.286a.857.857 0 0 1 0 1.714H.857A.857.857 0 0 1 0 13.948Z" fill="#175CFF"/><path fill-rule="evenodd" clip-rule="evenodd" d="M12 11.377c.473 0 .857.384.857.857v3.429a.857.857 0 1 1-1.714 0v-3.429c0-.473.384-.857.857-.857ZM7.757 2.848A6 6 0 0 1 18 7.091a.857.857 0 1 1-1.714 0 4.286 4.286 0 0 0-8.572 0A.857.857 0 1 1 6 7.09a6 6 0 0 1 1.757-4.243Z" fill="#175CFF"/></svg>