<svg width="33" height="31" viewBox="0 0 33 31" fill="none" xmlns="http://www.w3.org/2000/svg">
<path d="M17.2519 0.537892L20.6052 10.7088C20.7112 11.0295 21.0134 11.2456 21.3563 11.2456H32.2095C32.9737 11.2456 33.2919 12.2105 32.6729 12.6528L23.8916 18.9386C23.6156 19.1361 23.4993 19.4883 23.6054 19.8075L26.9587 29.9785C27.1955 30.6956 26.363 31.2912 25.7441 30.8474L16.9627 24.5616C16.6867 24.364 16.3118 24.364 16.0343 24.5616L7.25303 30.8474C6.6341 31.2897 5.80159 30.6942 6.03841 29.9785L9.3917 19.8075C9.49776 19.4869 9.38153 19.1361 9.10548 18.9386L0.32707 12.6542C-0.291864 12.2119 0.0263201 11.2471 0.790544 11.2471H11.6451C11.9866 11.2471 12.2902 11.0295 12.3963 10.7102L15.7496 0.537892C15.9864 -0.179297 17.0151 -0.179297 17.2519 0.537892V0.537892Z" fill="#15357A"/>
</svg>
