<svg width="19" height="19" viewBox="0 0 19 19" fill="none" xmlns="http://www.w3.org/2000/svg">
<path fill-rule="evenodd" clip-rule="evenodd" d="M0 17.3645C0 17.0095 0.287817 16.7217 0.642857 16.7217H14.7857C15.1408 16.7217 15.4286 17.0095 15.4286 17.3645C15.4286 17.7196 15.1408 18.0074 14.7857 18.0074H0.642857C0.287817 18.0074 0 17.7196 0 17.3645Z" fill="currentColor"/>
<path fill-rule="evenodd" clip-rule="evenodd" d="M14.7089 1.28571C14.624 1.28571 14.54 1.30252 14.4616 1.33515C14.3833 1.36779 14.3122 1.41562 14.2524 1.47587L14.2499 1.47842L14.2499 1.47841L5.74384 9.95919L5.28237 12.7649L8.04478 12.2677L16.5293 3.75785L16.5319 3.75531C16.5921 3.69555 16.6399 3.62445 16.6726 3.54611C16.7052 3.46777 16.722 3.38375 16.722 3.29888C16.722 3.21402 16.7052 3.12999 16.6726 3.05166C16.6399 2.97332 16.5921 2.90222 16.5319 2.84246L16.53 2.8406L15.1671 1.47774L15.1653 1.47587C15.1055 1.41562 15.0344 1.36779 14.9561 1.33515C14.8777 1.30252 14.7937 1.28571 14.7089 1.28571ZM13.9672 0.14832C14.2022 0.0504096 14.4543 0 14.7089 0C14.9635 0 15.2155 0.0504093 15.4505 0.14832C15.6851 0.246029 15.898 0.389114 16.077 0.569349C16.0774 0.569722 16.0778 0.570095 16.0781 0.570468L17.4373 1.9296C17.4376 1.92993 17.4379 1.93026 17.4383 1.93059C17.6186 2.10967 17.7617 2.32262 17.8594 2.5572C17.9573 2.79221 18.0077 3.04429 18.0077 3.29888C18.0077 3.55348 17.9573 3.80555 17.8594 4.04057C17.7618 4.27495 17.6188 4.48774 17.4387 4.66673C17.4382 4.66721 17.4378 4.66769 17.4373 4.66817L8.81267 13.3185C8.71985 13.4116 8.60071 13.474 8.47131 13.4973L4.61417 14.1916C4.40864 14.2286 4.19794 14.1634 4.04916 14.0169C3.90038 13.8703 3.83206 13.6606 3.86595 13.4546L4.50881 9.54598C4.53068 9.41299 4.59381 9.29023 4.68925 9.19507L13.3396 0.570468C13.34 0.569995 13.3405 0.569521 13.341 0.569048C13.52 0.388954 13.7328 0.245974 13.9672 0.14832Z" fill="currentColor"/>
</svg>
