<svg width="18" height="18" viewBox="0 0 18 18" fill="none" xmlns="http://www.w3.org/2000/svg">
<path fill-rule="evenodd" clip-rule="evenodd" d="M8.54543 1.18145C8.79648 0.930401 9.20352 0.930401 9.45457 1.18145L17.8117 9.53859C18.0628 9.78965 18.0628 10.1967 17.8117 10.4477C17.5607 10.6988 17.1536 10.6988 16.9026 10.4477L9 2.54516L1.09743 10.4477C0.846374 10.6988 0.43934 10.6988 0.188288 10.4477C-0.0627628 10.1967 -0.0627628 9.78965 0.188288 9.53859L8.54543 1.18145Z" fill="currentColor"/>
<path fill-rule="evenodd" clip-rule="evenodd" d="M3.21415 6.7793C3.56919 6.7793 3.857 7.06711 3.857 7.42215V15.1364H14.1427V7.42215C14.1427 7.06711 14.4305 6.7793 14.7856 6.7793C15.1406 6.7793 15.4284 7.06711 15.4284 7.42215V15.7793C15.4284 16.1343 15.1406 16.4222 14.7856 16.4222H3.21415C2.85911 16.4222 2.57129 16.1343 2.57129 15.7793V7.42215C2.57129 7.06711 2.85911 6.7793 3.21415 6.7793Z" fill="currentColor"/>
<path fill-rule="evenodd" clip-rule="evenodd" d="M9.00028 9.99316C9.35532 9.99316 9.64314 10.281 9.64314 10.636V15.7789C9.64314 16.1339 9.35532 16.4217 9.00028 16.4217C8.64524 16.4217 8.35742 16.1339 8.35742 15.7789V10.636C8.35742 10.281 8.64524 9.99316 9.00028 9.99316Z" fill="currentColor"/>
</svg>
