<svg width="20" height="20" viewBox="0 0 20 20" fill="none" xmlns="http://www.w3.org/2000/svg">
<mask id="mask0_3742_1997" style="mask-type:alpha" maskUnits="userSpaceOnUse" x="4" y="4" width="12" height="12">
<path fill-rule="evenodd" clip-rule="evenodd" d="M15.8605 8.90909H10.1395V11.2273H13.4326C13.1256 12.7 11.8419 13.5455 10.1395 13.5455C8.13023 13.5455 6.51163 11.9636 6.51163 10C6.51163 8.03636 8.13023 6.45455 10.1395 6.45455C11.0047 6.45455 11.786 6.75455 12.4 7.24545L14.186 5.5C13.0977 4.57273 11.7023 4 10.1395 4C6.73488 4 4 6.67273 4 10C4 13.3273 6.73488 16 10.1395 16C13.2093 16 16 13.8182 16 10C16 9.64545 15.9442 9.26364 15.8605 8.90909Z" fill="currentColor"/>
</mask>
<g mask="url(#mask0_3742_1997)">
<path d="M3.44263 13.546V6.45508L8.18681 10.0005L3.44263 13.546Z" fill="currentColor"/>
</g>
<mask id="mask1_3742_1997" style="mask-type:alpha" maskUnits="userSpaceOnUse" x="4" y="4" width="12" height="12">
<path fill-rule="evenodd" clip-rule="evenodd" d="M15.8605 8.90909H10.1395V11.2273H13.4326C13.1256 12.7 11.8419 13.5455 10.1395 13.5455C8.13023 13.5455 6.51163 11.9636 6.51163 10C6.51163 8.03636 8.13023 6.45455 10.1395 6.45455C11.0047 6.45455 11.786 6.75455 12.4 7.24545L14.186 5.5C13.0977 4.57273 11.7023 4 10.1395 4C6.73488 4 4 6.67273 4 10C4 13.3273 6.73488 16 10.1395 16C13.2093 16 16 13.8182 16 10C16 9.64545 15.9442 9.26364 15.8605 8.90909Z" fill="currentColor"/>
</mask>
<g mask="url(#mask1_3742_1997)">
<path d="M3.44263 6.45508L8.18681 10.0005L10.1403 8.3369L16.838 7.27326V3.45508H3.44263V6.45508Z" fill="currentColor"/>
</g>
<mask id="mask2_3742_1997" style="mask-type:alpha" maskUnits="userSpaceOnUse" x="4" y="4" width="12" height="12">
<path fill-rule="evenodd" clip-rule="evenodd" d="M15.8605 8.90909H10.1395V11.2273H13.4326C13.1256 12.7 11.8419 13.5455 10.1395 13.5455C8.13023 13.5455 6.51163 11.9636 6.51163 10C6.51163 8.03636 8.13023 6.45455 10.1395 6.45455C11.0047 6.45455 11.786 6.75455 12.4 7.24545L14.186 5.5C13.0977 4.57273 11.7023 4 10.1395 4C6.73488 4 4 6.67273 4 10C4 13.3273 6.73488 16 10.1395 16C13.2093 16 16 13.8182 16 10C16 9.64545 15.9442 9.26364 15.8605 8.90909Z" fill="currentColor"/>
</mask>
<g mask="url(#mask2_3742_1997)">
<path d="M3.44263 13.546L11.8147 7.27326L14.0194 7.54599L16.838 3.45508V16.546H3.44263V13.546Z" fill="currentColor"/>
</g>
</svg>
