<svg width="16" height="16" viewBox="0 0 16 16" fill="none" xmlns="http://www.w3.org/2000/svg">
<g clip-path="url(#clip0_6613_67464)">
<path fill-rule="evenodd" clip-rule="evenodd" d="M9.88166 0.167368C10.1048 -0.0557892 10.4666 -0.0557892 10.6898 0.167368L13.5469 3.02451C13.7701 3.24767 13.7701 3.60948 13.5469 3.83263L10.6898 6.68977C10.4666 6.91293 10.1048 6.91293 9.88166 6.68977C9.65851 6.46662 9.65851 6.10481 9.88166 5.88165L12.3347 3.42857L9.88166 0.975489C9.65851 0.752333 9.65851 0.390524 9.88166 0.167368Z" fill="currentColor"/>
<path fill-rule="evenodd" clip-rule="evenodd" d="M1.71429 3.99833C1.56273 3.99833 1.41739 4.05853 1.31022 4.16569C1.20306 4.27286 1.14286 4.4182 1.14286 4.56975V6.85547C1.14286 7.17106 0.88702 7.4269 0.571429 7.4269C0.255837 7.4269 0 7.17106 0 6.85547V4.56975C0 4.1151 0.180612 3.67906 0.502103 3.35757C0.823594 3.03608 1.25963 2.85547 1.71429 2.85547H13.1429C13.4585 2.85547 13.7143 3.11131 13.7143 3.4269C13.7143 3.74249 13.4585 3.99833 13.1429 3.99833H1.71429Z" fill="currentColor"/>
<path fill-rule="evenodd" clip-rule="evenodd" d="M6.11834 9.3119C6.34149 9.53506 6.34149 9.89686 6.11834 10.12L3.66526 12.5731L6.11834 15.0262C6.34149 15.2493 6.34149 15.6112 6.11834 15.8343C5.89518 16.0575 5.53337 16.0575 5.31022 15.8343L2.45307 12.9772C2.22992 12.754 2.22992 12.3922 2.45307 12.169L5.31022 9.3119C5.53337 9.08874 5.89518 9.08874 6.11834 9.3119Z" fill="currentColor"/>
<path fill-rule="evenodd" clip-rule="evenodd" d="M15.4286 8.57031C15.7442 8.57031 16 8.82615 16 9.14174V11.4275C16 11.8821 15.8194 12.3181 15.4979 12.6396C15.1764 12.9611 14.7404 13.1417 14.2857 13.1417H2.85713C2.54154 13.1417 2.28571 12.8859 2.28571 12.5703C2.28571 12.2547 2.54154 11.9989 2.85713 11.9989H14.2857C14.4373 11.9989 14.5826 11.9387 14.6898 11.8315C14.7969 11.7244 14.8571 11.579 14.8571 11.4275V9.14174C14.8571 8.82615 15.113 8.57031 15.4286 8.57031Z" fill="currentColor"/>
</g>
<defs>
<clipPath id="clip0_6613_67464">
<rect width="16" height="16" fill="white"/>
</clipPath>
</defs>
</svg>
