<svg width="18" height="18" viewBox="0 0 18 18" fill="none" xmlns="http://www.w3.org/2000/svg">
<g clip-path="url(#clip0_3554_16116)">
<path fill-rule="evenodd" clip-rule="evenodd" d="M2.57143 1.28571C1.86135 1.28571 1.28571 1.86135 1.28571 2.57143C1.28571 3.28151 1.86135 3.85714 2.57143 3.85714C3.28151 3.85714 3.85714 3.28151 3.85714 2.57143C3.85714 1.86135 3.28151 1.28571 2.57143 1.28571ZM0 2.57143C0 1.15127 1.15127 0 2.57143 0C3.99159 0 5.14286 1.15127 5.14286 2.57143C5.14286 3.99159 3.99159 5.14286 2.57143 5.14286C1.15127 5.14286 0 3.99159 0 2.57143Z" fill="currentColor"/>
<path fill-rule="evenodd" clip-rule="evenodd" d="M3.85742 2.57132C3.85742 2.21628 4.14524 1.92847 4.50028 1.92847H17.3574C17.7125 1.92847 18.0003 2.21628 18.0003 2.57132C18.0003 2.92636 17.7125 3.21418 17.3574 3.21418H4.50028C4.14524 3.21418 3.85742 2.92636 3.85742 2.57132Z" fill="currentColor"/>
<path fill-rule="evenodd" clip-rule="evenodd" d="M9.00014 7.71418C8.29006 7.71418 7.71443 8.28982 7.71443 8.9999C7.71443 9.70998 8.29006 10.2856 9.00014 10.2856C9.71022 10.2856 10.2859 9.70998 10.2859 8.9999C10.2859 8.28982 9.71022 7.71418 9.00014 7.71418ZM6.42871 8.9999C6.42871 7.57973 7.57998 6.42847 9.00014 6.42847C10.4203 6.42847 11.5716 7.57973 11.5716 8.9999C11.5716 10.4201 10.4203 11.5713 9.00014 11.5713C7.57998 11.5713 6.42871 10.4201 6.42871 8.9999Z" fill="currentColor"/>
<path fill-rule="evenodd" clip-rule="evenodd" d="M0 9.00003C0 8.64499 0.287817 8.35718 0.642857 8.35718H7.07143C7.42647 8.35718 7.71428 8.64499 7.71428 9.00003C7.71428 9.35507 7.42647 9.64289 7.07143 9.64289H0.642857C0.287817 9.64289 0 9.35507 0 9.00003Z" fill="currentColor"/>
<path fill-rule="evenodd" clip-rule="evenodd" d="M10.2861 9.00003C10.2861 8.64499 10.5739 8.35718 10.929 8.35718H17.3576C17.7126 8.35718 18.0004 8.64499 18.0004 9.00003C18.0004 9.35507 17.7126 9.64289 17.3576 9.64289H10.929C10.5739 9.64289 10.2861 9.35507 10.2861 9.00003Z" fill="currentColor"/>
<path fill-rule="evenodd" clip-rule="evenodd" d="M15.4289 14.1429C14.7188 14.1429 14.1431 14.7185 14.1431 15.4286C14.1431 16.1387 14.7188 16.7143 15.4289 16.7143C16.1389 16.7143 16.7146 16.1387 16.7146 15.4286C16.7146 14.7185 16.1389 14.1429 15.4289 14.1429ZM12.8574 15.4286C12.8574 14.0084 14.0087 12.8572 15.4289 12.8572C16.849 12.8572 18.0003 14.0084 18.0003 15.4286C18.0003 16.8488 16.849 18 15.4289 18C14.0087 18 12.8574 16.8488 12.8574 15.4286Z" fill="currentColor"/>
<path fill-rule="evenodd" clip-rule="evenodd" d="M0 15.4285C0 15.0735 0.287817 14.7856 0.642857 14.7856H13.5C13.855 14.7856 14.1429 15.0735 14.1429 15.4285C14.1429 15.7835 13.855 16.0714 13.5 16.0714H0.642857C0.287817 16.0714 0 15.7835 0 15.4285Z" fill="currentColor"/>
</g>
<defs>
<clipPath id="clip0_3554_16116">
<rect width="18" height="18" fill="#currentColor"/>
</clipPath>
</defs>
</svg>
