<svg width="22" height="22" viewBox="0 0 22 22" fill="none" xmlns="http://www.w3.org/2000/svg">
<path fill-rule="evenodd" clip-rule="evenodd" d="M1.7902 10.4773C1.66191 10.6212 1.59096 10.8073 1.59096 11.0001C1.59096 11.193 1.66191 11.3791 1.7902 11.523C2.59037 12.3836 3.88939 13.6382 5.50401 14.674C7.12575 15.7144 9.01265 16.5001 11.0001 16.5001C12.9876 16.5001 14.8745 15.7144 16.4962 14.674C18.1108 13.6382 19.4098 12.3836 20.21 11.523C20.3383 11.3791 20.4093 11.193 20.4093 11.0001C20.4093 10.8072 20.3383 10.6211 20.21 10.4772C19.4098 9.61663 18.1108 8.3621 16.4962 7.32629C14.8745 6.28589 12.9876 5.50014 11.0001 5.50014C9.01265 5.50014 7.12575 6.28589 5.50401 7.32629C3.88939 8.36211 2.59037 9.61666 1.7902 10.4773ZM4.65549 6.00364C6.42018 4.87153 8.60327 3.92871 11.0001 3.92871C13.3969 3.92871 15.58 4.87153 17.3447 6.00364C19.1135 7.13836 20.5155 8.49747 21.3657 9.41245L21.3735 9.4208L21.3734 9.42085C21.7643 9.85398 21.9807 10.4167 21.9807 11.0001C21.9807 11.5836 21.7643 12.1463 21.3734 12.5794L21.3658 12.5879L21.3657 12.5878C20.5155 13.5028 19.1135 14.8619 17.3447 15.9966C15.58 17.1287 13.3969 18.0716 11.0001 18.0716C8.60327 18.0716 6.42018 17.1287 4.65549 15.9966C2.88671 14.8619 1.48472 13.5028 0.634522 12.5878L0.626761 12.5795L0.626823 12.5794C0.235914 12.1463 0.0195312 11.5836 0.0195312 11.0001C0.0195312 10.4167 0.235914 9.85398 0.626823 9.42085L0.634461 9.41239L0.634522 9.41245C1.48472 8.49747 2.88671 7.13836 4.65549 6.00364Z" fill="currentColor"/>
<path fill-rule="evenodd" clip-rule="evenodd" d="M11.0001 8.64272C9.69829 8.64272 8.64296 9.69805 8.64296 10.9999C8.64296 12.3017 9.69829 13.357 11.0001 13.357C12.3019 13.357 13.3572 12.3017 13.3572 10.9999C13.3572 9.69805 12.3019 8.64272 11.0001 8.64272ZM7.07153 10.9999C7.07153 8.83017 8.83041 7.07129 11.0001 7.07129C13.1698 7.07129 14.9287 8.83017 14.9287 10.9999C14.9287 13.1696 13.1698 14.9284 11.0001 14.9284C8.83041 14.9284 7.07153 13.1696 7.07153 10.9999Z" fill="currentColor"/>
</svg>
