<svg width="32" height="32" viewBox="0 0 32 32" fill="none" xmlns="http://www.w3.org/2000/svg">
<path fill-rule="evenodd" clip-rule="evenodd" d="M5.71373 2.28571C5.41062 2.28571 5.11993 2.40612 4.90561 2.62045C4.69128 2.83478 4.57087 3.12547 4.57087 3.42857V28.5714C4.57087 28.8745 4.69128 29.1652 4.90561 29.3796C5.11993 29.5939 5.41062 29.7143 5.71373 29.7143H26.2852C26.5883 29.7143 26.879 29.5939 27.0933 29.3796C27.3076 29.1652 27.428 28.8745 27.428 28.5714V13.0448L16.6689 2.28571H5.71373ZM3.28936 1.00421C3.93234 0.361223 4.80441 0 5.71373 0H17.1423C17.4454 0 17.7361 0.120408 17.9504 0.334735L29.379 11.7633C29.5933 11.9776 29.7137 12.2683 29.7137 12.5714V28.5714C29.7137 29.4807 29.3525 30.3528 28.7095 30.9958C28.0665 31.6388 27.1945 32 26.2852 32H5.71373C4.80441 32 3.93234 31.6388 3.28936 30.9958C2.64638 30.3528 2.28516 29.4807 2.28516 28.5714V3.42857C2.28516 2.51926 2.64638 1.64719 3.28936 1.00421Z" fill="currentColor"/>
<path fill-rule="evenodd" clip-rule="evenodd" d="M17.1429 0C17.774 0 18.2857 0.511675 18.2857 1.14286V11.4286H28.5714C29.2026 11.4286 29.7143 11.9402 29.7143 12.5714C29.7143 13.2026 29.2026 13.7143 28.5714 13.7143H17.1429C16.5117 13.7143 16 13.2026 16 12.5714V1.14286C16 0.511675 16.5117 0 17.1429 0Z" fill="currentColor"/>
</svg>
