<svg width="18" height="18" viewBox="0 0 18 18" fill="none" xmlns="http://www.w3.org/2000/svg">
<path fill-rule="evenodd" clip-rule="evenodd" d="M6.42829 2.57185C5.18565 2.57185 4.17829 3.57921 4.17829 4.82185C4.17829 6.06449 5.18565 7.07185 6.42829 7.07185C7.67093 7.07185 8.67829 6.06449 8.67829 4.82185C8.67829 3.57921 7.67093 2.57185 6.42829 2.57185ZM2.89258 4.82185C2.89258 2.86913 4.47557 1.28613 6.42829 1.28613C8.38101 1.28613 9.96401 2.86913 9.96401 4.82185C9.96401 6.77457 8.38101 8.35756 6.42829 8.35756C4.47557 8.35756 2.89258 6.77457 2.89258 4.82185Z" fill="currentColor"/>
<path fill-rule="evenodd" clip-rule="evenodd" d="M6.42857 10.9293C5.0646 10.9293 3.7565 11.4711 2.79202 12.4356C1.82755 13.4001 1.28571 14.7082 1.28571 16.0721V16.715H11.5714V16.0721C11.5714 14.7082 11.0296 13.4001 10.0651 12.4356C9.10065 11.4711 7.79254 10.9293 6.42857 10.9293ZM1.88289 11.5264C3.08848 10.3208 4.72361 9.64355 6.42857 9.64355C8.13354 9.64355 9.76867 10.3208 10.9743 11.5264C12.1798 12.732 12.8571 14.3672 12.8571 16.0721V17.3578C12.8571 17.7129 12.5693 18.0007 12.2143 18.0007H0.642857C0.287817 18.0007 0 17.7129 0 17.3578V16.0721C0 14.3672 0.677294 12.732 1.88289 11.5264Z" fill="currentColor"/>
<path fill-rule="evenodd" clip-rule="evenodd" d="M10.9287 1.92899C10.9287 1.57395 11.2165 1.28613 11.5716 1.28613C12.5093 1.28613 13.4086 1.65864 14.0717 2.32172C14.7348 2.98479 15.1073 3.88412 15.1073 4.82185C15.1073 5.75958 14.7348 6.6589 14.0717 7.32198C13.4086 7.98505 12.5093 8.35756 11.5716 8.35756C11.2165 8.35756 10.9287 8.06975 10.9287 7.7147C10.9287 7.35966 11.2165 7.07185 11.5716 7.07185C12.1683 7.07185 12.7406 6.83479 13.1626 6.41284C13.5845 5.99088 13.8216 5.41858 13.8216 4.82185C13.8216 4.22511 13.5845 3.65281 13.1626 3.23086C12.7406 2.8089 12.1683 2.57185 11.5716 2.57185C11.2165 2.57185 10.9287 2.28403 10.9287 1.92899Z" fill="currentColor"/>
<path fill-rule="evenodd" clip-rule="evenodd" d="M13.0275 10.3022C13.1538 9.97032 13.5251 9.80364 13.857 9.92988C15.0739 10.3928 16.1215 11.2143 16.8613 12.2857C17.6011 13.3571 17.9981 14.6279 17.9998 15.9299L17.9998 17.3579C17.9998 17.7129 17.712 18.0007 17.357 18.0007H15.4284C15.0733 18.0007 14.7855 17.7129 14.7855 17.3579C14.7855 17.0028 15.0733 16.715 15.4284 16.715H16.7141V15.9311C16.7126 14.8897 16.395 13.8733 15.8033 13.0163C15.2115 12.1591 14.3733 11.5019 13.3998 11.1316C13.068 11.0053 12.9013 10.634 13.0275 10.3022Z" fill="currentColor"/>
</svg>
