<svg width="16" height="16" viewBox="0 0 16 16" fill="none" xmlns="http://www.w3.org/2000/svg">
<g clip-path="url(#clip0_3230_10770)">
<path fill-rule="evenodd" clip-rule="evenodd" d="M0.571289 4.00014C0.571289 3.68455 0.827126 3.42871 1.14272 3.42871H14.857C15.1726 3.42871 15.4284 3.68455 15.4284 4.00014C15.4284 4.31573 15.1726 4.57157 14.857 4.57157H1.14272C0.827126 4.57157 0.571289 4.31573 0.571289 4.00014Z" fill="currentColor"/>
<path fill-rule="evenodd" clip-rule="evenodd" d="M2.28516 4.00014C2.28516 3.68455 2.54099 3.42871 2.85658 3.42871H13.1423C13.4579 3.42871 13.7137 3.68455 13.7137 4.00014V14.2859C13.7137 14.7405 13.5331 15.1765 13.2116 15.498C12.8901 15.8195 12.4541 16.0001 11.9994 16.0001H3.99944C3.54478 16.0001 3.10875 15.8195 2.78726 15.498C2.46577 15.1765 2.28516 14.7405 2.28516 14.2859V4.00014ZM3.42801 4.57157V14.2859C3.42801 14.4374 3.48822 14.5828 3.59538 14.6899C3.70254 14.7971 3.84789 14.8573 3.99944 14.8573H11.9994C12.151 14.8573 12.2963 14.7971 12.4035 14.6899C12.5107 14.5828 12.5709 14.4374 12.5709 14.2859V4.57157H3.42801Z" fill="currentColor"/>
<path fill-rule="evenodd" clip-rule="evenodd" d="M7.99986 1.14286C7.39365 1.14286 6.81227 1.38367 6.38362 1.81233C5.95496 2.24098 5.71415 2.82236 5.71415 3.42857V4C5.71415 4.31559 5.45831 4.57143 5.14272 4.57143C4.82713 4.57143 4.57129 4.31559 4.57129 4V3.42857C4.57129 2.51926 4.93251 1.64719 5.57549 1.00421C6.21848 0.361223 7.09055 0 7.99986 0C8.90917 0 9.78124 0.361223 10.4242 1.00421C11.0672 1.64719 11.4284 2.51926 11.4284 3.42857V4C11.4284 4.31559 11.1726 4.57143 10.857 4.57143C10.5414 4.57143 10.2856 4.31559 10.2856 4V3.42857C10.2856 2.82236 10.0448 2.24098 9.6161 1.81233C9.18745 1.38367 8.60607 1.14286 7.99986 1.14286Z" fill="currentColor"/>
<path fill-rule="evenodd" clip-rule="evenodd" d="M6.2853 5.71387C6.60089 5.71387 6.85673 5.9697 6.85673 6.2853V12.571C6.85673 12.8866 6.60089 13.1424 6.2853 13.1424C5.9697 13.1424 5.71387 12.8866 5.71387 12.571V6.2853C5.71387 5.9697 5.9697 5.71387 6.2853 5.71387Z" fill="currentColor"/>
<path fill-rule="evenodd" clip-rule="evenodd" d="M9.71401 5.71387C10.0296 5.71387 10.2854 5.9697 10.2854 6.2853V12.571C10.2854 12.8866 10.0296 13.1424 9.71401 13.1424C9.39842 13.1424 9.14258 12.8866 9.14258 12.571V6.2853C9.14258 5.9697 9.39842 5.71387 9.71401 5.71387Z" fill="currentColor"/>
</g>
<defs>
<clipPath id="clip0_3230_10770">
<rect width="16" height="16" fill="currentColor"/>
</clipPath>
</defs>
</svg>
