<svg width="22" height="22" viewBox="0 0 22 22" fill="none" xmlns="http://www.w3.org/2000/svg">
<path fill-rule="evenodd" clip-rule="evenodd" d="M0.785714 15.7143C1.21965 15.7143 1.57143 16.0661 1.57143 16.5V18.0714C1.57143 18.6966 1.81977 19.2961 2.26182 19.7382C2.70387 20.1802 3.30342 20.4286 3.92857 20.4286H18.0714C18.6966 20.4286 19.2961 20.1802 19.7382 19.7382C20.1802 19.2961 20.4286 18.6966 20.4286 18.0714V16.5C20.4286 16.0661 20.7803 15.7143 21.2143 15.7143C21.6482 15.7143 22 16.0661 22 16.5V18.0714C22 19.1134 21.5861 20.1126 20.8493 20.8494C20.1126 21.5861 19.1134 22 18.0714 22H3.92857C2.88665 22 1.8874 21.5861 1.15065 20.8494C0.413902 20.1126 0 19.1134 0 18.0714V16.5C0 16.0661 0.351776 15.7143 0.785714 15.7143Z" fill="currentColor"/>
<path fill-rule="evenodd" clip-rule="evenodd" d="M5.77439 8.83202C6.10386 8.54962 6.59988 8.58777 6.88229 8.91725L11 13.7213L15.1177 8.91725C15.4001 8.58777 15.8962 8.54962 16.2256 8.83202C16.5551 9.11443 16.5933 9.61045 16.3109 9.93992L11.5966 15.4399C11.4473 15.6141 11.2294 15.7143 11 15.7143C10.7706 15.7143 10.5527 15.6141 10.4035 15.4399L5.68917 9.93992C5.40677 9.61045 5.44492 9.11443 5.77439 8.83202Z" fill="currentColor"/>
<path fill-rule="evenodd" clip-rule="evenodd" d="M11.0006 0C11.4345 0 11.7863 0.351776 11.7863 0.785714V14.9286C11.7863 15.3625 11.4345 15.7143 11.0006 15.7143C10.5666 15.7143 10.2148 15.3625 10.2148 14.9286V0.785714C10.2148 0.351776 10.5666 0 11.0006 0Z" fill="currentColor"/>
</svg>
