<svg width="22" height="22" viewBox="0 0 22 22" fill="none" xmlns="http://www.w3.org/2000/svg">
<path d="M11.7695 1.71266L14.2681 6.75695C14.3249 6.88498 14.4143 6.99588 14.5274 7.07859C14.6404 7.16131 14.7732 7.21295 14.9124 7.22837L20.4281 8.04552C20.5878 8.06604 20.7384 8.13159 20.8622 8.23449C20.9861 8.33739 21.0781 8.47341 21.1275 8.62665C21.177 8.77989 21.1818 8.94404 21.1414 9.09992C21.101 9.25579 21.0172 9.39696 20.8995 9.50695L16.9238 13.4512C16.8224 13.546 16.7462 13.6647 16.7023 13.7964C16.6584 13.9282 16.6481 14.0688 16.6724 14.2055L17.631 19.7527C17.6587 19.9121 17.6412 20.076 17.5803 20.2259C17.5195 20.3759 17.4178 20.5057 17.2868 20.6007C17.1558 20.6956 17.0008 20.7519 16.8394 20.7631C16.678 20.7743 16.5167 20.74 16.3738 20.6641L11.4081 18.0398C11.281 17.9774 11.1412 17.9449 10.9995 17.9449C10.8579 17.9449 10.7181 17.9774 10.591 18.0398L5.62526 20.6641C5.4824 20.74 5.32109 20.7743 5.15969 20.7631C4.99829 20.7519 4.84327 20.6956 4.71228 20.6007C4.5813 20.5057 4.47959 20.3759 4.41875 20.2259C4.35791 20.076 4.34036 19.9121 4.36812 19.7527L5.32669 14.1427C5.35098 14.0059 5.34071 13.8653 5.29679 13.7336C5.25288 13.6018 5.17673 13.4832 5.07526 13.3884L1.0524 9.50695C0.933387 9.39395 0.849689 9.24888 0.811447 9.08928C0.773205 8.92969 0.78206 8.76243 0.83694 8.60777C0.89182 8.45311 0.99037 8.31768 1.12065 8.21789C1.25093 8.11809 1.40736 8.05822 1.57098 8.04552L7.08669 7.22837C7.22591 7.21295 7.35867 7.16131 7.47171 7.07859C7.58476 6.99588 7.67415 6.88498 7.73098 6.75695L10.2295 1.71266C10.2976 1.56575 10.4062 1.44136 10.5427 1.35419C10.6791 1.26702 10.8376 1.2207 10.9995 1.2207C11.1615 1.2207 11.32 1.26702 11.4564 1.35419C11.5929 1.44136 11.7015 1.56575 11.7695 1.71266V1.71266Z" stroke="currentColor" stroke-width="1.57143" stroke-linecap="round" stroke-linejoin="round"/>
</svg>
