<svg width="16" height="16" viewBox="0 0 16 16" fill="none" xmlns="http://www.w3.org/2000/svg">
<g clip-path="url(#clip0_6613_67452)">
<path fill-rule="evenodd" clip-rule="evenodd" d="M3.99262 7.74549C4.21578 7.96865 4.21578 8.33046 3.99262 8.55361L1.85631 10.6899C1.85617 10.6901 1.85604 10.6902 1.8559 10.6903C1.39752 11.1508 1.14017 11.7741 1.14017 12.4238C1.14017 13.0734 1.39736 13.6965 1.85547 14.1569C2.3159 14.615 2.93901 14.8722 3.58856 14.8722C4.23838 14.8722 4.86174 14.6148 5.32222 14.1563C5.32231 14.1563 5.32239 14.1562 5.32247 14.1561L6.59022 12.8884C6.81337 12.6652 7.17518 12.6652 7.39834 12.8884C7.62149 13.1115 7.62149 13.4733 7.39834 13.6965L6.12977 14.965L6.12894 14.9659C5.45424 15.6378 4.54079 16.0151 3.58856 16.0151C2.63633 16.0151 1.72289 15.6378 1.04818 14.9659L1.45142 14.561L1.04653 14.9642C0.374582 14.2895 -0.00268555 13.3761 -0.00268555 12.4238C-0.00268555 11.4716 0.374582 10.5582 1.04653 9.88346L1.04736 9.88264L3.1845 7.74549C3.40766 7.52234 3.76947 7.52234 3.99262 7.74549Z" fill="currentColor"/>
<path fill-rule="evenodd" clip-rule="evenodd" d="M8.82288 4.82143C8.82288 4.50584 9.07871 4.25 9.3943 4.25H12.4114C13.3632 4.25 14.276 4.62808 14.949 5.30107C15.6219 5.97406 16 6.88682 16 7.83857C16 8.79032 15.6219 9.70309 14.949 10.3761C14.276 11.0491 13.3632 11.4271 12.4114 11.4271H10.2857C9.97014 11.4271 9.7143 11.1713 9.7143 10.8557C9.7143 10.5401 9.97014 10.2843 10.2857 10.2843H12.4114C13.0601 10.2843 13.6822 10.0266 14.1408 9.56795C14.5995 9.10929 14.8572 8.48722 14.8572 7.83857C14.8572 7.18993 14.5995 6.56785 14.1408 6.10919C13.6822 5.65053 13.0601 5.39286 12.4114 5.39286H9.3943C9.07871 5.39286 8.82288 5.13702 8.82288 4.82143Z" fill="currentColor"/>
<path fill-rule="evenodd" clip-rule="evenodd" d="M8.13858 0.0171966C8.44475 0.0937387 8.6309 0.403987 8.55435 0.710155L7.98293 2.99587C7.90638 3.30204 7.59613 3.48819 7.28997 3.41164C6.9838 3.3351 6.79765 3.02485 6.87419 2.71869L7.44562 0.432972C7.52216 0.126803 7.83241 -0.0593455 8.13858 0.0171966Z" fill="currentColor"/>
<path fill-rule="evenodd" clip-rule="evenodd" d="M0.0603304 3.74569C0.201467 3.46342 0.544709 3.349 0.826982 3.49014L3.1127 4.633C3.39497 4.77413 3.50938 5.11738 3.36825 5.39965C3.22711 5.68192 2.88387 5.79634 2.6016 5.6552L0.315881 4.51234C0.0336076 4.37121 -0.0808063 4.02796 0.0603304 3.74569Z" fill="currentColor"/>
<path fill-rule="evenodd" clip-rule="evenodd" d="M3.173 0.0604525C3.45527 -0.0806842 3.79851 0.0337297 3.93965 0.316003L5.08251 2.60172C5.22364 2.88399 5.10923 3.22723 4.82696 3.36837C4.54468 3.50951 4.20144 3.39509 4.0603 3.11282L2.91745 0.827104C2.77631 0.544831 2.89072 0.201589 3.173 0.0604525Z" fill="currentColor"/>
</g>
<defs>
<clipPath id="clip0_6613_67452">
<rect width="16" height="16" fill="white"/>
</clipPath>
</defs>
</svg>
