<svg width="16" height="16" viewBox="0 0 16 16" fill="none" xmlns="http://www.w3.org/2000/svg">
<path fill-rule="evenodd" clip-rule="evenodd" d="M5.71415 2.28544C4.60958 2.28544 3.71415 3.18087 3.71415 4.28544C3.71415 5.39001 4.60958 6.28544 5.71415 6.28544C6.81872 6.28544 7.71415 5.39001 7.71415 4.28544C7.71415 3.18087 6.81872 2.28544 5.71415 2.28544ZM2.57129 4.28544C2.57129 2.54968 3.97839 1.14258 5.71415 1.14258C7.4499 1.14258 8.857 2.54968 8.857 4.28544C8.857 6.02119 7.4499 7.42829 5.71415 7.42829C3.97839 7.42829 2.57129 6.02119 2.57129 4.28544Z" fill="currentColor"/>
<path fill-rule="evenodd" clip-rule="evenodd" d="M5.71429 9.71415C4.50187 9.71415 3.33911 10.1958 2.4818 11.0531C1.62449 11.9104 1.14286 13.0732 1.14286 14.2856V14.857H10.2857V14.2856C10.2857 13.0732 9.80408 11.9104 8.94677 11.0531C8.08946 10.1958 6.9267 9.71415 5.71429 9.71415ZM1.67368 10.245C2.74531 9.17333 4.19876 8.57129 5.71429 8.57129C7.22981 8.57129 8.68326 9.17333 9.7549 10.245C10.8265 11.3166 11.4286 12.7701 11.4286 14.2856V15.4284C11.4286 15.744 11.1727 15.9999 10.8571 15.9999H0.571429C0.255837 15.9999 0 15.744 0 15.4284V14.2856C0 12.7701 0.602039 11.3166 1.67368 10.245Z" fill="currentColor"/>
<path fill-rule="evenodd" clip-rule="evenodd" d="M9.71387 1.71401C9.71387 1.39842 9.9697 1.14258 10.2853 1.14258C11.1188 1.14258 11.9182 1.4737 12.5076 2.0631C13.097 2.6525 13.4282 3.4519 13.4282 4.28544C13.4282 5.11897 13.097 5.91837 12.5076 6.50777C11.9182 7.09717 11.1188 7.42829 10.2853 7.42829C9.9697 7.42829 9.71387 7.17246 9.71387 6.85686C9.71387 6.54127 9.9697 6.28544 10.2853 6.28544C10.8157 6.28544 11.3244 6.07472 11.6995 5.69965C12.0746 5.32458 12.2853 4.81587 12.2853 4.28544C12.2853 3.755 12.0746 3.24629 11.6995 2.87122C11.3244 2.49615 10.8157 2.28544 10.2853 2.28544C9.9697 2.28544 9.71387 2.0296 9.71387 1.71401Z" fill="currentColor"/>
<path fill-rule="evenodd" clip-rule="evenodd" d="M11.5805 9.15649C11.6927 8.86153 12.0228 8.71337 12.3177 8.82558C13.3994 9.23707 14.3307 9.96731 14.9883 10.9197C15.6458 11.872 15.9987 13.0016 16.0003 14.1589L16.0003 15.4282C16.0003 15.7438 15.7444 15.9997 15.4288 15.9997H13.7146C13.399 15.9997 13.1431 15.7438 13.1431 15.4282C13.1431 15.1127 13.399 14.8568 13.7146 14.8568H14.8574V14.16C14.8561 13.2343 14.5738 12.3308 14.0478 11.569C13.5217 10.8071 12.7767 10.223 11.9114 9.89376C11.6164 9.78155 11.4683 9.45146 11.5805 9.15649Z" fill="currentColor"/>
</svg>
