<svg width="208" height="133" viewBox="0 0 208 133" fill="none" xmlns="http://www.w3.org/2000/svg">
<path opacity="0.18" fill-rule="evenodd" clip-rule="evenodd" d="M0.451704 70.6099C3.39882 39.375 161.526 -20.9117 190.882 8.67356C220.237 38.2583 212.807 100.487 151.288 114.705C89.7696 128.923 -2.49542 101.845 0.451704 70.6099Z" fill="#DDE3E9"/>
<path d="M176.323 28.9922H32.865C30.0368 28.9922 27.7441 31.2849 27.7441 34.113V125.512C27.7441 128.34 30.0368 130.632 32.865 130.632H176.323C179.151 130.632 181.443 128.34 181.443 125.512V34.113C181.443 31.2849 179.151 28.9922 176.323 28.9922Z" fill="#DDE3E9"/>
<path d="M21.7383 124.067H188.259V126.707C188.259 128.366 187.6 129.957 186.427 131.131C185.253 132.304 183.662 132.963 182.003 132.963H27.9944C26.3351 132.963 24.7439 132.304 23.5706 131.131C22.3974 129.957 21.7383 128.366 21.7383 126.707V124.067Z" fill="#DDE3E9"/>
<path d="M176.887 33.0303H31.8691V118.865H176.887V33.0303Z" fill="#C5CFD6"/>
<path d="M89.4434 123.115L91.51 126.401H120.587L122.506 123.115H89.4434Z" fill="#B2BDC5"/>
<path d="M173.05 35.9375H36.0067C35.372 35.9375 34.8574 36.4521 34.8574 37.0868V117.442C34.8574 118.077 35.372 118.592 36.0067 118.592H173.05C173.685 118.592 174.199 118.077 174.199 117.442V37.0868C174.199 36.4521 173.685 35.9375 173.05 35.9375Z" fill="#EBEBEB"/>
<path d="M174.053 118.711H34.7109L34.8586 42.1123H174.053V118.711Z" fill="#FAFAFA"/>
<path d="M46.283 39.1288C46.283 39.3493 46.2175 39.5649 46.095 39.7481C45.9724 39.9314 45.7982 40.0742 45.5944 40.1585C45.3906 40.2427 45.1664 40.2645 44.9502 40.2213C44.734 40.178 44.5354 40.0715 44.3798 39.9154C44.2241 39.7592 44.1183 39.5604 44.0757 39.344C44.0331 39.1276 44.0556 38.9035 44.1405 38.7C44.2254 38.4965 44.3687 38.3227 44.5524 38.2007C44.7361 38.0787 44.9518 38.014 45.1723 38.0147C45.3185 38.0147 45.4632 38.0435 45.5982 38.0995C45.7332 38.1556 45.8558 38.2377 45.9589 38.3412C46.0621 38.4447 46.1438 38.5675 46.1994 38.7027C46.2551 38.8379 46.2834 38.9827 46.283 39.1288Z" fill="#C5CFD6"/>
<path d="M39.5388 39.1288C39.5388 39.3493 39.4734 39.5649 39.3508 39.7481C39.2282 39.9314 39.054 40.0742 38.8502 40.1585C38.6465 40.2427 38.4223 40.2645 38.206 40.2213C37.9898 40.178 37.7913 40.0715 37.6356 39.9154C37.48 39.7592 37.3741 39.5604 37.3315 39.344C37.2889 39.1276 37.3115 38.9035 37.3964 38.7C37.4812 38.4965 37.6246 38.3227 37.8083 38.2007C37.9919 38.0787 38.2077 38.014 38.4282 38.0147C38.5744 38.0147 38.7191 38.0435 38.854 38.0995C38.989 38.1556 39.1116 38.2377 39.2148 38.3412C39.318 38.4447 39.3997 38.5675 39.4553 38.7027C39.5109 38.8379 39.5393 38.9827 39.5388 39.1288Z" fill="#C5CFD6"/>
<path d="M42.7791 39.1288C42.7791 39.3491 42.7137 39.5646 42.5913 39.7478C42.4689 39.931 42.2949 40.0738 42.0913 40.1581C41.8877 40.2425 41.6637 40.2645 41.4476 40.2215C41.2314 40.1785 41.0329 40.0724 40.8771 39.9166C40.7213 39.7608 40.6152 39.5623 40.5722 39.3462C40.5292 39.13 40.5513 38.906 40.6356 38.7024C40.7199 38.4988 40.8627 38.3248 41.0459 38.2024C41.2292 38.08 41.4446 38.0146 41.6649 38.0146C41.9604 38.0146 42.2438 38.132 42.4527 38.341C42.6617 38.5499 42.7791 38.8333 42.7791 39.1288Z" fill="#C5CFD6"/>
<path d="M180.122 123.108C180.122 123.164 146.009 123.207 103.938 123.207C61.8679 123.207 27.7441 123.164 27.7441 123.108C27.7441 123.052 61.8363 123.01 103.938 123.01C146.04 123.01 180.122 123.059 180.122 123.108Z" fill="#B2BDC5"/>
</svg>
