<svg width="16" height="16" viewBox="0 0 16 16" fill="none" xmlns="http://www.w3.org/2000/svg">
<path fill-rule="evenodd" clip-rule="evenodd" d="M6.76571 1.14286C3.6603 1.14286 1.14286 3.6603 1.14286 6.76571C1.14286 9.87113 3.6603 12.3886 6.76571 12.3886C9.87113 12.3886 12.3886 9.87113 12.3886 6.76571C12.3886 3.6603 9.87113 1.14286 6.76571 1.14286ZM0 6.76571C0 3.02911 3.02911 0 6.76571 0C10.5023 0 13.5314 3.02911 13.5314 6.76571C13.5314 10.5023 10.5023 13.5314 6.76571 13.5314C3.02911 13.5314 0 10.5023 0 6.76571Z" fill="currentColor"/>
<path fill-rule="evenodd" clip-rule="evenodd" d="M10.7387 10.7388C10.9618 10.5156 11.3236 10.5156 11.5468 10.7388L15.8325 15.0245C16.0557 15.2477 16.0557 15.6095 15.8325 15.8326C15.6093 16.0558 15.2475 16.0558 15.0244 15.8326L10.7387 11.5469C10.5155 11.3238 10.5155 10.962 10.7387 10.7388Z" fill="currentColor"/>
<path fill-rule="evenodd" clip-rule="evenodd" d="M6.85756 3.42857C7.17315 3.42857 7.42899 3.68441 7.42899 4V9.71429C7.42899 10.0299 7.17315 10.2857 6.85756 10.2857C6.54197 10.2857 6.28613 10.0299 6.28613 9.71429V4C6.28613 3.68441 6.54197 3.42857 6.85756 3.42857Z" fill="currentColor"/>
<path fill-rule="evenodd" clip-rule="evenodd" d="M3.42871 6.85715C3.42871 6.54156 3.68455 6.28572 4.00014 6.28572H9.71443C10.03 6.28572 10.2859 6.54156 10.2859 6.85715C10.2859 7.17274 10.03 7.42858 9.71443 7.42858H4.00014C3.68455 7.42858 3.42871 7.17274 3.42871 6.85715Z" fill="currentColor"/>
</svg>
