<svg width="16" height="16" viewBox="0 0 16 16" fill="none" xmlns="http://www.w3.org/2000/svg">
<path fill-rule="evenodd" clip-rule="evenodd" d="M4.40406 1.31022C4.62722 1.53338 4.62722 1.89519 4.40406 2.11834L1.37955 5.14285L4.40406 8.16736C4.62722 8.39052 4.62722 8.75233 4.40406 8.97548C4.1809 9.19864 3.8191 9.19864 3.59594 8.97548L0.167368 5.54691C-0.0557892 5.32376 -0.0557892 4.96195 0.167368 4.73879L3.59594 1.31022C3.8191 1.08706 4.1809 1.08706 4.40406 1.31022Z" fill="currentColor"/>
<path fill-rule="evenodd" clip-rule="evenodd" d="M0 5.14285C0 4.82726 0.255837 4.57143 0.571429 4.57143H10.8571C12.2211 4.57143 13.5292 5.11326 14.4937 6.07773C15.4582 7.04221 16 8.35031 16 9.71428C16 11.0783 15.4582 12.3864 14.4937 13.3508C13.5292 14.3153 12.2211 14.8571 10.8571 14.8571H5.14286C4.82727 14.8571 4.57143 14.6013 4.57143 14.2857C4.57143 13.9701 4.82727 13.7143 5.14286 13.7143H10.8571C11.918 13.7143 12.9354 13.2929 13.6856 12.5427C14.4357 11.7926 14.8571 10.7751 14.8571 9.71428C14.8571 8.65342 14.4357 7.636 13.6856 6.88586C12.9354 6.13571 11.918 5.71428 10.8571 5.71428H0.571429C0.255837 5.71428 0 5.45845 0 5.14285Z" fill="currentColor"/>
</svg>
