<svg width="24" height="18" viewBox="0 0 24 18" fill="none" xmlns="http://www.w3.org/2000/svg">
<path d="M24 8.81029C24 8.41989 23.6835 8.10341 23.2931 8.10341H18.7031V6.68961H21.4075C21.9598 6.68961 22.4075 6.24189 22.4075 5.68961V1.04732C22.4075 0.495031 21.9598 0.0473152 21.4075 0.0473152H14.5925C14.0402 0.0473152 13.5925 0.49503 13.5925 1.04732V5.68961C13.5925 6.24189 14.0402 6.68961 14.5925 6.68961H17.2969V8.10341H6.45628L3.6472 5.27924L5.53734 3.37895C5.5717 3.89046 5.78569 4.36668 6.14967 4.73262L7.34292 5.93228L10.326 2.93317L9.1328 1.73351C8.73436 1.33294 8.20467 1.11238 7.64123 1.11238C7.32113 1.11238 7.01194 1.18378 6.73148 1.31875L5.9196 0.502505C5.64399 0.225414 5.19557 0.225409 4.91995 0.502493C4.6464 0.777496 4.6464 1.22182 4.91994 1.49683L5.17031 1.74855L2.18266 4.75221C2.04337 4.89224 1.96519 5.08171 1.96519 5.27922C1.96519 5.47672 2.04337 5.6662 2.18266 5.80623L4.46756 8.10336H0.706903C0.316491 8.10336 0 8.41986 0 8.81027C0 9.20068 0.316491 9.51717 0.706903 9.51717H1.59248V16C1.59248 17.1046 2.48791 18 3.59248 18H8.40756C9.51213 18 10.4076 17.1046 10.4076 16V9.51717H21.1875V17.2969C21.1875 17.6852 21.5023 18 21.8906 18C22.279 18 22.5938 17.6852 22.5938 17.2969V9.51717H23.2931C23.6835 9.51717 24 9.20069 24 8.81029ZM14.9987 1.46112H21.0013V5.2758H14.9987V1.46112ZM8.13839 2.73317L8.33728 2.93313L7.34292 3.93283L7.14403 3.73292C7.01123 3.59941 6.93811 3.42188 6.93811 3.23304C6.93811 3.04425 7.01123 2.86673 7.14403 2.73322C7.27683 2.5997 7.45341 2.52619 7.64123 2.52619C7.82906 2.52614 8.00559 2.59966 8.13839 2.73317ZM2.99873 12.3448H9.00131V13.7586H2.99873V12.3448ZM2.99873 16.5862V15.1724H9.00131V16.5862H2.99873ZM9.00127 10.931H2.99873V9.51722H9.00131L9.00127 10.931Z" fill="#2266E1"/>
</svg>
