<svg width="18" height="18" viewBox="0 0 18 18" fill="none" xmlns="http://www.w3.org/2000/svg">
<path fill-rule="evenodd" clip-rule="evenodd" d="M9.00028 3.21387C9.35532 3.21387 9.64314 3.50168 9.64314 3.85672V5.7853C9.64314 6.14034 9.35532 6.42815 9.00028 6.42815C8.64524 6.42815 8.35742 6.14034 8.35742 5.7853V3.85672C8.35742 3.50168 8.64524 3.21387 9.00028 3.21387Z" fill="currentColor"/>
<path fill-rule="evenodd" clip-rule="evenodd" d="M7.78876 6.63281C7.75787 6.69013 7.71443 6.81627 7.71443 7.07115C7.71443 7.29929 7.81404 7.49592 8.08579 7.72238C8.37872 7.96649 8.78728 8.17456 9.28763 8.42473C9.29922 8.43052 9.31086 8.43634 9.32255 8.44219C9.77924 8.67044 10.318 8.93973 10.7376 9.28935C11.189 9.66556 11.5716 10.1921 11.5716 10.9283C11.5716 11.3163 11.5073 11.6723 11.3434 11.9766C11.1725 12.2937 10.9198 12.5053 10.6337 12.6371C10.3625 12.7621 10.0708 12.8114 9.80742 12.8344C9.54856 12.8569 9.27101 12.8569 9.01531 12.8569H9.00014C8.42182 12.8569 7.8067 12.7732 7.3148 12.4898C6.7732 12.1778 6.42871 11.6476 6.42871 10.9283C6.42871 10.5733 6.71653 10.2854 7.07157 10.2854C7.42661 10.2854 7.71443 10.5733 7.71443 10.9283C7.71443 11.1733 7.80065 11.2859 7.95656 11.3757C8.16215 11.4941 8.51132 11.5712 9.00014 11.5712C9.27384 11.5712 9.49827 11.5707 9.69594 11.5535C9.89421 11.5362 10.0179 11.5052 10.0956 11.4694C10.1582 11.4406 10.1876 11.4111 10.2115 11.3666C10.2424 11.3093 10.2859 11.1832 10.2859 10.9283C10.2859 10.7002 10.1862 10.5035 9.91449 10.2771C9.62156 10.033 9.213 9.82489 8.71265 9.57471C8.70106 9.56892 8.68942 9.5631 8.67772 9.55725C8.22104 9.329 7.68224 9.05972 7.2627 8.7101C6.81124 8.33388 6.42871 7.8073 6.42871 7.07115C6.42871 6.68317 6.49295 6.32717 6.65692 6.02288C6.82782 5.70575 7.08053 5.49415 7.36662 5.3623C7.63776 5.23735 7.92948 5.18801 8.19286 5.16509C8.45172 5.14256 8.72927 5.14257 8.98498 5.14258L9.00014 5.14258C9.6218 5.14258 10.2323 5.28338 10.7096 5.58691C11.2001 5.89887 11.5716 6.40547 11.5716 7.07115C11.5716 7.42619 11.2838 7.71401 10.9287 7.71401C10.5737 7.71401 10.2859 7.42619 10.2859 7.07115C10.2859 6.93969 10.2266 6.80343 10.0196 6.67182C9.79942 6.53178 9.44562 6.42829 9.00014 6.42829C8.72644 6.42829 8.50201 6.42876 8.30434 6.44596C8.10607 6.46322 7.98234 6.49423 7.90473 6.53C7.84207 6.55887 7.81272 6.58834 7.78876 6.63281Z" fill="currentColor"/>
<path fill-rule="evenodd" clip-rule="evenodd" d="M9.00028 11.5713C9.35532 11.5713 9.64314 11.8591 9.64314 12.2141V14.1427C9.64314 14.4978 9.35532 14.7856 9.00028 14.7856C8.64524 14.7856 8.35742 14.4978 8.35742 14.1427V12.2141C8.35742 11.8591 8.64524 11.5713 9.00028 11.5713Z" fill="currentColor"/>
<path fill-rule="evenodd" clip-rule="evenodd" d="M9 1.28571C4.73952 1.28571 1.28571 4.73952 1.28571 9C1.28571 13.2605 4.73952 16.7143 9 16.7143C13.2605 16.7143 16.7143 13.2605 16.7143 9C16.7143 4.73952 13.2605 1.28571 9 1.28571ZM0 9C0 4.02944 4.02944 0 9 0C13.9706 0 18 4.02944 18 9C18 13.9706 13.9706 18 9 18C4.02944 18 0 13.9706 0 9Z" fill="currentColor"/>
</svg>
