<svg width="18" height="18" viewBox="0 0 18 18" fill="none" xmlns="http://www.w3.org/2000/svg">
<g clip-path="url(#clip0_8562_43922)">
<path fill-rule="evenodd" clip-rule="evenodd" d="M5.14286 0C5.4979 0 5.78571 0.287817 5.78571 0.642857V4.5C5.78571 4.85504 5.4979 5.14286 5.14286 5.14286C4.78782 5.14286 4.5 4.85504 4.5 4.5V0.642857C4.5 0.287817 4.78782 0 5.14286 0Z" fill="currentColor"/>
<path fill-rule="evenodd" clip-rule="evenodd" d="M9.00003 0C9.35507 0 9.64289 0.287817 9.64289 0.642857V4.5C9.64289 4.85504 9.35507 5.14286 9.00003 5.14286C8.64499 5.14286 8.35718 4.85504 8.35718 4.5V0.642857C8.35718 0.287817 8.64499 0 9.00003 0Z" fill="currentColor"/>
<path fill-rule="evenodd" clip-rule="evenodd" d="M12.8572 0C13.2123 0 13.5001 0.287817 13.5001 0.642857V4.5C13.5001 4.85504 13.2123 5.14286 12.8572 5.14286C12.5022 5.14286 12.2144 4.85504 12.2144 4.5V0.642857C12.2144 0.287817 12.5022 0 12.8572 0Z" fill="currentColor"/>
<path fill-rule="evenodd" clip-rule="evenodd" d="M1.92857 3.21345C1.57353 3.21345 1.28571 3.50127 1.28571 3.85631V16.0706C1.28571 16.4256 1.57353 16.7134 1.92857 16.7134H16.0714C16.4265 16.7134 16.7143 16.4256 16.7143 16.0706V3.85631C16.7143 3.50127 16.4265 3.21345 16.0714 3.21345H1.92857ZM0 3.85631C0 2.79119 0.863451 1.92773 1.92857 1.92773H16.0714C17.1365 1.92773 18 2.79119 18 3.85631V16.0706C18 17.1357 17.1365 17.9992 16.0714 17.9992H1.92857C0.863451 17.9992 0 17.1357 0 16.0706V3.85631Z" fill="currentColor"/>
<path fill-rule="evenodd" clip-rule="evenodd" d="M3.85718 9.00028C3.85718 8.64524 4.14499 8.35742 4.50003 8.35742H13.5C13.8551 8.35742 14.1429 8.64524 14.1429 9.00028C14.1429 9.35532 13.8551 9.64314 13.5 9.64314H4.50003C4.14499 9.64314 3.85718 9.35532 3.85718 9.00028Z" fill="currentColor"/>
<path fill-rule="evenodd" clip-rule="evenodd" d="M3.85718 12.8577C3.85718 12.5027 4.14499 12.2148 4.50003 12.2148H9.64289C9.99793 12.2148 10.2857 12.5027 10.2857 12.8577C10.2857 13.2127 9.99793 13.5006 9.64289 13.5006H4.50003C4.14499 13.5006 3.85718 13.2127 3.85718 12.8577Z" fill="currentColor"/>
</g>
<defs>
<clipPath id="clip0_8562_43922">
<rect width="18" height="18" fill="currentColor"/>
</clipPath>
</defs>
</svg>
