<svg width="22" height="22" viewBox="0 0 22 22" fill="none" xmlns="http://www.w3.org/2000/svg">
<path fill-rule="evenodd" clip-rule="evenodd" d="M10.4444 1.44449C10.7513 1.13765 11.2487 1.13765 11.5556 1.44449L21.7699 11.6588C22.0767 11.9656 22.0767 12.4631 21.7699 12.7699C21.463 13.0768 20.9655 13.0768 20.6587 12.7699L11 3.11124L1.3413 12.7699C1.03446 13.0768 0.536971 13.0768 0.23013 12.7699C-0.0767101 12.4631 -0.0767101 11.9656 0.23013 11.6588L10.4444 1.44449Z" fill="currentColor"/>
<path fill-rule="evenodd" clip-rule="evenodd" d="M3.92829 8.28589C4.36223 8.28589 4.71401 8.63766 4.71401 9.0716V18.5002H17.2854V9.0716C17.2854 8.63766 17.6372 8.28589 18.0711 8.28589C18.5051 8.28589 18.8569 8.63766 18.8569 9.0716V19.2859C18.8569 19.7198 18.5051 20.0716 18.0711 20.0716H3.92829C3.49435 20.0716 3.14258 19.7198 3.14258 19.2859V9.0716C3.14258 8.63766 3.49435 8.28589 3.92829 8.28589Z" fill="currentColor"/>
<path fill-rule="evenodd" clip-rule="evenodd" d="M11.0006 12.2144C11.4345 12.2144 11.7863 12.5661 11.7863 13.0001V19.2858C11.7863 19.7197 11.4345 20.0715 11.0006 20.0715C10.5666 20.0715 10.2148 19.7197 10.2148 19.2858V13.0001C10.2148 12.5661 10.5666 12.2144 11.0006 12.2144Z" fill="currentColor"/>
</svg>
