<svg viewBox="0 0 18 18" fill="none" xmlns="http://www.w3.org/2000/svg" preserveAspectRatio="xMinYMin slice">
<path fill-rule="evenodd" clip-rule="evenodd" d="M8.99994 1.28571C4.73945 1.28571 1.28565 4.73952 1.28565 9C1.28565 13.2605 4.73945 16.7143 8.99994 16.7143C13.2604 16.7143 16.7142 13.2605 16.7142 9C16.7142 4.73952 13.2604 1.28571 8.99994 1.28571ZM-6.10352e-05 9C-6.10352e-05 4.02944 4.02937 0 8.99994 0C13.9705 0 17.9999 4.02944 17.9999 9C17.9999 13.9706 13.9705 18 8.99994 18C4.02937 18 -6.10352e-05 13.9706 -6.10352e-05 9Z" fill="currentColor"/>
<path fill-rule="evenodd" clip-rule="evenodd" d="M8.99997 3.85742C9.35501 3.85742 9.64283 4.14524 9.64283 4.50028V8.35742C9.64283 8.71246 9.35501 9.00028 8.99997 9.00028C8.64493 9.00028 8.35712 8.71246 8.35712 8.35742V4.50028C8.35712 4.14524 8.64493 3.85742 8.99997 3.85742Z" fill="currentColor"/>
<path fill-rule="evenodd" clip-rule="evenodd" d="M7.71423 12.2144C7.71423 11.5043 8.28987 10.9287 8.99995 10.9287C9.71003 10.9287 10.2857 11.5043 10.2857 12.2144C10.2857 12.9245 9.71003 13.5001 8.99995 13.5001C8.28987 13.5001 7.71423 12.9245 7.71423 12.2144Z" fill="currentColor"/>
</svg>
