<svg width="86" height="82" viewBox="0 0 86 82" fill="none" xmlns="http://www.w3.org/2000/svg">
<path d="M15.1412 3.51221L14.7189 7.11611L16.1841 10.3975L12.8142 9.94591L9.74592 11.5128L10.1682 7.90881L8.70312 4.62751L12.073 5.07911L15.1412 3.51221Z" fill="#15357A"/>
<path d="M4.88378 47.7827L4.58218 50.382L5.64228 52.7509L3.21178 52.4283L0.996781 53.562L1.29838 50.9535L0.238281 48.5938L2.67738 48.9164L4.88378 47.7827Z" fill="#2C71F0"/>
<path d="M85.0708 18.527L84.7777 21.0249L85.7948 23.3015L83.4505 22.9974L81.3216 24.085L81.6147 21.5779L80.5977 19.3012L82.942 19.6146L85.0708 18.527Z" fill="#15357A"/>
<path d="M67.0755 7.51221V57.6638C67.0755 58.2921 66.8421 58.8946 66.4267 59.3388C66.0113 59.7831 65.4479 60.0327 64.8605 60.0327H30.8166C30.2291 60.0327 29.6657 59.7831 29.2504 59.3388C28.835 58.8946 28.6016 58.2921 28.6016 57.6638V7.51221H67.0755Z" fill="white" stroke="#15357A" stroke-width="1.5" stroke-linecap="round" stroke-linejoin="round"/>
<path opacity="0.1" d="M53.5962 13.0151H33.618C33.1515 13.0151 32.7734 13.4195 32.7734 13.9184V16.4532C32.7734 16.952 33.1515 17.3565 33.618 17.3565H53.5962C54.0626 17.3565 54.4408 16.952 54.4408 16.4532V13.9184C54.4408 13.4195 54.0626 13.0151 53.5962 13.0151Z" fill="#15357A"/>
<path opacity="0.1" d="M53.5962 20.3247H33.618C33.1515 20.3247 32.7734 20.7291 32.7734 21.228V23.7627C32.7734 24.2616 33.1515 24.666 33.618 24.666H53.5962C54.0626 24.666 54.4408 24.2616 54.4408 23.7627V21.228C54.4408 20.7291 54.0626 20.3247 53.5962 20.3247Z" fill="#15357A"/>
<path opacity="0.1" d="M62.0339 28.2788H33.618C33.1515 28.2788 32.7734 28.6832 32.7734 29.1821V31.7169C32.7734 32.2158 33.1515 32.6202 33.618 32.6202H62.0339C62.5003 32.6202 62.8785 32.2158 62.8785 31.7169V29.1821C62.8785 28.6832 62.5003 28.2788 62.0339 28.2788Z" fill="#15357A"/>
<path opacity="0.1" d="M62.0339 36.3623H33.618C33.1515 36.3623 32.7734 36.7668 32.7734 37.2656V39.8004C32.7734 40.2993 33.1515 40.7037 33.618 40.7037H62.0339C62.5003 40.7037 62.8785 40.2993 62.8785 39.8004V37.2656C62.8785 36.7668 62.5003 36.3623 62.0339 36.3623Z" fill="#15357A"/>
<path opacity="0.1" d="M53.5962 13.0151H33.618C33.1515 13.0151 32.7734 13.4195 32.7734 13.9184V16.4532C32.7734 16.952 33.1515 17.3565 33.618 17.3565H53.5962C54.0626 17.3565 54.4408 16.952 54.4408 16.4532V13.9184C54.4408 13.4195 54.0626 13.0151 53.5962 13.0151Z" fill="#15357A"/>
<path opacity="0.1" d="M62.0339 44.437H33.618C33.1515 44.437 32.7734 44.8414 32.7734 45.3403V47.8751C32.7734 48.374 33.1515 48.7784 33.618 48.7784H62.0339C62.5003 48.7784 62.8785 48.374 62.8785 47.8751V45.3403C62.8785 44.8414 62.5003 44.437 62.0339 44.437Z" fill="#15357A"/>
<path opacity="0.1" d="M70.1786 61.6182V72.1167H24.4219V18.8773H28.5934V14.2687H34.8936C37.6462 14.2666 40.3009 15.3608 42.3402 17.338C43.2242 18.1864 43.9698 19.1864 44.5466 20.2968C45.2477 21.6101 45.7043 23.0562 45.8911 24.5552V24.6382L46.3307 28.279L46.8736 32.6112L47.339 36.2981L47.8734 40.6395L47.9941 41.5612C48.2868 43.8404 49.3391 45.9299 50.9574 47.4455C52.5757 48.9612 54.6513 49.8011 56.8024 49.8107H67.0759V55.5808C68.0298 56.2226 68.8153 57.1136 69.3581 58.1699C69.9009 59.2262 70.1833 60.4129 70.1786 61.6182Z" fill="#15357A"/>
<path d="M70.18 61.6179V76.6975H20.9414V18.877H31.3872C33.2473 18.8715 35.0788 19.366 36.7136 20.315C38.4517 21.333 39.9015 22.8326 40.9109 24.6563C41.5366 25.7732 41.9823 26.9946 42.2296 28.2695C42.2985 28.5727 42.3475 28.8807 42.3761 29.1913L42.807 32.6478L43.2897 36.3347L43.824 40.6761L44.2894 44.4091L44.5221 46.2526C44.6295 47.1179 44.844 47.9641 45.1599 48.7689C45.845 50.4732 46.9827 51.9249 48.4321 52.944C49.8814 53.9632 51.5786 54.5049 53.3132 54.5021H63.5695C64.8108 54.4979 66.0276 54.8719 67.0773 55.5805C68.0313 56.2223 68.8167 57.1133 69.3595 58.1696C69.9024 59.2259 70.1847 60.4126 70.18 61.6179Z" fill="#D5E3FC" stroke="#15357A" stroke-width="1.5" stroke-linecap="round" stroke-linejoin="round"/>
<path d="M65.879 17.3563C69.9155 17.3563 73.1877 13.8568 73.1877 9.53993C73.1877 5.22313 69.9155 1.72363 65.879 1.72363C61.8425 1.72363 58.5703 5.22313 58.5703 9.53993C58.5703 13.8568 61.8425 17.3563 65.879 17.3563Z" fill="#EAF1FE" stroke="#2C71F0" stroke-width="1.5" stroke-linecap="round" stroke-linejoin="round"/>
<path d="M63.1211 9.54031L65.3792 11.6234L68.4647 7.11621" fill="#EAF1FE"/>
<path d="M63.1211 9.54031L65.3792 11.6234L68.4647 7.11621" stroke="#2C71F0" stroke-width="1.5" stroke-linecap="round" stroke-linejoin="round"/>
<path d="M39.5734 67.1577H25.5508V71.6466H39.5734V67.1577Z" fill="white" stroke="#15357A" stroke-width="1.5" stroke-linecap="round" stroke-linejoin="round"/>
<path opacity="0.1" d="M45.5632 81.9331C62.542 81.9331 76.3061 80.5052 76.3061 78.7439C76.3061 76.9825 62.542 75.5547 45.5632 75.5547C28.5844 75.5547 14.8203 76.9825 14.8203 78.7439C14.8203 80.5052 28.5844 81.9331 45.5632 81.9331Z" fill="#15357A"/>
</svg>
