<svg width="17" height="17" viewBox="0 0 17 17" fill="none" xmlns="http://www.w3.org/2000/svg">
<path fill-rule="evenodd" clip-rule="evenodd" d="M0 15.4347C0 15.1191 0.255837 14.8633 0.571429 14.8633H13.1429C13.4585 14.8633 13.7143 15.1191 13.7143 15.4347C13.7143 15.7503 13.4585 16.0061 13.1429 16.0061H0.571429C0.255837 16.0061 0 15.7503 0 15.4347Z" fill="currentColor"/>
<path fill-rule="evenodd" clip-rule="evenodd" d="M13.0744 1.14286C12.999 1.14286 12.9243 1.15779 12.8547 1.1868C12.785 1.21582 12.7218 1.25833 12.6687 1.31188L12.6665 1.31415L12.6665 1.31415L5.10552 8.85262L4.69533 11.3466L7.15081 10.9046L14.6926 3.34031L14.6949 3.33806C14.7484 3.28493 14.791 3.22173 14.82 3.1521C14.849 3.08246 14.8639 3.00778 14.8639 2.93234C14.8639 2.85691 14.849 2.78222 14.82 2.71258C14.791 2.64295 14.7484 2.57975 14.6949 2.52663L14.6932 2.52497L13.4818 1.31354L13.4801 1.31188C13.427 1.25833 13.3638 1.21581 13.2942 1.1868C13.2246 1.15779 13.1499 1.14286 13.0744 1.14286ZM12.4152 0.13184C12.6241 0.0448085 12.8481 0 13.0744 0C13.3007 0 13.5248 0.0448083 13.7337 0.13184C13.9422 0.218693 14.1314 0.345879 14.2906 0.506088C14.2909 0.506419 14.2912 0.506751 14.2916 0.507083L15.4997 1.7152C15.5 1.71549 15.5003 1.71578 15.5006 1.71608C15.6608 1.87526 15.7881 2.06455 15.8749 2.27307C15.962 2.48197 16.0068 2.70603 16.0068 2.93234C16.0068 3.15865 15.962 3.38271 15.8749 3.59162C15.7881 3.79996 15.661 3.98911 15.501 4.14821C15.5005 4.14863 15.5001 4.14906 15.4997 4.14948L7.83338 11.8387C7.75087 11.9214 7.64496 11.9769 7.52995 11.9976L4.10138 12.6147C3.91868 12.6476 3.73139 12.5897 3.59914 12.4594C3.46689 12.3292 3.40617 12.1428 3.43629 11.9596L4.00772 8.48532C4.02717 8.3671 4.08327 8.25798 4.16812 8.17339L11.8573 0.507083C11.8577 0.506662 11.8581 0.506241 11.8585 0.505821C12.0176 0.345737 12.2068 0.218644 12.4152 0.13184Z" fill="currentColor"/>
</svg>
