<svg width="208" height="139" viewBox="0 0 208 139" fill="none" xmlns="http://www.w3.org/2000/svg">
<path opacity="0.18" fill-rule="evenodd" clip-rule="evenodd" d="M0.0688914 69.8833C3.01601 38.6484 161.143 -21.6383 190.499 7.947C219.855 37.5318 212.424 99.7606 150.906 113.978C89.3868 128.197 -2.87823 101.118 0.0688914 69.8833Z" fill="#DDE3E9"/>
<path fill-rule="evenodd" clip-rule="evenodd" d="M69.2256 39.1702C70.4261 39.0235 71.7075 39.0755 72.8241 39.5491C75.1982 40.557 75.8731 43.3618 75.8405 45.6418C75.8054 48.0953 75.2844 50.7755 77.1499 52.7525C78.0074 53.6612 79.0741 54.3569 79.9162 55.2827C80.8159 56.2719 81.5219 57.4035 82.0446 58.6189C83.0044 60.8511 83.4755 63.4765 82.5978 65.8181C81.825 67.8802 79.8808 69.741 80.3009 72.0856C80.7391 74.5311 83.2049 76.4008 84.7463 78.2227C86.4911 80.2839 88.0976 82.9189 88.3616 85.6222C88.6144 88.2132 87.4865 90.8336 85.756 92.7921C82.2977 96.7058 77.0996 98.6241 71.8583 98.6124C69.6329 98.6073 67.1135 98.5068 65.1931 97.311C64.5995 96.9413 64.2864 96.5264 63.9336 95.9501C63.6172 95.433 63.1993 95.0968 62.7156 94.7309C61.6529 93.9275 60.8854 92.8449 60.3956 91.6328C58.4937 86.9249 60.0138 81.1008 62.6761 76.9201C63.3069 75.9297 63.8234 74.9762 63.5169 73.796C63.1971 72.5634 62.4111 71.4519 61.7159 70.3928C61.0289 69.3454 60.2447 68.3466 59.7077 67.215C59.1454 66.0289 58.987 64.7871 59.0863 63.4895C59.2731 61.0515 60.3255 58.8016 61.8154 56.8414C63.2505 54.9529 64.9355 53.1456 64.9393 50.6716C64.9434 48.0488 63.1901 45.7159 63.9371 43.0495C64.2464 41.9456 64.8676 40.8127 65.8687 40.1509C66.8287 39.5159 68.0964 39.3081 69.2256 39.1702Z" fill="#DDE3E9"/>
<path fill-rule="evenodd" clip-rule="evenodd" d="M68.4404 43.3641C68.4629 43.012 68.8806 42.8008 69.2096 42.8925C69.6425 43.0137 69.6342 43.4181 69.6227 43.7786C69.5877 44.8863 69.748 45.963 70.0144 47.038C70.5678 49.2728 71.5907 51.3315 72.401 53.4782C73.2107 55.6228 73.5907 57.8374 73.1158 60.107C72.668 62.247 71.9645 64.3313 71.5063 66.4738C71.1024 68.3623 70.6726 70.354 71.2877 72.2375C71.8796 74.0506 73.1881 75.5271 74.1304 77.1655C76.081 80.5574 76.9464 84.3202 77.0621 88.1925C77.1158 89.9905 77.0675 91.8053 76.6503 93.5689C76.4102 94.5844 76.0876 95.9566 75.2174 96.6578C74.8161 96.9814 74.1298 97.0928 73.7921 96.6142C73.475 96.1653 73.7532 95.47 73.8538 94.9914C74.2898 92.9193 74.3775 90.8019 74.2731 88.6983C74.1721 86.6606 73.9313 84.6262 73.29 82.6798C72.6947 80.8738 71.7904 79.2514 70.7261 77.6714C69.6415 76.0615 68.514 74.4479 68.0659 72.5401C67.6106 70.6025 67.9805 68.631 68.4751 66.7303C68.9982 64.7202 69.6833 62.7675 70.3916 60.8115C71.0818 58.9058 71.3265 57.1023 70.9454 55.1077C70.1927 51.1672 68.1778 47.4681 68.4404 43.3641Z" fill="#C5CFD6"/>
<path fill-rule="evenodd" clip-rule="evenodd" d="M100.925 43.9521C102.41 44.4035 103.886 45.1311 104.945 46.2723C107.197 48.6995 106.506 52.3676 105.263 55.0466C103.925 57.9301 101.897 60.8287 103.04 64.1372C103.565 65.6582 104.449 67.0358 104.947 68.5686C105.48 70.2065 105.71 71.9123 105.68 73.6214C105.626 76.7606 104.791 80.1106 102.524 82.4233C100.528 84.4598 97.2639 85.6493 96.5175 88.6401C95.7383 91.7604 97.6424 95.2546 98.4878 98.2107C99.4442 101.556 99.9358 105.508 98.8163 108.843C97.7438 112.039 95.0359 114.551 91.9705 115.967C85.8459 118.796 78.735 118.36 72.5937 115.62C69.9864 114.456 67.0844 113.026 65.464 110.613C64.9633 109.867 64.8152 109.214 64.706 108.349C64.6082 107.572 64.2958 106.958 63.9218 106.273C63.1 104.77 62.7721 103.09 62.8384 101.402C63.096 94.8451 67.9574 88.7482 73.2897 85.1891C74.5531 84.3458 75.6627 83.4875 75.9272 81.9317C76.2035 80.3076 75.8692 78.5842 75.6137 76.9698C75.3613 75.3742 74.9693 73.7853 74.9379 72.1671C74.9051 70.4722 75.3757 68.921 76.1782 67.4382C77.6858 64.6523 80.1092 62.5391 82.8931 60.9955C85.5743 59.5089 88.5061 58.2482 89.8183 55.324C91.2094 52.2246 90.3858 48.5536 92.6712 45.7887C93.6176 44.6441 94.945 43.6273 96.4693 43.3653C97.9307 43.1143 99.5272 43.528 100.925 43.9521Z" fill="#DDE3E9"/>
<path fill-rule="evenodd" clip-rule="evenodd" d="M97.89 49.0783C98.1009 48.673 98.7002 48.6415 99.0367 48.9228C99.4793 49.2933 99.2576 49.7677 99.0556 50.1885C98.4345 51.4823 98.0581 52.8411 97.8066 54.2535C97.2836 57.1903 97.4014 60.1643 97.2245 63.1313C97.048 66.0957 96.3326 68.9176 94.5887 71.356C92.944 73.6557 91.0299 75.7555 89.3719 78.0527C87.9109 80.077 86.3651 82.2104 86.0982 84.7632C85.8404 87.2205 86.5973 89.6551 86.8408 92.0894C87.3455 97.1284 86.3865 102.038 84.494 106.684C83.6149 108.842 82.608 110.966 81.1966 112.835C80.3841 113.912 79.2881 115.368 77.9033 115.742C77.2648 115.915 76.4038 115.688 76.2596 114.944C76.124 114.246 76.8134 113.568 77.1817 113.054C78.7766 110.829 79.9881 108.367 80.9679 105.821C81.917 103.355 82.7009 100.82 82.9703 98.1787C83.2201 95.7282 83.0123 93.3329 82.5952 90.9041C82.1703 88.4292 81.697 85.9271 82.1721 83.4333C82.6545 80.8998 84.1196 78.7589 85.6933 76.7673C87.3576 74.6608 89.1816 72.7077 91.0341 70.7626C92.8393 68.8673 94.0698 66.8602 94.6691 64.2985C95.8527 59.2368 95.434 53.8005 97.89 49.0783Z" fill="#C5CFD6"/>
<path fill-rule="evenodd" clip-rule="evenodd" d="M54.9947 62.5664C57.4651 62.5664 59.637 63.8757 61.1336 65.7341C62.8855 67.9093 63.2393 70.5657 63.9507 73.1583C64.3046 74.4484 64.9135 75.7292 65.9804 76.606C66.9508 77.4032 68.1827 77.5624 69.3443 77.9522C71.6656 78.7305 73.5402 80.6056 74.2804 82.8932C75.1836 85.6841 74.227 88.4985 74.3917 91.3271C74.5429 93.9244 77.1039 95.5447 79.1643 96.7899C81.1961 98.0179 83.0264 99.1671 83.6384 101.559C84.2872 104.096 84.505 106.927 83.6062 109.433C82.1098 113.606 77.7304 115.444 73.4988 115.728C69.6585 115.987 64.8297 115.581 61.9457 112.793C60.2199 111.125 59.5949 108.792 59.6725 106.471C59.7206 105.028 60.0065 103.598 60.3762 102.203C60.6382 101.214 60.9922 100.23 61.093 99.2086C61.3611 96.4906 58.8492 95.9688 56.711 95.2224C53.994 94.2743 52.0919 92.483 50.7692 89.9872C49.5374 87.6636 49.0206 85.0554 49.759 82.4971C50.1361 81.1907 50.8202 80.0059 51.7478 78.9979C52.1562 78.5541 52.7318 78.184 53.1004 77.7179C53.4444 77.2825 53.3695 76.7183 53.2509 76.2087C52.7027 73.8537 50.9947 71.9035 50.3838 69.5523C49.8323 67.4303 50.1583 64.7894 52.0984 63.4206C52.9366 62.8292 53.9703 62.5731 54.9947 62.5664Z" fill="#C5CFD6"/>
<path fill-rule="evenodd" clip-rule="evenodd" d="M58.3618 68.7023C60.9801 71.4915 61.6918 75.2757 61.9007 78.9434C62.0177 81 61.8959 83.1694 62.5002 85.1644C63.0172 86.8719 64.2293 88.177 65.4786 89.4109C67.9936 91.8937 70.7983 94.4185 71.5339 98.0124C71.9655 100.121 71.6742 102.3 72.2706 104.386C72.8129 106.282 73.7677 108.144 74.929 109.745C75.864 111.035 77.0823 112.022 78.1044 113.223C78.4163 113.591 78.863 114.13 78.7343 114.648C78.5837 115.255 77.8111 115.447 77.2629 115.352C75.9849 115.13 74.9091 113.909 74.0735 113.022C72.8516 111.725 71.8132 110.329 70.9693 108.764C70.0323 107.026 69.2779 105.181 68.9556 103.231C68.6211 101.208 68.7876 99.0996 68.0238 97.1579C66.7385 93.8908 63.621 91.9629 61.3671 89.4163C58.5588 86.2436 58.9776 82.2947 59.2652 78.3915C59.4232 76.2464 59.5803 73.8243 58.4965 71.8658C58.0828 71.1185 57.1603 70.4215 56.9825 69.5715C56.8195 68.7932 57.7088 68.0066 58.3618 68.7023Z" fill="#AFB9C5"/>
<path fill-rule="evenodd" clip-rule="evenodd" d="M64.4102 114.539C63.3056 114.539 62.4079 115.44 62.4251 116.544C62.6532 131.19 65.601 138.848 78.7556 138.848C91.9102 138.848 94.8581 131.19 95.0862 116.544C95.1034 115.44 94.2057 114.539 93.1012 114.539H64.4102Z" fill="#B2BDC5"/>
<path d="M138.821 91.4844H124.571C124.108 91.4844 123.732 91.8597 123.732 92.3226V94.4182C123.732 94.8811 124.108 95.2564 124.571 95.2564H138.821C139.284 95.2564 139.659 94.8811 139.659 94.4182V92.3226C139.659 91.8597 139.284 91.4844 138.821 91.4844Z" fill="#AFB9C5"/>
<path fill-rule="evenodd" clip-rule="evenodd" d="M130.95 60.8906H131.697H132.116H132.863C133.08 67.353 134.089 73.4998 135.888 79.3318H138.612C142.2 79.3318 145.109 82.2405 145.109 85.8281C145.109 89.4158 142.2 92.3244 138.612 92.3244H124.781C121.194 92.3244 118.285 89.4158 118.285 85.8281C118.285 82.2405 121.194 79.3318 124.781 79.3318H127.925C130.624 70.584 130.95 60.8906 130.95 60.8906Z" fill="#DDE3E9"/>
<path fill-rule="evenodd" clip-rule="evenodd" d="M116.769 33.5446C116.827 32.5612 117.588 31.7678 118.57 31.6885C121.126 31.4821 126.202 31.1328 131.277 31.1328C136.353 31.1328 141.429 31.4821 143.985 31.6885C144.967 31.7678 145.728 32.5612 145.785 33.5446L147.511 63.2137C147.573 64.2874 146.779 65.2156 145.707 65.3005C142.812 65.5299 137.045 65.9196 131.277 65.9196C125.51 65.9196 119.743 65.5299 116.847 65.3005C115.775 65.2156 114.981 64.2874 115.044 63.2137L116.769 33.5446Z" fill="#C5CFD6"/>
<path fill-rule="evenodd" clip-rule="evenodd" d="M107.293 138.846C106.188 138.846 105.293 137.951 105.293 136.846V104.478V97.2578C105.293 96.1532 106.188 95.2578 107.293 95.2578H114.094H148.881H155.683C156.787 95.2578 157.683 96.1532 157.683 97.2578V104.478V136.846C157.683 137.951 156.787 138.846 155.683 138.846H150.881C149.777 138.846 148.881 137.951 148.881 136.846V106.478C148.881 105.374 147.986 104.478 146.881 104.478H116.094C114.99 104.478 114.094 105.374 114.094 106.478V136.846C114.094 137.951 113.199 138.846 112.094 138.846H107.293Z" fill="#C5CFD6"/>
</svg>
