<svg width="40" height="40" viewBox="0 0 40 40" fill="none" xmlns="http://www.w3.org/2000/svg">
<g clip-path="url(#clip0_3884_33438)">
<path d="M0 8C0 3.58172 3.58172 0 8 0H32C36.4183 0 40 3.58172 40 8V32C40 36.4183 36.4183 40 32 40H8C3.58172 40 0 36.4183 0 32V8Z" fill="#EBEBF0"/>
<path d="M27.0797 13.9209H13.9219V27.0788H27.0797V13.9209Z" fill="white"/>
<path d="M27.0781 33.0001L32.9992 27.0791H27.0781V33.0001Z" fill="#EA4335"/>
<path d="M32.9992 13.9209H27.0781V27.0788H32.9992V13.9209Z" fill="#FBBC04"/>
<path d="M27.0797 27.0791H13.9219V33.0001H27.0797V27.0791Z" fill="#34A853"/>
<path d="M8 27.0791V31.0264C8 32.1169 8.88322 33.0001 9.97368 33.0001H13.9211V27.0791H8Z" fill="#188038"/>
<path d="M32.9992 13.9211V9.97368C32.9992 8.88322 32.116 8 31.0255 8H27.0781V13.9211H32.9992Z" fill="#1967D2"/>
<path d="M27.0789 8H9.97368C8.88322 8 8 8.88322 8 9.97368V27.0789H13.9211V13.9211H27.0789V8Z" fill="#4285F4"/>
<path d="M16.6197 24.1281C16.1279 23.7958 15.7874 23.3106 15.6016 22.6692L16.743 22.1988C16.8466 22.5935 17.0276 22.8995 17.2858 23.1166C17.5424 23.3337 17.8549 23.4406 18.22 23.4406C18.5934 23.4406 18.9141 23.3271 19.1822 23.1001C19.4503 22.8731 19.5851 22.5837 19.5851 22.2333C19.5851 21.8748 19.4437 21.582 19.1608 21.3551C18.8779 21.1281 18.5226 21.0146 18.0983 21.0146H17.4387V19.8847H18.0308C18.396 19.8847 18.7035 19.786 18.9535 19.5886C19.2035 19.3912 19.3285 19.1215 19.3285 18.7777C19.3285 18.4718 19.2167 18.2284 18.993 18.0458C18.7693 17.8633 18.4864 17.7712 18.1427 17.7712C17.8072 17.7712 17.5407 17.86 17.3434 18.0393C17.1461 18.219 16.9978 18.446 16.9124 18.6988L15.7825 18.2284C15.9322 17.8041 16.2068 17.4291 16.6098 17.1051C17.0128 16.781 17.5276 16.6182 18.1526 16.6182C18.6147 16.6182 19.0309 16.707 19.3993 16.8863C19.7677 17.0656 20.0572 17.3139 20.266 17.6297C20.4749 17.9472 20.5786 18.3024 20.5786 18.6972C20.5786 19.1001 20.4815 19.4406 20.2874 19.7202C20.0934 19.9998 19.8549 20.2136 19.572 20.3633V20.4307C19.9373 20.5813 20.2546 20.8287 20.4897 21.1462C20.7282 21.4669 20.8483 21.8501 20.8483 22.2975C20.8483 22.7449 20.7348 23.1445 20.5078 23.4949C20.2808 23.8452 19.9667 24.1215 19.5687 24.3222C19.169 24.5228 18.72 24.6248 18.2216 24.6248C17.6443 24.6264 17.1114 24.4603 16.6197 24.1281ZM23.6312 18.4636L22.3779 19.3699L21.7512 18.4192L23.9996 16.7975H24.8614V24.4472H23.6312V18.4636Z" fill="#4285F4"/>
</g>
<defs>
<clipPath id="clip0_3884_33438">
<rect width="40" height="40" fill="white"/>
</clipPath>
</defs>
</svg>
