<svg width="42" height="42" viewBox="0 0 42 42" fill="none" xmlns="http://www.w3.org/2000/svg">
<path d="M12.25 24.5C12.25 24.9641 12.0656 25.4092 11.7374 25.7374C11.4092 26.0656 10.9641 26.25 10.5 26.25H8.75C8.28587 26.25 7.84075 26.0656 7.51256 25.7374C7.18437 25.4092 7 24.9641 7 24.5C7 24.0359 7.18437 23.5908 7.51256 23.2626C7.84075 22.9344 8.28587 22.75 8.75 22.75H10.5C10.9641 22.75 11.4092 22.9344 11.7374 23.2626C12.0656 23.5908 12.25 24.0359 12.25 24.5ZM19.25 22.75H17.5C17.0359 22.75 16.5908 22.9344 16.2626 23.2626C15.9344 23.5908 15.75 24.0359 15.75 24.5C15.75 24.9641 15.9344 25.4092 16.2626 25.7374C16.5908 26.0656 17.0359 26.25 17.5 26.25H19.25C19.7141 26.25 20.1592 26.0656 20.4874 25.7374C20.8156 25.4092 21 24.9641 21 24.5C21 24.0359 20.8156 23.5908 20.4874 23.2626C20.1592 22.9344 19.7141 22.75 19.25 22.75ZM10.5 29.75H8.75C8.28587 29.75 7.84075 29.9344 7.51256 30.2626C7.18437 30.5908 7 31.0359 7 31.5C7 31.9641 7.18437 32.4092 7.51256 32.7374C7.84075 33.0656 8.28587 33.25 8.75 33.25H10.5C10.9641 33.25 11.4092 33.0656 11.7374 32.7374C12.0656 32.4092 12.25 31.9641 12.25 31.5C12.25 31.0359 12.0656 30.5908 11.7374 30.2626C11.4092 29.9344 10.9641 29.75 10.5 29.75ZM19.25 29.75H17.5C17.0359 29.75 16.5908 29.9344 16.2626 30.2626C15.9344 30.5908 15.75 31.0359 15.75 31.5C15.75 31.9641 15.9344 32.4092 16.2626 32.7374C16.5908 33.0656 17.0359 33.25 17.5 33.25H19.25C19.7141 33.25 20.1592 33.0656 20.4874 32.7374C20.8156 32.4092 21 31.9641 21 31.5C21 31.0359 20.8156 30.5908 20.4874 30.2626C20.1592 29.9344 19.7141 29.75 19.25 29.75ZM10.5 8.75H8.75C8.28587 8.75 7.84075 8.93437 7.51256 9.26256C7.18437 9.59075 7 10.0359 7 10.5C7 10.9641 7.18437 11.4092 7.51256 11.7374C7.84075 12.0656 8.28587 12.25 8.75 12.25H10.5C10.9641 12.25 11.4092 12.0656 11.7374 11.7374C12.0656 11.4092 12.25 10.9641 12.25 10.5C12.25 10.0359 12.0656 9.59075 11.7374 9.26256C11.4092 8.93437 10.9641 8.75 10.5 8.75ZM19.25 8.75H17.5C17.0359 8.75 16.5908 8.93437 16.2626 9.26256C15.9344 9.59075 15.75 10.0359 15.75 10.5C15.75 10.9641 15.9344 11.4092 16.2626 11.7374C16.5908 12.0656 17.0359 12.25 17.5 12.25H19.25C19.7141 12.25 20.1592 12.0656 20.4874 11.7374C20.8156 11.4092 21 10.9641 21 10.5C21 10.0359 20.8156 9.59075 20.4874 9.26256C20.1592 8.93437 19.7141 8.75 19.25 8.75ZM10.5 15.75H8.75C8.28587 15.75 7.84075 15.9344 7.51256 16.2626C7.18437 16.5908 7 17.0359 7 17.5C7 17.9641 7.18437 18.4092 7.51256 18.7374C7.84075 19.0656 8.28587 19.25 8.75 19.25H10.5C10.9641 19.25 11.4092 19.0656 11.7374 18.7374C12.0656 18.4092 12.25 17.9641 12.25 17.5C12.25 17.0359 12.0656 16.5908 11.7374 16.2626C11.4092 15.9344 10.9641 15.75 10.5 15.75ZM19.25 15.75H17.5C17.0359 15.75 16.5908 15.9344 16.2626 16.2626C15.9344 16.5908 15.75 17.0359 15.75 17.5C15.75 17.9641 15.9344 18.4092 16.2626 18.7374C16.5908 19.0656 17.0359 19.25 17.5 19.25H19.25C19.7141 19.25 20.1592 19.0656 20.4874 18.7374C20.8156 18.4092 21 17.9641 21 17.5C21 17.0359 20.8156 16.5908 20.4874 16.2626C20.1592 15.9344 19.7141 15.75 19.25 15.75ZM42 17.5V33.25C41.9972 35.5698 41.0745 37.7938 39.4341 39.4341C37.7938 41.0745 35.5698 41.9972 33.25 42H8.75C6.43021 41.9972 4.20623 41.0745 2.56588 39.4341C0.925543 37.7938 0.00277875 35.5698 0 33.25L0 8.75C0.00277875 6.43021 0.925543 4.20623 2.56588 2.56588C4.20623 0.925543 6.43021 0.00277875 8.75 0L19.25 0C21.5698 0.00277875 23.7938 0.925543 25.4341 2.56588C27.0745 4.20623 27.9972 6.43021 28 8.75H33.25C35.5698 8.75278 37.7938 9.67554 39.4341 11.3159C41.0745 12.9562 41.9972 15.1802 42 17.5V17.5ZM8.75 38.5H24.5V8.75C24.5 7.35761 23.9469 6.02226 22.9623 5.03769C21.9777 4.05312 20.6424 3.5 19.25 3.5H8.75C7.35761 3.5 6.02226 4.05312 5.03769 5.03769C4.05312 6.02226 3.5 7.35761 3.5 8.75V33.25C3.5 34.6424 4.05312 35.9777 5.03769 36.9623C6.02226 37.9469 7.35761 38.5 8.75 38.5ZM38.5 17.5C38.5 16.1076 37.9469 14.7723 36.9623 13.7877C35.9777 12.8031 34.6424 12.25 33.25 12.25H28V38.5H33.25C34.6424 38.5 35.9777 37.9469 36.9623 36.9623C37.9469 35.9777 38.5 34.6424 38.5 33.25V17.5ZM33.25 22.75C32.9039 22.75 32.5655 22.8526 32.2778 23.0449C31.99 23.2372 31.7657 23.5105 31.6332 23.8303C31.5008 24.1501 31.4661 24.5019 31.5336 24.8414C31.6011 25.1809 31.7678 25.4927 32.0126 25.7374C32.2573 25.9822 32.5691 26.1489 32.9086 26.2164C33.2481 26.2839 33.5999 26.2492 33.9197 26.1168C34.2395 25.9843 34.5128 25.76 34.7051 25.4722C34.8974 25.1845 35 24.8461 35 24.5C35 24.0359 34.8156 23.5908 34.4874 23.2626C34.1592 22.9344 33.7141 22.75 33.25 22.75ZM33.25 29.75C32.9039 29.75 32.5655 29.8526 32.2778 30.0449C31.99 30.2372 31.7657 30.5105 31.6332 30.8303C31.5008 31.1501 31.4661 31.5019 31.5336 31.8414C31.6011 32.1809 31.7678 32.4927 32.0126 32.7374C32.2573 32.9822 32.5691 33.1489 32.9086 33.2164C33.2481 33.2839 33.5999 33.2492 33.9197 33.1168C34.2395 32.9843 34.5128 32.76 34.7051 32.4722C34.8974 32.1845 35 31.8461 35 31.5C35 31.0359 34.8156 30.5908 34.4874 30.2626C34.1592 29.9344 33.7141 29.75 33.25 29.75ZM33.25 15.75C32.9039 15.75 32.5655 15.8526 32.2778 16.0449C31.99 16.2372 31.7657 16.5105 31.6332 16.8303C31.5008 17.1501 31.4661 17.5019 31.5336 17.8414C31.6011 18.1809 31.7678 18.4927 32.0126 18.7374C32.2573 18.9822 32.5691 19.1489 32.9086 19.2164C33.2481 19.2839 33.5999 19.2492 33.9197 19.1168C34.2395 18.9843 34.5128 18.76 34.7051 18.4722C34.8974 18.1845 35 17.8461 35 17.5C35 17.0359 34.8156 16.5908 34.4874 16.2626C34.1592 15.9344 33.7141 15.75 33.25 15.75Z" fill="#15357A"/>
</svg>
