<svg width="22" height="22" viewBox="0 0 22 22" fill="none" xmlns="http://www.w3.org/2000/svg">
    <g clip-path="url(#clip0_5996_64953)">
        <path fill-rule="evenodd" clip-rule="evenodd" d="M0 2.74995C0 2.31601 0.351776 1.96423 0.785714 1.96423H21.2143C21.6482 1.96423 22 2.31601 22 2.74995V19.2499C22 19.6839 21.6482 20.0357 21.2143 20.0357H0.785714C0.351776 20.0357 0 19.6839 0 19.2499V2.74995ZM1.57143 3.53566V18.4642H20.4286V3.53566H1.57143Z" fill="currentColor" />
        <path fill-rule="evenodd" clip-rule="evenodd" d="M0.185259 4.23102C0.465121 3.89939 0.960835 3.85742 1.29247 4.13729L10.4932 11.9017L10.4932 11.9018C10.635 12.0214 10.8145 12.087 11 12.087C11.1855 12.087 11.365 12.0214 11.5068 11.9018L11.5069 11.9017L20.7076 4.13729C21.0392 3.85742 21.5349 3.89939 21.8148 4.23102C22.0946 4.56265 22.0527 5.05837 21.721 5.33823L12.5204 13.1026C12.0951 13.4616 11.5565 13.6585 11 13.6585C10.4435 13.6585 9.90498 13.4616 9.47971 13.1027C9.47969 13.1026 9.47968 13.1026 9.47966 13.1026L0.278997 5.33823C-0.052635 5.05837 -0.0946026 4.56265 0.185259 4.23102Z" fill="currentColor" />
    </g>
    <defs>
        <clipPath id="clip0_5996_64953">
            <rect width="22" height="22" fill="currentColor" />
        </clipPath>
    </defs>
</svg>