<svg width="18" height="18" viewBox="0 0 18 18" fill="none" xmlns="http://www.w3.org/2000/svg">
<path fill-rule="evenodd" clip-rule="evenodd" d="M5.36239 0.159058C5.60476 -0.0530193 5.96666 -0.0530193 6.20904 0.159058L11.3519 4.65906C11.4914 4.78113 11.5714 4.95748 11.5714 5.14286V17.3571C11.5714 17.7122 11.2836 18 10.9286 18H0.642857C0.287817 18 0 17.7122 0 17.3571V5.14286C0 4.95748 0.0800231 4.78113 0.219533 4.65906L5.36239 0.159058ZM1.28571 5.43457V16.7143H10.2857V5.43457L5.78571 1.49707L1.28571 5.43457Z" fill="currentColor"/>
<path fill-rule="evenodd" clip-rule="evenodd" d="M10.2856 8.3577C10.2856 8.00266 10.5735 7.71484 10.9285 7.71484H17.3571C17.7121 7.71484 17.9999 8.00266 17.9999 8.3577V17.3577C17.9999 17.7127 17.7121 18.0006 17.3571 18.0006H10.9285C10.5735 18.0006 10.2856 17.7127 10.2856 17.3577C10.2856 17.0027 10.5735 16.7148 10.9285 16.7148H16.7142V9.00056H10.9285C10.5735 9.00056 10.2856 8.71274 10.2856 8.3577Z" fill="currentColor"/>
<path fill-rule="evenodd" clip-rule="evenodd" d="M5.78568 14.1426C6.14072 14.1426 6.42854 14.4304 6.42854 14.7854V17.3569C6.42854 17.7119 6.14072 17.9997 5.78568 17.9997C5.43064 17.9997 5.14282 17.7119 5.14282 17.3569V14.7854C5.14282 14.4304 5.43064 14.1426 5.78568 14.1426Z" fill="currentColor"/>
<path fill-rule="evenodd" clip-rule="evenodd" d="M3.21436 10.928C3.21436 10.573 3.50217 10.2852 3.85721 10.2852H7.71436C8.0694 10.2852 8.35721 10.573 8.35721 10.928C8.35721 11.2831 8.0694 11.5709 7.71436 11.5709H3.85721C3.50217 11.5709 3.21436 11.2831 3.21436 10.928Z" fill="currentColor"/>
<path fill-rule="evenodd" clip-rule="evenodd" d="M3.21436 7.07059C3.21436 6.71555 3.50217 6.42773 3.85721 6.42773H7.71436C8.0694 6.42773 8.35721 6.71555 8.35721 7.07059C8.35721 7.42563 8.0694 7.71345 7.71436 7.71345H3.85721C3.50217 7.71345 3.21436 7.42563 3.21436 7.07059Z" fill="currentColor"/>
</svg>
