<svg width="14" height="14" viewBox="0 0 14 14" fill="none" xmlns="http://www.w3.org/2000/svg">
    <path fill-rule="evenodd" clip-rule="evenodd" d="M7 1C3.68629 1 1 3.68629 1 7C1 10.3137 3.68629 13 7 13C10.3137 13 13 10.3137 13 7C13 3.68629 10.3137 1 7 1ZM0 7C0 3.13401 3.13401 0 7 0C10.866 0 14 3.13401 14 7C14 10.866 10.866 14 7 14C3.13401 14 0 10.866 0 7Z" fill="currentColor" />
    <path fill-rule="evenodd" clip-rule="evenodd" d="M7 4C7.27614 4 7.5 4.22386 7.5 4.5V6.81488L9.91945 9.63439C10.0993 9.84396 10.0752 10.1596 9.86561 10.3394C9.65604 10.5193 9.34038 10.4952 9.16055 10.2856L6.62055 7.32561C6.54276 7.23496 6.5 7.11945 6.5 7V4.5C6.5 4.22386 6.72386 4 7 4Z" fill="currentColor" />
</svg>