<svg width="18" height="18" viewBox="0 0 18 18" fill="none" xmlns="http://www.w3.org/2000/svg">
<path fill-rule="evenodd" clip-rule="evenodd" d="M1.92857 1.28571C1.75808 1.28571 1.59456 1.35344 1.474 1.474C1.35344 1.59456 1.28571 1.75808 1.28571 1.92857V16.0714C1.28571 16.2419 1.35344 16.4054 1.474 16.526C1.59456 16.6466 1.75808 16.7143 1.92857 16.7143H10.9286C11.0991 16.7143 11.2626 16.6466 11.3831 16.526C11.5037 16.4054 11.5714 16.2419 11.5714 16.0714V13.5C11.5714 13.145 11.8592 12.8571 12.2143 12.8571C12.5693 12.8571 12.8571 13.145 12.8571 13.5V16.0714C12.8571 16.5829 12.654 17.0735 12.2923 17.4351C11.9306 17.7968 11.4401 18 10.9286 18H1.92857C1.41708 18 0.926543 17.7968 0.564866 17.4351C0.203188 17.0735 0 16.5829 0 16.0714V1.92857C0 1.41708 0.203188 0.926543 0.564866 0.564865C0.926543 0.203188 1.41708 0 1.92857 0H10.9286C11.4401 0 11.9306 0.203188 12.2923 0.564865C12.654 0.926543 12.8571 1.41708 12.8571 1.92857V4.5C12.8571 4.85504 12.5693 5.14286 12.2143 5.14286C11.8592 5.14286 11.5714 4.85504 11.5714 4.5V1.92857C11.5714 1.75808 11.5037 1.59456 11.3831 1.474C11.2626 1.35344 11.0991 1.28571 10.9286 1.28571H1.92857Z" fill="currentColor"/>
<path fill-rule="evenodd" clip-rule="evenodd" d="M7.71387 9.00028C7.71387 8.64524 8.00168 8.35742 8.35672 8.35742H17.3567C17.7118 8.35742 17.9996 8.64524 17.9996 9.00028C17.9996 9.35532 17.7118 9.64314 17.3567 9.64314H8.35672C8.00168 9.64314 7.71387 9.35532 7.71387 9.00028Z" fill="currentColor"/>
<path fill-rule="evenodd" clip-rule="evenodd" d="M14.3309 5.97442C14.5819 5.72337 14.989 5.72337 15.24 5.97442L17.8114 8.54585C18.0625 8.7969 18.0625 9.20394 17.8114 9.45499L15.24 12.0264C14.989 12.2775 14.5819 12.2775 14.3309 12.0264C14.0798 11.7754 14.0798 11.3683 14.3309 11.1173L16.4477 9.00042L14.3309 6.88356C14.0798 6.63251 14.0798 6.22547 14.3309 5.97442Z" fill="currentColor"/>
</svg>
