<svg width="20" height="20" viewBox="0 0 20 20" fill="none" xmlns="http://www.w3.org/2000/svg">
<path d="M2.34375 4.6875C1.05133 4.6875 0 3.63617 0 2.34375C0 1.05133 1.05133 0 2.34375 0C3.63617 0 4.6875 1.05133 4.6875 2.34375C4.6875 3.63617 3.63617 4.6875 2.34375 4.6875ZM2.34375 1.5625C1.91299 1.5625 1.5625 1.91299 1.5625 2.34375C1.5625 2.77451 1.91299 3.125 2.34375 3.125C2.77451 3.125 3.125 2.77451 3.125 2.34375C3.125 1.91299 2.77451 1.5625 2.34375 1.5625ZM17.6562 4.6875C16.3638 4.6875 15.3125 3.63617 15.3125 2.34375C15.3125 1.05133 16.3638 0 17.6562 0C18.9487 0 20 1.05133 20 2.34375C20 3.63617 18.9487 4.6875 17.6562 4.6875ZM17.6562 1.5625C17.2255 1.5625 16.875 1.91299 16.875 2.34375C16.875 2.77451 17.2255 3.125 17.6562 3.125C18.087 3.125 18.4375 2.77451 18.4375 2.34375C18.4375 1.91299 18.087 1.5625 17.6562 1.5625ZM2.33154 5.42969C2.33536 5.42969 2.33917 5.42969 2.34299 5.42969C3.96011 5.42969 4.57321 6.60706 4.95956 7.75955C5.09094 8.15155 5.37613 9.00803 5.56335 9.57031H6.48438V7.77344C6.48438 6.48102 7.53571 5.42969 8.82812 5.42969H11.1719C12.4643 5.42969 13.5156 6.48102 13.5156 7.77344V9.57031H14.4366C14.6239 9.00803 14.9091 8.15155 15.0404 7.75955C15.4269 6.60706 16.0397 5.42969 17.657 5.42969C17.6608 5.42969 17.6648 5.42969 17.6686 5.42969C18.9542 5.43411 20 6.4856 20 7.77344V12.0312C20 13.0498 19.3468 13.9182 18.4375 14.2406V14.2578C18.4174 14.2578 18.3977 14.2593 18.3778 14.2609C18.2909 14.2891 18.2018 14.3124 18.1107 14.3304C17.8429 14.4543 17.6562 14.725 17.6562 15.0391V19.2188C17.6562 19.6502 17.3065 20 16.875 20C16.4435 20 16.0938 19.6502 16.0938 19.2188V15.0391C16.0938 14.8085 16.1278 14.5857 16.1902 14.375H15.2734C14.8427 14.375 14.4922 14.7255 14.4922 15.1562V19.2188C14.4922 19.6502 14.1424 20 13.7109 20C13.2795 20 12.9297 19.6502 12.9297 19.2188V15.1562C12.9297 13.8638 13.981 12.8125 15.2734 12.8125H17.6562C17.6764 12.8125 17.6961 12.811 17.7159 12.8094C17.8029 12.7812 17.892 12.7579 17.9831 12.7399C18.2509 12.616 18.4375 12.3453 18.4375 12.0312V7.77344C18.4375 7.34421 18.0901 6.99371 17.6631 6.99219C17.31 6.99097 16.9466 6.98975 16.5221 8.25607C16.3191 8.86139 15.7471 10.5809 15.7413 10.5981L15.5635 11.1328H4.43649L4.25873 10.5981C4.25293 10.5809 3.68088 8.86139 3.47794 8.25607C3.05359 6.98975 2.68997 6.99142 2.33688 6.99219C1.90994 6.99371 1.5625 7.34421 1.5625 7.77344V12.0312C1.5625 12.3453 1.74911 12.616 2.01691 12.7399C2.108 12.7579 2.19711 12.7812 2.28409 12.8094C2.30392 12.811 2.32361 12.8125 2.34375 12.8125H4.6875C5.97992 12.8125 7.03125 13.8638 7.03125 15.1562V19.2188C7.03125 19.6502 6.68147 20 6.25 20C5.81853 20 5.46875 19.6502 5.46875 19.2188V15.1562C5.46875 14.7255 5.11826 14.375 4.6875 14.375H3.80981C3.87222 14.5857 3.90625 14.8085 3.90625 15.0391V19.2188C3.90625 19.6502 3.55647 20 3.125 20C2.69353 20 2.34375 19.6502 2.34375 19.2188V15.0391C2.34375 14.725 2.15714 14.4543 1.88934 14.3304C1.79825 14.3124 1.70914 14.2891 1.62216 14.2609C1.60233 14.2593 1.58264 14.2578 1.5625 14.2578V14.2406C0.653229 13.9182 0 13.0498 0 12.0312V7.77344C0 6.4856 1.04584 5.43411 2.33154 5.42969ZM11.9531 7.77344C11.9531 7.34268 11.6026 6.99219 11.1719 6.99219H8.82812C8.39737 6.99219 8.04688 7.34268 8.04688 7.77344V9.57031H11.9531V7.77344ZM10 4.6875C8.70758 4.6875 7.65625 3.63617 7.65625 2.34375C7.65625 1.05133 8.70758 0 10 0C11.2924 0 12.3438 1.05133 12.3438 2.34375C12.3438 3.63617 11.2924 4.6875 10 4.6875ZM10 1.5625C9.56924 1.5625 9.21875 1.91299 9.21875 2.34375C9.21875 2.77451 9.56924 3.125 10 3.125C10.4308 3.125 10.7812 2.77451 10.7812 2.34375C10.7812 1.91299 10.4308 1.5625 10 1.5625Z" fill="#2266E1"/>
</svg>
