<svg width="18" height="18" viewBox="0 0 18 18" fill="none" xmlns="http://www.w3.org/2000/svg">
<g clip-path="url(#clip0_3588_1664)">
<path fill-rule="evenodd" clip-rule="evenodd" d="M8.47047 5.65702e-06L8.47237 0L9.52856 2.82851e-06C9.91705 0.00115325 10.2961 0.119604 10.6162 0.339844C10.9361 0.559978 11.182 0.871547 11.3219 1.23377C11.322 1.23395 11.3219 1.2336 11.3219 1.23377L11.7926 2.44889L13.2779 3.30342L14.583 3.10433C14.962 3.0529 15.3476 3.11536 15.691 3.28362C16.0344 3.45189 16.3201 3.71844 16.5116 4.04942L16.5134 4.05248L17.0259 4.94932C17.222 5.28472 17.3123 5.67158 17.2849 6.05923C17.2574 6.44749 17.1131 6.81833 16.8709 7.12302C16.8704 7.12365 16.8699 7.12428 16.8694 7.12492L16.0709 8.14217V9.85309L16.8951 10.8751C17.1382 11.1801 17.2831 11.5517 17.3106 11.9408C17.3381 12.3284 17.2478 12.7152 17.0516 13.0506L16.5391 13.9475L16.5373 13.9506C16.3458 14.2816 16.0602 14.5481 15.7168 14.7164C15.3734 14.8846 14.9877 14.947 14.6088 14.8956L14.5983 14.8942L13.3036 14.6966L11.8184 15.5511L11.3478 16.7657C11.3478 16.7658 11.3479 16.7656 11.3478 16.7657C11.208 17.128 10.9618 17.44 10.6419 17.6602C10.3219 17.8804 9.94276 17.9989 9.55427 18L9.55237 18H8.47237L8.47047 18C8.08198 17.9989 7.70289 17.8804 7.38285 17.6602C7.06291 17.44 6.8169 17.1283 6.67703 16.766C6.67698 16.7659 6.67707 16.7661 6.67703 16.766L6.20638 15.5511L4.72113 14.6966L3.41599 14.8957C3.03706 14.9471 2.65138 14.8846 2.30798 14.7164C1.96458 14.5481 1.67896 14.2816 1.48741 13.9506L1.48563 13.9475L0.973138 13.0506C0.776981 12.7153 0.686681 12.3284 0.714124 11.9408C0.741609 11.5526 0.885907 11.1818 1.12802 10.8771L1.92809 9.85784V8.14692L1.10389 7.12492C0.860817 6.81988 0.715955 6.4483 0.68841 6.05923C0.660968 5.67161 0.751263 5.28477 0.947409 4.94939L1.46169 4.04941C1.65324 3.71844 1.93887 3.45189 2.28227 3.28362C2.62566 3.11536 3.01133 3.05298 3.39027 3.10442L3.40075 3.10584L4.6975 3.30374L6.20715 2.44691L6.6769 1.23429C6.67696 1.23413 6.67684 1.23445 6.6769 1.23429C6.81679 0.872051 7.06296 0.559985 7.38285 0.339844C7.70289 0.119604 8.08198 0.00115325 8.47047 5.65702e-06ZM9.52555 1.28572H8.47348C8.34426 1.28626 8.21819 1.32573 8.11173 1.39899C8.00505 1.47241 7.92303 1.57633 7.87641 1.69714L7.32325 3.12508C7.2697 3.2633 7.17003 3.37878 7.04112 3.45194L5.13826 4.53194C5.01268 4.60322 4.86675 4.63014 4.724 4.60837L3.21299 4.37787C3.08808 4.36178 2.96115 4.38274 2.848 4.43818C2.73397 4.49406 2.63905 4.58245 2.57521 4.69219L2.05802 5.59726C1.99213 5.70934 1.96173 5.83874 1.97091 5.96843C1.98006 6.0976 2.028 6.22099 2.10844 6.32244C2.10876 6.32285 2.10909 6.32325 2.10941 6.32366L3.07135 7.51645C3.16353 7.63075 3.2138 7.77316 3.2138 7.92V10.08C3.2138 10.2239 3.16549 10.3637 3.07662 10.4769L2.13514 11.6764C2.05411 11.778 2.00581 11.9019 1.99663 12.0316C1.98745 12.1613 2.01781 12.2907 2.0837 12.4028L2.08771 12.4096L2.60019 13.3066C2.60043 13.307 2.60067 13.3074 2.60092 13.3078C2.66476 13.4176 2.75968 13.5059 2.87371 13.5618C2.98687 13.6173 3.11379 13.6382 3.2387 13.6221L4.74971 13.3916C4.89374 13.3697 5.04096 13.3973 5.16725 13.4699L7.04439 14.5499C7.17175 14.6232 7.27017 14.7379 7.32325 14.8749L7.87641 16.3029C7.92303 16.4237 8.00505 16.5276 8.11173 16.601C8.21817 16.6743 8.34421 16.7137 8.47341 16.7143H9.55133C9.68053 16.7137 9.80657 16.6743 9.91301 16.601C10.0197 16.5276 10.1017 16.4237 10.1483 16.3029L10.7015 14.8749C10.7546 14.7379 10.853 14.6232 10.9804 14.5499L12.8575 13.4699C12.9838 13.3973 13.131 13.3697 13.275 13.3916L14.786 13.6221C14.911 13.6382 15.0379 13.6173 15.151 13.5618C15.2651 13.5059 15.36 13.4176 15.4238 13.3078C15.4241 13.3074 15.4243 13.307 15.4246 13.3066L15.941 12.4028C16.0069 12.2907 16.0373 12.1613 16.0281 12.0316C16.019 11.9024 15.971 11.779 15.8905 11.6775C15.8902 11.6771 15.8899 11.6767 15.8896 11.6763L14.9277 10.4836C14.8355 10.3693 14.7852 10.2268 14.7852 10.08V7.92C14.7852 7.77607 14.8335 7.63629 14.9224 7.52307L15.861 6.32736L15.8639 6.32366C15.9449 6.22198 15.9932 6.09812 16.0024 5.96843C16.0116 5.83874 15.9812 5.70931 15.9153 5.59723L15.9113 5.5904L15.3988 4.69345C15.3986 4.69307 15.3984 4.69269 15.3982 4.69232C15.3343 4.58252 15.2394 4.49408 15.1253 4.43818C15.0122 4.38274 14.8852 4.36178 14.7603 4.37787L13.2493 4.60837C13.1053 4.63034 12.9581 4.60273 12.8318 4.53008L10.9546 3.45007C10.8273 3.3768 10.7289 3.2621 10.6758 3.12508L10.1226 1.69714C10.076 1.57633 9.99398 1.47241 9.8873 1.39899C9.78084 1.32573 9.65477 1.28626 9.52555 1.28572ZM6.72667 6.72716C7.32947 6.12436 8.14703 5.78572 8.99951 5.78572C9.63524 5.78572 10.2567 5.97423 10.7853 6.32742C11.3139 6.68061 11.7258 7.18262 11.9691 7.76995C12.2124 8.35728 12.2761 9.00357 12.152 9.62708C12.028 10.2506 11.7219 10.8233 11.2724 11.2728C10.8228 11.7224 10.2501 12.0285 9.62659 12.1525C9.00308 12.2766 8.35679 12.2129 7.76946 11.9696C7.18213 11.7263 6.68012 11.3144 6.32693 10.7858C5.97374 10.2572 5.78523 9.63573 5.78523 9C5.78523 8.14752 6.12387 7.32996 6.72667 6.72716ZM8.99951 7.07143C8.48803 7.07143 7.99749 7.27462 7.63581 7.6363C7.27413 7.99797 7.07094 8.48851 7.07094 9C7.07094 9.38144 7.18405 9.75431 7.39597 10.0715C7.60788 10.3886 7.90908 10.6358 8.26148 10.7818C8.61388 10.9277 9.00165 10.9659 9.37576 10.8915C9.74987 10.8171 10.0935 10.6334 10.3632 10.3637C10.6329 10.094 10.8166 9.75035 10.891 9.37625C10.9654 9.00214 10.9273 8.61437 10.7813 8.26197C10.6353 7.90957 10.3881 7.60837 10.071 7.39646C9.75382 7.18454 9.38095 7.07143 8.99951 7.07143Z" fill="currentColor"/>
</g>
<defs>
<clipPath id="clip0_3588_1664">
<rect width="18" height="18" fill="currentColor"/>
</clipPath>
</defs>
</svg>
