<svg width="14" height="14" viewBox="0 0 14 14" fill="none" xmlns="http://www.w3.org/2000/svg">
<g clip-path="url(#clip0_11401_5659)">
<path fill-rule="evenodd" clip-rule="evenodd" d="M4 0C4.27614 0 4.5 0.223858 4.5 0.5V3.5C4.5 3.77614 4.27614 4 4 4C3.72386 4 3.5 3.77614 3.5 3.5V0.5C3.5 0.223858 3.72386 0 4 0Z" fill="currentColor"/>
<path fill-rule="evenodd" clip-rule="evenodd" d="M7 0C7.27614 0 7.5 0.223858 7.5 0.5V3.5C7.5 3.77614 7.27614 4 7 4C6.72386 4 6.5 3.77614 6.5 3.5V0.5C6.5 0.223858 6.72386 0 7 0Z" fill="currentColor"/>
<path fill-rule="evenodd" clip-rule="evenodd" d="M10 0C10.2761 0 10.5 0.223858 10.5 0.5V3.5C10.5 3.77614 10.2761 4 10 4C9.72386 4 9.5 3.77614 9.5 3.5V0.5C9.5 0.223858 9.72386 0 10 0Z" fill="currentColor"/>
<path fill-rule="evenodd" clip-rule="evenodd" d="M1.5 2.5C1.22386 2.5 1 2.72386 1 3V12.5C1 12.7761 1.22386 13 1.5 13H12.5C12.7761 13 13 12.7761 13 12.5V3C13 2.72386 12.7761 2.5 12.5 2.5H1.5ZM0 3C0 2.17157 0.671573 1.5 1.5 1.5H12.5C13.3284 1.5 14 2.17157 14 3V12.5C14 13.3284 13.3284 14 12.5 14H1.5C0.671573 14 0 13.3284 0 12.5V3Z" fill="currentColor"/>
<path fill-rule="evenodd" clip-rule="evenodd" d="M3 7C3 6.72386 3.22386 6.5 3.5 6.5H10.5C10.7761 6.5 11 6.72386 11 7C11 7.27614 10.7761 7.5 10.5 7.5H3.5C3.22386 7.5 3 7.27614 3 7Z" fill="currentColor"/>
<path fill-rule="evenodd" clip-rule="evenodd" d="M3 10C3 9.72386 3.22386 9.5 3.5 9.5H7.5C7.77614 9.5 8 9.72386 8 10C8 10.2761 7.77614 10.5 7.5 10.5H3.5C3.22386 10.5 3 10.2761 3 10Z" fill="currentColor"/>
</g>
<defs>
<clipPath id="clip0_11401_5659">
<rect width="14" height="14" fill="white"/>
</clipPath>
</defs>
</svg>
