<svg width="16" height="16" viewBox="0 0 16 16" fill="none" xmlns="http://www.w3.org/2000/svg">
<g clip-path="url(#clip0_5331_43380)">
<path fill-rule="evenodd" clip-rule="evenodd" d="M7.99944 1.14286C6.78702 1.14286 5.62426 1.62449 4.76695 2.4818C3.90964 3.33911 3.42801 4.50187 3.42801 5.71429C3.42801 6.29186 3.70046 7.15693 4.17894 8.19312C4.64733 9.20743 5.2768 10.3107 5.91361 11.3374C6.54923 12.3621 7.18578 13.3004 7.66392 13.9831C7.78736 14.1593 7.90012 14.3184 7.99944 14.4573C8.09877 14.3184 8.21153 14.1593 8.33497 13.9831C8.81311 13.3004 9.44966 12.3621 10.0853 11.3374C10.7221 10.3107 11.3516 9.20743 11.8199 8.19312C12.2984 7.15693 12.5709 6.29186 12.5709 5.71429C12.5709 4.50187 12.0892 3.33911 11.2319 2.4818C10.3746 1.62449 9.21186 1.14286 7.99944 1.14286ZM7.99944 15.4286C7.54203 15.7711 7.54197 15.771 7.5419 15.7709L7.53776 15.7654L7.52618 15.7498L7.48203 15.6902C7.44358 15.6382 7.3875 15.5619 7.31632 15.464C7.17396 15.2682 6.97108 14.986 6.72782 14.6387C6.24168 13.9446 5.59251 12.9879 4.94241 11.9398C4.29351 10.8936 3.63727 9.74614 3.14137 8.67224C2.65557 7.62021 2.28516 6.55957 2.28516 5.71429C2.28516 4.19876 2.8872 2.74531 3.95883 1.67368C5.03047 0.602039 6.48392 0 7.99944 0C9.51496 0 10.9684 0.602039 12.0401 1.67368C13.1117 2.74531 13.7137 4.19876 13.7137 5.71429C13.7137 6.55957 13.3433 7.62021 12.8575 8.67224C12.3616 9.74614 11.7054 10.8936 11.0565 11.9398C10.4064 12.9879 9.75721 13.9446 9.27106 14.6387C9.0278 14.986 8.82492 15.2682 8.68257 15.464C8.61138 15.5619 8.55531 15.6382 8.51686 15.6902L8.4727 15.7498L8.46112 15.7654L8.45723 15.7706C8.45715 15.7707 8.45686 15.7711 7.99944 15.4286ZM7.99944 15.4286L8.45723 15.7706C8.34933 15.9147 8.17946 16 7.99944 16C7.81942 16 7.6498 15.915 7.5419 15.7709L7.99944 15.4286Z" fill="currentColor"/>
<path fill-rule="evenodd" clip-rule="evenodd" d="M7.99861 4.57132C7.36742 4.57132 6.85575 5.083 6.85575 5.71418C6.85575 6.34536 7.36742 6.85704 7.99861 6.85704C8.62979 6.85704 9.14146 6.34536 9.14146 5.71418C9.14146 5.083 8.62979 4.57132 7.99861 4.57132ZM5.71289 5.71418C5.71289 4.45182 6.73624 3.42847 7.99861 3.42847C9.26097 3.42847 10.2843 4.45182 10.2843 5.71418C10.2843 6.97655 9.26097 7.9999 7.99861 7.9999C6.73624 7.9999 5.71289 6.97655 5.71289 5.71418Z" fill="currentColor"/>
</g>
<defs>
<clipPath id="clip0_5331_43380">
<rect width="16" height="16" fill="currentColor"/>
</clipPath>
</defs>
</svg>
