<svg width="22" height="22" viewBox="0 0 22 22" fill="none" xmlns="http://www.w3.org/2000/svg">
    <g clip-path="url(#clip0_7201_5007)">
        <path fill-rule="evenodd" clip-rule="evenodd" d="M0.690391 3.83321C1.13244 3.39116 1.73199 3.14282 2.35714 3.14282C2.79108 3.14282 3.14286 3.4946 3.14286 3.92854C3.14286 4.36247 2.79108 4.71425 2.35714 4.71425C2.14876 4.71425 1.94891 4.79703 1.80156 4.94438C1.65421 5.09173 1.57143 5.29158 1.57143 5.49997V19.6428C1.57143 19.8512 1.65421 20.0511 1.80156 20.1984C1.94891 20.3458 2.14876 20.4285 2.35714 20.4285H19.6429C19.8512 20.4285 20.0511 20.3458 20.1984 20.1984C20.3458 20.0511 20.4286 19.8512 20.4286 19.6428V5.49997C20.4286 5.29158 20.3458 5.09173 20.1984 4.94438C20.0511 4.79703 19.8512 4.71425 19.6429 4.71425H16.5C16.0661 4.71425 15.7143 4.36247 15.7143 3.92854C15.7143 3.4946 16.0661 3.14282 16.5 3.14282H19.6429C20.268 3.14282 20.8676 3.39116 21.3096 3.83321C21.7517 4.27526 22 4.87481 22 5.49997V19.6428C22 20.268 21.7517 20.8675 21.3096 21.3096C20.8676 21.7516 20.268 22 19.6429 22H2.35714C1.73199 22 1.13244 21.7516 0.690391 21.3096C0.248341 20.8675 0 20.268 0 19.6428V5.49997C0 4.87481 0.248341 4.27526 0.690391 3.83321Z" fill="currentColor" />
        <path fill-rule="evenodd" clip-rule="evenodd" d="M0 10.2142C0 9.78024 0.351776 9.42847 0.785714 9.42847H21.2143C21.6482 9.42847 22 9.78024 22 10.2142C22 10.6481 21.6482 10.9999 21.2143 10.9999H0.785714C0.351776 10.9999 0 10.6481 0 10.2142Z" fill="currentColor" />
        <path fill-rule="evenodd" clip-rule="evenodd" d="M5.50056 0C5.9345 0 6.28627 0.351776 6.28627 0.785714V7.07143C6.28627 7.50537 5.9345 7.85714 5.50056 7.85714C5.06662 7.85714 4.71484 7.50537 4.71484 7.07143V0.785714C4.71484 0.351776 5.06662 0 5.50056 0Z" fill="currentColor" />
        <path fill-rule="evenodd" clip-rule="evenodd" d="M16.5006 0C16.9345 0 17.2863 0.351776 17.2863 0.785714V7.07143C17.2863 7.50537 16.9345 7.85714 16.5006 7.85714C16.0666 7.85714 15.7148 7.50537 15.7148 7.07143V0.785714C15.7148 0.351776 16.0666 0 16.5006 0Z" fill="currentColor" />
        <path fill-rule="evenodd" clip-rule="evenodd" d="M4.71484 3.92854C4.71484 3.4946 5.06662 3.14282 5.50056 3.14282H13.3577C13.7916 3.14282 14.1434 3.4946 14.1434 3.92854C14.1434 4.36247 13.7916 4.71425 13.3577 4.71425H5.50056C5.06662 4.71425 4.71484 4.36247 4.71484 3.92854Z" fill="currentColor" />
    </g>
    <defs>
        <clipPath id="clip0_7201_5007">
            <rect width="22" height="22" fill="white" />
        </clipPath>
    </defs>
</svg>