<svg width="16" height="16" viewBox="0 0 16 16" fill="none" xmlns="http://www.w3.org/2000/svg">
<g clip-path="url(#clip0_6096_65214)">
<path fill-rule="evenodd" clip-rule="evenodd" d="M0 2.85672C0 2.22554 0.511675 1.71387 1.14286 1.71387H14.8571C15.4883 1.71387 16 2.22554 16 2.85672V11.9996C16 12.6308 15.4883 13.1424 14.8571 13.1424H1.14286C0.511675 13.1424 0 12.6308 0 11.9996V2.85672ZM14.8571 2.85672H1.14286V11.9996H14.8571V2.85672Z" fill="currentColor"/>
<path fill-rule="evenodd" clip-rule="evenodd" d="M7.06924 12.04C7.36226 12.1573 7.50478 12.4898 7.38757 12.7828L6.24472 15.64C6.12751 15.933 5.79495 16.0755 5.50194 15.9583C5.20892 15.8411 5.06639 15.5085 5.1836 15.2155L6.32646 12.3584C6.44367 12.0654 6.77622 11.9228 7.06924 12.04Z" fill="currentColor"/>
<path fill-rule="evenodd" clip-rule="evenodd" d="M8.93065 12.04C9.22367 11.9228 9.55622 12.0654 9.67343 12.3584L10.8163 15.2155C10.9335 15.5085 10.791 15.8411 10.4979 15.9583C10.2049 16.0755 9.87238 15.933 9.75517 15.64L8.61231 12.7828C8.4951 12.4898 8.63763 12.1573 8.93065 12.04Z" fill="currentColor"/>
<path fill-rule="evenodd" clip-rule="evenodd" d="M4 15.4279C4 15.1123 4.25584 14.8564 4.57143 14.8564H11.4286C11.7442 14.8564 12 15.1123 12 15.4279C12 15.7435 11.7442 15.9993 11.4286 15.9993H4.57143C4.25584 15.9993 4 15.7435 4 15.4279Z" fill="currentColor"/>
</g>
<defs>
<clipPath id="clip0_6096_65214">
<rect width="16" height="16" fill="currentColor"/>
</clipPath>
</defs>
</svg>