<svg width="36" height="53" viewBox="0 0 36 53" fill="none" xmlns="http://www.w3.org/2000/svg">
<g clip-path="url(#clip0_7076_62859)">
<path fill-rule="evenodd" clip-rule="evenodd" d="M25.9983 1.42857C24.4828 1.42857 23.0294 2.03061 21.9577 3.10225C20.8861 4.17388 20.284 5.62733 20.284 7.14286C20.284 7.86483 20.6246 8.94616 21.2227 10.2414C21.8082 11.5093 22.595 12.8884 23.391 14.1717C24.1856 15.4526 24.9812 16.6255 25.5789 17.4788C25.7332 17.6992 25.8742 17.8979 25.9983 18.0716C26.1225 17.8979 26.2634 17.6992 26.4177 17.4788C27.0154 16.6255 27.8111 15.4526 28.6056 14.1717C29.4016 12.8884 30.1885 11.5093 30.7739 10.2414C31.3721 8.94616 31.7126 7.86483 31.7126 7.14286C31.7126 5.62733 31.1106 4.17388 30.0389 3.10225C28.9673 2.03061 27.5138 1.42857 25.9983 1.42857ZM25.9983 19.2857C25.4266 19.7138 25.4265 19.7137 25.4264 19.7136L25.4212 19.7067L25.4067 19.6873L25.3516 19.6128C25.3035 19.5477 25.2334 19.4523 25.1444 19.33C24.9665 19.0853 24.7129 18.7325 24.4088 18.2984C23.8011 17.4307 22.9897 16.2349 22.177 14.9247C21.3659 13.617 20.5456 12.1827 19.9257 10.8403C19.3185 9.52527 18.8555 8.19946 18.8555 7.14286C18.8555 5.24845 19.608 3.43164 20.9476 2.09209C22.2871 0.752549 24.1039 0 25.9983 0C27.8927 0 29.7095 0.752549 31.0491 2.09209C32.3886 3.43164 33.1412 5.24845 33.1412 7.14286C33.1412 8.19946 32.6782 9.52527 32.0709 10.8403C31.451 12.1827 30.6307 13.617 29.8196 14.9247C29.007 16.2349 28.1955 17.4307 27.5878 18.2984C27.2838 18.7325 27.0302 19.0853 26.8522 19.33C26.7633 19.4523 26.6932 19.5477 26.6451 19.6128L26.5899 19.6873L26.5754 19.7067L26.5706 19.7132C26.5705 19.7133 26.5701 19.7138 25.9983 19.2857ZM25.9983 19.2857L26.5706 19.7132C26.4357 19.8933 26.2234 20 25.9983 20C25.7733 20 25.5613 19.8937 25.4264 19.7136L25.9983 19.2857Z" fill="#15357A"/>
<path fill-rule="evenodd" clip-rule="evenodd" d="M25.9978 5.71434C25.2088 5.71434 24.5692 6.35393 24.5692 7.14291C24.5692 7.93189 25.2088 8.57148 25.9978 8.57148C26.7867 8.57148 27.4263 7.93189 27.4263 7.14291C27.4263 6.35393 26.7867 5.71434 25.9978 5.71434ZM23.1406 7.14291C23.1406 5.56495 24.4198 4.28577 25.9978 4.28577C27.5757 4.28577 28.8549 5.56495 28.8549 7.14291C28.8549 8.72087 27.5757 10.0001 25.9978 10.0001C24.4198 10.0001 23.1406 8.72087 23.1406 7.14291Z" fill="#15357A"/>
</g>
<g clip-path="url(#clip1_7076_62859)">
<path fill-rule="evenodd" clip-rule="evenodd" d="M9.99833 34.4286C8.4828 34.4286 7.02935 35.0306 5.95772 36.1022C4.88608 37.1739 4.28404 38.6273 4.28404 40.1429C4.28404 40.8648 4.6246 41.9462 5.2227 43.2414C5.80818 44.5093 6.59502 45.8884 7.39104 47.1717C8.18556 48.4526 8.98125 49.6255 9.57892 50.4788C9.73322 50.6992 9.87417 50.8979 9.99833 51.0716C10.1225 50.8979 10.2634 50.6992 10.4177 50.4788C11.0154 49.6255 11.8111 48.4526 12.6056 47.1717C13.4016 45.8884 14.1885 44.5093 14.7739 43.2414C15.3721 41.9462 15.7126 40.8648 15.7126 40.1429C15.7126 38.6273 15.1106 37.1739 14.0389 36.1022C12.9673 35.0306 11.5138 34.4286 9.99833 34.4286ZM9.99833 52.2857C9.42656 52.7138 9.42649 52.7137 9.4264 52.7136L9.42122 52.7067L9.40675 52.6873L9.35156 52.6128C9.3035 52.5477 9.2334 52.4523 9.14442 52.33C8.96648 52.0853 8.71287 51.7325 8.4088 51.2984C7.80112 50.4307 6.98966 49.2349 6.17704 47.9247C5.36592 46.617 4.54561 45.1827 3.92573 43.8403C3.31848 42.5253 2.85547 41.1995 2.85547 40.1429C2.85547 38.2485 3.60802 36.4316 4.94756 35.0921C6.28711 33.7525 8.10392 33 9.99833 33C11.8927 33 13.7095 33.7525 15.0491 35.0921C16.3886 36.4316 17.1412 38.2485 17.1412 40.1429C17.1412 41.1995 16.6782 42.5253 16.0709 43.8403C15.451 45.1827 14.6307 46.617 13.8196 47.9247C13.007 49.2349 12.1955 50.4307 11.5878 51.2984C11.2838 51.7325 11.0302 52.0853 10.8522 52.33C10.7633 52.4523 10.6932 52.5477 10.6451 52.6128L10.5899 52.6873L10.5754 52.7067L10.5706 52.7132C10.5705 52.7133 10.5701 52.7138 9.99833 52.2857ZM9.99833 52.2857L10.5706 52.7132C10.4357 52.8933 10.2234 53 9.99833 53C9.7733 53 9.56127 52.8937 9.4264 52.7136L9.99833 52.2857Z" fill="#15357A"/>
<path fill-rule="evenodd" clip-rule="evenodd" d="M9.99777 38.7143C9.20879 38.7143 8.5692 39.3539 8.5692 40.1429C8.5692 40.9319 9.20879 41.5715 9.99777 41.5715C10.7867 41.5715 11.4263 40.9319 11.4263 40.1429C11.4263 39.3539 10.7867 38.7143 9.99777 38.7143ZM7.14062 40.1429C7.14062 38.565 8.41981 37.2858 9.99777 37.2858C11.5757 37.2858 12.8549 38.565 12.8549 40.1429C12.8549 41.7209 11.5757 43.0001 9.99777 43.0001C8.41981 43.0001 7.14062 41.7209 7.14062 40.1429Z" fill="#15357A"/>
</g>
<path d="M19 50C22.676 49.3455 34 43.5 28 38C23.2799 33.6733 21.1402 28.5 26 23" stroke="#15357A" stroke-linecap="round"/>
<defs>
<clipPath id="clip0_7076_62859">
<rect width="20" height="20" fill="white" transform="translate(16)"/>
</clipPath>
<clipPath id="clip1_7076_62859">
<rect width="20" height="20" fill="white" transform="translate(0 33)"/>
</clipPath>
</defs>
</svg>
