<svg width="67" height="65" viewBox="0 0 67 65" fill="none" xmlns="http://www.w3.org/2000/svg">
<g clip-path="url(#clip0_9103_93295)">
<path d="M45.9118 25.0033V22.5841C45.9118 16.017 40.4238 10.6929 33.6545 10.6929C26.8853 10.6929 21.3973 16.017 21.3973 22.5841V25.0033C18.21 26.3522 16.149 29.4037 16.144 32.7768V42.9695C16.1498 47.6581 20.0667 51.4581 24.8997 51.4637H42.4102C47.2432 51.4581 51.1601 47.6581 51.1658 42.9695V32.7768C51.1609 29.4037 49.0998 26.3522 45.9126 25.0033H45.9118ZM24.8989 22.5841C24.8989 17.8931 28.8191 14.0899 33.6545 14.0899C38.49 14.0899 42.4102 17.8931 42.4102 22.5841V24.2826H24.8997V22.5841H24.8989ZM47.6626 42.9695C47.6626 45.7844 45.3109 48.0659 42.4094 48.0659H24.8989C21.9973 48.0659 19.6456 45.7844 19.6456 42.9695V32.7768C19.6456 29.9619 21.9973 27.6804 24.8989 27.6804H42.4094C45.3109 27.6804 47.6626 29.9619 47.6626 32.7768V42.9695Z" fill="#15357A"/>
<path d="M33.6546 34.4753C32.6877 34.4753 31.9038 35.2358 31.9038 36.1739V39.5717C31.9038 40.5097 32.6877 41.2702 33.6546 41.2702C34.6215 41.2702 35.4054 40.5097 35.4054 39.5717V36.1739C35.4054 35.2358 34.6215 34.4753 33.6546 34.4753Z" fill="#15357A"/>
<path d="M50.7681 2.15477C49.7355 2.15477 48.7858 2.50117 48.0356 3.07928C42.5 0.573311 36.2847 -0.449941 30.1532 0.182325C26.3988 0.56933 22.77 1.55277 19.3685 3.10556C15.848 4.7125 12.6559 6.89199 9.88071 9.5843C4.07343 15.2174 0.589062 22.6947 0.0678429 30.6378C-0.44763 38.5077 1.96639 46.2812 6.86749 52.5243C7.20649 52.9566 7.72032 53.1836 8.2399 53.1836C8.60352 53.1836 8.97124 53.0721 9.28315 52.842C10.0408 52.2822 10.1869 51.2334 9.61066 50.4985C5.21272 44.8949 3.04577 37.9168 3.50871 30.8496C3.97575 23.7195 7.10471 17.0067 12.3185 11.9485C14.8114 9.53015 17.6768 7.57283 20.8362 6.13072C23.8888 4.73719 27.1466 3.85488 30.5177 3.5069C35.9564 2.9463 41.4657 3.83577 46.3882 6.02322C46.3759 6.15461 46.3685 6.2876 46.3685 6.42217C46.3685 8.78003 48.3384 10.6912 50.7689 10.6912C53.1993 10.6912 55.1693 8.78003 55.1693 6.42217C55.1693 4.06431 53.1993 2.15318 50.7689 2.15318L50.7681 2.15477Z" fill="#15357A"/>
<path d="M61.838 14.8559C61.3308 14.074 60.2662 13.8399 59.4609 14.332C58.6549 14.8241 58.4136 15.8561 58.9208 16.6381C62.5168 22.1804 64.1018 28.8407 63.3853 35.3935C63.0274 38.6639 62.1171 41.8236 60.6807 44.7859C59.1942 47.8508 57.1766 50.6307 54.6838 53.0491C49.928 57.6629 43.8999 60.5511 37.2505 61.4016C34.0509 61.8109 30.8218 61.7257 27.6518 61.1491C25.7254 60.7988 23.8506 60.2692 22.0448 59.5717C22.0653 59.4036 22.0777 59.2324 22.0777 59.0588C22.0777 56.701 20.1077 54.7898 17.6773 54.7898C15.2468 54.7898 13.2769 56.701 13.2769 59.0588C13.2769 61.4167 15.2468 63.3278 17.6773 63.3278C18.6573 63.3278 19.5627 63.0165 20.294 62.4909C22.4519 63.3621 24.701 64.015 27.0165 64.4363C29.0825 64.8121 31.1715 65.0009 33.2637 65.0009C34.7445 65.0009 36.2261 64.9069 37.7019 64.7174C41.302 64.2563 44.7773 63.245 48.0294 61.7097C51.3939 60.1219 54.4531 58.0037 57.1224 55.4142C59.8976 52.7219 62.1442 49.625 63.8006 46.2097C65.4012 42.9098 66.4149 39.3893 66.8138 35.747C67.6125 28.4505 65.8461 21.0313 61.8388 14.8559H61.838Z" fill="#15357A"/>
</g>
<defs>
<clipPath id="clip0_9103_93295">
<rect width="67" height="65" fill="white"/>
</clipPath>
</defs>
</svg>
