<svg fill="currentColor" xmlns="http://www.w3.org/2000/svg" viewBox="0 0 161 27" preserveAspectRatio="xMinYMin slice"><path opacity=".65" d="m15.1 16.87 5.42-13.09c5.087 0 8.535 5.411 6.532 10.206L21.613 27c-5.086 0-8.516-5.334-6.512-10.13ZM34.528 16.87l1.733-4.146c1.27-3.04 4.185-5.01 7.409-5.01h4.212c.578 0 .967.607.74 1.152L41.04 27c-5.087 0-8.516-5.334-6.512-10.13Z" fill="#fff"/><path d="m21.613 27-9.19-21.99C11.154 1.97 8.24 0 5.017 0H.806C.229 0-.161.607.067 1.152L8.774 21.99c1.27 3.04 4.184 5.01 7.408 5.01h5.431ZM41.04 27 33.464 8.867c-1.27-3.04-4.185-5.087-7.409-5.087H20.52l7.578 18.21c1.27 3.04 4.183 5.01 7.407 5.01h5.535ZM86.297 8.427a.318.318 0 0 0-.307.238l-3.001 11.56-2.834-11.556a.318.318 0 0 0-.308-.242h-3.45c-.146 0-.273.1-.308.242l-2.834 11.555-3.001-11.56a.318.318 0 0 0-.307-.237h-3.574a.318.318 0 0 0-.303.414l5.277 16.549a.318.318 0 0 0 .303.221h3.267c.144 0 .27-.097.307-.236l2.898-10.879 2.898 10.88c.037.138.163.235.307.235h3.267c.138 0 .26-.09.303-.221l5.276-16.549a.318.318 0 0 0-.302-.414h-3.574ZM92.679 3.483c0 1.535 1.157 2.728 2.722 2.728 1.566 0 2.723-1.193 2.723-2.728 0-1.534-1.157-2.727-2.722-2.727-1.566 0-2.723 1.193-2.723 2.727Zm.93 4.944a.318.318 0 0 0-.317.318v16.549c0 .175.142.317.317.317h3.585a.318.318 0 0 0 .317-.317V8.744a.318.318 0 0 0-.317-.317h-3.585ZM116.15 25.611a.318.318 0 0 0 .318-.317v-6.366c0-4.841 1.667-7.16 3.709-7.16 1.259 0 2.11.648 2.11 2.387v11.139c0 .175.142.317.318.317h3.584a.318.318 0 0 0 .318-.317V13.439c0-3.307-1.906-5.285-5.105-5.285-2.11 0-4.016 1.33-5.241 3.546-.748-2.489-2.688-3.546-4.798-3.546-2.212 0-3.676 1.125-4.935 3.035V8.745a.318.318 0 0 0-.318-.318h-3.584a.318.318 0 0 0-.318.318v16.549c0 .175.142.317.318.317h3.584a.318.318 0 0 0 .318-.317v-5.99c0-5.115 1.634-7.536 3.71-7.536 1.259 0 2.11.648 2.11 2.387v11.139c0 .175.142.317.317.317h3.585ZM146.562 16.644c0-3.75-2.28-8.49-7.998-8.49-5.887 0-8.236 4.808-8.236 8.865 0 4.058 2.349 8.865 8.236 8.865 4.011 0 6.307-1.845 7.654-4.706a.31.31 0 0 0-.176-.423l-2.836-1.051a.325.325 0 0 0-.389.138c-.991 1.618-2.161 2.428-4.015 2.428-2.62 0-3.947-1.978-4.049-3.887h11.809v-1.739Zm-7.998-4.876c2.246 0 3.301 1.569 3.676 3.274h-7.385c.306-1.637 1.565-3.274 3.709-3.274ZM159.716 22.236c-.056-.194-.275-.285-.462-.208-.43.178-.823.242-1.28.242-1.429 0-2.246-.682-2.246-2.796v-7.433h4.209a.317.317 0 0 0 .317-.317v-2.98a.317.317 0 0 0-.317-.317h-4.209v-6.38a.318.318 0 0 0-.487-.268l-3.733 2.352v4.296h-2.337a.318.318 0 0 0-.318.318v2.979c0 .175.143.317.318.317h2.337v7.501c0 4.262 2.416 6.342 6.296 6.342.838 0 1.677-.142 2.541-.504a.308.308 0 0 0 .174-.371l-.803-2.773Z" fill="#fff"/></svg>