<svg viewBox="0 0 143 24" fill="none" xmlns="http://www.w3.org/2000/svg" preserveAspectRatio="xMinYMin slice">
<path d="M13.4229 14.9962L18.2398 3.36011C22.7615 3.36011 25.8271 8.17021 24.0459 12.4325L19.212 23.9999C14.6903 23.9999 11.6417 19.2585 13.4229 14.9962Z" fill="#175CFF" fill-opacity="0.65"/>
<path d="M30.6911 14.9961L32.2319 11.31C33.3608 8.60866 35.9517 6.85718 38.8175 6.85718H42.5614C43.0757 6.85718 43.4216 7.39648 43.2191 7.88127L36.4799 23.9998C31.9582 23.9998 28.91 19.2584 30.6911 14.9961Z" fill="#175CFF" fill-opacity="0.65"/>
<path d="M19.2117 23.9997L11.0432 4.45282C9.91434 1.75148 7.32433 0 4.45859 0H0.717156C0.202853 0 -0.143898 0.539298 0.0586942 1.0241L7.7992 19.5469C8.92807 22.2482 11.5181 23.9997 14.3838 23.9997H19.2117Z" fill="#175CFF"/>
<path d="M36.4799 23.9999L29.7455 7.8816C28.6166 5.18026 26.0257 3.36011 23.16 3.36011H18.24L24.9757 19.5471C26.1046 22.2485 28.6946 23.9999 31.5603 23.9999H36.4799Z" fill="#175CFF"/>
<path d="M76.7085 7.49072C76.5799 7.49072 76.4675 7.57763 76.4352 7.70211L73.7675 17.977L71.2489 7.70583C71.2179 7.57953 71.1047 7.49072 70.9747 7.49072H67.9085C67.7785 7.49072 67.6653 7.57953 67.6343 7.70583L65.1157 17.977L62.448 7.70211C62.4157 7.57763 62.3033 7.49072 62.1747 7.49072H58.9981C58.807 7.49072 58.671 7.67671 58.7291 7.85884L63.4195 22.5689C63.4568 22.686 63.5656 22.7655 63.6885 22.7655H66.5928C66.7207 22.7655 66.8327 22.6794 66.8656 22.5558L69.4416 12.8854L72.0176 22.5558C72.0505 22.6794 72.1625 22.7655 72.2904 22.7655H75.1947C75.3176 22.7655 75.4264 22.686 75.4637 22.5689L80.1541 7.85884C80.2122 7.67671 80.0763 7.49072 79.8851 7.49072H76.7085Z" fill="#0A083B"/>
<path d="M82.3812 3.09619C82.3812 4.46001 83.4098 5.52076 84.8013 5.52076C86.1929 5.52076 87.2214 4.46001 87.2214 3.09619C87.2214 1.73238 86.1929 0.671631 84.8013 0.671631C83.4098 0.671631 82.3812 1.73238 82.3812 3.09619ZM83.2081 7.49072C83.0522 7.49072 82.9258 7.61713 82.9258 7.77307V22.4831C82.9258 22.6391 83.0522 22.7655 83.2081 22.7655H86.3945C86.5505 22.7655 86.6769 22.6391 86.6769 22.4831V7.77307C86.6769 7.61713 86.5505 7.49072 86.3945 7.49072H83.2081Z" fill="#0A083B"/>
<path d="M103.244 22.7655C103.4 22.7655 103.527 22.6391 103.527 22.4831V16.8253C103.527 12.5217 105.009 10.4608 106.824 10.4608C107.943 10.4608 108.7 11.0366 108.7 12.5823V22.4831C108.7 22.6391 108.826 22.7655 108.982 22.7655H112.168C112.324 22.7655 112.451 22.6391 112.451 22.4831V11.9459C112.451 9.00607 110.757 7.24826 107.913 7.24826C106.038 7.24826 104.343 8.43023 103.254 10.4002C102.589 8.18778 100.865 7.24826 98.9891 7.24826C97.0227 7.24826 95.7219 8.24839 94.6027 9.94559V7.77307C94.6027 7.61713 94.4762 7.49072 94.3203 7.49072H91.1339C90.9779 7.49072 90.8515 7.61713 90.8515 7.77307V22.4831C90.8515 22.6391 90.9779 22.7655 91.1339 22.7655H94.3203C94.4762 22.7655 94.6027 22.6391 94.6027 22.4831V17.1587C94.6027 12.6126 96.0547 10.4608 97.9 10.4608C99.0193 10.4608 99.7756 11.0366 99.7756 12.5823V22.4831C99.7756 22.6391 99.902 22.7655 100.058 22.7655H103.244Z" fill="#0A083B"/>
<path d="M130.277 14.7947C130.277 11.4609 128.25 7.24826 123.168 7.24826C117.935 7.24826 115.847 11.5216 115.847 15.1281C115.847 18.7346 117.935 23.0079 123.168 23.0079C126.733 23.0079 128.774 21.3678 129.972 18.8252C130.041 18.6784 129.967 18.5053 129.815 18.4489L127.294 17.5144C127.165 17.4665 127.02 17.5195 126.949 17.637C126.068 19.0759 125.028 19.7954 123.38 19.7954C121.051 19.7954 119.871 18.0376 119.78 16.3404H130.277V14.7947ZM123.168 10.4608C125.165 10.4608 126.102 11.8549 126.435 13.3703H119.871C120.143 11.9155 121.262 10.4608 123.168 10.4608Z" fill="#0A083B"/>
<path d="M141.97 19.7654C141.92 19.5933 141.725 19.5119 141.56 19.5804C141.177 19.7387 140.828 19.7954 140.421 19.7954C139.151 19.7954 138.425 19.1892 138.425 17.3102V10.7033H142.166C142.322 10.7033 142.448 10.5768 142.448 10.4209V7.77307C142.448 7.61713 142.322 7.49072 142.166 7.49072H138.425V1.81976C138.425 1.59752 138.18 1.4624 137.992 1.58089L134.674 3.67203V7.49072H132.596C132.441 7.49072 132.314 7.61713 132.314 7.77307V10.4209C132.314 10.5768 132.441 10.7033 132.596 10.7033H134.674V17.3708C134.674 21.1592 136.822 23.0079 140.27 23.0079C141.016 23.0079 141.761 22.8817 142.529 22.5602C142.658 22.5064 142.722 22.3637 142.683 22.2299L141.97 19.7654Z" fill="#0A083B"/>
</svg>
