<svg id="svg" version="1.1" xmlns="http://www.w3.org/2000/svg" xmlns:xlink="http://www.w3.org/1999/xlink" width="400" height="245" viewBox="0, 0, 400,245"><g id="svgg"><path id="path0" d="M1.225 0.596 C 1.225 1.059,1.074 1.216,0.551 1.295 C -0.076 1.390,-0.067 1.400,0.674 1.434 C 1.404 1.468,1.471 1.409,1.471 0.735 C 1.471 0.331,1.415 0.000,1.348 0.000 C 1.281 0.000,1.225 0.268,1.225 0.596 M2.206 0.479 C 2.206 1.098,1.098 2.206,0.479 2.206 C 0.004 2.206,0.000 3.303,0.000 122.672 L 0.000 243.137 0.551 243.145 C 1.291 243.156,2.206 243.953,2.206 244.586 L 2.206 245.098 200.106 245.098 L 398.007 245.098 398.084 244.424 C 398.128 244.045,398.296 243.777,398.468 243.811 C 398.637 243.845,398.747 243.735,398.713 243.566 C 398.679 243.394,398.947 243.226,399.326 243.182 L 400.000 243.105 400.000 122.655 L 400.000 2.206 399.387 2.206 C 398.614 2.206,398.564 1.542,399.326 1.401 C 399.629 1.345,399.491 1.310,399.020 1.324 C 398.259 1.345,398.153 1.272,398.084 0.674 L 398.007 0.000 200.106 0.000 C 3.903 0.000,2.206 0.004,2.206 0.479 M242.052 55.656 C 242.363 56.001,242.614 56.894,242.824 58.414 C 243.527 63.483,243.658 64.312,243.795 64.533 C 244.243 65.259,244.770 68.447,245.583 75.368 C 245.844 77.584,246.472 80.279,247.093 81.838 C 247.221 82.161,247.433 83.919,247.564 85.744 C 247.916 90.673,246.443 90.209,261.942 90.271 L 273.761 90.319 274.319 90.877 L 274.877 91.435 274.877 138.971 L 274.877 186.506 274.345 187.038 L 273.813 187.571 212.090 187.594 C 146.916 187.618,149.419 187.657,148.346 186.609 C 148.140 186.408,148.039 185.488,148.039 183.818 C 148.039 179.972,147.408 179.233,144.485 179.653 C 135.562 180.936,135.212 180.799,134.983 175.943 C 134.849 173.111,134.549 171.143,134.073 169.975 C 133.541 168.670,133.325 167.839,132.976 165.747 C 132.768 164.500,132.598 163.018,132.598 162.453 C 132.598 161.133,132.287 159.417,131.138 154.412 C 130.526 151.748,129.902 148.140,129.902 147.270 C 129.902 145.654,128.987 140.825,128.144 137.990 C 128.004 137.518,127.789 135.974,127.668 134.559 C 127.352 130.889,126.631 126.712,126.208 126.103 C 125.926 125.696,125.295 122.107,125.002 119.240 C 124.710 116.379,124.084 113.030,123.765 112.623 C 123.531 112.324,123.137 110.156,122.807 107.353 C 122.205 102.239,121.748 99.525,121.238 98.039 C 120.908 97.078,120.583 95.245,120.195 92.157 C 119.663 87.919,119.528 87.164,118.524 82.843 C 117.621 78.956,117.614 78.854,118.178 77.791 C 118.456 77.267,118.711 76.808,118.743 76.771 C 118.843 76.659,122.095 75.823,123.529 75.541 C 125.199 75.213,128.209 74.818,130.637 74.609 C 131.648 74.521,133.248 74.177,134.191 73.844 C 136.275 73.107,137.690 72.828,139.433 72.809 C 141.581 72.785,146.614 71.936,148.529 71.275 C 150.324 70.655,153.265 70.099,154.779 70.094 C 156.497 70.087,160.220 69.492,161.659 68.993 C 163.478 68.363,165.689 67.936,168.076 67.754 C 169.256 67.664,171.268 67.384,172.549 67.131 C 173.830 66.878,175.153 66.669,175.490 66.665 C 175.827 66.662,176.599 66.484,177.206 66.269 C 178.383 65.852,181.644 65.301,185.049 64.945 C 188.580 64.575,190.282 64.255,192.674 63.515 C 194.237 63.030,196.194 62.675,198.775 62.407 C 200.864 62.190,203.070 61.836,203.676 61.619 C 206.307 60.679,207.364 60.508,214.338 59.894 C 215.282 59.811,216.661 59.582,217.402 59.385 C 222.148 58.126,221.944 58.164,229.044 57.201 C 230.662 56.982,232.592 56.639,233.333 56.439 C 234.075 56.239,235.123 55.982,235.662 55.866 C 236.201 55.751,237.083 55.555,237.623 55.430 C 239.529 54.989,241.541 55.092,242.052 55.656 M228.676 67.802 C 226.461 68.120,224.545 68.460,224.020 68.628 C 223.384 68.830,220.394 69.463,218.260 69.847 C 217.586 69.968,215.821 70.189,214.338 70.339 C 211.142 70.660,209.803 70.925,207.398 71.710 C 206.095 72.136,204.390 72.397,201.148 72.668 C 197.340 72.985,196.424 73.144,194.853 73.758 C 193.425 74.317,192.168 74.567,189.216 74.882 C 185.542 75.274,183.755 75.574,180.392 76.360 C 178.364 76.835,176.823 77.095,173.162 77.584 C 170.140 77.988,166.224 78.703,164.706 79.129 C 161.821 79.938,160.861 80.104,158.228 80.253 C 155.177 80.425,154.344 80.570,151.103 81.494 C 148.499 82.236,146.462 82.597,144.838 82.603 C 143.318 82.608,140.462 83.101,138.480 83.699 C 137.739 83.923,135.773 84.348,134.112 84.643 C 130.997 85.198,129.901 85.741,129.903 86.729 C 129.904 87.420,130.688 91.746,131.729 96.814 C 132.423 100.192,132.580 101.094,132.708 102.451 C 132.996 105.506,133.574 108.652,134.161 110.352 C 134.539 111.446,134.839 112.974,134.922 114.229 C 135.205 118.479,135.823 122.305,136.333 122.966 C 136.643 123.368,137.146 126.064,137.489 129.167 C 137.880 132.701,138.436 135.939,138.876 137.245 C 139.291 138.476,139.832 141.485,140.067 143.873 C 140.153 144.749,140.323 146.017,140.444 146.691 C 140.566 147.365,140.790 148.634,140.942 149.510 C 141.095 150.386,141.310 151.324,141.421 151.593 C 141.824 152.577,142.378 155.579,142.643 158.211 C 142.792 159.694,143.019 161.569,143.147 162.377 C 143.275 163.186,143.451 164.437,143.538 165.156 C 143.684 166.359,143.794 166.542,144.909 167.423 C 146.391 168.595,146.359 168.594,147.286 167.469 L 148.039 166.555 148.039 129.632 C 148.039 109.324,148.111 92.351,148.198 91.915 C 148.540 90.204,145.257 90.324,193.230 90.271 L 236.337 90.223 236.928 89.667 C 237.692 88.950,237.209 83.274,236.275 81.985 C 235.869 81.425,235.399 78.628,235.062 74.755 C 234.681 70.381,234.119 68.578,232.967 68.032 C 232.215 67.675,230.281 67.571,228.676 67.802 M160.907 100.723 C 160.637 100.825,160.190 100.986,159.913 101.083 C 158.661 101.517,158.707 100.244,158.625 137.377 C 158.584 156.385,158.622 172.959,158.710 174.210 L 158.870 176.484 159.735 176.845 C 161.087 177.410,261.393 177.388,262.874 176.823 C 264.562 176.178,264.492 177.963,264.382 138.480 C 264.273 98.838,264.389 101.435,262.694 100.888 C 261.372 100.461,162.032 100.300,160.907 100.723 M257.031 108.131 L 257.598 108.664 257.598 127.574 L 257.598 146.483 257.023 147.023 C 256.295 147.707,255.856 147.538,255.004 146.244 C 254.634 145.681,254.126 145.075,253.876 144.897 C 253.626 144.718,252.997 144.002,252.479 143.303 C 251.961 142.605,250.778 141.262,249.850 140.318 C 248.921 139.373,247.739 138.022,247.222 137.315 C 246.705 136.608,246.196 136.029,246.092 136.029 C 245.988 136.029,245.493 135.412,244.992 134.658 C 244.492 133.904,243.704 132.955,243.242 132.549 C 242.780 132.144,242.402 131.686,242.403 131.531 C 242.404 131.376,241.902 130.754,241.289 130.147 C 240.676 129.540,239.326 128.134,238.288 127.022 C 237.250 125.910,236.235 125.000,236.032 124.999 C 235.828 124.999,235.276 124.668,234.804 124.265 C 233.785 123.393,233.921 123.408,232.656 124.020 C 232.098 124.289,231.544 124.510,231.426 124.510 C 231.173 124.510,227.934 128.000,227.612 128.620 C 227.417 128.997,226.968 129.493,224.681 131.863 C 224.356 132.200,223.871 132.641,223.603 132.843 C 223.335 133.045,222.907 133.542,222.652 133.946 C 222.058 134.887,221.789 135.162,221.273 135.357 C 221.043 135.445,220.578 135.953,220.240 136.488 C 219.903 137.023,219.429 137.527,219.188 137.607 C 218.947 137.687,218.421 138.219,218.018 138.790 C 217.324 139.774,216.408 140.821,214.461 142.854 C 213.989 143.347,213.390 144.080,213.130 144.483 C 212.870 144.886,211.653 146.265,210.427 147.547 C 209.200 148.829,207.686 150.484,207.062 151.225 C 206.438 151.967,205.146 153.372,204.190 154.349 C 203.233 155.325,202.451 156.215,202.451 156.325 C 202.451 158.020,198.305 158.098,196.604 156.436 C 196.152 155.993,194.463 155.147,194.032 155.147 C 193.840 155.147,193.179 154.651,192.563 154.044 C 191.948 153.438,191.335 152.941,191.201 152.941 C 191.067 152.941,190.428 152.651,189.780 152.296 C 186.432 150.459,186.386 150.451,185.291 151.473 C 184.857 151.879,184.249 152.274,183.939 152.352 C 183.630 152.430,182.826 152.963,182.153 153.538 C 181.479 154.113,180.221 154.924,179.357 155.341 C 178.493 155.758,177.574 156.381,177.315 156.726 C 177.056 157.071,176.731 157.353,176.593 157.353 C 176.112 157.353,174.382 158.404,173.311 159.347 C 172.719 159.868,172.112 160.294,171.961 160.294 C 171.811 160.294,171.109 160.768,170.403 161.348 C 169.696 161.928,168.459 162.639,167.655 162.929 L 166.192 163.455 165.694 162.756 C 165.201 162.063,165.196 161.800,165.196 135.395 L 165.196 108.733 165.729 108.165 L 166.262 107.598 211.363 107.598 L 256.464 107.598 257.031 108.131 M184.315 114.385 C 183.843 114.449,183.347 114.587,183.212 114.692 C 183.076 114.797,182.635 114.961,182.230 115.056 C 181.367 115.258,179.906 116.192,179.903 116.544 C 179.901 116.679,179.428 117.240,178.851 117.791 C 175.391 121.096,177.160 128.488,181.953 130.755 C 182.712 131.114,183.333 131.510,183.333 131.635 C 183.333 131.760,184.275 131.863,185.427 131.863 C 188.368 131.863,191.528 130.388,192.772 128.435 C 193.074 127.961,193.601 127.275,193.943 126.911 C 195.473 125.277,195.082 120.370,193.254 118.268 C 192.906 117.868,192.405 117.191,192.140 116.762 C 191.169 115.191,187.225 113.993,184.315 114.385 " stroke="none" fill="#f4f4f4" fill-rule="evenodd"></path><path id="path1" d="M1.471 0.735 C 1.471 1.389,1.389 1.471,0.735 1.471 C 0.245 1.471,0.000 1.593,0.000 1.838 C 0.000 2.414,0.895 2.269,1.582 1.582 C 2.269 0.895,2.414 0.000,1.838 0.000 C 1.593 0.000,1.471 0.245,1.471 0.735 M398.039 0.620 C 398.039 0.962,398.205 1.304,398.407 1.382 C 398.609 1.460,398.775 1.677,398.775 1.864 C 398.775 2.065,399.027 2.206,399.387 2.206 C 399.769 2.206,400.000 2.067,400.000 1.838 C 400.000 1.609,399.769 1.471,399.387 1.471 C 398.870 1.471,398.775 1.356,398.775 0.735 C 398.775 0.245,398.652 0.000,398.407 0.000 C 398.177 0.000,398.039 0.232,398.039 0.620 M237.623 55.430 C 237.083 55.555,236.201 55.751,235.662 55.866 C 235.123 55.982,234.075 56.239,233.333 56.439 C 232.592 56.639,230.662 56.982,229.044 57.201 C 221.944 58.164,222.148 58.126,217.402 59.385 C 216.661 59.582,215.282 59.811,214.338 59.894 C 207.364 60.508,206.307 60.679,203.676 61.619 C 203.070 61.836,200.864 62.190,198.775 62.407 C 196.194 62.675,194.237 63.030,192.674 63.515 C 190.282 64.255,188.580 64.575,185.049 64.945 C 181.644 65.301,178.383 65.852,177.206 66.269 C 176.599 66.484,175.827 66.662,175.490 66.665 C 175.153 66.669,173.830 66.878,172.549 67.131 C 171.268 67.384,169.256 67.664,168.076 67.754 C 165.689 67.936,163.478 68.363,161.659 68.993 C 160.220 69.492,156.497 70.087,154.779 70.094 C 153.265 70.099,150.324 70.655,148.529 71.275 C 146.614 71.936,141.581 72.785,139.433 72.809 C 137.690 72.828,136.275 73.107,134.191 73.844 C 133.248 74.177,131.648 74.521,130.637 74.609 C 128.209 74.818,125.199 75.213,123.529 75.541 C 122.095 75.823,118.843 76.659,118.743 76.771 C 118.711 76.808,118.456 77.267,118.178 77.791 C 117.614 78.854,117.621 78.956,118.524 82.843 C 119.528 87.164,119.663 87.919,120.195 92.157 C 120.583 95.245,120.908 97.078,121.238 98.039 C 121.748 99.525,122.205 102.239,122.807 107.353 C 123.137 110.156,123.531 112.324,123.765 112.623 C 124.084 113.030,124.710 116.379,125.002 119.240 C 125.295 122.107,125.926 125.696,126.208 126.103 C 126.631 126.712,127.352 130.889,127.668 134.559 C 127.789 135.974,128.004 137.518,128.144 137.990 C 128.987 140.825,129.902 145.654,129.902 147.270 C 129.902 148.140,130.526 151.748,131.138 154.412 C 132.287 159.417,132.598 161.133,132.598 162.453 C 132.598 163.018,132.768 164.500,132.976 165.747 C 133.325 167.839,133.541 168.670,134.073 169.975 C 134.549 171.143,134.849 173.111,134.983 175.943 C 135.212 180.799,135.562 180.936,144.485 179.653 C 147.408 179.233,148.039 179.972,148.039 183.818 C 148.039 185.488,148.140 186.408,148.346 186.609 C 149.419 187.657,146.916 187.618,212.090 187.594 L 273.813 187.571 274.345 187.038 L 274.877 186.506 274.877 138.971 L 274.877 91.435 274.319 90.877 L 273.761 90.319 261.942 90.271 C 246.443 90.209,247.916 90.673,247.564 85.744 C 247.433 83.919,247.221 82.161,247.093 81.838 C 246.472 80.279,245.844 77.584,245.583 75.368 C 244.770 68.447,244.243 65.259,243.795 64.533 C 243.658 64.312,243.527 63.483,242.824 58.414 C 242.367 55.115,241.395 54.558,237.623 55.430 M232.967 68.032 C 234.119 68.578,234.681 70.381,235.062 74.755 C 235.399 78.628,235.869 81.425,236.275 81.985 C 237.209 83.274,237.692 88.950,236.928 89.667 L 236.337 90.223 193.230 90.271 C 145.257 90.324,148.540 90.204,148.198 91.915 C 148.111 92.351,148.039 109.324,148.039 129.632 L 148.039 166.555 147.286 167.469 C 146.359 168.594,146.391 168.595,144.909 167.423 C 143.794 166.542,143.684 166.359,143.538 165.156 C 143.451 164.437,143.275 163.186,143.147 162.377 C 143.019 161.569,142.792 159.694,142.643 158.211 C 142.378 155.579,141.824 152.577,141.421 151.593 C 141.310 151.324,141.095 150.386,140.942 149.510 C 140.790 148.634,140.566 147.365,140.444 146.691 C 140.323 146.017,140.153 144.749,140.067 143.873 C 139.832 141.485,139.291 138.476,138.876 137.245 C 138.436 135.939,137.880 132.701,137.489 129.167 C 137.146 126.064,136.643 123.368,136.333 122.966 C 135.823 122.305,135.205 118.479,134.922 114.229 C 134.839 112.974,134.539 111.446,134.161 110.352 C 133.574 108.652,132.996 105.506,132.708 102.451 C 132.580 101.094,132.423 100.192,131.729 96.814 C 130.688 91.746,129.904 87.420,129.903 86.729 C 129.901 85.741,130.997 85.198,134.112 84.643 C 135.773 84.348,137.739 83.923,138.480 83.699 C 140.462 83.101,143.318 82.608,144.838 82.603 C 146.462 82.597,148.499 82.236,151.103 81.494 C 154.344 80.570,155.177 80.425,158.228 80.253 C 160.861 80.104,161.821 79.938,164.706 79.129 C 166.224 78.703,170.140 77.988,173.162 77.584 C 176.823 77.095,178.364 76.835,180.392 76.360 C 183.755 75.574,185.542 75.274,189.216 74.882 C 192.168 74.567,193.425 74.317,194.853 73.758 C 196.424 73.144,197.340 72.985,201.148 72.668 C 204.390 72.397,206.095 72.136,207.398 71.710 C 209.803 70.925,211.142 70.660,214.338 70.339 C 215.821 70.189,217.586 69.968,218.260 69.847 C 220.394 69.463,223.384 68.830,224.020 68.628 C 224.545 68.460,226.461 68.120,228.676 67.802 C 230.281 67.571,232.215 67.675,232.967 68.032 M262.694 100.888 C 264.389 101.435,264.273 98.838,264.382 138.480 C 264.492 177.963,264.562 176.178,262.874 176.823 C 261.393 177.388,161.087 177.410,159.735 176.845 L 158.870 176.484 158.710 174.210 C 158.622 172.959,158.584 156.385,158.625 137.377 C 158.707 100.244,158.661 101.517,159.913 101.083 C 160.190 100.986,160.637 100.825,160.907 100.723 C 162.032 100.300,261.372 100.461,262.694 100.888 M165.729 108.165 L 165.196 108.733 165.196 135.395 C 165.196 161.800,165.201 162.063,165.694 162.756 L 166.192 163.455 167.655 162.929 C 168.459 162.639,169.696 161.928,170.403 161.348 C 171.109 160.768,171.811 160.294,171.961 160.294 C 172.112 160.294,172.719 159.868,173.311 159.347 C 174.382 158.404,176.112 157.353,176.593 157.353 C 176.731 157.353,177.056 157.071,177.315 156.726 C 177.574 156.381,178.493 155.758,179.357 155.341 C 180.221 154.924,181.479 154.113,182.153 153.538 C 182.826 152.963,183.630 152.430,183.939 152.352 C 184.249 152.274,184.857 151.879,185.291 151.473 C 186.386 150.451,186.432 150.459,189.780 152.296 C 190.428 152.651,191.067 152.941,191.201 152.941 C 191.335 152.941,191.948 153.438,192.563 154.044 C 193.179 154.651,193.840 155.147,194.032 155.147 C 194.463 155.147,196.152 155.993,196.604 156.436 C 198.305 158.098,202.451 158.020,202.451 156.325 C 202.451 156.215,203.233 155.325,204.190 154.349 C 205.146 153.372,206.438 151.967,207.062 151.225 C 207.686 150.484,209.200 148.829,210.427 147.547 C 211.653 146.265,212.870 144.886,213.130 144.483 C 213.390 144.080,213.989 143.347,214.461 142.854 C 216.408 140.821,217.324 139.774,218.018 138.790 C 218.421 138.219,218.947 137.687,219.188 137.607 C 219.429 137.527,219.903 137.023,220.240 136.488 C 220.578 135.953,221.043 135.445,221.273 135.357 C 221.789 135.162,222.058 134.887,222.652 133.946 C 222.907 133.542,223.335 133.045,223.603 132.843 C 223.871 132.641,224.356 132.200,224.681 131.863 C 226.968 129.493,227.417 128.997,227.612 128.620 C 227.934 128.000,231.173 124.510,231.426 124.510 C 231.544 124.510,232.098 124.289,232.656 124.020 C 233.921 123.408,233.785 123.393,234.804 124.265 C 235.276 124.668,235.828 124.999,236.032 124.999 C 236.235 125.000,237.250 125.910,238.288 127.022 C 239.326 128.134,240.676 129.540,241.289 130.147 C 241.902 130.754,242.404 131.376,242.403 131.531 C 242.402 131.686,242.780 132.144,243.242 132.549 C 243.704 132.955,244.492 133.904,244.992 134.658 C 245.493 135.412,245.988 136.029,246.092 136.029 C 246.196 136.029,246.705 136.608,247.222 137.315 C 247.739 138.022,248.921 139.373,249.850 140.318 C 250.778 141.262,251.961 142.605,252.479 143.303 C 252.997 144.002,253.626 144.718,253.876 144.897 C 254.126 145.075,254.634 145.681,255.004 146.244 C 255.856 147.538,256.295 147.707,257.023 147.023 L 257.598 146.483 257.598 127.574 L 257.598 108.664 257.031 108.131 L 256.464 107.598 211.363 107.598 L 166.262 107.598 165.729 108.165 M188.981 114.832 C 190.850 115.491,191.661 115.987,192.140 116.762 C 192.405 117.191,192.906 117.868,193.254 118.268 C 195.082 120.370,195.473 125.277,193.943 126.911 C 193.601 127.275,193.074 127.961,192.772 128.435 C 191.528 130.388,188.368 131.863,185.427 131.863 C 184.275 131.863,183.333 131.760,183.333 131.635 C 183.333 131.510,182.712 131.114,181.953 130.755 C 177.160 128.488,175.391 121.096,178.851 117.791 C 179.428 117.240,179.901 116.679,179.903 116.544 C 179.906 116.192,181.367 115.258,182.230 115.056 C 182.635 114.961,183.076 114.797,183.212 114.692 C 183.897 114.160,187.310 114.242,188.981 114.832 M0.000 243.505 C 0.000 243.750,0.245 243.873,0.735 243.873 C 1.356 243.873,1.471 243.968,1.471 244.485 C 1.471 244.867,1.609 245.098,1.838 245.098 C 2.399 245.098,2.280 244.135,1.654 243.614 C 0.983 243.053,0.000 242.989,0.000 243.505 M398.445 243.585 C 397.918 244.167,397.912 245.098,398.435 245.098 C 398.728 245.098,398.804 244.921,398.730 244.412 C 398.637 243.783,398.685 243.735,399.314 243.828 C 399.823 243.902,400.000 243.826,400.000 243.533 C 400.000 242.985,398.956 243.021,398.445 243.585 " stroke="none" fill="#dcdcdc" fill-rule="evenodd"></path></g></svg>