<svg width="61" height="85" viewBox="0 0 61 85" fill="none" xmlns="http://www.w3.org/2000/svg">
<path d="M24.4236 1L29.7086 18.2965" stroke="#2C71F0" stroke-width="1.5" stroke-miterlimit="10" stroke-linecap="round" stroke-linejoin="round"/>
<path d="M53.8917 62.8191C52.3703 62.7389 50.8489 63.1394 49.968 63.2995" stroke="#15357A" stroke-width="1.5" stroke-miterlimit="10" stroke-linecap="round" stroke-linejoin="round"/>
<path d="M53.3306 65.7818C53.0904 64.7408 53.4107 63.7799 53.8111 62.899C55.0923 62.899 56.3736 63.2194 57.2546 63.9401C59.8971 66.1022 53.9712 68.8247 53.3306 65.7818Z" stroke="#15357A" stroke-width="1.5" stroke-miterlimit="10" stroke-linecap="round" stroke-linejoin="round"/>
<path d="M53.8912 62.819C53.8912 62.819 54.2916 60.0964 57.0142 58.8953" stroke="#15357A" stroke-width="1.5" stroke-miterlimit="10" stroke-linecap="round" stroke-linejoin="round"/>
<path d="M26.0246 21.4995L22.1009 8.20679" stroke="#15357A" stroke-width="1.5" stroke-miterlimit="10" stroke-linecap="round" stroke-linejoin="round"/>
<path d="M17.1364 7.48608L19.2185 13.1715" stroke="#15357A" stroke-width="1.5" stroke-miterlimit="10" stroke-linecap="round" stroke-linejoin="round"/>
<path d="M25.7048 37.2744C24.5838 37.0343 23.5428 36.3936 22.8221 35.5929C21.5409 34.2315 20.9803 32.3097 21.4608 30.3879C22.1814 27.2649 25.3045 25.4232 28.4275 26.1438C28.988 26.304 29.4684 26.4641 29.9489 26.7844C32.1109 27.9856 33.232 30.548 32.6715 33.1105C31.8708 36.1534 28.7477 37.9951 25.7048 37.2744Z" fill="white" stroke="#15357A" stroke-width="1.5" stroke-miterlimit="10" stroke-linecap="round" stroke-linejoin="round"/>
<path opacity="0.6" d="M29.0778 31.2497C29.1078 31.4056 29.109 31.559 29.0816 31.7097C29.0593 31.863 29.0113 32.004 28.9376 32.1328C28.8639 32.2616 28.7657 32.3757 28.643 32.475C28.5255 32.5767 28.3852 32.6566 28.2222 32.7147L27.9891 32.0608C28.1862 31.9905 28.3265 31.8807 28.4099 31.7313C28.4934 31.5819 28.5021 31.4144 28.4358 31.2286C28.3777 31.0656 28.286 30.9403 28.1607 30.8525C28.0354 30.7647 27.8875 30.7512 27.7169 30.812C27.6373 30.8404 27.5707 30.8813 27.5171 30.9346C27.4686 30.9903 27.4311 31.0528 27.4045 31.1221C27.3793 31.1952 27.3618 31.2719 27.352 31.3523C27.3422 31.4327 27.3375 31.5155 27.3381 31.6008C27.3366 31.7764 27.332 31.9554 27.3243 32.1376C27.318 32.3236 27.2911 32.4998 27.2437 32.6662C27.1962 32.8327 27.121 32.9813 27.018 33.112C26.9151 33.2427 26.7689 33.3417 26.5793 33.4094C26.3974 33.4742 26.2236 33.502 26.0579 33.4927C25.8936 33.4872 25.7421 33.4515 25.6032 33.3857C25.4657 33.3236 25.3405 33.2358 25.2274 33.1223C25.118 33.0075 25.0236 32.8745 24.9442 32.7234L24.3414 32.9383L24.1752 32.472L24.7779 32.2572C24.7453 32.0937 24.7399 31.9289 24.7619 31.763C24.7853 31.6009 24.835 31.4465 24.9108 31.2998C24.9919 31.1555 25.1011 31.0247 25.2388 30.9073C25.3801 30.7885 25.5512 30.6933 25.7522 30.6217L25.9853 31.2756C25.7237 31.3688 25.5485 31.5125 25.4596 31.7066C25.3707 31.9006 25.3668 32.1113 25.4478 32.3388C25.4803 32.4298 25.524 32.5103 25.5789 32.5804C25.6376 32.6492 25.7017 32.7033 25.7713 32.7425C25.846 32.7843 25.9254 32.8094 26.0096 32.8178C26.0938 32.8262 26.1814 32.8142 26.2723 32.7818C26.3747 32.7453 26.4525 32.6941 26.5059 32.6281C26.5606 32.5658 26.5992 32.4943 26.6217 32.4137C26.6494 32.3355 26.6648 32.2531 26.6681 32.1665C26.6766 32.0823 26.68 32.002 26.6784 31.9257C26.678 31.7208 26.6817 31.5272 26.6894 31.345C26.7008 31.1615 26.7304 30.9929 26.7781 30.8391C26.831 30.6878 26.9116 30.5544 27.0199 30.4389C27.1283 30.3234 27.2829 30.2298 27.4838 30.1582C27.6279 30.1068 27.7693 30.0841 27.9082 30.0902C28.0522 30.0986 28.1859 30.1321 28.3093 30.1907C28.4365 30.2479 28.5501 30.327 28.6503 30.428C28.7555 30.5315 28.8445 30.6493 28.9172 30.7815L29.5199 30.5666L29.6862 31.0328L29.0778 31.2497Z" fill="#15357A"/>
<path opacity="0.1" d="M22.8221 35.5929C21.5409 34.2315 20.9803 32.3097 21.4608 30.3879C22.1814 27.2649 25.3045 25.4232 28.4275 26.1438C28.988 26.304 29.4684 26.4641 29.9489 26.7844C29.9489 26.7044 20.9804 25.7434 22.8221 35.5929Z" fill="#15357A"/>
<path d="M49.5671 45.3623L49.407 46.4834L49.9675 47.5244L48.7663 47.3642L47.7253 47.9248L47.8855 46.7236L47.4051 45.6826L48.5261 45.8428L49.5671 45.3623Z" fill="#15357A"/>
<path d="M4.08362 75.4712L4.00363 76.5917L4.48407 77.5531L3.363 77.3931L2.40204 77.873L2.56224 76.8325L2.08172 75.7911L3.12274 75.9511L4.08362 75.4712Z" fill="#2C71F0"/>
<path d="M3.52335 48.9657L3.28317 50.8075L4.08393 52.4891L2.24215 52.2489L0.560577 53.0496L0.800758 51.2079L0 49.5263L1.84177 49.7665L3.52335 48.9657Z" fill="#15357A"/>
<path d="M59.4967 72.7485L59.2567 74.9106L60.1373 76.8325L58.0554 76.5926L56.1336 77.4732L56.3738 75.3913L55.4129 73.4692L57.5747 73.7095L59.4967 72.7485Z" fill="#15357A"/>
<path d="M31.0696 85C43.0545 85 52.7702 83.9964 52.7702 82.7581C52.7702 81.5198 43.0545 80.5155 31.0696 80.5155C19.0846 80.5155 9.36886 81.5198 9.36886 82.7581C9.36886 83.9964 19.0846 85 31.0696 85Z" fill="#EAF1FE"/>
<path d="M20.259 49.4463C17.216 46.5635 15.2942 47.4444 15.2942 47.4444V53.1298L20.259 51.3681V49.4463Z" fill="white" stroke="#15357A" stroke-width="1.5" stroke-miterlimit="10" stroke-linecap="round" stroke-linejoin="round"/>
<path d="M18.0974 77.7932V78.2738V80.8364C18.0974 80.9164 18.0974 80.9963 18.0974 80.9963C18.1775 81.637 18.7381 82.1976 19.4588 82.1976H19.9392H21.4607C21.4607 82.9183 22.0212 83.5589 22.822 83.5589H25.945C26.6656 83.5589 27.3062 82.9982 27.3062 82.1976V79.7951C29.2281 80.1157 30.9897 80.1957 32.5112 80.1157C33.3921 80.1157 34.1928 79.955 34.9135 79.875V80.4357V82.3576C34.9135 83.0782 35.474 83.5589 36.1147 83.5589H38.8373C39.5579 83.5589 40.0384 82.9982 40.0384 82.3576V81.9577H41.4798C41.8802 81.9577 42.2805 81.797 42.5207 81.477C42.761 81.2363 42.9211 80.9164 42.9211 80.5157V76.4319C45.0031 74.9107 46.3644 73.1489 47.3253 71.3872C47.4855 71.0669 47.7257 70.6665 47.8058 70.3462C48.9269 67.7837 49.1671 65.3815 49.1671 63.6198C49.1671 62.0183 48.9269 60.9773 48.9269 60.9773V60.8972C48.7667 59.6961 48.5265 58.6551 48.1261 57.6141C47.8058 56.8934 47.4855 56.2528 47.1652 55.6922C46.2843 54.2508 45.2433 53.1298 44.2824 52.329C43.1614 51.3681 42.3606 50.8076 42.3606 50.8076C36.9955 46.5636 22.6618 48.8057 22.6618 48.8057C15.9354 50.0869 12.6522 56.6532 11.6113 59.1355C11.371 59.7762 10.7304 60.1765 10.0898 60.1765C9.52927 60.1765 8.96877 60.4167 8.64845 60.8171C8.24807 61.2176 8.00782 61.698 8.00782 62.2585V66.1822C8.00782 67.3033 8.9687 68.2643 10.0898 68.2643H10.1699C10.8105 68.2643 11.371 68.6646 11.6113 69.2251C12.3319 70.8267 13.1327 72.1079 14.0136 73.1489C15.3748 74.9107 16.8162 76.032 18.0174 76.6726V77.6332V77.7932" fill="white"/>
<path d="M18.0974 77.7932V78.2738V80.8364C18.0974 80.9164 18.0974 80.9963 18.0974 80.9963C18.1775 81.637 18.7381 82.1976 19.4588 82.1976H19.9392H21.4607C21.4607 82.9182 22.0212 83.5589 22.822 83.5589H25.945C26.6656 83.5589 27.3062 82.9982 27.3062 82.1976V79.7951C29.2281 80.1157 30.9897 80.1957 32.5112 80.1157C33.3921 80.1157 34.1928 79.955 34.9135 79.875V80.4357V82.3576C34.9135 83.0782 35.474 83.5589 36.1147 83.5589H38.8373C39.5579 83.5589 40.0384 82.9982 40.0384 82.3576V81.9577H41.4798C41.8802 81.9577 42.2805 81.797 42.5207 81.477C42.761 81.2363 42.9211 80.9164 42.9211 80.5157V76.4319C45.0031 74.9107 46.3644 73.1489 47.3253 71.3872C47.4855 71.0669 47.7257 70.6665 47.8058 70.3462C48.9269 67.7837 49.1671 65.3815 49.1671 63.6198C49.1671 62.0183 48.9269 60.9773 48.9269 60.9773V60.8972C48.7667 59.6961 48.5265 58.6551 48.1261 57.6141C47.8058 56.8934 47.4855 56.2528 47.1652 55.6922C46.2843 54.2508 45.2433 53.1298 44.2824 52.329C43.1614 51.3681 42.3606 50.8076 42.3606 50.8076C36.9955 46.5636 22.6618 48.8057 22.6618 48.8057C15.9354 50.0869 12.6522 56.6532 11.6113 59.1355C11.371 59.7762 10.7304 60.1765 10.0898 60.1765C9.52927 60.1765 8.96877 60.4167 8.64845 60.8171C8.24807 61.2176 8.00782 61.698 8.00782 62.2585V66.1822C8.00782 67.3033 8.9687 68.2643 10.0898 68.2643H10.1699C10.8105 68.2643 11.371 68.6646 11.6113 69.2251C12.3319 70.8267 13.1327 72.1079 14.0136 73.1489C15.3748 74.9107 16.8162 76.032 18.0174 76.6726V77.6332V77.7932" stroke="#15357A" stroke-width="1.5" stroke-miterlimit="10" stroke-linecap="round" stroke-linejoin="round"/>
<path opacity="0.1" d="M17.7765 59.9363C18.3514 59.9363 18.8175 59.4702 18.8175 58.8953C18.8175 58.3204 18.3514 57.8542 17.7765 57.8542C17.2016 57.8542 16.7356 58.3204 16.7356 58.8953C16.7356 59.4702 17.2016 59.9363 17.7765 59.9363Z" fill="#15357A"/>
<path d="M19.3788 54.8114V46.7237C19.3788 46.7237 24.9041 46.3233 25.9451 52.4091" fill="white"/>
<path d="M19.3788 54.8114V46.7237C19.3788 46.7237 24.9041 46.3233 25.9451 52.4091" stroke="#15357A" stroke-width="1.5" stroke-miterlimit="10" stroke-linecap="round" stroke-linejoin="round"/>
<path d="M21.5409 82.1975V74.4301" stroke="#15357A" stroke-width="1.5" stroke-miterlimit="10" stroke-linecap="round" stroke-linejoin="round"/>
<path d="M40.1982 81.8768V74.7506" stroke="#15357A" stroke-width="1.5" stroke-miterlimit="10" stroke-linecap="round" stroke-linejoin="round"/>
<path d="M27.3063 79.7149V77.0724" stroke="#15357A" stroke-width="1.5" stroke-miterlimit="10" stroke-linecap="round" stroke-linejoin="round"/>
<path d="M34.9936 79.7949V77.0724" stroke="#15357A" stroke-width="1.5" stroke-miterlimit="10" stroke-linecap="round" stroke-linejoin="round"/>
<path d="M18.0974 76.6725C18.0974 76.6725 20.2594 78.1137 21.5406 78.4337L18.0974 76.6725Z" fill="white"/>
<path d="M18.0974 76.6725C18.0974 76.6725 20.2594 78.1137 21.5406 78.4337" stroke="#15357A" stroke-width="1.5" stroke-miterlimit="10" stroke-linecap="round" stroke-linejoin="round"/>
<path d="M43.081 76.3517C43.081 76.3517 41.3994 78.0336 40.1982 78.4336L43.081 76.3517Z" fill="white"/>
<path d="M43.081 76.3517C43.081 76.3517 41.3994 78.0336 40.1982 78.4336" stroke="#15357A" stroke-width="1.5" stroke-miterlimit="10" stroke-linecap="round" stroke-linejoin="round"/>
<path opacity="0.1" d="M35.634 50.8074H27.1459C26.9057 50.8074 26.7455 50.6473 26.7455 50.4071V50.2469C26.7455 50.0067 26.9057 49.8466 27.1459 49.8466H35.634C35.8743 49.8466 36.0344 50.0067 36.0344 50.2469V50.4071C36.1145 50.5673 35.8743 50.8074 35.634 50.8074Z" fill="#15357A"/>
<path opacity="0.1" d="M49.3274 63.5397C49.3274 65.3014 49.0872 67.7037 47.9661 70.2661C47.806 70.5864 47.6458 70.9868 47.4857 71.3071C46.5248 73.0688 45.1634 74.7506 43.0815 76.3518V80.4356C43.0815 80.8363 42.9213 81.1562 42.6811 81.3969C42.4408 81.7169 42.0405 81.8769 41.6401 81.8769H40.1987V82.2775C40.1987 82.9982 39.6382 83.4788 38.9975 83.4788H36.275C35.5543 83.4788 35.0738 82.9182 35.0738 82.2775V79.875C34.3531 80.0357 33.4723 80.1157 32.6715 80.1157C31.1501 80.1957 29.3884 80.1157 27.4665 79.795V82.1976C27.4665 82.9182 26.906 83.5588 26.1053 83.5588H22.9823C22.2616 83.5588 21.621 82.9982 21.621 82.1976H19.539C18.8183 82.1976 18.2577 81.7169 18.1777 80.9963C18.1777 80.9163 18.1777 80.8363 18.1777 80.8363V77.7931C40.4389 74.7506 46.6048 62.0983 47.9661 58.4949C48.2063 57.9343 48.2864 57.5339 48.2864 57.5339C48.6868 58.4949 49.0071 59.616 49.0872 60.8171V60.8972C49.0872 60.8972 49.3274 61.9382 49.3274 63.5397Z" fill="#15357A"/>
</svg>
