<svg width="63" height="48" fill="none" xmlns="http://www.w3.org/2000/svg"><path opacity=".1" d="M33.106 46.59C15.448 37.278 15.126 19.3 15.608 13.68c0-.963.803-1.765 1.766-1.926 7.545-1.284 13.003-6.42 15.41-9.15a2.035 2.035 0 0 1 2.89 0c2.408 2.73 7.705 7.866 15.41 9.15.964.16 1.606.963 1.766 1.926.321 5.619.16 23.437-17.497 32.908-.803.321-1.605.321-2.247 0Z" fill="#15357A"/><path d="M30.215 46.589C13.04 37.439 12.718 20.102 13.2 14.484c0-.963.803-1.766 1.766-1.926 7.384-1.285 12.682-6.26 14.929-8.83.803-.802 2.087-.802 2.729 0 2.408 2.73 7.545 7.706 14.929 8.83.963.16 1.605.963 1.766 1.926.32 5.458.16 22.955-17.016 32.105-.803.321-1.605.321-2.087 0Z" fill="#fff" stroke="#15357A" stroke-width="1.5" stroke-miterlimit="10" stroke-linecap="round" stroke-linejoin="round"/><path opacity=".1" d="M31.179 1.963v45.108C9.347 36.316 13.2 12.879 13.2 12.879 24.437 11.755 31.179 1.963 31.179 1.963Z" fill="#15357A"/><path d="m24.758 26.203 5.779 4.655 10.274-12.682" stroke="#2C71F0" stroke-width="2" stroke-miterlimit="10"/><path d="M54.455 24.116H62M52.368 6.297 57.665 1M52.368 41.934l5.297 5.297M8.384 24.116H1M10.631 6.297 5.173 1M10.631 41.934 5.173 47.23" stroke="#15357A" stroke-width="1.2" stroke-miterlimit="10" stroke-linecap="round" stroke-linejoin="round"/></svg>