<svg width="57" height="67" fill="none" xmlns="http://www.w3.org/2000/svg"><path d="m2.089 15.519.746 1.418 1.343.746-1.343.671-.746 1.418-.746-1.418L0 17.683l1.343-.746.746-1.418Z" fill="#2C71F0"/><path d="m20.89 0 .97 1.79 1.791.97-1.79 1.045-.97 1.79-.97-1.79-1.865-1.044 1.865-.97L20.89 0ZM54.018 31.336l.596 1.12 1.12.596-1.12.597-.596 1.12-.597-1.12-1.12-.596 1.12-.597.597-1.12Z" fill="#15357A"/><path d="M46.78 9.55H9.4v48.944h37.38V9.55Z" fill="#fff" stroke="#15357A" stroke-width="1.5" stroke-miterlimit="10" stroke-linecap="round" stroke-linejoin="round"/><path opacity=".2" d="M39.35 16.251c.268.041.516.127.743.258a2.03 2.03 0 0 1 .98 1.145c.096.248.145.52.145.815H40.03c0-.357-.096-.646-.289-.866-.193-.22-.457-.33-.794-.33-.296 0-.55.075-.764.227-.213.15-.32.381-.32.69a.91.91 0 0 0 .083.393c.061.11.14.206.237.289.103.082.217.155.34.216.124.062.255.117.392.166.283.103.568.213.857.33.296.117.564.261.805.433.24.172.437.378.588.62.151.24.227.532.227.876 0 .33-.055.626-.165.888a1.946 1.946 0 0 1-.434.67 2.156 2.156 0 0 1-.64.454c-.247.11-.515.186-.804.227v1.094h-.846v-1.094a2.56 2.56 0 0 1-.805-.258c-.248-.13-.468-.299-.66-.505a2.479 2.479 0 0 1-.444-.753 2.825 2.825 0 0 1-.165-.991h1.186c0 .475.131.84.392 1.094.262.254.599.382 1.012.382.165 0 .32-.024.464-.073.145-.055.268-.127.371-.216.11-.097.197-.21.258-.34.062-.132.093-.28.093-.445a.923.923 0 0 0-.392-.774 1.417 1.417 0 0 0-.371-.216 3.421 3.421 0 0 0-.382-.155c-.33-.117-.64-.234-.929-.35a3.686 3.686 0 0 1-.763-.434 1.91 1.91 0 0 1-.506-.62c-.124-.24-.185-.543-.185-.907 0-.261.044-.502.134-.722.096-.227.227-.424.392-.589.165-.172.357-.31.578-.412a2.6 2.6 0 0 1 .722-.227v-1.094h.846v1.104Z" fill="#15357A"/><path opacity=".1" d="M31.858 14.027H13.206v3.059h18.652v-3.06ZM31.858 19.175H13.206v3.059h18.652v-3.06ZM31.858 24.323H13.206v3.059h18.652v-3.059ZM43.05 29.47H13.206v3.06H43.05v-3.06ZM42.975 34.62H13.131v3.058h29.844V34.62ZM42.975 39.767H13.131v3.06h29.844v-3.06ZM42.975 44.915H13.131v3.06h29.844v-3.06ZM42.975 49.989H13.131v3.059h29.844v-3.06Z" fill="#15357A"/><path d="M28.874 67c13.804 0 24.994-1.17 24.994-2.611 0-1.443-11.19-2.612-24.994-2.612S3.879 62.946 3.879 64.389c0 1.442 11.19 2.61 24.995 2.61Z" fill="#EAF1FE"/><path d="m51.765 40.992-22.028 7.753 3.64 10.346 22.03-7.753-3.642-10.346Z" fill="#EAF1FE" stroke="#15357A" stroke-width="1.5" stroke-miterlimit="10" stroke-linecap="round" stroke-linejoin="round"/><path d="m36.186 59.09 12.833-2.536.895-.149 2.686-.597 1.642-.298-.672-3.582-.746-3.805-.671-3.357-1.493.298-15.519 3.06h-.223l-1.866.372-3.133.597-.299.075-.149.075h-.224v.074l.373 1.79.15.896.746 3.507.149.895.522 2.686" fill="#EAF1FE"/><path d="m36.186 59.09 12.833-2.536.895-.149 2.686-.597 1.642-.298-.672-3.582-.746-3.805-.671-3.357-1.493.298-15.519 3.06h-.223l-1.866.372-3.133.597-.299.075-.149.075h-.224v.074l.373 1.79.15.896.746 3.507.149.895.522 2.686" stroke="#15357A" stroke-width="1.5" stroke-miterlimit="10" stroke-linecap="round" stroke-linejoin="round"/><path d="M52.6 48.123H29.247v10.968H52.6V48.123Z" fill="#fff" stroke="#15357A" stroke-width="1.5" stroke-miterlimit="10" stroke-linecap="round" stroke-linejoin="round"/><path d="M52.6 56.406H29.247v2.685H52.6v-2.685ZM52.6 48.123H29.247v2.91H52.6v-2.91Z" fill="#EAF1FE"/><path d="M52.6 48.123H29.247v10.968H52.6V48.123Z" stroke="#15357A" stroke-width="1.5" stroke-miterlimit="10" stroke-linecap="round" stroke-linejoin="round"/><path d="M33.052 48.273a3.821 3.821 0 0 1-3.805 3.805v-3.955h3.805v.15ZM33.052 59.091h-3.805v-3.805a3.821 3.821 0 0 1 3.805 3.805ZM52.6 55.36v3.731h-4.55a3.821 3.821 0 0 1 3.804-3.805c.224 0 .448 0 .746.075ZM52.6 48.123v3.283c-.224.075-.522.075-.746.075-1.94 0-3.507-1.492-3.73-3.358H52.6Z" fill="#fff" stroke="#15357A" stroke-width="1.5" stroke-miterlimit="10" stroke-linecap="round" stroke-linejoin="round"/><path d="M40.886 57.897a4.104 4.104 0 1 0 0-8.207 4.104 4.104 0 0 0 0 8.207Z" fill="#fff"/><path d="M41.341 52.174c.134.02.258.063.371.129a1.016 1.016 0 0 1 .49.573c.049.123.073.26.073.407h-.593a.635.635 0 0 0-.145-.433.5.5 0 0 0-.397-.165.643.643 0 0 0-.382.113c-.107.076-.16.191-.16.346 0 .072.014.137.041.196.031.055.07.103.119.144a.963.963 0 0 0 .17.109c.062.03.128.058.196.082.141.052.284.107.428.165.148.059.283.131.403.217.12.086.218.19.294.31.076.12.113.266.113.438 0 .165-.027.313-.082.444a.972.972 0 0 1-.217.335c-.09.093-.196.168-.32.227a1.511 1.511 0 0 1-.402.114v.546h-.423v-.546a1.239 1.239 0 0 1-.733-.382 1.238 1.238 0 0 1-.221-.377 1.411 1.411 0 0 1-.083-.495h.593c0 .237.066.42.196.547.131.127.3.19.506.19.082 0 .16-.011.232-.035a.615.615 0 0 0 .186-.109.511.511 0 0 0 .175-.392.464.464 0 0 0-.196-.387.714.714 0 0 0-.185-.108 1.7 1.7 0 0 0-.191-.078c-.166-.058-.32-.117-.465-.175a1.84 1.84 0 0 1-.382-.217.953.953 0 0 1-.252-.31.988.988 0 0 1-.093-.453.95.95 0 0 1 .067-.361.965.965 0 0 1 .485-.5 1.3 1.3 0 0 1 .361-.114v-.547h.423v.552Z" fill="#EAF1FE"/></svg>