<svg width="53" height="57" fill="none" xmlns="http://www.w3.org/2000/svg"><path d="m35.337.604-.278 2.167.945 2-2.167-.277-2 .944.278-2.167-.945-2 2.167.278 2-.945Z" fill="#15357A"/><path d="m33.781 53.5-.222 1.61.667 1.39-1.556-.167-1.445.667.223-1.556L30.78 54l1.556.222 1.444-.723Z" fill="#2C71F0"/><path d="M36.338 29.497c0 1.222-.223 2.333-.556 3.389-.222.667-.556 1.333-.89 1.945-.555.889-1.166 1.667-1.944 2.389-.11.111-.278.222-.389.333-.722.556-1.5 1.056-2.389 1.445-.778.333-1.611.611-2.5.722-.556.111-1.111.111-1.667.111-4.5 0-8.334-2.889-9.779-6.89-.111-.333-.222-.666-.278-1a16.983 16.983 0 0 1-.278-1.777c0-.223-.055-.5-.055-.723 0-.5.055-.944.11-1.444 0-.112.056-.223.056-.334.112-.722.334-1.389.556-2.056.334-.833.722-1.555 1.223-2.278a10.524 10.524 0 0 1 8.39-4.167 10.3 10.3 0 0 1 7.056 2.778c.11.056.166.167.278.278.444.445.889.945 1.222 1.5.445.667.833 1.39 1.111 2.112.167.389.278.833.39 1.278.221.722.333 1.555.333 2.389Z" fill="#FAFAFA" stroke="#15357A" stroke-width="2" stroke-miterlimit="10" stroke-linecap="round" stroke-linejoin="round"/><path d="M19.724 26.941c0 .334-.11.667-.388.89a1.328 1.328 0 0 1-.723.388h-2.389c-.167 0-.333-.056-.5-.111a.865.865 0 0 1-.444-.333h.444c.111-.723.333-1.39.556-2.056h2.167c.722 0 1.277.555 1.277 1.222Z" fill="#D5E3FC"/><path d="M18.947 28.997c0 .333-.111.666-.39.889-.166.166-.444.333-.666.333h-2.223c0-.222-.055-.5-.055-.722 0-.5.056-.945.111-1.445a.865.865 0 0 1-.444-.333h2.389c.389 0 .722.166.944.444.223.278.334.556.334.834Z" fill="#D5E3FC"/><path d="M18.002 30.775c0 .334-.111.667-.389.89-.222.221-.555.388-.889.388h-.833a17.027 17.027 0 0 1-.278-1.778c0-.222-.056-.5-.056-.722h1.167c.5 0 .945.277 1.111.722.112.111.167.278.167.5ZM35.949 26.163h-3.723c-.833 0-1.444-.722-1.444-1.611 0-.445.166-.834.444-1.111a1.423 1.423 0 0 1 1.056-.445h1.834a7.23 7.23 0 0 1 1 1.278c.333.611.61 1.222.833 1.89Z" fill="#D5E3FC"/><path d="M36.56 29.441c0 1.056-.167 2.056-.445 3-.222.612-.5 1.167-.778 1.723-.444.778-.944 1.5-1.555 2.056-.112.111-.223.222-.334.278-.555.5-1.222.944-1.889 1.278l-.667.166a1.551 1.551 0 0 1-.444-1.11c0-.334.11-.668.278-.89h-1.612c-.666 0-1.278-.556-1.444-1.222 0-.111-.056-.223-.056-.334 0-.389.111-.722.334-.944-.723-.056-1.334-.778-1.334-1.556 0-.167 0-.278.056-.444h-.667c-.834 0-1.445-.723-1.445-1.612 0-.222.056-.444.111-.666-.444-.278-.722-.778-.722-1.39 0-.889.667-1.61 1.445-1.61h10.557c.11.388.222.721.333 1.11.167.723.278 1.445.278 2.167Z" fill="#D5E3FC"/><path d="M23.947 27.774s.111 5.279 4 5.612c0 0-1.61 2.612 2.945 4.612l4.056-4.612-5.167-5-5.834-.612Z" fill="#D5E3FC"/><path d="M36.338 29.497c0 1.222-.223 2.333-.556 3.389-.222.667-.556 1.333-.89 1.945-.555.889-1.166 1.667-1.944 2.389-.11.111-.278.222-.389.333-.722.556-1.5 1.056-2.389 1.445-.778.333-1.611.611-2.5.722-.556.111-1.111.111-1.667.111-4.5 0-8.334-2.889-9.779-6.89-.111-.333-.222-.666-.278-1a16.983 16.983 0 0 1-.278-1.777c0-.223-.055-.5-.055-.723 0-.5.055-.944.11-1.444 0-.112.056-.223.056-.334.112-.722.334-1.389.556-2.056.334-.833.722-1.555 1.223-2.278a10.524 10.524 0 0 1 8.39-4.167 10.3 10.3 0 0 1 7.056 2.778c.11.056.166.167.278.278.444.445.889.945 1.222 1.5.445.667.833 1.39 1.111 2.112.167.389.278.833.39 1.278.221.722.333 1.555.333 2.389Z" stroke="#15357A" stroke-width="2" stroke-miterlimit="10" stroke-linecap="round" stroke-linejoin="round"/><path d="M18.502 25.719s3.945.666-1.389 6.278l1.39-6.278ZM31.726 23.107s-2.611 1.056-1 3.834l2.834-.5-1.834-3.334Z" fill="#D5E3FC"/><path d="M14.724 14.773c0 .777-.111 1.555-.389 2.222-.167.445-.333.89-.611 1.278a6.815 6.815 0 0 1-1.278 1.556 1.209 1.209 0 0 1-.278.222c-.444.389-1 .722-1.556.945-.5.222-1.055.389-1.667.5a6.836 6.836 0 0 1-1.11.11c-2.946 0-5.502-1.888-6.446-4.5-.056-.222-.167-.444-.222-.667A4.23 4.23 0 0 1 1 15.273v-.5c0-.334 0-.611.056-.945 0-.055 0-.167.055-.222.056-.445.222-.945.39-1.334.221-.555.5-1.055.833-1.5a6.788 6.788 0 0 1 5.5-2.834c1.778 0 3.445.667 4.667 1.834l.167.167c.278.277.556.61.834 1 .277.444.555.889.722 1.389.111.278.222.556.278.833.166.5.222 1.056.222 1.612Z" fill="#FAFAFA" stroke="#15357A" stroke-width="2" stroke-miterlimit="10" stroke-linecap="round" stroke-linejoin="round"/><path d="M14.446 12.55h-2.444c-.556 0-.945-.444-.945-1.055 0-.278.111-.556.278-.723.167-.166.389-.333.667-.333h1.222l.667.833c.222.445.444.834.555 1.278Z" fill="#D5E3FC"/><path d="M14.835 14.718c0 .666-.111 1.333-.333 1.944a4.01 4.01 0 0 1-.5 1.111 6.13 6.13 0 0 1-1.056 1.39.768.768 0 0 1-.222.166c-.39.334-.778.611-1.278.834-.167.055-.278.055-.445.11a1.056 1.056 0 0 1-.277-.721c0-.223.055-.445.166-.612H9.834c-.444 0-.833-.333-.944-.833v-.222c0-.223.055-.445.222-.612-.5-.055-.889-.5-.889-1.055 0-.111 0-.167.056-.278h-.445c-.555 0-.944-.444-.944-1.056 0-.166.055-.277.11-.444-.277-.167-.5-.5-.5-.89 0-.555.445-1.055.945-1.055h6.946c.11.222.166.5.222.722.167.556.222 1 .222 1.5Z" fill="#D5E3FC"/><path d="M6.556 13.606s.056 3.445 2.612 3.667c0 0-1.056 1.723 1.944 3l2.667-3.055-3.389-3.223-3.834-.389Z" fill="#D5E3FC"/><path d="M14.724 14.773c0 .777-.111 1.555-.389 2.222-.167.445-.333.89-.611 1.278a6.815 6.815 0 0 1-1.278 1.556 1.209 1.209 0 0 1-.278.222c-.444.389-1 .722-1.556.945-.5.222-1.055.389-1.667.5a6.836 6.836 0 0 1-1.11.11c-2.946 0-5.502-1.888-6.446-4.5-.056-.222-.167-.444-.222-.667A4.23 4.23 0 0 1 1 15.273v-.5c0-.334 0-.611.056-.945 0-.055 0-.167.055-.222.056-.445.222-.945.39-1.334.221-.555.5-1.055.833-1.5a6.788 6.788 0 0 1 5.5-2.834c1.778 0 3.445.667 4.667 1.834l.167.167c.278.277.556.61.834 1 .277.444.555.889.722 1.389.111.278.222.556.278.833.166.5.222 1.056.222 1.612Z" stroke="#15357A" stroke-width="2" stroke-miterlimit="10" stroke-linecap="round" stroke-linejoin="round"/><path d="M11.668 10.55s-1.723.667-.667 2.556l1.89-.334-1.223-2.222Z" fill="#D5E3FC"/><path d="M15.224 45.61c0 .778-.111 1.556-.389 2.223-.167.444-.333.889-.611 1.278a6.812 6.812 0 0 1-1.278 1.555 1.213 1.213 0 0 1-.278.222c-.444.39-1 .723-1.555.945a7.31 7.31 0 0 1-1.667.5 6.847 6.847 0 0 1-1.112.111c-2.944 0-5.5-1.889-6.445-4.5-.055-.223-.167-.445-.222-.667A4.23 4.23 0 0 1 1.5 46.11v-.5c0-.333 0-.611.056-.944 0-.056 0-.167.055-.223.056-.444.223-.944.39-1.333.222-.556.5-1.056.833-1.5a6.788 6.788 0 0 1 5.5-2.834c1.778 0 3.445.667 4.668 1.833l.166.167c.278.278.556.611.834 1 .278.445.555.89.722 1.39.111.277.222.555.278.833.111.5.222 1.055.222 1.611Z" fill="#FAFAFA" stroke="#15357A" stroke-width="2" stroke-miterlimit="10" stroke-linecap="round" stroke-linejoin="round"/><path d="M14.946 43.388H12.5c-.555 0-.944-.445-.944-1.056 0-.278.11-.556.277-.722.167-.167.39-.334.667-.334h1.223l.666.834c.223.444.445.833.556 1.278Z" fill="#D5E3FC"/><path d="M15.335 45.554c0 .667-.111 1.334-.334 1.945a4.013 4.013 0 0 1-.5 1.111c-.277.5-.61.945-1.055 1.39a.766.766 0 0 1-.223.166c-.389.334-.777.611-1.278.833-.166.056-.277.056-.444.111a1.056 1.056 0 0 1-.278-.721c0-.223.056-.445.167-.612h-1.056c-.444 0-.833-.333-.944-.833v-.222c0-.223.055-.445.222-.612-.5-.055-.89-.5-.89-1.055 0-.111 0-.167.056-.278h-.444c-.556 0-.945-.445-.945-1.056 0-.166.056-.278.112-.444-.278-.167-.5-.5-.5-.89 0-.555.444-1.055.944-1.055h6.945c.111.222.167.5.223.722.166.556.222 1 .222 1.5Z" fill="#D5E3FC"/><path d="M7.056 44.443s.056 3.445 2.612 3.668c0 0-1.056 1.722 1.945 3l2.667-3.056-3.39-3.167-3.834-.445Z" fill="#D5E3FC"/><path d="M15.224 45.61c0 .778-.111 1.556-.389 2.223-.167.444-.333.889-.611 1.278a6.812 6.812 0 0 1-1.278 1.555 1.213 1.213 0 0 1-.278.222c-.444.39-1 .723-1.555.945a7.31 7.31 0 0 1-1.667.5 6.847 6.847 0 0 1-1.112.111c-2.944 0-5.5-1.889-6.445-4.5-.055-.223-.167-.445-.222-.667A4.23 4.23 0 0 1 1.5 46.11v-.5c0-.333 0-.611.056-.944 0-.056 0-.167.055-.223.056-.444.223-.944.39-1.333.222-.556.5-1.056.833-1.5a6.788 6.788 0 0 1 5.5-2.834c1.778 0 3.445.667 4.668 1.833l.166.167c.278.278.556.611.834 1 .278.445.555.89.722 1.39.111.277.222.555.278.833.111.5.222 1.055.222 1.611Z" stroke="#15357A" stroke-width="2" stroke-miterlimit="10" stroke-linecap="round" stroke-linejoin="round"/><path d="M12.168 41.387s-1.722.667-.667 2.556l1.89-.333-1.223-2.223Z" fill="#D5E3FC"/><path d="M51.117 14.773c0 .777-.11 1.555-.389 2.222-.166.445-.333.89-.61 1.278a6.818 6.818 0 0 1-1.279 1.556 1.213 1.213 0 0 1-.277.222c-.445.389-1 .722-1.556.945-.5.222-1.056.389-1.667.5a6.835 6.835 0 0 1-1.111.11c-2.945 0-5.501-1.888-6.446-4.5-.055-.222-.166-.444-.222-.667a4.23 4.23 0 0 1-.167-1.166v-.5c0-.334 0-.611.056-.945 0-.055 0-.167.055-.222.056-.445.223-.945.39-1.334a6.52 6.52 0 0 1 .833-1.5 6.788 6.788 0 0 1 5.5-2.834c1.779 0 3.446.667 4.668 1.834l.167.167c.277.277.555.61.833 1 .278.444.556.889.722 1.389.111.278.223.556.278.833.167.5.222 1.056.222 1.612Z" fill="#FAFAFA" stroke="#15357A" stroke-width="2" stroke-miterlimit="10" stroke-linecap="round" stroke-linejoin="round"/><path d="M40.227 13.05a.849.849 0 0 1-.222.556.704.704 0 0 1-.5.222h-1.612c-.111 0-.222 0-.333-.055-.111-.056-.223-.112-.278-.223h.333c.056-.444.223-.944.39-1.333h1.444c.389.055.778.389.778.833Z" fill="#D5E3FC"/><path d="M39.672 14.44a.849.849 0 0 1-.223.555c-.11.112-.278.223-.444.223H37.56v-.5c0-.334 0-.612.056-.945-.111-.056-.222-.111-.278-.222h1.611c.222 0 .445.11.611.278.056.222.111.388.111.61Z" fill="#D5E3FC"/><path d="M39.06 15.606a.849.849 0 0 1-.222.556.713.713 0 0 1-.556.222h-.555a4.231 4.231 0 0 1-.167-1.167v-.5h.778c.333 0 .61.223.722.5v.39ZM50.896 12.55H48.45c-.556 0-.945-.444-.945-1.055 0-.278.111-.556.278-.723.167-.166.39-.333.667-.333h1.222l.667.833c.222.445.389.834.556 1.278Z" fill="#D5E3FC"/><path d="M51.284 14.718c0 .666-.111 1.333-.333 1.944a4.01 4.01 0 0 1-.5 1.111c-.278.5-.612.945-1.056 1.39a.766.766 0 0 1-.222.166c-.39.334-.778.611-1.278.834-.167.055-.278.055-.445.11a1.056 1.056 0 0 1-.278-.721c0-.223.056-.445.167-.612h-1.056c-.444 0-.833-.333-.944-.833v-.222c0-.223.055-.445.222-.612-.5-.055-.89-.5-.89-1.055 0-.111 0-.167.056-.278h-.444c-.556 0-.945-.444-.945-1.056 0-.166.056-.277.111-.444-.277-.167-.5-.5-.5-.89 0-.555.445-1.055.945-1.055h7.001c.111.222.167.5.222.722.111.556.167 1 .167 1.5Z" fill="#D5E3FC"/><path d="M43.005 13.606s.056 3.445 2.612 3.667c0 0-1.056 1.723 1.945 3l2.667-3.055-3.39-3.223-3.834-.389Z" fill="#D5E3FC"/><path d="M51.117 14.773c0 .777-.11 1.555-.389 2.222-.166.445-.333.89-.61 1.278a6.818 6.818 0 0 1-1.279 1.556 1.213 1.213 0 0 1-.277.222c-.445.389-1 .722-1.556.945-.5.222-1.056.389-1.667.5a6.835 6.835 0 0 1-1.111.11c-2.945 0-5.501-1.888-6.446-4.5-.055-.222-.166-.444-.222-.667a4.23 4.23 0 0 1-.167-1.166v-.5c0-.334 0-.611.056-.945 0-.055 0-.167.055-.222.056-.445.223-.945.39-1.334a6.52 6.52 0 0 1 .833-1.5 6.788 6.788 0 0 1 5.5-2.834c1.779 0 3.446.667 4.668 1.834l.167.167c.277.277.555.61.833 1 .278.444.556.889.722 1.389.111.278.223.556.278.833.167.5.222 1.056.222 1.612Z" stroke="#15357A" stroke-width="2" stroke-miterlimit="10" stroke-linecap="round" stroke-linejoin="round"/><path d="M39.394 12.273s2.611.444-.945 4.111l.945-4.111ZM48.117 10.55s-1.722.667-.667 2.556l1.89-.334-1.223-2.222Z" fill="#D5E3FC"/><path d="M49.672 45.61c0 .778-.11 1.556-.389 2.223-.166.444-.333.889-.61 1.278a6.812 6.812 0 0 1-1.279 1.555 1.213 1.213 0 0 1-.277.222c-.445.39-1 .723-1.556.945-.5.222-1.056.389-1.667.5a6.848 6.848 0 0 1-1.111.111c-2.945 0-5.5-1.889-6.445-4.5-.056-.223-.167-.445-.223-.667a4.23 4.23 0 0 1-.166-1.167v-.5c0-.333 0-.611.055-.944 0-.056 0-.167.056-.223.055-.444.222-.944.389-1.333.222-.556.5-1.056.833-1.5a6.788 6.788 0 0 1 5.5-2.834c1.779 0 3.446.667 4.668 1.833l.167.167c.277.278.555.611.833 1 .278.445.556.89.722 1.39.111.277.223.555.278.833.167.5.222 1.055.222 1.611Z" fill="#FAFAFA" stroke="#15357A" stroke-width="2" stroke-miterlimit="10" stroke-linecap="round" stroke-linejoin="round"/><path d="M38.782 43.888a.85.85 0 0 1-.222.555.704.704 0 0 1-.5.223H36.45c-.111 0-.222 0-.334-.056-.11-.056-.222-.111-.277-.222h.333c.056-.445.222-.945.389-1.334h1.445c.389.056.777.39.777.834Z" fill="#D5E3FC"/><path d="M38.227 45.277a.848.848 0 0 1-.223.555c-.11.111-.277.223-.444.223h-1.445v-.5c0-.334 0-.612.056-.945-.111-.056-.222-.111-.278-.222h1.611c.223 0 .445.11.612.278.055.222.11.388.11.61Z" fill="#D5E3FC"/><path d="M37.616 46.444a.849.849 0 0 1-.223.555.713.713 0 0 1-.555.223h-.556a4.228 4.228 0 0 1-.166-1.167v-.5h.777c.334 0 .611.222.723.5-.056.11 0 .222 0 .389ZM49.45 43.388h-2.444c-.556 0-.945-.445-.945-1.056 0-.278.111-.556.278-.722.167-.167.389-.334.667-.334h1.222l.667.834c.167.444.389.833.556 1.278Z" fill="#D5E3FC"/><path d="M49.783 45.554c0 .667-.11 1.334-.333 1.945a4.012 4.012 0 0 1-.5 1.111c-.278.5-.611.945-1.056 1.39a.767.767 0 0 1-.222.166c-.389.334-.778.611-1.278.833-.167.056-.278.056-.444.111a1.055 1.055 0 0 1-.278-.721c0-.223.055-.445.166-.612h-1.055c-.444 0-.834-.333-.945-.833v-.222c0-.223.056-.445.223-.612-.5-.055-.89-.5-.89-1.055 0-.111 0-.167.056-.278h-.444c-.556 0-.945-.445-.945-1.056 0-.166.056-.278.111-.444-.277-.167-.5-.5-.5-.89 0-.555.445-1.055.945-1.055h6.945c.11.222.166.5.222.722.167.556.222 1 .222 1.5Z" fill="#D5E3FC"/><path d="M41.56 44.443s.056 3.445 2.612 3.668c0 0-1.056 1.722 1.945 3l2.667-3.056-3.39-3.223-3.834-.389Z" fill="#D5E3FC"/><path d="M49.672 45.61c0 .778-.11 1.556-.389 2.223-.166.444-.333.889-.61 1.278a6.812 6.812 0 0 1-1.279 1.555 1.213 1.213 0 0 1-.277.222c-.445.39-1 .723-1.556.945-.5.222-1.056.389-1.667.5a6.848 6.848 0 0 1-1.111.111c-2.945 0-5.5-1.889-6.445-4.5-.056-.223-.167-.445-.223-.667a4.23 4.23 0 0 1-.166-1.167v-.5c0-.333 0-.611.055-.944 0-.056 0-.167.056-.223.055-.444.222-.944.389-1.333.222-.556.5-1.056.833-1.5a6.788 6.788 0 0 1 5.5-2.834c1.779 0 3.446.667 4.668 1.833l.167.167c.277.278.555.611.833 1 .278.445.556.89.722 1.39.111.277.223.555.278.833.167.5.222 1.055.222 1.611Z" stroke="#15357A" stroke-width="2" stroke-miterlimit="10" stroke-linecap="round" stroke-linejoin="round"/><path d="M37.949 43.11s2.611.444-.945 4.111l.945-4.112ZM46.672 41.387s-1.722.667-.667 2.556l1.89-.333-1.223-2.223Z" fill="#D5E3FC"/><path d="m13.335 21.385 1.89 1.444M35.726 22.663l1.89-1.5M34.893 37.998l1.834 1.556M14.668 39.387l1.945-1.445" stroke="#15357A" stroke-width="2" stroke-miterlimit="10" stroke-linecap="round" stroke-linejoin="round"/></svg>