<svg width="57" height="63" fill="none" xmlns="http://www.w3.org/2000/svg"><path opacity=".5" d="M51.163 48.463a51.872 51.872 0 0 0-6.843 7.562c-6.354 8.526-16.673 9.248-32.26.138-13.38-6.31-14.662-18.404-8.553-26.596a85.652 85.652 0 0 0 8.456-13.505C17.81 4.047 31.673 3.03 42.457 17.192a26 26 0 0 0 5.016 5.03c14.028 10.527 10.124 20.457 3.69 26.242Z" fill="#D5E3FC"/><path d="M51.23 24.983c-.181 3.504-.04 7.019.422 10.494 1.418 10.815-5.187 19.368-22.056 25.27C16.136 66.9 7.063 59.593 5.694 49.191a90.641 90.641 0 0 0-3.317-15.885c-4.118-12.77 4.698-24.314 21.696-23.002 2.292.18 4.596.023 6.849-.466 16.759-3.712 20.81 6.146 20.308 15.145Z" fill="#D5E3FC"/><path d="m53.54 54.398-.483-.872-.849-.452.813-.525.421-.912.489.873.843.452-.813.525-.421.911ZM41.058 4.88l-.281-1.883-1.18-1.43 1.76-.301L42.683 0l.281 1.889 1.18 1.423-1.76.302-1.326 1.266Z" fill="#2C71F0"/><path d="M19.448 38.04c1.412-.535 2.602-1.589 3.36-2.975a7.241 7.241 0 0 0 .782-4.6c-.253-1.585-1.02-3.023-2.164-4.06-1.145-1.036-2.595-1.604-4.092-1.604-1.498 0-2.947.568-4.092 1.605-1.146 1.036-1.912 2.474-2.165 4.058a7.24 7.24 0 0 0 .782 4.6c.758 1.387 1.948 2.441 3.36 2.977a10.107 10.107 0 0 0-4.35 2.253 11.099 11.099 0 0 0-2.932 4.122h18.94a11.084 11.084 0 0 0-2.995-4.154 10.085 10.085 0 0 0-4.434-2.221Z" fill="#EAF1FE" stroke="#15357A" stroke-width="1.5" stroke-linecap="round" stroke-linejoin="round"/><path opacity=".1" d="M26.87 44.429h-2.26a11.09 11.09 0 0 0-2.985-4.158 10.09 10.09 0 0 0-4.426-2.23c1.319-.504 2.445-1.462 3.203-2.725a7.2 7.2 0 0 0 .99-4.256 7.06 7.06 0 0 0-1.633-4.02c-.944-1.11-2.202-1.855-3.58-2.117a5.86 5.86 0 0 1 1.13-.111c1.5-.008 2.953.554 4.102 1.587 1.15 1.034 1.921 2.47 2.177 4.056a7.235 7.235 0 0 1-.777 4.607c-.758 1.388-1.95 2.444-3.364 2.979a10.088 10.088 0 0 1 4.434 2.228 11.086 11.086 0 0 1 2.99 4.16Z" fill="#15357A"/><path d="M39.897 38.755c1.251-.475 2.306-1.41 2.978-2.638a6.418 6.418 0 0 0 .692-4.078c-.224-1.405-.904-2.679-1.919-3.597-1.015-.919-2.3-1.422-3.627-1.422s-2.612.503-3.627 1.422c-1.015.918-1.694 2.192-1.919 3.597a6.418 6.418 0 0 0 .693 4.078c.671 1.229 1.726 2.163 2.977 2.638a8.948 8.948 0 0 0-3.86 1.997 9.826 9.826 0 0 0-2.597 3.657h16.795a9.782 9.782 0 0 0-2.651-3.688 8.897 8.897 0 0 0-3.935-1.966Z" fill="#EAF1FE" stroke="#15357A" stroke-width="1.5" stroke-linecap="round" stroke-linejoin="round"/><path opacity=".1" d="M46.49 44.429h-2.01a9.823 9.823 0 0 0-2.652-3.696 8.938 8.938 0 0 0-3.935-1.978c1.167-.447 2.163-1.297 2.834-2.415a6.383 6.383 0 0 0 .876-3.769 6.257 6.257 0 0 0-1.446-3.56c-.835-.984-1.948-1.644-3.168-1.878.324-.067.653-.102.983-.105a5.4 5.4 0 0 1 3.626 1.414c1.016.916 1.698 2.186 1.926 3.589a6.42 6.42 0 0 1-.68 4.076c-.667 1.23-1.717 2.168-2.965 2.648a8.947 8.947 0 0 1 3.948 1.974 9.834 9.834 0 0 1 2.663 3.7Z" fill="#15357A"/><path d="M30.463 37.037c1.652-.597 3.052-1.807 3.948-3.412a8.359 8.359 0 0 0 .943-5.345c-.288-1.846-1.178-3.521-2.513-4.725-1.334-1.205-3.024-1.86-4.767-1.847-1.743.013-3.425.691-4.744 1.915-1.32 1.223-2.19 2.91-2.454 4.76a8.35 8.35 0 0 0 1.01 5.332c.915 1.592 2.33 2.781 3.989 3.355a11.583 11.583 0 0 0-5.112 2.565 12.734 12.734 0 0 0-3.442 4.8h21.83a12.717 12.717 0 0 0-3.493-4.85 11.554 11.554 0 0 0-5.195-2.548Z" fill="#fff" stroke="#15357A" stroke-width="1.5" stroke-linecap="round" stroke-linejoin="round"/><path opacity=".1" d="M39.659 44.43h-2.976a12.739 12.739 0 0 0-3.496-4.845 11.578 11.578 0 0 0-5.192-2.547c1.494-.575 2.774-1.654 3.648-3.075a8.313 8.313 0 0 0 1.199-4.81 8.196 8.196 0 0 0-1.73-4.62c-1.027-1.298-2.419-2.204-3.966-2.58 1.777-.287 3.59.137 5.094 1.19 1.505 1.055 2.597 2.665 3.069 4.526a8.397 8.397 0 0 1-.51 5.57c-.799 1.727-2.161 3.079-3.828 3.799a11.567 11.567 0 0 1 5.192 2.546 12.728 12.728 0 0 1 3.496 4.845Z" fill="#15357A"/></svg>