<svg width="54" height="56" fill="none" xmlns="http://www.w3.org/2000/svg"><path d="M43.977 27.363h3.411v-1.137c0-.909 0-1.818-.227-2.727C45.796 12.136 36.246 3.5 24.422 3.5c-11.824 0-21.374 8.863-22.738 20.226-.228.91-.228 1.818-.228 2.727v1.137h2.729M1.002 40.316S.547 52.816 12.6 51.68" stroke="#15357A" stroke-width="1.5" stroke-miterlimit="10" stroke-linecap="round" stroke-linejoin="round"/><path d="M17.602 55.089h-1.819c-1.82 0-3.183-1.364-3.183-3.182v-.227c0-1.818 1.364-3.182 3.183-3.182h1.82c1.818 0 3.182 1.364 3.182 3.182v.227c0 1.59-1.364 3.182-3.183 3.182Z" fill="#D5E3FC" stroke="#15357A" stroke-width="1.5" stroke-miterlimit="10" stroke-linecap="round" stroke-linejoin="round"/><path d="M41.477 18.954c.91-.228 1.819-.455 2.729-.455 4.547 0 8.185 3.636 8.185 7.954v9.318c0 4.318-3.638 7.954-8.185 7.954-.91 0-1.82-.227-2.73-.455V18.954Z" fill="#fff" stroke="#15357A" stroke-width="1.5" stroke-miterlimit="10" stroke-linecap="round" stroke-linejoin="round"/><path opacity=".1" d="M50.117 21.227s-.909 20.908-8.867 19.544v2.5c.227.227 17.053 4.772 8.867-22.044Z" fill="#15357A"/><path d="M32.154 7.818H16.92c-1.365 0-2.274-.91-2.274-2.273V3.273c0-1.364.91-2.273 2.274-2.273h15.234c1.364 0 2.274.91 2.274 2.273v2.272c0 1.136-.91 2.273-2.274 2.273Z" fill="#D5E3FC" stroke="#15357A" stroke-width="1.5" stroke-miterlimit="10" stroke-linecap="round" stroke-linejoin="round"/></svg>