<svg width="137" height="141" viewBox="0 0 137 141" fill="none" xmlns="http://www.w3.org/2000/svg">
<path fill-rule="evenodd" clip-rule="evenodd" d="M16.7673 70.123L19.6641 67.107L16.6298 64.232L13.7331 67.248L16.7673 70.123Z" fill="#52C4FF"/>
<path fill-rule="evenodd" clip-rule="evenodd" d="M11.3402 62.74C11.4887 62.52 11.8531 62.202 11.9283 61.826C12.369 59.637 12.8247 59.186 15.0409 58.649C15.3721 58.569 15.7787 58.054 15.8048 57.713C15.8248 57.451 15.324 56.923 15.0218 56.897C13.0646 56.727 11.9645 55.758 11.7366 53.795C11.6764 53.273 11.301 52.885 10.7781 53.031C10.4368 53.127 9.95902 53.526 9.93292 53.823C9.75426 55.833 8.68529 56.855 6.70593 57.101C6.4299 57.135 6.00131 57.661 6.02339 57.93C6.04949 58.258 6.46202 58.568 6.74006 58.855C6.80831 58.926 7.00303 58.874 7.13854 58.886C8.72443 59.027 9.80144 60.033 10.0313 61.618C10.1216 62.242 10.3123 62.736 11.3402 62.741V62.74Z" fill="#FF8030"/>
<path fill-rule="evenodd" clip-rule="evenodd" d="M0 52.366H135.974V140.144H0V52.366Z" fill="white"/>
<path fill-rule="evenodd" clip-rule="evenodd" d="M134.351 108.448C137.054 99.912 136.405 90.66 132.231 82.058C128.488 74.345 121.907 66.933 112.119 61.694C90.361 50.05 56.6306 50.404 32.9546 56.762C20.1219 60.208 8.90517 66.379 3.63157 74.645C-0.624255 81.315 -0.821991 88.972 1.40328 96.267C8.70442 120.205 42.8524 141.555 81.7891 140.072C111.146 138.953 129.093 125.056 134.351 108.448Z" fill="#D3DEFC"/>
<path fill-rule="evenodd" clip-rule="evenodd" d="M49.8533 46.003V99.498L70.7861 109.79V55.397L49.8533 46.003Z" fill="white"/>
<path fill-rule="evenodd" clip-rule="evenodd" d="M51.5286 98.46L69.1119 107.106V56.476L51.5286 48.585V98.46ZM70.7861 111.459C70.5332 111.459 70.2793 111.401 70.0454 111.286L49.1126 100.994C48.8324 100.856 48.5966 100.643 48.4316 100.379C48.2666 100.114 48.1792 99.8093 48.1791 99.498V46.003C48.1794 45.7244 48.2497 45.4504 48.3836 45.2058C48.5175 44.9612 48.7107 44.7539 48.9456 44.6028C49.1805 44.4517 49.4496 44.3616 49.7284 44.3407C50.0073 44.3197 50.2869 44.3687 50.5419 44.483L71.4737 53.876C72.0749 54.146 72.4614 54.741 72.4614 55.397V109.79C72.4611 110.233 72.2845 110.657 71.9704 110.97C71.6563 111.283 71.2304 111.459 70.7861 111.459Z" fill="#0A083B"/>
<path fill-rule="evenodd" clip-rule="evenodd" d="M91.8494 46.003V99.177L70.9336 109.79V56.406L91.8494 46.003Z" fill="white"/>
<path fill-rule="evenodd" clip-rule="evenodd" d="M72.6089 57.438V107.068L90.1742 98.155V48.7L72.6089 57.437V57.438ZM70.9336 111.459C70.4896 111.458 70.0639 111.282 69.75 110.97C69.4361 110.657 69.2597 110.232 69.2594 109.79V56.406C69.2594 55.774 69.6178 55.196 70.1859 54.913L91.1016 44.511C91.3568 44.3841 91.6404 44.3242 91.9254 44.3371C92.2103 44.35 92.4872 44.4352 92.7299 44.5847C92.9725 44.7341 93.1728 44.9429 93.3117 45.1911C93.4506 45.4393 93.5236 45.7188 93.5236 46.003V99.177C93.5236 99.805 93.1703 100.379 92.6102 100.664L71.6945 111.277C71.4588 111.396 71.1981 111.459 70.9336 111.459Z" fill="#0A083B"/>
<path fill-rule="evenodd" clip-rule="evenodd" d="M56.209 100.565V87L64.1495 90.805V104.424" fill="white"/>
<path fill-rule="evenodd" clip-rule="evenodd" d="M65.5598 105.737H62.2104V93.167L57.6193 90.967V101.878H54.2699V88.313C54.2697 88.0308 54.3415 87.7531 54.4784 87.506C54.6153 87.259 54.8129 87.0505 55.0526 86.9003C55.2924 86.75 55.5666 86.6628 55.8494 86.6468C56.1322 86.6309 56.4145 86.6867 56.6698 86.809L64.6113 90.614C65.1905 90.892 65.5598 91.476 65.5598 92.118V105.737Z" fill="#0A083B"/>
<mask id="mask0_2382_7822" style="mask-type:alpha" maskUnits="userSpaceOnUse" x="54" y="77" width="12" height="13">
<path fill-rule="evenodd" clip-rule="evenodd" d="M54.338 83.759L65.6019 89.769V83.089L54.338 77.382" fill="white"/>
</mask>
<g mask="url(#mask0_2382_7822)">
<path fill-rule="evenodd" clip-rule="evenodd" d="M53.1456 79.973L67.9476 87.544L53.1456 79.974V79.973Z" fill="white"/>
</g>
<mask id="mask1_2382_7822" style="mask-type:alpha" maskUnits="userSpaceOnUse" x="54" y="77" width="12" height="13">
<path fill-rule="evenodd" clip-rule="evenodd" d="M54.338 83.759L65.6019 89.769V83.089L54.338 77.382V83.759Z" fill="white"/>
</mask>
<g mask="url(#mask1_2382_7822)">
<path fill-rule="evenodd" clip-rule="evenodd" d="M67.1828 89.028L52.3808 81.458L53.9104 78.488L68.7125 86.06L67.1828 89.028Z" fill="#0A083B"/>
</g>
<mask id="mask2_2382_7822" style="mask-type:alpha" maskUnits="userSpaceOnUse" x="54" y="69" width="12" height="13">
<path fill-rule="evenodd" clip-rule="evenodd" d="M54.338 75.982L65.6019 81.992V75.312L54.338 69.606" fill="white"/>
</mask>
<g mask="url(#mask2_2382_7822)">
<path fill-rule="evenodd" clip-rule="evenodd" d="M53.1456 72.196L67.9476 79.768L53.1456 72.196Z" fill="white"/>
</g>
<mask id="mask3_2382_7822" style="mask-type:alpha" maskUnits="userSpaceOnUse" x="54" y="69" width="12" height="13">
<path fill-rule="evenodd" clip-rule="evenodd" d="M54.338 75.982L65.6019 81.992V75.312L54.338 69.606V75.982Z" fill="white"/>
</mask>
<g mask="url(#mask3_2382_7822)">
<path fill-rule="evenodd" clip-rule="evenodd" d="M67.1828 81.252L52.3808 73.68L53.9104 70.712L68.7125 78.283L67.1828 81.252Z" fill="#0A083B"/>
</g>
<mask id="mask4_2382_7822" style="mask-type:alpha" maskUnits="userSpaceOnUse" x="54" y="61" width="12" height="14">
<path fill-rule="evenodd" clip-rule="evenodd" d="M54.338 68.205L65.6019 74.216V67.536L54.338 61.829" fill="white"/>
</mask>
<g mask="url(#mask4_2382_7822)">
<path fill-rule="evenodd" clip-rule="evenodd" d="M53.1456 64.42L67.9476 71.99L53.1456 64.42Z" fill="white"/>
</g>
<mask id="mask5_2382_7822" style="mask-type:alpha" maskUnits="userSpaceOnUse" x="54" y="61" width="12" height="14">
<path fill-rule="evenodd" clip-rule="evenodd" d="M54.338 68.205L65.6019 74.216V67.536L54.338 61.829V68.205Z" fill="white"/>
</mask>
<g mask="url(#mask5_2382_7822)">
<path fill-rule="evenodd" clip-rule="evenodd" d="M67.1828 73.475L52.3808 65.904L53.9104 62.936L68.7125 70.506L67.1828 73.476V73.475Z" fill="#0A083B"/>
</g>
<mask id="mask6_2382_7822" style="mask-type:alpha" maskUnits="userSpaceOnUse" x="54" y="54" width="12" height="13">
<path fill-rule="evenodd" clip-rule="evenodd" d="M54.338 60.43L65.6019 66.44V59.76L54.338 54.052" fill="white"/>
</mask>
<g mask="url(#mask6_2382_7822)">
<path fill-rule="evenodd" clip-rule="evenodd" d="M53.1456 56.644L67.9476 64.214L53.1456 56.644Z" fill="white"/>
</g>
<mask id="mask7_2382_7822" style="mask-type:alpha" maskUnits="userSpaceOnUse" x="54" y="54" width="12" height="13">
<path fill-rule="evenodd" clip-rule="evenodd" d="M54.338 60.43L65.6019 66.44V59.76L54.338 54.052V60.429V60.43Z" fill="white"/>
</mask>
<g mask="url(#mask7_2382_7822)">
<path fill-rule="evenodd" clip-rule="evenodd" d="M67.1828 65.699L52.3808 58.128L53.9104 55.159L68.7125 62.73L67.1828 65.699Z" fill="#0A083B"/>
</g>
<path fill-rule="evenodd" clip-rule="evenodd" d="M70.8955 34.666H70.8764L49.8533 45.419L70.8604 55.397L91.8484 45.419L70.8945 34.666H70.8955Z" fill="white"/>
<path fill-rule="evenodd" clip-rule="evenodd" d="M53.6293 45.364L70.8603 53.549L88.0803 45.363L70.8854 36.537L53.6283 45.364H53.6293ZM70.8603 57.066C70.6144 57.066 70.3685 57.011 70.1396 56.903L49.1326 46.926C48.8508 46.7921 48.6122 46.5825 48.4437 46.3207C48.2752 46.0588 48.1835 45.7553 48.179 45.4443C48.1745 45.1334 48.2574 44.8273 48.4183 44.5608C48.5791 44.2943 48.8116 44.0778 49.0894 43.936L70.1125 33.182C70.3532 33.0623 70.6185 32.9999 70.8874 32.9999C71.1564 32.9999 71.4217 33.0623 71.6623 33.182L92.6162 43.937C92.8939 44.079 93.1262 44.2955 93.2869 44.5621C93.4476 44.8287 93.5302 45.1348 93.5254 45.4458C93.5205 45.7567 93.4285 46.0601 93.2597 46.3217C93.0909 46.5833 92.852 46.7926 92.57 46.926L71.582 56.903C71.3566 57.0102 71.1101 57.0659 70.8603 57.066Z" fill="#0A083B"/>
<path d="M135.11 51.737H127.676M124.957 56.096V61.011V56.096ZM127.389 58.59H122.455H127.389ZM131.428 48V55.407V48Z" stroke="#FFD61A" stroke-width="2" stroke-miterlimit="10"/>
<path d="M115.178 114.5C120.583 114.5 124.965 113.045 124.965 111.25C124.965 109.455 120.583 108 115.178 108C109.773 108 105.392 109.455 105.392 111.25C105.392 113.045 109.773 114.5 115.178 114.5Z" fill="#52C4FF"/>
<path d="M25.2437 123.3C30.6486 123.3 35.0301 121.845 35.0301 120.05C35.0301 118.255 30.6486 116.8 25.2437 116.8C19.8389 116.8 15.4574 118.255 15.4574 120.05C15.4574 121.845 19.8389 123.3 25.2437 123.3Z" fill="#52C4FF"/>
<path d="M71.014 47.5C76.4189 47.5 80.8004 46.0449 80.8004 44.25C80.8004 42.4551 76.4189 41 71.014 41C65.6091 41 61.2276 42.4551 61.2276 44.25C61.2276 46.0449 65.6091 47.5 71.014 47.5Z" fill="#52C4FF"/>
<path fill-rule="evenodd" clip-rule="evenodd" d="M25.1314 93.16C23.7617 93.1595 22.4482 92.6171 21.4797 91.6522C20.5111 90.6872 19.9668 89.3786 19.9662 88.014C19.9668 86.6494 20.5111 85.3408 21.4797 84.3758C22.4482 83.4109 23.7617 82.8685 25.1314 82.868C26.5012 82.8685 27.8146 83.4109 28.7832 84.3758C29.7517 85.3408 30.2961 86.6494 30.2966 88.014C30.2961 89.3786 29.7517 90.6872 28.7832 91.6522C27.8146 92.6171 26.5012 93.1595 25.1314 93.16ZM25.5028 72C17.5081 72 11.041 78.443 11.041 86.408C11.041 97.215 25.5028 113.167 25.5028 113.167C25.5028 113.167 39.9656 97.215 39.9656 86.408C39.9656 78.443 33.4985 72 25.5028 72Z" fill="white"/>
<path d="M25.5028 113.167L24.3856 114.172L25.5028 115.405L26.62 114.172L25.5028 113.167ZM25.1314 91.66C24.161 91.6595 23.2305 91.2752 22.5443 90.5915C21.8581 89.9079 21.4724 88.9808 21.4718 88.014H18.4606C18.4612 89.7765 19.1641 91.4666 20.415 92.7128C21.6659 93.9591 23.3624 94.6595 25.1314 94.66V91.66ZM21.4718 88.014C21.4724 87.0472 21.8581 86.1201 22.5443 85.4365C23.2305 84.7528 24.161 84.3685 25.1314 84.368V81.368C23.3624 81.3685 21.6659 82.0689 20.415 83.3152C19.1641 84.5614 18.4612 86.2515 18.4606 88.014H21.4718ZM25.1314 84.368C26.1018 84.3685 27.0324 84.7528 27.7186 85.4365C28.4048 86.1201 28.7905 87.0472 28.791 88.014H31.8022C31.8017 86.2515 31.0987 84.5614 29.8478 83.3152C28.5969 82.0689 26.9005 81.3685 25.1314 81.368V84.368ZM28.791 88.014C28.7905 88.9808 28.4048 89.9079 27.7186 90.5915C27.0324 91.2752 26.1018 91.6595 25.1314 91.66V94.66C26.9005 94.6595 28.5969 93.9591 29.8478 92.7128C31.0987 91.4666 31.8017 89.7765 31.8022 88.014H28.791ZM25.5028 70.5C16.676 70.5 9.53545 77.614 9.53545 86.408H12.5466C12.5453 84.7125 12.8795 83.0334 13.5302 81.4668C14.1808 79.9001 15.1351 78.4766 16.3385 77.2777C17.5418 76.0789 18.9706 75.1281 20.5431 74.4799C22.1156 73.8317 23.801 73.4987 25.5028 73.5V70.5ZM9.53545 86.408C9.53545 89.413 10.5322 92.66 11.9263 95.761C13.3306 98.882 15.1885 101.967 17.0243 104.679C19.0958 107.723 21.3384 110.647 23.7413 113.439C23.943 113.673 24.1026 113.854 24.213 113.978L24.3385 114.12L24.3726 114.158L24.3826 114.168C24.3834 114.169 24.3841 114.17 24.3846 114.171V114.172L25.5028 113.167L26.621 112.161L26.619 112.16L26.6129 112.153L26.5848 112.121L26.4694 111.992C25.7681 111.194 25.0821 110.384 24.4117 109.56C22.6868 107.445 21.0549 105.257 19.5206 103.001C17.7409 100.373 15.9834 97.445 14.6746 94.535C13.3577 91.605 12.5466 88.806 12.5466 86.408H9.53545ZM25.5028 113.167L26.621 114.172V114.171L26.624 114.168L26.634 114.158L26.6671 114.12L26.7936 113.978C27.5216 113.149 28.2344 112.306 28.9315 111.451C30.7123 109.267 32.3975 107.008 33.9823 104.679C35.8192 101.967 37.6761 98.882 39.0793 95.761C40.4745 92.661 41.4712 89.413 41.4712 86.408H38.46C38.46 88.806 37.649 91.606 36.3321 94.535C35.0232 97.445 33.2657 100.373 31.486 103.001C29.3533 106.134 27.0328 109.137 24.5372 111.992L24.4218 112.121L24.3937 112.153L24.3877 112.16L24.3856 112.161L25.5028 113.167ZM41.4712 86.408C41.4712 77.614 34.3306 70.5 25.5028 70.5V73.5C27.2047 73.4986 28.8902 73.8314 30.4628 74.4796C32.0354 75.1278 33.4643 76.0785 34.6678 77.2774C35.8712 78.4763 36.8256 79.8998 37.4763 81.4665C38.127 83.0333 38.4613 84.7124 38.46 86.408H41.4712Z" fill="#0A083B"/>
<path fill-rule="evenodd" clip-rule="evenodd" d="M71.4275 20.333C70.2408 20.3325 69.1028 19.8625 68.2637 19.0263C67.4247 18.1902 66.9532 17.0563 66.9529 15.874C66.9534 14.6918 67.425 13.5582 68.2641 12.7223C69.1031 11.8864 70.241 11.4165 71.4275 11.416C72.6143 11.4163 73.7524 11.886 74.5916 12.722C75.4309 13.5579 75.9026 14.6917 75.9032 15.874C75.9029 17.0565 75.4313 18.1905 74.592 19.0267C73.7527 19.8629 72.6145 20.3327 71.4275 20.333ZM71.7497 2C70.104 1.99882 68.4742 2.3209 66.9535 2.94781C65.4328 3.57472 64.051 4.49416 62.8873 5.65355C61.7236 6.81294 60.8007 8.18953 60.1715 9.70457C59.5422 11.2196 59.219 12.8434 59.2202 14.483C59.2202 23.846 71.7497 37.667 71.7497 37.667C71.7497 37.667 84.2803 23.846 84.2803 14.483C84.2815 12.8433 83.9582 11.2194 83.3289 9.70434C82.6996 8.18923 81.7766 6.8126 80.6128 5.6532C79.449 4.49379 78.0671 3.57437 76.5463 2.94752C75.0255 2.32067 73.3956 1.99869 71.7497 2Z" fill="#FF8030"/>
<path d="M71.7497 37.667L70.6326 38.672L71.7497 39.905L72.8679 38.672L71.7497 37.667ZM71.4285 18.833C70.6409 18.8327 69.8856 18.5209 69.3287 17.966C68.7717 17.4112 68.4587 16.6587 68.4585 15.874H65.4473C65.4476 17.4542 66.0777 18.9696 67.1991 20.087C68.3205 21.2044 69.8415 21.8325 71.4275 21.833V18.833H71.4285ZM68.4585 15.874C68.459 15.0897 68.772 14.3376 69.3287 13.783C69.8854 13.2283 70.6402 12.9165 71.4275 12.916V9.916C69.8416 9.91653 68.3208 10.5444 67.1994 11.6616C66.0781 12.7789 65.4478 14.294 65.4473 15.874H68.4585ZM71.4275 12.916C72.215 12.9163 72.9701 13.228 73.527 13.7826C74.0839 14.3373 74.397 15.0895 74.3976 15.874H77.4088C77.4082 14.2938 76.7778 12.7785 75.6562 11.6613C74.5346 10.544 73.0136 9.91627 71.4275 9.916V12.916ZM74.3976 15.874C74.3973 16.6587 74.0843 17.4112 73.5274 17.966C72.9704 18.5209 72.2151 18.8327 71.4275 18.833V21.833C73.0138 21.8327 74.535 21.2048 75.6566 20.0874C76.7782 18.9699 77.4085 17.4543 77.4088 15.874H74.3976ZM71.7497 0.5C63.9909 0.5 57.7145 6.753 57.7145 14.483H60.7257C60.7257 8.41 65.6541 3.5 71.7497 3.5V0.5ZM57.7145 14.483C57.7145 17.128 58.5908 19.971 59.8043 22.669C61.0259 25.387 62.6429 28.07 64.2368 30.425C66.1526 33.2402 68.2375 35.9374 70.48 38.502L70.5914 38.626L70.6215 38.659L70.6295 38.669L70.6316 38.671C70.6326 38.671 70.6326 38.672 71.7497 37.667L72.8679 36.661H72.8669C72.8649 36.6586 72.8629 36.6563 72.8608 36.654L72.8368 36.627C72.197 35.9019 71.5716 35.1644 70.9608 34.415C69.4699 32.5875 68.0594 30.6964 66.7331 28.747C65.1954 26.477 63.6787 23.949 62.5515 21.442C61.4163 18.916 60.7257 16.52 60.7257 14.483H57.7145ZM71.7497 37.667C72.1216 38.003 72.4943 38.338 72.8679 38.672V38.671L72.8709 38.668L72.8789 38.659L72.909 38.626C73.0847 38.4308 73.2581 38.2334 73.429 38.034C75.5165 35.6097 77.4642 33.0693 79.2626 30.425C80.8586 28.07 82.4746 25.387 83.6961 22.669C84.9096 19.971 85.7859 17.128 85.7859 14.483H82.7747C82.7747 16.52 82.0841 18.916 80.9479 21.443C79.8207 23.949 78.3051 26.476 76.7674 28.747C74.9241 31.4548 72.9186 34.0495 70.762 36.517L70.6637 36.627L70.6396 36.654L70.6336 36.66V36.661H70.6326L71.7497 37.667ZM85.7859 14.483C85.7859 6.753 79.5086 0.5 71.7497 0.5V3.5C77.8454 3.5 82.7747 8.41 82.7747 14.483H85.7859Z" fill="#0A083B"/>
<path fill-rule="evenodd" clip-rule="evenodd" d="M114.976 82.93C113.557 82.9295 112.196 82.3674 111.192 81.3674C110.188 80.3674 109.624 79.0112 109.624 77.597C109.624 76.1828 110.188 74.8266 111.192 73.8266C112.196 72.8266 113.557 72.2645 114.976 72.264C116.396 72.2645 117.757 72.8265 118.761 73.8265C119.765 74.8265 120.33 76.1827 120.33 77.597C120.33 79.0115 119.766 80.3679 118.762 81.3681C117.758 82.3683 116.396 82.9305 114.976 82.931V82.93ZM115.362 61C107.075 61 100.373 67.677 100.373 75.933C100.373 87.133 115.362 103.667 115.362 103.667C115.362 103.667 130.352 87.133 130.352 75.933C130.352 67.677 123.649 61 115.362 61Z" fill="white"/>
<path d="M115.362 103.667L114.245 104.672L115.362 105.905L116.479 104.672L115.362 103.667ZM114.976 81.431C113.956 81.4305 112.978 81.0263 112.256 80.3074C111.535 79.5885 111.129 78.6136 111.129 77.597H108.118C108.118 79.4092 108.841 81.1472 110.127 82.4287C111.413 83.7103 113.157 84.4305 114.976 84.431V81.431ZM111.129 77.597C111.13 76.5806 111.535 75.606 112.257 74.8872C112.978 74.1685 113.956 73.7645 114.976 73.764V70.764C113.158 70.7645 111.413 71.4846 110.127 72.7659C108.841 74.0472 108.118 75.7849 108.118 77.597H111.129ZM114.976 73.764C115.997 73.7645 116.975 74.1685 117.697 74.8872C118.418 75.6059 118.824 76.5805 118.825 77.597H121.836C121.835 75.7848 121.112 74.0469 119.826 72.7656C118.54 71.4842 116.795 70.7643 114.976 70.764V73.764ZM118.825 77.597C118.824 78.6137 118.419 79.5886 117.697 80.3075C116.975 81.0264 115.997 81.4305 114.976 81.431V84.431C116.796 84.4307 118.54 83.7106 119.827 82.4291C121.113 81.1475 121.836 79.4094 121.836 77.597H118.825ZM115.362 59.5C106.244 59.5 98.8675 66.849 98.8675 75.933H101.879C101.879 68.506 107.907 62.5 115.362 62.5V59.5ZM98.8675 75.933C98.8675 79.037 99.8974 82.394 101.341 85.605C102.794 88.835 104.717 92.03 106.619 94.839C108.765 97.9921 111.088 101.022 113.577 103.913C113.787 104.155 113.952 104.343 114.065 104.471L114.197 104.618L114.232 104.657L114.241 104.668L114.244 104.671L114.245 104.672L115.362 103.667L116.48 102.661H116.479L116.478 102.66L116.471 102.652C116.461 102.641 116.452 102.631 116.442 102.62L116.322 102.485C115.595 101.658 114.884 100.817 114.189 99.963C112.4 97.7698 110.707 95.5003 109.116 93.161C107.271 90.436 105.447 87.398 104.089 84.378C102.723 81.339 101.879 78.43 101.879 75.933H98.8675ZM115.362 103.667L116.48 104.672L116.481 104.671L116.484 104.668L116.493 104.657L116.528 104.618L116.659 104.471C117.414 103.613 118.152 102.74 118.873 101.854C120.718 99.5925 122.464 97.252 124.104 94.839C126.006 92.03 127.931 88.835 129.383 85.605C130.827 82.394 131.857 79.037 131.857 75.933H128.846C128.846 78.43 128.002 81.339 126.635 84.378C125.278 87.398 123.454 90.436 121.609 93.161C119.53 96.2168 117.279 99.1529 114.866 101.955C114.665 102.187 114.508 102.366 114.402 102.485L114.283 102.62L114.253 102.652L114.247 102.66L114.245 102.661L115.362 103.667ZM131.857 75.933C131.857 66.849 124.481 59.5 115.362 59.5V62.5C122.818 62.5 128.846 68.506 128.846 75.933H131.857Z" fill="#0A083B"/>
<path fill-rule="evenodd" clip-rule="evenodd" d="M91.9649 24.732L105.097 12L91.9649 24.732Z" fill="#52C4FF"/>
</svg>
