<svg width="136" height="154" viewBox="0 0 136 154" fill="none" xmlns="http://www.w3.org/2000/svg">
<path fill-rule="evenodd" clip-rule="evenodd" d="M0 67.188H135.469V153.966H0V67.187V67.188Z" fill="white"/>
<path fill-rule="evenodd" clip-rule="evenodd" d="M133.851 122.63C136.544 114.191 135.898 105.045 131.739 96.541C128.01 88.916 121.454 81.588 111.702 76.409C90.0251 64.898 56.4201 65.247 32.8321 71.533C20.0471 74.94 8.87207 81.041 3.61807 89.213C-0.621933 95.806 -0.818933 103.376 1.39807 110.588C8.67207 134.254 42.6931 155.361 81.4851 153.894C110.733 152.788 128.613 139.049 133.851 122.63Z" fill="#D3DEFC"/>
<path fill-rule="evenodd" clip-rule="evenodd" d="M103.154 66.613L100.268 63.597L103.29 60.723L106.176 63.738L103.154 66.613Z" fill="#52C4FF"/>
<path fill-rule="evenodd" clip-rule="evenodd" d="M108.56 59.231C108.413 59.01 108.049 58.692 107.974 58.316C107.536 56.127 107.082 55.676 104.873 55.139C104.544 55.059 104.139 54.544 104.112 54.203C104.092 53.941 104.591 53.413 104.892 53.387C106.842 53.217 107.939 52.248 108.166 50.285C108.226 49.763 108.599 49.375 109.121 49.522C109.461 49.617 109.936 50.016 109.963 50.313C110.14 52.324 111.205 53.345 113.178 53.591C113.453 53.626 113.879 54.152 113.858 54.42C113.831 54.748 113.421 55.058 113.144 55.345C113.075 55.417 112.882 55.365 112.746 55.376C111.166 55.517 110.093 56.523 109.865 58.108C109.775 58.733 109.584 59.227 108.56 59.231Z" fill="#FF8030"/>
<path fill-rule="evenodd" clip-rule="evenodd" d="M91.6229 39.553L104.706 26.821L91.6229 39.553ZM92.7839 40.746L90.4619 38.361L103.545 25.628L105.866 28.013L92.7839 40.746Z" fill="#52C4FF"/>
<path fill-rule="evenodd" clip-rule="evenodd" d="M82.299 32.248L79.394 30.623L96.542 0L99.446 1.626L82.299 32.25V32.248Z" fill="#FF8030"/>
<path fill-rule="evenodd" clip-rule="evenodd" d="M40.6021 50.936H42.055V47.248H40.6021V50.936Z" fill="#52C4FF"/>
<path fill-rule="evenodd" clip-rule="evenodd" d="M39.4839 49.819H43.1729V48.366H39.4839V49.819ZM32.0679 45.588H33.5209V40H32.0679V45.588Z" fill="#52C4FF"/>
<path fill-rule="evenodd" clip-rule="evenodd" d="M30 43.52H35.588V42.068H30V43.521V43.52Z" fill="#52C4FF"/>
<path fill-rule="evenodd" clip-rule="evenodd" d="M70.8452 74.02L58.4212 49.832L18.4912 66.638L31.6372 94.134L70.8452 74.02Z" fill="white"/>
<path fill-rule="evenodd" clip-rule="evenodd" d="M20.7451 67.495L32.4001 91.871L68.6051 73.298L57.6451 51.963L20.7451 67.493V67.495ZM31.6371 95.798C31.3231 95.7981 31.0155 95.7093 30.7499 95.5419C30.4843 95.3745 30.2715 95.1353 30.1361 94.852L16.9901 67.356C16.8929 67.1528 16.8379 66.932 16.8286 66.7069C16.8192 66.4819 16.8557 66.2572 16.9357 66.0467C17.0158 65.8361 17.1377 65.644 17.2942 65.482C17.4507 65.3199 17.6384 65.1913 17.8461 65.104L57.7761 48.298C58.5771 47.96 59.5051 48.298 59.9021 49.071L72.3261 73.26C72.5272 73.6527 72.5643 74.1092 72.4291 74.5292C72.2939 74.9492 71.9975 75.2984 71.6051 75.5L32.3971 95.615C32.162 95.736 31.9015 95.7991 31.6371 95.799V95.798Z" fill="#0A083B"/>
<path fill-rule="evenodd" clip-rule="evenodd" d="M70.8452 74.02H70.8112L31.6372 94.135L70.7812 112.796L109.89 94.135L70.8452 74.02Z" fill="white"/>
<path fill-rule="evenodd" clip-rule="evenodd" d="M35.3878 94.079L70.7808 110.951L106.145 94.077L70.8268 75.883L35.3878 94.079ZM70.7808 114.459C70.5358 114.459 70.2908 114.405 70.0638 114.297L30.9208 95.636C30.6406 95.5026 30.4034 95.2935 30.2358 95.0324C30.0682 94.7713 29.9769 94.4685 29.9723 94.1582C29.9678 93.8479 30.05 93.5426 30.2099 93.2766C30.3697 93.0106 30.6007 92.7946 30.8768 92.653L70.0508 72.54C70.2928 72.4207 70.5591 72.3587 70.8289 72.3589C71.0988 72.3591 71.3649 72.4214 71.6068 72.541L110.652 92.655C110.928 92.7967 111.158 93.0126 111.318 93.2784C111.478 93.5443 111.56 93.8495 111.555 94.1595C111.55 94.4695 111.459 94.7721 111.291 95.033C111.124 95.2939 110.887 95.5028 110.607 95.636L71.4968 114.297C71.2731 114.404 71.0285 114.459 70.7808 114.459Z" fill="#0A083B"/>
<path fill-rule="evenodd" clip-rule="evenodd" d="M70.7798 112.795L85.9998 93.502L125.547 73.2L109.47 94.134" fill="white"/>
<path fill-rule="evenodd" clip-rule="evenodd" d="M72.0871 113.825L69.4741 111.763L84.6921 92.471C84.8402 92.2836 85.0267 92.1301 85.2391 92.021L124.788 71.718C125.124 71.544 125.51 71.4899 125.881 71.5648C126.252 71.6397 126.587 71.8391 126.829 72.1299C127.072 72.4207 127.208 72.7855 127.215 73.1641C127.222 73.5427 127.1 73.9124 126.868 74.212L110.79 95.147L108.15 93.12L119.713 78.065L87.0811 94.817L72.0871 113.825Z" fill="#0A083B"/>
<path fill-rule="evenodd" clip-rule="evenodd" d="M70.6992 147.925L109.783 128.986L109.89 94.134L70.7802 112.794L70.6992 147.925Z" fill="white"/>
<path fill-rule="evenodd" clip-rule="evenodd" d="M72.4421 113.845L72.3691 145.266L108.122 127.941L108.218 96.775L72.4421 113.845ZM70.7001 149.589C70.4813 149.589 70.2646 149.546 70.0624 149.462C69.8603 149.378 69.6767 149.255 69.5221 149.1C69.3675 148.945 69.245 148.761 69.1616 148.559C69.0783 148.357 69.0356 148.14 69.0361 147.921L69.1171 112.791C69.1191 112.15 69.4871 111.568 70.0651 111.292L109.174 92.632C109.428 92.5104 109.709 92.4553 109.99 92.4719C110.271 92.4885 110.544 92.5762 110.782 92.7268C111.02 92.8774 111.215 93.086 111.351 93.333C111.486 93.58 111.556 93.8574 111.555 94.139L111.448 128.991C111.447 129.303 111.359 129.608 111.193 129.872C111.027 130.135 110.79 130.347 110.509 130.483L71.4251 149.423C71.1951 149.534 70.9471 149.589 70.7001 149.589Z" fill="#0A083B"/>
<path fill-rule="evenodd" clip-rule="evenodd" d="M70.8282 147.925L31.7442 128.986L31.6372 94.134L70.7472 112.794L70.8282 147.925Z" fill="white"/>
<path fill-rule="evenodd" clip-rule="evenodd" d="M33.4052 127.941L69.1581 145.267L69.0852 113.846L33.3102 96.776L33.4052 127.941ZM70.8282 149.59C70.5767 149.59 70.3285 149.533 70.1021 149.423L31.0192 130.483C30.7386 130.347 30.5019 130.135 30.3358 129.872C30.1698 129.608 30.0812 129.303 30.0802 128.991L29.9732 94.139C29.9722 93.8575 30.0428 93.5803 30.1782 93.3335C30.3135 93.0866 30.5093 92.8781 30.7472 92.7276C30.9851 92.577 31.2573 92.4893 31.5384 92.4725C31.8194 92.4558 32.1001 92.5107 32.3542 92.632L71.4641 111.293C72.0401 111.568 72.4092 112.151 72.4102 112.79L72.4921 147.921C72.4928 148.14 72.4503 148.357 72.3669 148.559C72.2836 148.762 72.1611 148.946 72.0065 149.101C71.852 149.256 71.6683 149.379 71.4661 149.463C71.2639 149.547 71.0471 149.59 70.8282 149.59Z" fill="#0A083B"/>
<path fill-rule="evenodd" clip-rule="evenodd" d="M49.8979 49.173V102.529L70.6989 112.794V58.542L49.8979 49.172V49.173Z" fill="white"/>
<path fill-rule="evenodd" clip-rule="evenodd" d="M51.5619 101.495L69.0349 110.117V59.617L51.5619 51.747V101.495ZM70.6999 114.459C70.4446 114.459 70.1927 114.4 69.9639 114.287L49.1599 104.021C48.8816 103.883 48.6473 103.671 48.4835 103.407C48.3197 103.144 48.2329 102.839 48.2329 102.529V49.173C48.2332 48.8952 48.303 48.6219 48.436 48.378C48.5689 48.1341 48.7608 47.9273 48.9941 47.7766C49.2274 47.6258 49.4947 47.5357 49.7717 47.5147C50.0486 47.4936 50.3265 47.5422 50.5799 47.656L71.3809 57.025C71.9779 57.294 72.3619 57.888 72.3619 58.542V112.794C72.3622 113.013 72.3193 113.229 72.2358 113.431C72.1523 113.633 72.0297 113.817 71.8752 113.972C71.7206 114.126 71.5371 114.249 71.3351 114.332C71.1331 114.416 70.9165 114.459 70.6979 114.459H70.6999Z" fill="#0A083B"/>
<path fill-rule="evenodd" clip-rule="evenodd" d="M91.6302 49.173V102.209L70.8462 112.794V59.548L91.6292 49.173H91.6302Z" fill="white"/>
<path fill-rule="evenodd" clip-rule="evenodd" d="M72.5102 60.578V110.08L89.9651 101.189V51.864L72.5102 60.578ZM70.8452 114.459C70.4038 114.459 69.9806 114.284 69.6685 113.972C69.3565 113.66 69.1812 113.236 69.1812 112.795V59.549C69.1812 58.918 69.5381 58.342 70.1021 58.059L90.8862 47.684C91.1398 47.5565 91.4218 47.4962 91.7054 47.5087C91.989 47.5212 92.2646 47.6062 92.506 47.7555C92.7474 47.9048 92.9465 48.1135 93.0843 48.3617C93.2221 48.6099 93.294 48.8892 93.2932 49.173V102.209C93.2932 102.835 92.9432 103.408 92.3842 103.692L71.6012 114.277C71.367 114.396 71.108 114.459 70.8452 114.459Z" fill="#0A083B"/>
<path fill-rule="evenodd" clip-rule="evenodd" d="M55.9502 104.903V91.373L63.8402 95.168V108.752" fill="white"/>
<path fill-rule="evenodd" clip-rule="evenodd" d="M65.5051 108.752H62.1771V96.214L57.6141 94.02V104.903H54.2861V91.373C54.2861 91.0915 54.3574 90.8146 54.4935 90.5682C54.6296 90.3218 54.826 90.114 55.0642 89.9641C55.3025 89.8143 55.5749 89.7273 55.8559 89.7113C56.137 89.6954 56.4174 89.751 56.6711 89.873L64.5621 93.668C65.1381 93.945 65.5051 94.528 65.5051 95.168V108.752Z" fill="#0A083B"/>
<mask id="mask0_2382_7754" style="mask-type:alpha" maskUnits="userSpaceOnUse" x="54" y="80" width="12" height="13">
<path fill-rule="evenodd" clip-rule="evenodd" d="M54.354 86.83L65.546 92.825V86.162L54.354 80.47" fill="white"/>
</mask>
<g mask="url(#mask0_2382_7754)">
<path fill-rule="evenodd" clip-rule="evenodd" d="M53.1699 83.054L67.8779 90.606L53.1689 83.054H53.1699Z" fill="white"/>
</g>
<mask id="mask1_2382_7754" style="mask-type:alpha" maskUnits="userSpaceOnUse" x="54" y="80" width="12" height="13">
<path fill-rule="evenodd" clip-rule="evenodd" d="M54.354 86.83L65.546 92.825V86.162L54.354 80.47V86.83Z" fill="white"/>
</mask>
<g mask="url(#mask1_2382_7754)">
<path fill-rule="evenodd" clip-rule="evenodd" d="M67.1182 92.087L52.4082 84.535L53.9292 81.575L68.6392 89.125L67.1182 92.087Z" fill="#0A083B"/>
</g>
<mask id="mask2_2382_7754" style="mask-type:alpha" maskUnits="userSpaceOnUse" x="54" y="72" width="12" height="14">
<path fill-rule="evenodd" clip-rule="evenodd" d="M54.354 79.074L65.546 85.069V78.405L54.354 72.714" fill="white"/>
</mask>
<g mask="url(#mask2_2382_7754)">
<path fill-rule="evenodd" clip-rule="evenodd" d="M53.1699 75.298L67.8779 82.85L53.1689 75.298H53.1699Z" fill="white"/>
</g>
<mask id="mask3_2382_7754" style="mask-type:alpha" maskUnits="userSpaceOnUse" x="54" y="72" width="12" height="14">
<path fill-rule="evenodd" clip-rule="evenodd" d="M54.354 79.074L65.546 85.069V78.405L54.354 72.714V79.074Z" fill="white"/>
</mask>
<g mask="url(#mask3_2382_7754)">
<path fill-rule="evenodd" clip-rule="evenodd" d="M67.1182 84.33L52.4082 76.779L53.9292 73.818L68.6392 81.37L67.1182 84.33Z" fill="#0A083B"/>
</g>
<mask id="mask4_2382_7754" style="mask-type:alpha" maskUnits="userSpaceOnUse" x="54" y="64" width="12" height="14">
<path fill-rule="evenodd" clip-rule="evenodd" d="M54.354 71.317L65.546 77.313V70.649L54.354 64.957" fill="white"/>
</mask>
<g mask="url(#mask4_2382_7754)">
<path fill-rule="evenodd" clip-rule="evenodd" d="M53.1699 67.541L67.8779 75.093L53.1689 67.541H53.1699Z" fill="white"/>
</g>
<mask id="mask5_2382_7754" style="mask-type:alpha" maskUnits="userSpaceOnUse" x="54" y="64" width="12" height="14">
<path fill-rule="evenodd" clip-rule="evenodd" d="M54.354 71.317L65.546 77.313V70.649L54.354 64.957V71.317Z" fill="white"/>
</mask>
<g mask="url(#mask5_2382_7754)">
<path fill-rule="evenodd" clip-rule="evenodd" d="M67.1182 76.574L52.4082 69.022L53.9292 66.062L68.6392 73.613L67.1182 76.573V76.574Z" fill="#0A083B"/>
</g>
<mask id="mask6_2382_7754" style="mask-type:alpha" maskUnits="userSpaceOnUse" x="54" y="57" width="12" height="13">
<path fill-rule="evenodd" clip-rule="evenodd" d="M54.354 63.561L65.546 69.556V62.893L54.354 57.2" fill="white"/>
</mask>
<g mask="url(#mask6_2382_7754)">
<path fill-rule="evenodd" clip-rule="evenodd" d="M53.1699 59.785L67.8779 67.337L53.1689 59.785H53.1699Z" fill="white"/>
</g>
<mask id="mask7_2382_7754" style="mask-type:alpha" maskUnits="userSpaceOnUse" x="54" y="57" width="12" height="13">
<path fill-rule="evenodd" clip-rule="evenodd" d="M54.354 63.561L65.546 69.556V62.893L54.354 57.2V63.56V63.561Z" fill="white"/>
</mask>
<g mask="url(#mask7_2382_7754)">
</g>
<path fill-rule="evenodd" clip-rule="evenodd" d="M67.1182 68.818L52.4082 61.266L53.9292 58.306L68.6392 65.856L67.1182 68.818Z" fill="#0A083B"/>
<path fill-rule="evenodd" clip-rule="evenodd" d="M70.8069 37.865H70.7889L49.8989 48.59L70.7729 58.541L91.6289 48.59L70.8069 37.864V37.865Z" fill="white"/>
<path fill-rule="evenodd" clip-rule="evenodd" d="M53.65 48.535L70.771 56.7L87.883 48.535L70.796 39.732L53.648 48.536L53.65 48.535ZM70.773 60.207C70.528 60.207 70.283 60.152 70.056 60.044L49.182 50.093C48.9019 49.9596 48.6646 49.7505 48.497 49.4894C48.3294 49.2283 48.2382 48.9255 48.2336 48.6152C48.229 48.3049 48.3113 47.9996 48.4711 47.7336C48.6309 47.4676 48.8619 47.2516 49.138 47.11L70.028 36.384C70.2674 36.2647 70.5312 36.2027 70.7986 36.2029C71.0661 36.2031 71.3298 36.2654 71.569 36.385L92.391 47.112C92.6669 47.2535 92.8977 47.4693 93.0574 47.7351C93.217 48.0009 93.2991 48.306 93.2945 48.616C93.2898 48.926 93.1985 49.2285 93.0309 49.4894C92.8633 49.7502 92.626 49.9589 92.346 50.092L71.489 60.044C71.2654 60.1509 71.0208 60.2066 70.773 60.207Z" fill="#0A083B"/>
</svg>
