<svg width="147" height="128" viewBox="0 0 147 128" fill="none" xmlns="http://www.w3.org/2000/svg">
<path fill-rule="evenodd" clip-rule="evenodd" d="M10 40.366H145.469V127.144H10V40.366Z" fill="white"/>
<path fill-rule="evenodd" clip-rule="evenodd" d="M143.851 95.809C146.544 87.37 145.898 78.224 141.739 69.72C138.01 62.095 131.454 54.767 121.702 49.588C100.025 38.076 66.42 38.426 42.832 44.712C30.047 48.119 18.872 54.22 13.617 62.391C9.377 68.985 9.181 76.555 11.397 83.767C18.672 107.433 52.693 128.539 91.485 127.072C120.733 125.966 138.613 112.228 143.851 95.809Z" fill="#D3DEFC"/>
<path fill-rule="evenodd" clip-rule="evenodd" d="M101.623 12.732L114.706 0L101.623 12.732Z" fill="#52C4FF"/>
<path d="M127 16.03H131.024M137.118 19.34V22.011V19.34ZM135.801 20.695H138.472H135.801ZM128.993 14V18.024V14Z" stroke="#FFD61A" stroke-miterlimit="10"/>
<path d="M22.5 74C26.6421 74 30 72.8807 30 71.5C30 70.1193 26.6421 69 22.5 69C18.3579 69 15 70.1193 15 71.5C15 72.8807 18.3579 74 22.5 74Z" fill="#52C4FF"/>
<path d="M120.5 116C124.642 116 128 114.881 128 113.5C128 112.119 124.642 111 120.5 111C116.358 111 113 112.119 113 113.5C113 114.881 116.358 116 120.5 116Z" fill="#52C4FF"/>
<path d="M131.5 68C135.642 68 139 66.8807 139 65.5C139 64.1193 135.642 63 131.5 63C127.358 63 124 64.1193 124 65.5C124 66.8807 127.358 68 131.5 68Z" fill="#52C4FF"/>
<path fill-rule="evenodd" clip-rule="evenodd" d="M22.798 54.277C21.7483 54.2765 20.7417 53.8592 19.9995 53.1168C19.2573 52.3744 18.8403 51.3677 18.84 50.318C18.8405 49.2684 19.2577 48.262 19.9999 47.5199C20.742 46.7777 21.7484 46.3605 22.798 46.36C23.8477 46.3603 24.8544 46.7773 25.5968 47.5195C26.3392 48.2617 26.7565 49.2683 26.757 50.318C26.7567 51.3679 26.3395 52.3747 25.5971 53.1171C24.8547 53.8595 23.8479 54.2767 22.798 54.277ZM23.083 38C21.6273 37.999 20.1856 38.2849 18.8405 38.8415C17.4954 39.3981 16.2732 40.2144 15.2438 41.2438C14.2144 42.2732 13.3981 43.4954 12.8415 44.8405C12.2849 46.1856 11.999 47.6273 12 49.083C12 57.396 23.083 69.667 23.083 69.667C23.083 69.667 34.167 57.396 34.167 49.083C34.1681 47.6272 33.8821 46.1854 33.3254 44.8402C32.7687 43.4951 31.9523 42.2728 30.9229 41.2434C29.8934 40.2141 28.6711 39.3978 27.3258 38.8412C25.9806 38.2847 24.5388 37.9988 23.083 38Z" fill="white"/>
<path d="M23.083 69.667L21.97 70.672L23.083 71.905L24.197 70.672L23.083 69.667ZM22.798 52.777C22.1461 52.7765 21.521 52.5172 21.0602 52.0561C20.5993 51.5951 20.3403 50.9699 20.34 50.318H17.34C17.3403 51.7656 17.9154 53.1538 18.9388 54.1774C19.9623 55.2011 21.3504 55.7765 22.798 55.777V52.777ZM20.34 50.318C20.3405 49.6663 20.5997 49.0414 21.0605 48.5805C21.5214 48.1197 22.1463 47.8605 22.798 47.86V44.86C21.3506 44.8605 19.9627 45.4357 18.9392 46.4592C17.9157 47.4827 17.3405 48.8706 17.34 50.318H20.34ZM22.798 47.86C23.4499 47.8603 24.0751 48.1193 24.5361 48.5802C24.9972 49.041 25.2565 49.6661 25.257 50.318H28.257C28.2565 48.8704 27.6811 47.4823 26.6574 46.4588C25.6338 45.4354 24.2456 44.8603 22.798 44.86V47.86ZM25.257 50.318C25.2567 50.9701 24.9976 51.5954 24.5365 52.0565C24.0754 52.5176 23.4501 52.7767 22.798 52.777V55.777C24.2457 55.7767 25.6341 55.2015 26.6578 54.1778C27.6815 53.1541 28.2567 51.7657 28.257 50.318H25.257ZM23.083 36.5C16.127 36.5 10.5 42.127 10.5 49.083H13.5C13.4989 47.8242 13.7461 46.5776 14.2273 45.4145C14.7085 44.2514 15.4144 43.1945 16.3044 42.3045C17.1945 41.4144 18.2514 40.7085 19.4145 40.2273C20.5776 39.7461 21.8242 39.4989 23.083 39.5V36.5ZM10.5 49.083C10.5 51.465 11.285 54.014 12.363 56.42C13.449 58.844 14.884 61.236 16.298 63.331C17.9971 65.8368 19.8461 68.2375 21.835 70.52L21.933 70.63L21.959 70.66L21.967 70.668L21.969 70.671C21.97 70.671 21.97 70.672 23.083 69.667L24.197 68.662L24.196 68.66L24.191 68.655L24.171 68.632C24.0266 68.4711 23.8843 68.3084 23.744 68.144C21.97 66.0761 20.3147 63.9093 18.786 61.654C17.428 59.642 16.092 57.407 15.101 55.193C14.101 52.96 13.5 50.858 13.5 49.083H10.5ZM23.083 69.667C23.4536 70.0028 23.8249 70.3378 24.197 70.672V70.671L24.2 70.668L24.207 70.66L24.234 70.63C24.3904 70.4561 24.5444 70.2801 24.696 70.102C26.5468 67.9447 28.2735 65.6841 29.868 63.331C31.282 61.236 32.718 58.845 33.804 56.42C34.881 54.014 35.667 51.465 35.667 49.083H32.667C32.667 50.858 32.067 52.96 31.066 55.193C30.074 57.407 28.739 59.642 27.382 61.653C25.7558 64.0507 23.9866 66.3482 22.084 68.533L21.997 68.632L21.976 68.655C21.9743 68.6567 21.9727 68.6583 21.971 68.66L21.97 68.661L23.083 69.667ZM35.667 49.083C35.667 42.127 30.039 36.5 23.083 36.5V39.5C28.383 39.5 32.667 43.784 32.667 49.083H35.667Z" fill="#0A083B"/>
<path d="M41.905 70.417H40.188V68.7H41.905V70.417ZM44.417 72.924H42.7V71.207H44.417V72.924ZM44.412 67.905H42.695V66.188H44.412V67.905ZM46.924 70.412H45.207V68.695H46.924V70.413V70.412ZM4.90499 42.417H3.18799V40.7H4.90499V42.417ZM7.41699 44.924H5.69999V43.207H7.41699V44.924ZM7.41199 39.905H5.69499V38.188H7.41199V39.905ZM9.92399 42.413H8.20699V40.696H9.92399V42.413Z" fill="#FFD61A" stroke="#52C4FF" stroke-width="0.376"/>
<path d="M42.5 119C46.6421 119 50 117.881 50 116.5C50 115.119 46.6421 114 42.5 114C38.3579 114 35 115.119 35 116.5C35 117.881 38.3579 119 42.5 119Z" fill="#52C4FF"/>
<path d="M81 86C86.5228 86 91 84.433 91 82.5C91 80.567 86.5228 79 81 79C75.4772 79 71 80.567 71 82.5C71 84.433 75.4772 86 81 86Z" fill="#52C4FF"/>
<path fill-rule="evenodd" clip-rule="evenodd" d="M42.798 94.277C41.7483 94.2765 40.7417 93.8592 39.9995 93.1168C39.2573 92.3744 38.8403 91.3677 38.84 90.318C38.8405 89.2684 39.2577 88.262 39.9999 87.5199C40.742 86.7777 41.7484 86.3605 42.798 86.36C43.8477 86.3603 44.8544 86.7773 45.5968 87.5195C46.3392 88.2617 46.7565 89.2683 46.757 90.318C46.7567 91.3679 46.3395 92.3747 45.5971 93.1171C44.8547 93.8595 43.8479 94.2767 42.798 94.277ZM43.083 78C41.6273 77.999 40.1856 78.2849 38.8405 78.8415C37.4954 79.3981 36.2732 80.2144 35.2438 81.2438C34.2144 82.2732 33.3981 83.4954 32.8415 84.8405C32.2849 86.1856 31.999 87.6273 32 89.083C32 97.396 43.083 109.667 43.083 109.667C43.083 109.667 54.167 97.396 54.167 89.083C54.1681 87.6272 53.8821 86.1854 53.3254 84.8402C52.7687 83.4951 51.9523 82.2728 50.9229 81.2434C49.8934 80.2141 48.6711 79.3978 47.3258 78.8412C45.9806 78.2847 44.5388 77.9988 43.083 78Z" fill="white"/>
<path d="M43.083 109.667L41.97 110.672L43.083 111.905L44.197 110.672L43.083 109.667ZM42.798 92.777C42.1461 92.7765 41.521 92.5172 41.0602 92.0561C40.5993 91.5951 40.3403 90.9699 40.34 90.318H37.34C37.3403 91.7656 37.9154 93.1538 38.9388 94.1775C39.9623 95.2011 41.3504 95.7765 42.798 95.777V92.777ZM40.34 90.318C40.3405 89.6663 40.5997 89.0414 41.0605 88.5805C41.5214 88.1197 42.1463 87.8605 42.798 87.86V84.86C41.3506 84.8605 39.9627 85.4357 38.9392 86.4592C37.9157 87.4827 37.3405 88.8706 37.34 90.318H40.34ZM42.798 87.86C43.4499 87.8603 44.0751 88.1193 44.5361 88.5802C44.9972 89.041 45.2565 89.6661 45.257 90.318H48.257C48.2565 88.8704 47.6811 87.4823 46.6575 86.4588C45.6338 85.4354 44.2456 84.8603 42.798 84.86V87.86ZM45.257 90.318C45.2567 90.9701 44.9976 91.5954 44.5365 92.0565C44.0754 92.5176 43.4501 92.7767 42.798 92.777V95.777C44.2457 95.7767 45.6341 95.2015 46.6578 94.1778C47.6815 93.1541 48.2567 91.7657 48.257 90.318H45.257ZM43.083 76.5C36.127 76.5 30.5 82.127 30.5 89.083H33.5C33.4989 87.8242 33.7461 86.5776 34.2273 85.4145C34.7085 84.2514 35.4144 83.1945 36.3045 82.3045C37.1945 81.4144 38.2514 80.7085 39.4145 80.2273C40.5776 79.7461 41.8242 79.4989 43.083 79.5V76.5ZM30.5 89.083C30.5 91.465 31.285 94.014 32.363 96.42C33.449 98.844 34.885 101.236 36.298 103.331C37.9969 105.837 39.846 108.238 41.835 110.52L41.933 110.631L41.959 110.66L41.967 110.668L41.969 110.671V110.672L43.083 109.667L44.197 108.661L44.196 108.66L44.191 108.655L44.171 108.632C44.151 108.61 44.121 108.578 44.083 108.534C43.549 107.924 43.0266 107.304 42.516 106.674C41.2005 105.055 39.956 103.38 38.786 101.653C37.428 99.642 36.092 97.407 35.101 95.193C34.101 92.96 33.5 90.858 33.5 89.083H30.5ZM43.083 109.667L44.197 110.672V110.671L44.2 110.668L44.207 110.66L44.234 110.631L44.332 110.52C44.8937 109.879 45.4431 109.227 45.98 108.565C47.3512 106.878 48.6485 105.131 49.868 103.331C51.282 101.236 52.718 98.844 53.804 96.42C54.881 94.014 55.667 91.465 55.667 89.083H52.667C52.667 90.858 52.067 92.96 51.066 95.193C50.074 97.407 48.739 99.642 47.382 101.653C45.756 104.051 43.9868 106.349 42.084 108.534L41.997 108.632L41.975 108.655L41.971 108.66L41.97 108.661L43.083 109.667ZM55.667 89.083C55.667 82.127 50.039 76.5 43.083 76.5V79.5C48.383 79.5 52.667 83.784 52.667 89.083H55.667Z" fill="#0A083B"/>
<path fill-rule="evenodd" clip-rule="evenodd" d="M121.116 93.249C120.151 93.2215 119.234 92.8188 118.561 92.1263C117.888 91.4338 117.511 90.5062 117.511 89.5405C117.511 88.5748 117.888 87.6472 118.561 86.9547C119.234 86.2622 120.151 85.8595 121.116 85.832C122.099 85.8323 123.043 86.223 123.738 86.9183C124.434 87.6136 124.824 88.5566 124.825 89.54C124.825 90.5236 124.434 91.4669 123.738 92.1624C123.043 92.8579 122.1 93.2487 121.116 93.249ZM121.383 78C120.019 77.9991 118.669 78.267 117.409 78.7885C116.148 79.31 115.003 80.0747 114.039 81.0391C113.075 82.0034 112.31 83.1484 111.788 84.4085C111.267 85.6686 110.999 87.0192 111 88.383C111 96.171 121.383 107.667 121.383 107.667C121.383 107.667 131.767 96.171 131.767 88.383C131.767 82.643 127.124 78 121.383 78Z" fill="white"/>
<path d="M121.383 107.667L120.27 108.672L121.383 109.905L122.496 108.672L121.383 107.667ZM121.116 91.749C120.53 91.7485 119.969 91.5155 119.555 91.1014C119.141 90.6872 118.908 90.1256 118.908 89.54H115.908C115.908 90.9213 116.457 92.2459 117.434 93.2227C118.41 94.1995 119.735 94.7485 121.116 94.749V91.749ZM118.908 89.54C118.909 88.9546 119.141 88.3933 119.555 87.9793C119.969 87.5653 120.531 87.3325 121.116 87.332V84.332C119.735 84.3325 118.411 84.8814 117.434 85.858C116.457 86.8345 115.909 88.1589 115.908 89.54H118.908ZM121.116 87.332C121.702 87.3323 122.263 87.565 122.677 87.9789C123.092 88.3929 123.324 88.9544 123.325 89.54H126.325C126.324 88.1587 125.775 86.8342 124.799 85.8576C123.822 84.881 122.497 84.3323 121.116 84.332V87.332ZM123.325 89.54C123.325 90.1258 123.092 90.6875 122.678 91.1017C122.263 91.5159 121.702 91.7487 121.116 91.749V94.749C122.497 94.7487 123.822 94.1999 124.799 93.223C125.776 92.2462 126.325 90.9214 126.325 89.54H123.325ZM121.383 76.5C119.822 76.499 118.277 76.8056 116.834 77.4024C115.392 77.9992 114.082 78.8745 112.978 79.9781C111.874 81.0818 110.999 82.3921 110.402 83.8343C109.806 85.2765 109.499 86.8222 109.5 88.383H112.5C112.499 87.2162 112.728 86.0607 113.174 84.9825C113.62 83.9044 114.275 82.9248 115.1 82.0997C115.925 81.2747 116.904 80.6204 117.983 80.1743C119.061 79.7282 120.216 79.4991 121.383 79.5V76.5ZM109.5 88.383C109.5 90.633 110.242 93.036 111.253 95.295C112.274 97.573 113.622 99.819 114.948 101.784C116.444 103.992 118.064 106.113 119.801 108.137L120.142 108.529L120.235 108.633L120.26 108.661L120.267 108.669L120.269 108.671L120.27 108.672L121.383 107.667L122.497 106.661C122.497 106.661 122.497 106.662 122.497 106.661H122.496L122.492 106.656L122.472 106.634C122.445 106.604 122.418 106.574 122.391 106.543C121.892 105.973 121.403 105.393 120.926 104.804C119.695 103.289 118.53 101.722 117.435 100.106C116.166 98.225 114.917 96.136 113.991 94.068C113.056 91.981 112.5 90.027 112.5 88.383H109.5ZM121.383 107.667L122.497 108.672L122.498 108.671L122.5 108.669C124.413 106.486 126.189 104.187 127.818 101.784C129.145 99.819 130.492 97.574 131.513 95.295C132.525 93.036 133.267 90.634 133.267 88.383H130.267C130.267 90.027 129.71 91.982 128.775 94.068C127.849 96.136 126.601 98.225 125.332 100.106C123.811 102.349 122.156 104.499 120.376 106.543L120.295 106.634L120.275 106.656L120.271 106.661H120.27C120.27 106.662 120.27 106.661 120.27 106.661L121.383 107.667ZM133.267 88.383C133.267 81.814 127.952 76.5 121.383 76.5V79.5C122.55 79.499 123.706 79.728 124.784 80.174C125.862 80.62 126.842 81.2743 127.667 82.0994C128.492 82.9244 129.146 83.9041 129.593 84.9823C130.039 86.0605 130.268 87.2161 130.267 88.383H133.267Z" fill="#0A083B"/>
<path fill-rule="evenodd" clip-rule="evenodd" d="M132.162 42.333C130.98 42.3325 129.846 41.8625 129.01 41.0263C128.174 40.1902 127.704 39.0563 127.704 37.874C127.734 36.7116 128.217 35.6069 129.05 34.7953C129.883 33.9838 131 33.5297 132.163 33.5297C133.325 33.5297 134.442 33.9838 135.275 34.7953C136.108 35.6069 136.591 36.7116 136.621 37.874C136.621 39.0565 136.151 40.1905 135.315 41.0267C134.479 41.8629 133.345 42.3327 132.162 42.333ZM132.483 24C125.582 24 120 29.582 120 36.483C120 45.846 132.483 59.667 132.483 59.667C132.483 59.667 144.967 45.846 144.967 36.483C144.967 29.582 139.385 24 132.483 24Z" fill="white"/>
<path d="M132.483 59.667L131.37 60.672L132.483 61.905L133.596 60.672L132.483 59.667ZM132.162 40.833C131.377 40.8325 130.625 40.5205 130.071 39.9657C129.516 39.4108 129.204 38.6585 129.204 37.874H126.204C126.204 39.4542 126.832 40.9696 127.949 42.087C129.067 43.2044 130.582 43.8325 132.162 43.833V40.833ZM129.204 37.874C129.205 37.0897 129.516 36.3376 130.071 35.783C130.626 35.2283 131.378 34.9165 132.162 34.916V31.916C130.582 31.9165 129.067 32.5444 127.95 33.6616C126.832 34.7789 126.205 36.294 126.204 37.874H129.204ZM132.162 34.916C132.947 34.9163 133.699 35.228 134.254 35.7826C134.809 36.3373 135.12 37.0895 135.121 37.874H138.121C138.12 36.2938 137.492 34.7785 136.375 33.6613C135.258 32.544 133.742 31.9163 132.162 31.916V34.916ZM135.121 37.874C135.121 38.6587 134.809 39.4112 134.254 39.966C133.699 40.5209 132.947 40.8327 132.162 40.833V43.833C133.742 43.8327 135.258 43.2048 136.375 42.0874C137.493 40.9699 138.121 39.4543 138.121 37.874H135.121ZM132.483 22.5C124.753 22.5 118.5 28.753 118.5 36.483H121.5C121.5 30.41 126.41 25.5 132.483 25.5V22.5ZM118.5 36.483C118.5 39.128 119.373 41.971 120.582 44.669C121.799 47.387 123.409 50.07 124.998 52.425C126.79 55.0693 128.731 57.6097 130.811 60.034C130.985 60.237 131.124 60.394 131.219 60.502L131.329 60.626C131.342 60.6395 131.355 60.6535 131.367 60.668L131.369 60.671H131.37L132.483 59.667L133.597 58.661H133.596L133.59 58.654C133.582 58.6449 133.574 58.6359 133.566 58.627L133.467 58.517C132.864 57.8283 132.274 57.1281 131.698 56.417C130.212 54.5889 128.807 52.6971 127.485 50.747C125.953 48.477 124.442 45.949 123.319 43.442C122.188 40.916 121.5 38.52 121.5 36.483H118.5ZM132.483 59.667C132.853 60.0031 133.225 60.3381 133.597 60.672L133.598 60.671L133.6 60.668L133.608 60.659L133.638 60.626L133.748 60.502C134.378 59.7814 134.996 59.0493 135.599 58.306C137.14 56.4098 138.597 54.4476 139.968 52.425C141.557 50.07 143.167 47.387 144.385 44.669C145.594 41.971 146.467 39.128 146.467 36.483H143.467C143.467 38.521 142.779 40.916 141.647 43.443C140.524 45.949 139.014 48.476 137.482 50.747C135.755 53.2932 133.886 55.7398 131.883 58.075C131.717 58.269 131.587 58.417 131.499 58.516L131.401 58.627C131.391 58.6379 131.381 58.6489 131.371 58.66L131.37 58.661L132.483 59.667ZM146.467 36.483C146.467 28.753 140.213 22.5 132.483 22.5V25.5C138.556 25.5 143.467 30.41 143.467 36.483H146.467Z" fill="#0A083B"/>
<path d="M137.905 85.417H136.188V83.7H137.905V85.417ZM140.417 87.924H138.7V86.207H140.417V87.924ZM140.412 82.905H138.695V81.188H140.412V82.905ZM142.924 85.412H141.207V83.695H142.924V85.413V85.412Z" fill="#FFD61A" stroke="#52C4FF" stroke-width="0.376"/>
<path fill-rule="evenodd" clip-rule="evenodd" d="M58.705 35.123L61.591 32.107L58.568 29.232L55.682 32.248L58.705 35.123Z" fill="#52C4FF"/>
<path fill-rule="evenodd" clip-rule="evenodd" d="M53.298 27.74C53.446 27.52 53.809 27.202 53.884 26.826C54.323 24.637 54.777 24.186 56.985 23.649C57.315 23.569 57.72 23.054 57.746 22.713C57.766 22.451 57.267 21.923 56.966 21.897C55.016 21.727 53.92 20.758 53.693 18.795C53.633 18.273 53.259 17.885 52.738 18.031C52.398 18.127 51.922 18.526 51.896 18.823C51.718 20.833 50.653 21.855 48.681 22.101C48.406 22.135 47.979 22.661 48.001 22.93C48.027 23.258 48.438 23.568 48.715 23.855C48.783 23.926 48.977 23.874 49.112 23.886C50.692 24.027 51.765 25.033 51.994 26.618C52.084 27.243 52.274 27.736 53.298 27.741V27.74Z" fill="#FF8030"/>
<path fill-rule="evenodd" clip-rule="evenodd" d="M80.311 52.586C77.011 52.586 74.332 49.907 74.332 46.606C74.332 43.306 77.011 40.628 80.312 40.628C83.612 40.628 86.29 43.306 86.29 46.607C86.29 49.907 83.612 52.586 80.311 52.586ZM80.741 28C71.487 28 64 35.486 64 44.742C64 57.298 80.742 75.833 80.742 75.833C80.742 75.833 97.483 57.298 97.483 44.742C97.483 35.486 89.997 28 80.742 28H80.741Z" fill="white"/>
<path d="M80.742 75.833L79.628 76.839L80.742 78.071L81.855 76.839L80.742 75.833ZM80.312 51.086C79.1239 51.0857 77.9846 50.6136 77.1445 49.7735C76.3043 48.9334 75.8323 47.7941 75.832 46.606H72.832C72.832 50.736 76.182 54.086 80.312 54.086V51.086ZM75.832 46.606C75.8328 45.4183 76.3051 44.2794 77.1452 43.4397C77.9852 42.6001 79.1243 42.1283 80.312 42.128V39.128C78.3284 39.1283 76.4262 39.9163 75.0235 41.3188C73.6208 42.7213 72.8325 44.6234 72.832 46.607H75.832V46.606ZM80.312 42.128C81.4996 42.1288 82.6383 42.601 83.4779 43.4408C84.3175 44.2806 84.7895 45.4194 84.79 46.607H87.79C87.79 42.477 84.44 39.127 80.311 39.127V42.127L80.312 42.128ZM84.79 46.607C84.7895 47.7947 84.3174 48.9337 83.4775 49.7735C82.6377 50.6134 81.4987 51.0855 80.311 51.086V54.086C84.441 54.086 87.791 50.736 87.791 46.606H84.791L84.79 46.607ZM80.742 26.5C70.657 26.5 62.5 34.657 62.5 44.742H65.5C65.5 36.314 72.314 29.5 80.742 29.5V26.5ZM62.5 44.742C62.5 48.184 63.639 51.921 65.247 55.51C66.864 59.12 69.007 62.691 71.127 65.835C73.5191 69.3644 76.1096 72.7552 78.886 75.991C79.1306 76.2751 79.3776 76.5571 79.627 76.837L79.628 76.838L80.742 75.833C81.1127 75.4976 81.4837 75.1626 81.855 74.828L81.853 74.826L81.845 74.817L81.812 74.78C81.5915 74.5335 81.3739 74.2844 81.159 74.033C78.4597 70.8862 75.941 67.5889 73.615 64.157C71.55 61.097 69.507 57.681 67.985 54.284C66.454 50.866 65.5 47.577 65.5 44.742H62.5ZM80.742 75.833C81.1121 76.169 81.4831 76.504 81.855 76.838H81.856L81.859 76.834C81.8624 76.83 81.8657 76.826 81.869 76.822L81.909 76.779L82.054 76.615C82.8947 75.654 83.7175 74.6775 84.522 73.686C86.5794 71.1547 88.5259 68.5352 90.356 65.835C92.477 62.691 94.62 59.119 96.236 55.51C97.844 51.92 98.983 48.184 98.983 44.742H95.983C95.983 47.577 95.03 50.866 93.499 54.284C91.976 57.682 89.933 61.097 87.869 64.157C85.543 67.5889 83.0243 70.8862 80.325 74.033C80.109 74.2837 79.8909 74.5327 79.671 74.78L79.638 74.817L79.63 74.826L79.629 74.828L80.742 75.833ZM98.983 44.742C98.983 34.658 90.826 26.5 80.742 26.5V29.5C89.169 29.5 95.983 36.314 95.983 44.742H98.983Z" fill="#0A083B"/>
</svg>
