<svg width="20" height="20" viewBox="0 0 20 20" fill="none" xmlns="http://www.w3.org/2000/svg">
<path d="M18.7167 4.99967C18.075 5.29134 17.3834 5.48301 16.6667 5.57467C17.4 5.13301 17.9667 4.43301 18.2334 3.59134C17.5417 4.00801 16.775 4.29967 15.9667 4.46634C15.3084 3.74967 14.3834 3.33301 13.3334 3.33301C11.375 3.33301 9.77504 4.93301 9.77504 6.90801C9.77504 7.19134 9.80837 7.46634 9.8667 7.72467C6.90004 7.57467 4.25837 6.14967 2.50004 3.99134C2.1917 4.51634 2.0167 5.13301 2.0167 5.78301C2.0167 7.02467 2.6417 8.12467 3.60837 8.74967C3.0167 8.74967 2.4667 8.58301 1.98337 8.33301C1.98337 8.33301 1.98337 8.33301 1.98337 8.35801C1.98337 10.0913 3.2167 11.5413 4.85004 11.8663C4.55004 11.9497 4.23337 11.9913 3.90837 11.9913C3.68337 11.9913 3.45837 11.9663 3.2417 11.9247C3.6917 13.333 5.00004 14.383 6.57504 14.408C5.35837 15.3747 3.8167 15.9413 2.13337 15.9413C1.85004 15.9413 1.5667 15.9247 1.28337 15.8913C2.8667 16.908 4.75004 17.4997 6.7667 17.4997C13.3334 17.4997 16.9417 12.0497 16.9417 7.32467C16.9417 7.16634 16.9417 7.01634 16.9334 6.85801C17.6334 6.35801 18.2334 5.72467 18.7167 4.99967Z" fill="#999999"/>
</svg>
