<svg width="20" height="20" viewBox="0 0 20 20" fill="none" xmlns="http://www.w3.org/2000/svg">
<path d="M8.33334 12.4998L12.6583 9.99984L8.33334 7.49984V12.4998ZM17.9667 5.97484C18.075 6.3665 18.15 6.8915 18.2 7.55817C18.2583 8.22484 18.2833 8.79984 18.2833 9.29984L18.3333 9.99984C18.3333 11.8248 18.2 13.1665 17.9667 14.0248C17.7583 14.7748 17.275 15.2582 16.525 15.4665C16.1333 15.5748 15.4167 15.6498 14.3167 15.6998C13.2333 15.7582 12.2417 15.7832 11.325 15.7832L10 15.8332C6.50834 15.8332 4.33334 15.6998 3.47501 15.4665C2.72501 15.2582 2.24167 14.7748 2.03334 14.0248C1.92501 13.6332 1.85001 13.1082 1.80001 12.4415C1.74167 11.7748 1.71667 11.1998 1.71667 10.6998L1.66667 9.99984C1.66667 8.17484 1.80001 6.83317 2.03334 5.97484C2.24167 5.22484 2.72501 4.7415 3.47501 4.53317C3.86667 4.42484 4.58334 4.34984 5.68334 4.29984C6.76667 4.2415 7.75834 4.2165 8.67501 4.2165L10 4.1665C13.4917 4.1665 15.6667 4.29984 16.525 4.53317C17.275 4.7415 17.7583 5.22484 17.9667 5.97484Z" fill="#999999"/>
</svg>
